<svg width="256" height="256" viewBox="0 0 256 256" fill="none" xmlns="http://www.w3.org/2000/svg">
<mask id="mask0_553_4034" style="mask-type:luminance" maskUnits="userSpaceOnUse" x="0" y="0" width="256" height="256">
<path d="M256 0H0V256H256V0Z" fill="white"/>
</mask>
<g mask="url(#mask0_553_4034)">
<path fill-rule="evenodd" clip-rule="evenodd" d="M104.425 42.3784C100.056 37.0733 93.5437 34 86.6712 34H29C22.3726 34 17 39.3726 17 46V58.1371V68.2V160C17 166.627 22.3726 172 29 172H229C235.627 172 241 166.627 241 160V70.1371C241 63.5097 235.627 58.1371 229 58.1371H117.404L104.425 42.3784Z" fill="#E6E6E6" fill-opacity="0.33"/>
<mask id="mask1_553_4034" style="mask-type:alpha" maskUnits="userSpaceOnUse" x="17" y="34" width="224" height="138">
<path fill-rule="evenodd" clip-rule="evenodd" d="M104.425 42.3784C100.056 37.0733 93.5437 34 86.6712 34H29C22.3726 34 17 39.3726 17 46V58.1371V68.2V160C17 166.627 22.3726 172 29 172H229C235.627 172 241 166.627 241 160V70.1371C241 63.5097 235.627 58.1371 229 58.1371H117.404L104.425 42.3784Z" fill="url(#paint0_linear_553_4034)"/>
</mask>
<g mask="url(#mask1_553_4034)">
<g style="mix-blend-mode:multiply" filter="url(#filter0_f_553_4034)">
<path fill-rule="evenodd" clip-rule="evenodd" d="M92.789 74C97.7642 74 102.605 72.3868 106.586 69.4024L116.459 62H229C235.627 62 241 67.3726 241 74V108V160C241 166.627 235.627 172 229 172H29C22.3726 172 17 166.627 17 160V108V86C17 79.3726 22.3726 74 29 74H87H92.789Z" fill="black" fill-opacity="0.3"/>
</g>
</g>
<g filter="url(#filter1_dd_553_4034)">
<path fill-rule="evenodd" clip-rule="evenodd" d="M92.789 74C97.7642 74 102.605 72.3868 106.586 69.4024L116.459 62H229C235.627 62 241 67.3726 241 74V108V198C241 204.627 235.627 210 229 210H29C22.3726 210 17 204.627 17 198V108V86C17 79.3726 22.3726 74 29 74H87H92.789Z" fill="url(#paint1_linear_553_4034)"/>
<path d="M113.424 121.344C116.197 122.325 117.584 124.587 117.584 128.128V135.552C117.584 141.184 114.939 144 109.648 144H93.2V102.592H109.136C114.427 102.592 117.072 105.408 117.072 111.04V114.816C117.072 118.229 115.856 120.405 113.424 121.344ZM106.896 108.672H102.16V119.744H106.896C107.237 119.744 107.515 119.616 107.728 119.36C107.984 119.104 108.112 118.805 108.112 118.464V109.952C108.112 109.611 107.984 109.312 107.728 109.056C107.515 108.8 107.237 108.672 106.896 108.672ZM108.624 136.576V127.296C108.624 126.955 108.496 126.656 108.24 126.4C108.027 126.144 107.749 126.016 107.408 126.016H102.16V137.856H107.408C107.749 137.856 108.027 137.728 108.24 137.472C108.496 137.216 108.624 136.917 108.624 136.576ZM132.66 102.592V144H123.7V102.592H132.66ZM163.069 144H154.109V109.632C154.109 109.291 153.981 108.992 153.725 108.736C153.512 108.48 153.234 108.352 152.893 108.352H149.437C149.096 108.352 148.797 108.48 148.541 108.736C148.328 108.992 148.221 109.291 148.221 109.632V144H139.261V110.4C139.261 104.768 141.906 101.952 147.197 101.952H155.133C160.424 101.952 163.069 104.768 163.069 110.4V144Z" fill="white"/>
</g>
</g>
<defs>
<filter id="filter0_f_553_4034" x="-20" y="25" width="298" height="184" filterUnits="userSpaceOnUse" color-interpolation-filters="sRGB">
<feFlood flood-opacity="0" result="BackgroundImageFix"/>
<feBlend mode="normal" in="SourceGraphic" in2="BackgroundImageFix" result="shape"/>
<feGaussianBlur stdDeviation="18.5" result="effect1_foregroundBlur_553_4034"/>
</filter>
<filter id="filter1_dd_553_4034" x="17" y="58" width="224" height="156" filterUnits="userSpaceOnUse" color-interpolation-filters="sRGB">
<feFlood flood-opacity="0" result="BackgroundImageFix"/>
<feColorMatrix in="SourceAlpha" type="matrix" values="0 0 0 0 0 0 0 0 0 0 0 0 0 0 0 0 0 0 127 0" result="hardAlpha"/>
<feOffset dy="-4"/>
<feComposite in2="hardAlpha" operator="out"/>
<feColorMatrix type="matrix" values="0 0 0 0 0 0 0 0 0 0 0 0 0 0 0 0 0 0 0.25 0"/>
<feBlend mode="normal" in2="BackgroundImageFix" result="effect1_dropShadow_553_4034"/>
<feColorMatrix in="SourceAlpha" type="matrix" values="0 0 0 0 0 0 0 0 0 0 0 0 0 0 0 0 0 0 127 0" result="hardAlpha"/>
<feOffset dy="4"/>
<feComposite in2="hardAlpha" operator="out"/>
<feColorMatrix type="matrix" values="0 0 0 0 1 0 0 0 0 1 0 0 0 0 1 0 0 0 0.25 0"/>
<feBlend mode="normal" in2="effect1_dropShadow_553_4034" result="effect2_dropShadow_553_4034"/>
<feBlend mode="normal" in="SourceGraphic" in2="effect2_dropShadow_553_4034" result="shape"/>
</filter>
<linearGradient id="paint0_linear_553_4034" x1="17" y1="34" x2="197.768" y2="215.142" gradientUnits="userSpaceOnUse">
<stop stop-color="#05815D"/>
<stop offset="1" stop-color="#0C575F"/>
</linearGradient>
<linearGradient id="paint1_linear_553_4034" x1="17" y1="62" x2="241" y2="210" gradientUnits="userSpaceOnUse">
<stop stop-color="#978D95" stop-opacity="0.33"/>
<stop offset="1" stop-color="#524F4F" stop-opacity="0.33"/>
</linearGradient>
</defs>
</svg>
