<svg width="256" height="256" viewBox="0 0 256 256" fill="none" xmlns="http://www.w3.org/2000/svg">
<mask id="mask0_553_4052" style="mask-type:luminance" maskUnits="userSpaceOnUse" x="0" y="0" width="256" height="256">
<path d="M256 0H0V256H256V0Z" fill="white"/>
</mask>
<g mask="url(#mask0_553_4052)">
<path fill-rule="evenodd" clip-rule="evenodd" d="M104.425 42.3784C100.056 37.0733 93.5437 34 86.6712 34H29C22.3726 34 17 39.3726 17 46V58.1371V68.2V160C17 166.627 22.3726 172 29 172H229C235.627 172 241 166.627 241 160V70.1371C241 63.5097 235.627 58.1371 229 58.1371H117.404L104.425 42.3784Z" fill="#E6E6E6"/>
<mask id="mask1_553_4052" style="mask-type:alpha" maskUnits="userSpaceOnUse" x="17" y="34" width="224" height="138">
<path fill-rule="evenodd" clip-rule="evenodd" d="M104.425 42.3784C100.056 37.0733 93.5437 34 86.6712 34H29C22.3726 34 17 39.3726 17 46V58.1371V68.2V160C17 166.627 22.3726 172 29 172H229C235.627 172 241 166.627 241 160V70.1371C241 63.5097 235.627 58.1371 229 58.1371H117.404L104.425 42.3784Z" fill="url(#paint0_linear_553_4052)"/>
</mask>
<g mask="url(#mask1_553_4052)">
<g style="mix-blend-mode:multiply" filter="url(#filter0_f_553_4052)">
<path fill-rule="evenodd" clip-rule="evenodd" d="M92.789 74C97.7642 74 102.605 72.3868 106.586 69.4024L116.459 62H229C235.627 62 241 67.3726 241 74V108V160C241 166.627 235.627 172 229 172H29C22.3726 172 17 166.627 17 160V108V86C17 79.3726 22.3726 74 29 74H87H92.789Z" fill="black" fill-opacity="0.3"/>
</g>
</g>
<g filter="url(#filter1_dd_553_4052)">
<path fill-rule="evenodd" clip-rule="evenodd" d="M92.789 74C97.7642 74 102.605 72.3868 106.586 69.4024L116.459 62H229C235.627 62 241 67.3726 241 74V108V198C241 204.627 235.627 210 229 210H29C22.3726 210 17 204.627 17 198V108V86C17 79.3726 22.3726 74 29 74H87H92.789Z" fill="url(#paint1_linear_553_4052)"/>
</g>
<path d="M105.136 134.016C109.296 135.488 111.376 138.88 111.376 144.192V155.328C111.376 163.776 107.408 168 99.472 168H74.8V105.888H98.704C106.64 105.888 110.608 110.112 110.608 118.56V124.224C110.608 129.344 108.784 132.608 105.136 134.016ZM95.344 115.008H88.24V131.616H95.344C95.856 131.616 96.272 131.424 96.592 131.04C96.976 130.656 97.168 130.208 97.168 129.696V116.928C97.168 116.416 96.976 115.968 96.592 115.584C96.272 115.2 95.856 115.008 95.344 115.008ZM97.936 156.864V142.944C97.936 142.432 97.744 141.984 97.36 141.6C97.04 141.216 96.624 141.024 96.112 141.024H88.24V158.784H96.112C96.624 158.784 97.04 158.592 97.36 158.208C97.744 157.824 97.936 157.376 97.936 156.864ZM133.99 105.888V168H120.55V105.888H133.99ZM179.604 168H166.164V116.448C166.164 115.936 165.972 115.488 165.588 115.104C165.268 114.72 164.852 114.528 164.34 114.528H159.156C158.644 114.528 158.196 114.72 157.812 115.104C157.492 115.488 157.332 115.936 157.332 116.448V168H143.892V117.6C143.892 109.152 147.86 104.928 155.796 104.928H167.7C175.636 104.928 179.604 109.152 179.604 117.6V168Z" fill="white"/>
</g>
<defs>
<filter id="filter0_f_553_4052" x="-20" y="25" width="298" height="184" filterUnits="userSpaceOnUse" color-interpolation-filters="sRGB">
<feFlood flood-opacity="0" result="BackgroundImageFix"/>
<feBlend mode="normal" in="SourceGraphic" in2="BackgroundImageFix" result="shape"/>
<feGaussianBlur stdDeviation="18.5" result="effect1_foregroundBlur_553_4052"/>
</filter>
<filter id="filter1_dd_553_4052" x="17" y="58" width="224" height="156" filterUnits="userSpaceOnUse" color-interpolation-filters="sRGB">
<feFlood flood-opacity="0" result="BackgroundImageFix"/>
<feColorMatrix in="SourceAlpha" type="matrix" values="0 0 0 0 0 0 0 0 0 0 0 0 0 0 0 0 0 0 127 0" result="hardAlpha"/>
<feOffset dy="-4"/>
<feComposite in2="hardAlpha" operator="out"/>
<feColorMatrix type="matrix" values="0 0 0 0 0 0 0 0 0 0 0 0 0 0 0 0 0 0 0.25 0"/>
<feBlend mode="normal" in2="BackgroundImageFix" result="effect1_dropShadow_553_4052"/>
<feColorMatrix in="SourceAlpha" type="matrix" values="0 0 0 0 0 0 0 0 0 0 0 0 0 0 0 0 0 0 127 0" result="hardAlpha"/>
<feOffset dy="4"/>
<feComposite in2="hardAlpha" operator="out"/>
<feColorMatrix type="matrix" values="0 0 0 0 1 0 0 0 0 1 0 0 0 0 1 0 0 0 0.25 0"/>
<feBlend mode="normal" in2="effect1_dropShadow_553_4052" result="effect2_dropShadow_553_4052"/>
<feBlend mode="normal" in="SourceGraphic" in2="effect2_dropShadow_553_4052" result="shape"/>
</filter>
<linearGradient id="paint0_linear_553_4052" x1="17" y1="34" x2="197.768" y2="215.142" gradientUnits="userSpaceOnUse">
<stop stop-color="#05815D"/>
<stop offset="1" stop-color="#0C575F"/>
</linearGradient>
<linearGradient id="paint1_linear_553_4052" x1="17" y1="62" x2="241" y2="210" gradientUnits="userSpaceOnUse">
<stop stop-color="#978D95"/>
<stop offset="1" stop-color="#524F4F"/>
</linearGradient>
</defs>
</svg>
