<svg width="224" height="180" viewBox="0 0 224 180" fill="none" xmlns="http://www.w3.org/2000/svg">
<path fill-rule="evenodd" clip-rule="evenodd" d="M87.425 8.3784C83.056 3.0733 76.5437 0 69.6712 0H12C5.3726 0 0 5.3726 0 12V24.1371V34.2V126C0 132.627 5.3726 138 12 138H212C218.627 138 224 132.627 224 126V36.1371C224 29.5097 218.627 24.1371 212 24.1371H100.404L87.425 8.3784Z" fill="#9E2828"/>
<mask id="mask0_24_658" style="mask-type:alpha" maskUnits="userSpaceOnUse" x="0" y="0" width="224" height="138">
<path fill-rule="evenodd" clip-rule="evenodd" d="M87.425 8.3784C83.056 3.0733 76.5437 0 69.6712 0H12C5.3726 0 0 5.3726 0 12V24.1371V34.2V126C0 132.627 5.3726 138 12 138H212C218.627 138 224 132.627 224 126V36.1371C224 29.5097 218.627 24.1371 212 24.1371H100.404L87.425 8.3784Z" fill="url(#paint0_linear_24_658)"/>
</mask>
<g mask="url(#mask0_24_658)">
<g style="mix-blend-mode:multiply" filter="url(#filter0_f_24_658)">
<path fill-rule="evenodd" clip-rule="evenodd" d="M75.789 40C80.7642 40 85.605 38.3868 89.586 35.4024L99.459 28H212C218.627 28 224 33.3726 224 40V74V126C224 132.627 218.627 138 212 138H12C5.3726 138 0 132.627 0 126V74V52C0 45.3726 5.3726 40 12 40H70H75.789Z" fill="black" fill-opacity="0.3"/>
</g>
</g>
<g filter="url(#filter1_dd_24_658)">
<path fill-rule="evenodd" clip-rule="evenodd" d="M75.789 40C80.7642 40 85.605 38.3868 89.586 35.4024L99.459 28H212C218.627 28 224 33.3726 224 40V74V164C224 170.627 218.627 176 212 176H12C5.3726 176 0 170.627 0 164V74V52C0 45.3726 5.3726 40 12 40H70H75.789Z" fill="url(#paint1_linear_24_658)"/>
</g>
<path d="M110.802 102.5C122.814 102.5 132.552 92.7622 132.552 80.75C132.552 68.7378 122.814 59 110.802 59C98.7898 59 89.052 68.7378 89.052 80.75C89.052 92.7622 98.7898 102.5 110.802 102.5Z" fill="white" fill-opacity="0.44"/>
<path d="M76 118.014C76 113.377 79.7589 109.618 84.396 109.618H137.204C141.841 109.618 145.6 113.377 145.6 118.014C145.6 133.47 133.07 146 117.614 146H103.986C88.53 146 76 133.47 76 118.014Z" fill="white" fill-opacity="0.44"/>
<defs>
<filter id="filter0_f_24_658" x="-37" y="-9" width="298" height="184" filterUnits="userSpaceOnUse" color-interpolation-filters="sRGB">
<feFlood flood-opacity="0" result="BackgroundImageFix"/>
<feBlend mode="normal" in="SourceGraphic" in2="BackgroundImageFix" result="shape"/>
<feGaussianBlur stdDeviation="18.5" result="effect1_foregroundBlur_24_658"/>
</filter>
<filter id="filter1_dd_24_658" x="0" y="24" width="224" height="156" filterUnits="userSpaceOnUse" color-interpolation-filters="sRGB">
<feFlood flood-opacity="0" result="BackgroundImageFix"/>
<feColorMatrix in="SourceAlpha" type="matrix" values="0 0 0 0 0 0 0 0 0 0 0 0 0 0 0 0 0 0 127 0" result="hardAlpha"/>
<feOffset dy="-4"/>
<feComposite in2="hardAlpha" operator="out"/>
<feColorMatrix type="matrix" values="0 0 0 0 0 0 0 0 0 0 0 0 0 0 0 0 0 0 0.25 0"/>
<feBlend mode="normal" in2="BackgroundImageFix" result="effect1_dropShadow_24_658"/>
<feColorMatrix in="SourceAlpha" type="matrix" values="0 0 0 0 0 0 0 0 0 0 0 0 0 0 0 0 0 0 127 0" result="hardAlpha"/>
<feOffset dy="4"/>
<feComposite in2="hardAlpha" operator="out"/>
<feColorMatrix type="matrix" values="0 0 0 0 1 0 0 0 0 1 0 0 0 0 1 0 0 0 0.25 0"/>
<feBlend mode="normal" in2="effect1_dropShadow_24_658" result="effect2_dropShadow_24_658"/>
<feBlend mode="normal" in="SourceGraphic" in2="effect2_dropShadow_24_658" result="shape"/>
</filter>
<linearGradient id="paint0_linear_24_658" x1="0" y1="0" x2="180.768" y2="181.142" gradientUnits="userSpaceOnUse">
<stop stop-color="#05815D"/>
<stop offset="1" stop-color="#0C575F"/>
</linearGradient>
<linearGradient id="paint1_linear_24_658" x1="0" y1="28" x2="224" y2="176" gradientUnits="userSpaceOnUse">
<stop stop-color="#D41919"/>
<stop offset="1" stop-color="#D24343"/>
</linearGradient>
</defs>
</svg>
