<svg width="256" height="256" viewBox="0 0 256 256" fill="none" xmlns="http://www.w3.org/2000/svg">
<path d="M29 34C22.373 34 17 39.372 17 46V58.1367V68.2012V160C17 166.627 22.373 172 29 172H229C235.627 172 241 166.627 241 160V70.1367C241 63.5088 235.627 58.1367 229 58.1367H117.404L104.426 42.3789C100.057 37.0739 93.5448 34 86.6719 34H29Z" fill="#FCBC19"/>
<path d="M116.459 62L106.586 69.4023C102.605 72.3873 97.7641 74 92.7891 74H87H29C22.372 74 17 79.372 17 86V108V198C17 204.627 22.372 210 29 210H229C235.627 210 241 204.627 241 198V108V74C241 67.373 235.627 62 229 62H116.459ZM93 99.998H127.131V134.115H93V99.998ZM130.869 99.998H165V134.115H130.869V99.998ZM93 137.867H127.131V172H93V137.867ZM130.869 137.867H165V172H130.869V137.867Z" fill="url(#paint0_linear_18_27)"/>
<path d="M229 206H29C22.372 206 17 200.628 17 194V198C17 204.627 22.372 210 29 210H229C235.627 210 241 204.627 241 198V194C241 200.628 235.627 206 229 206Z" fill="url(#paint1_linear_18_27)"/>
<path d="M116.459 62L106.586 69.402C102.605 72.387 97.764 74 92.789 74H87H29C22.372 74 17 79.372 17 86V90C17 83.373 22.372 78 29 78H87H92.789C97.764 78 102.605 76.387 106.586 73.403L116.459 66H229C235.627 66 241 71.372 241 78V74C241 67.373 235.627 62 229 62H116.459Z" fill="url(#paint2_linear_18_27)"/>
<mask id="mask0_18_27" style="mask-type:luminance" maskUnits="userSpaceOnUse" x="17" y="34" width="224" height="138">
<path fill-rule="evenodd" clip-rule="evenodd" d="M104.425 42.378C100.056 37.073 93.544 34 86.671 34H29C22.373 34 17 39.373 17 46V58.137V68.2V160C17 166.627 22.373 172 29 172H229C235.627 172 241 166.627 241 160V70.137C241 63.51 235.627 58.137 229 58.137H117.404L104.425 42.378Z" fill="url(#paint3_linear_18_27)"/>
</mask>
<g mask="url(#mask0_18_27)">
<path d="M93 100H127.132V134.117H93V100ZM130.868 100H165V134.117H130.868V100ZM93 137.868H127.132V172H93V137.868ZM130.868 137.868H165V172H130.868" fill="black"/>
</g>
<defs>
<linearGradient id="paint0_linear_18_27" x1="17" y1="62" x2="241" y2="210" gradientUnits="userSpaceOnUse">
<stop stop-color="#FFE7A2"/>
<stop offset="0.953125" stop-color="#FFCB3D"/>
<stop offset="1" stop-color="#FFCB3D"/>
</linearGradient>
<linearGradient id="paint1_linear_18_27" x1="16.9254" y1="200.683" x2="240.943" y2="203.183" gradientUnits="userSpaceOnUse">
<stop stop-color="#FFCF4E"/>
<stop offset="1" stop-color="#FFB504"/>
</linearGradient>
<linearGradient id="paint2_linear_18_27" x1="17" y1="76" x2="241" y2="76" gradientUnits="userSpaceOnUse">
<stop stop-color="#FFECB5"/>
<stop offset="1" stop-color="#FFDE82"/>
</linearGradient>
<linearGradient id="paint3_linear_18_27" x1="93" y1="100" x2="165" y2="172" gradientUnits="userSpaceOnUse">
<stop stop-color="#0C575F"/>
<stop offset="1" stop-color="#05815D"/>
</linearGradient>
</defs>
</svg>
