<svg width="256" height="256" viewBox="0 0 256 256" fill="none" xmlns="http://www.w3.org/2000/svg">
<g clip-path="url(#clip0_18_79)">
<mask id="mask0_18_79" style="mask-type:luminance" maskUnits="userSpaceOnUse" x="0" y="0" width="256" height="256">
<path d="M256 0H0V256H256V0Z" fill="white"/>
</mask>
<g mask="url(#mask0_18_79)">
<path fill-rule="evenodd" clip-rule="evenodd" d="M104.425 42.3784C100.056 37.0733 93.5437 34 86.6712 34H29C22.3726 34 17 39.3726 17 46V58.1371V68.2V160C17 166.627 22.3726 172 29 172H229C235.627 172 241 166.627 241 160V70.1371C241 63.5097 235.627 58.1371 229 58.1371H117.404L104.425 42.3784Z" fill="#F4F4F4"/>
<mask id="mask1_18_79" style="mask-type:alpha" maskUnits="userSpaceOnUse" x="17" y="34" width="224" height="138">
<path fill-rule="evenodd" clip-rule="evenodd" d="M104.425 42.3784C100.056 37.0733 93.5437 34 86.6712 34H29C22.3726 34 17 39.3726 17 46V58.1371V68.2V160C17 166.627 22.3726 172 29 172H229C235.627 172 241 166.627 241 160V70.1371C241 63.5097 235.627 58.1371 229 58.1371H117.404L104.425 42.3784Z" fill="#74D4FE"/>
</mask>
<g mask="url(#mask1_18_79)">
<g style="mix-blend-mode:multiply" filter="url(#filter0_f_18_79)">
<path fill-rule="evenodd" clip-rule="evenodd" d="M92.789 49.0545C97.7642 49.0545 102.605 47.0307 106.586 43.2866L116.459 34H229C235.627 34 241 40.7402 241 49.0545V91.7091V156.945C241 165.259 235.627 172 229 172H29C22.3726 172 17 165.259 17 156.945V91.7091V64.1091C17 55.7947 22.3726 49.0545 29 49.0545H87H92.789Z" fill="black" fill-opacity="0.15"/>
</g>
</g>
<path fill-rule="evenodd" clip-rule="evenodd" d="M92.789 74C97.7642 74 102.605 72.3868 106.586 69.4024L116.459 62H229C235.627 62 241 67.3726 241 74V108V198C241 204.627 235.627 210 229 210H29C22.3726 210 17 204.627 17 198V108V86C17 79.3726 22.3726 74 29 74H87H92.789Z" fill="url(#paint0_linear_18_79)"/>
<path fill-rule="evenodd" clip-rule="evenodd" d="M106.59 69.4C102.61 72.38 97.77 74 92.79 74H29C22.37 74 17 79.37 17 86V90C17 83.37 22.37 78 29 78H92.79C97.77 78 102.61 76.39 106.59 73.4L116.46 66H229C235.63 66 241 71.37 241 78V74C241 67.37 235.63 62 229 62H116.46L106.59 69.4Z" fill="url(#paint1_linear_18_79)"/>
<path fill-rule="evenodd" clip-rule="evenodd" d="M17 194V198C17 204.63 22.37 210 29 210H229C235.63 210 241 204.63 241 198V194C241 200.63 235.63 206 229 206H29C22.37 206 17 200.63 17 194Z" fill="url(#paint2_linear_18_79)"/>
<path d="M92 101.692C92 100.758 92.7806 100 93.7436 100H126V133H92V101.692Z" fill="url(#paint3_linear_18_79)"/>
<path d="M92 138H126V172H93.7436C92.7806 172 92 171.22 92 170.256V138Z" fill="url(#paint4_linear_18_79)"/>
<path d="M130 100H162.256C163.22 100 164 100.758 164 101.692V133H130V100Z" fill="url(#paint5_linear_18_79)"/>
<path d="M130 138H164V170.256C164 171.22 163.22 172 162.256 172H130V138Z" fill="url(#paint6_linear_18_79)"/>
</g>
</g>
<defs>
<filter id="filter0_f_18_79" x="-20" y="-3" width="298" height="212" filterUnits="userSpaceOnUse" color-interpolation-filters="sRGB">
<feFlood flood-opacity="0" result="BackgroundImageFix"/>
<feBlend mode="normal" in="SourceGraphic" in2="BackgroundImageFix" result="shape"/>
<feGaussianBlur stdDeviation="18.5" result="effect1_foregroundBlur_18_79"/>
</filter>
<linearGradient id="paint0_linear_18_79" x1="10.0137" y1="62" x2="241" y2="210" gradientUnits="userSpaceOnUse">
<stop stop-color="#FDFDFD"/>
<stop offset="1" stop-color="#DFDFDF"/>
</linearGradient>
<linearGradient id="paint1_linear_18_79" x1="17" y1="76" x2="241" y2="76" gradientUnits="userSpaceOnUse">
<stop offset="0.0857143" stop-color="#D9F3FF"/>
<stop offset="1" stop-color="#87C0E8"/>
</linearGradient>
<linearGradient id="paint2_linear_18_79" x1="17" y1="202" x2="241" y2="202" gradientUnits="userSpaceOnUse">
<stop stop-color="#1C6598"/>
<stop offset="1" stop-color="white"/>
</linearGradient>
<linearGradient id="paint3_linear_18_79" x1="93.5454" y1="100" x2="126" y2="133" gradientUnits="userSpaceOnUse">
<stop stop-color="#86DFFF"/>
<stop offset="1" stop-color="#5DC5FC"/>
</linearGradient>
<linearGradient id="paint4_linear_18_79" x1="93.5454" y1="138" x2="126" y2="172" gradientUnits="userSpaceOnUse">
<stop stop-color="#52BFFA"/>
<stop offset="1" stop-color="#2FA4F3"/>
</linearGradient>
<linearGradient id="paint5_linear_18_79" x1="131.546" y1="100" x2="164" y2="133" gradientUnits="userSpaceOnUse">
<stop stop-color="#5EC1FA"/>
<stop offset="1" stop-color="#3CACF6"/>
</linearGradient>
<linearGradient id="paint6_linear_18_79" x1="131.546" y1="138" x2="164" y2="172" gradientUnits="userSpaceOnUse">
<stop stop-color="#3BABF7"/>
<stop offset="1" stop-color="#0A92F2"/>
</linearGradient>
<clipPath id="clip0_18_79">
<rect width="256" height="256" fill="white"/>
</clipPath>
</defs>
</svg>
