<svg width="322" height="205" viewBox="0 0 322 205" fill="none" xmlns="http://www.w3.org/2000/svg">
<path d="M91.9836 0H45.991V40.9954H91.9836V0Z" fill="#FFD800"/>
<path d="M275.977 0H229.984V40.9954H275.977V0Z" fill="#FFD800"/>
<path d="M137.976 40.9946H45.991V81.9899H137.976V40.9946Z" fill="#FFAF00"/>
<path d="M275.979 40.9946H183.994V81.9899H275.979V40.9946Z" fill="#FFAF00"/>
<path d="M275.982 81.9912H45.991V122.987H275.982V81.9912Z" fill="#FF8205"/>
<path d="M91.9836 122.986H45.991V163.981H91.9836V122.986Z" fill="#FA500F"/>
<path d="M183.979 122.986H137.987V163.981H183.979V122.986Z" fill="#FA500F"/>
<path d="M275.977 122.986H229.984V163.981H275.977V122.986Z" fill="#FA500F"/>
<path d="M138.006 164.005H0V205H138.006V164.005Z" fill="#E10500"/>
<path d="M322 164.005H183.994V205H322V164.005Z" fill="#E10500"/>
</svg>
