<svg width="513" height="270" viewBox="0 0 513 270" fill="none" xmlns="http://www.w3.org/2000/svg">
<path fill-rule="evenodd" clip-rule="evenodd" d="M458.1 107.8C433 107.8 411.9 90.6 405.9 67.4H344.1C330.9 67.4 319.7 76.9 317.5 89.9L315.3 103.2C313.3 115.4 307.1 126.6 297.8 134.8C307.1 143 313.3 154.1 315.3 166.4L317.5 179.7C319.7 192.7 330.9 202.2 344.1 202.2H352C358 179 379.1 161.8 404.2 161.8C434 161.8 458.1 185.9 458.1 215.7C458.1 245.5 434 269.6 404.2 269.6C379.1 269.6 358 252.4 352 229.2H344.1C317.8 229.2 295.3 210.2 290.9 184.2L288.7 170.9C286.5 157.9 275.3 148.4 262.1 148.4H240.7C234.7 171.6 213.6 188.8 188.5 188.8C163.4 188.8 142.3 171.6 136.3 148.4H106C100 171.6 78.9 188.8 53.8 188.8C24.1 188.6 0 164.5 0 134.7C0 104.9 24.1 80.8 53.9 80.8C79 80.8 100.1 98 106.1 121.2H136.4C142.4 98 163.5 80.8 188.6 80.8C213.7 80.8 234.8 98 240.8 121.2H262.2C275.4 121.2 286.6 111.7 288.8 98.7L291 85.4C295.3 59.4 317.8 40.4 344.2 40.4H406C412 17.2 433.1 0 458.2 0C488 0 512.1 24.1 512.1 53.9C512.1 83.7 487.9 107.8 458.1 107.8ZM458.1 80.8C473 80.8 485 68.7 485 53.9C485 39.1 472.9 27 458.1 27C443.3 27 431.2 39.1 431.2 53.9C431.2 68.7 443.2 80.8 458.1 80.8ZM53.9 161.6C68.8 161.6 80.8 149.5 80.8 134.7C80.8 119.9 68.7 107.8 53.9 107.8C39.1 107.8 26.9 119.8 26.9 134.7C26.9 149.6 39 161.6 53.9 161.6ZM215.6 134.7C215.6 149.6 203.5 161.6 188.7 161.6C173.9 161.6 161.8 149.5 161.8 134.7C161.8 119.9 173.9 107.8 188.7 107.8C203.5 107.8 215.6 119.8 215.6 134.7ZM431.2 215.5C431.2 230.4 419.1 242.4 404.3 242.4C389.4 242.4 377.4 230.3 377.4 215.5C377.4 200.7 389.5 188.6 404.3 188.6C419.1 188.6 431.2 200.7 431.2 215.5Z" fill="#EA4B71"/>
</svg>
