<svg width="256" height="256" viewBox="0 0 256 256" fill="none" xmlns="http://www.w3.org/2000/svg">
<g clip-path="url(#clip0_6_50)">
<mask id="mask0_6_50" style="mask-type:luminance" maskUnits="userSpaceOnUse" x="0" y="0" width="256" height="256">
<path d="M256 0H0V256H256V0Z" fill="white"/>
</mask>
<g mask="url(#mask0_6_50)">
<path fill-rule="evenodd" clip-rule="evenodd" d="M104.425 42.3784C100.056 37.0733 93.5437 34 86.6712 34H29C22.3726 34 17 39.3726 17 46V58.1371V68.2V160C17 166.627 22.3726 172 29 172H229C235.627 172 241 166.627 241 160V70.1371C241 63.5097 235.627 58.1371 229 58.1371H117.404L104.425 42.3784Z" fill="#E6E6E6"/>
<mask id="mask1_6_50" style="mask-type:alpha" maskUnits="userSpaceOnUse" x="17" y="34" width="224" height="138">
<path fill-rule="evenodd" clip-rule="evenodd" d="M104.425 42.3784C100.056 37.0733 93.5437 34 86.6712 34H29C22.3726 34 17 39.3726 17 46V58.1371V68.2V160C17 166.627 22.3726 172 29 172H229C235.627 172 241 166.627 241 160V70.1371C241 63.5097 235.627 58.1371 229 58.1371H117.404L104.425 42.3784Z" fill="url(#paint0_linear_6_50)"/>
</mask>
<g mask="url(#mask1_6_50)">
<g style="mix-blend-mode:multiply" filter="url(#filter0_f_6_50)">
<path fill-rule="evenodd" clip-rule="evenodd" d="M92.789 74C97.7642 74 102.605 72.3868 106.586 69.4024L116.459 62H229C235.627 62 241 67.3726 241 74V108V160C241 166.627 235.627 172 229 172H29C22.3726 172 17 166.627 17 160V108V86C17 79.3726 22.3726 74 29 74H87H92.789Z" fill="black" fill-opacity="0.3"/>
</g>
</g>
<g filter="url(#filter1_dd_6_50)">
<path fill-rule="evenodd" clip-rule="evenodd" d="M92.789 74C97.7642 74 102.605 72.3868 106.586 69.4024L116.459 62H229C235.627 62 241 67.3726 241 74V108V198C241 204.627 235.627 210 229 210H29C22.3726 210 17 204.627 17 198V108V86C17 79.3726 22.3726 74 29 74H87H92.789Z" fill="url(#paint1_linear_6_50)"/>
</g>
<path d="M44.741 161C40.4444 161 35.2888 159.485 31.8514 157.213C28.9298 155.277 28.0706 151.407 30.1328 148.545C32.1093 145.684 36.0619 144.926 38.9837 146.861C42.9363 149.472 50.4124 148.881 51.0139 143.159C51.2716 141.223 50.3263 139.203 48.7796 138.109C46.8891 136.763 44.2253 136.679 42.1632 135.752C39.671 134.827 37.3509 133.312 35.4605 131.462C31.9374 128.263 29.9611 124.141 29.7892 120.017C29.7892 117.659 30.2188 115.387 31.0782 113.115C31.9374 111.095 33.2264 109.245 34.7731 107.561C36.4057 105.963 38.2101 104.701 40.1866 103.776C42.4207 102.765 44.6549 102.175 46.975 102.007C50.1545 101.924 54.8806 102.597 58.3178 104.616C61.4113 106.468 62.3565 110.255 60.6379 113.284C58.7474 116.229 54.8806 117.154 51.8731 115.387C49.7249 114.209 46.6314 114.209 44.6549 115.724C43.538 116.566 42.7644 117.996 42.7644 119.343C42.5926 124.309 49.0373 124.392 52.3887 125.739C54.9665 126.833 57.3726 128.431 59.2631 130.537C62.1846 133.734 63.9032 137.773 63.9893 142.15C64.1609 147.114 62.2705 151.742 58.6614 155.277C55.3102 158.643 50.6701 160.663 45.8581 160.915C45.5143 160.915 45.0845 161 44.741 161Z" fill="url(#paint2_linear_6_50)"/>
<path d="M88.3749 160C85.4673 160 82.6456 159.496 80.0812 158.404C77.5169 157.313 75.208 155.8 73.2424 153.869C71.2749 151.935 69.7359 149.667 68.6244 147.231C67.5985 144.627 67 141.855 67 139C67 136.228 67.5985 133.456 68.6244 130.767C69.7359 128.331 71.2749 126.148 73.2424 124.131C75.208 122.2 77.5169 120.77 80.0812 119.681C82.6456 118.504 85.4673 118 88.3749 118C90.7696 118 93.0784 118.419 95.3854 119.176C97.6084 119.847 99.5761 120.94 101.37 122.368C104.278 124.551 104.876 128.667 102.653 131.607C101.286 133.288 99.3187 134.211 97.2672 134.211C95.8982 134.211 94.4454 133.707 93.1623 132.784C91.7953 131.692 90.1709 131.188 88.3749 131.188C83.9287 131.188 80.4245 134.715 80.4245 139C80.4245 143.368 83.9287 146.812 88.3749 146.812C90.1709 146.812 91.7953 146.308 93.1623 145.216C96.1556 143.032 100.344 143.536 102.567 146.476C104.876 149.333 104.278 153.533 101.37 155.715C97.6942 158.572 93.0784 160 88.3749 160Z" fill="url(#paint3_linear_6_50)"/>
<path d="M126.826 118.083C126.58 118 126.252 118 125.922 118C123.126 118 120.332 118.672 117.865 119.932C116.879 118.755 115.317 118.083 113.672 118.083C110.548 118.083 108 120.687 108 123.878V153.364C108 157.06 110.878 160 114.413 160C118.03 160 120.906 157.06 120.906 153.364V136.396C120.906 133.539 123.209 131.271 125.922 131.271H126.498C129.952 131.271 132.828 128.499 132.993 124.972C133.158 121.274 130.362 118.251 126.826 118.083Z" fill="url(#paint4_linear_6_50)"/>
<path d="M151.505 109.909C151.505 113.237 148.855 115.898 145.542 115.898C142.23 115.898 139.497 113.237 139.497 109.909C139.497 106.662 142.23 104 145.542 104C148.855 104 151.505 106.662 151.505 109.909ZM145.542 160C141.899 160 139 157.005 139 153.427V124.969C139 121.39 141.899 118.396 145.542 118.396C149.103 118.396 152 121.39 152 124.969V153.427C152 157.005 149.103 160 145.542 160Z" fill="url(#paint5_linear_6_50)"/>
<path d="M179 118C175.319 118 171.804 119.019 168.709 120.714C167.705 119.019 165.866 118 163.772 118C160.593 118 158 120.544 158 123.854V167.296C158 170.944 161.011 174 164.692 174C168.291 174 171.302 170.944 171.302 167.296V159.065C173.646 160.084 176.323 160.593 179 160.593C190.629 160.593 200 151.091 200 139.296C200 127.502 190.629 118 179 118ZM184.522 144.896C183.015 146.423 181.091 147.188 179 147.188C176.909 147.188 174.983 146.423 173.478 144.896C171.972 143.454 171.136 141.419 171.136 139.296C171.136 137.175 171.972 135.14 173.478 133.612C174.983 132.17 176.909 131.321 179 131.321C181.091 131.321 183.015 132.17 184.522 133.612C186.028 135.14 186.866 137.175 186.866 139.296C186.866 141.419 186.028 143.454 184.522 144.896Z" fill="url(#paint6_linear_6_50)"/>
<path d="M221.182 147.135C218.734 147.135 216.724 145.251 216.724 142.955V130.418H221.967C225.291 130.418 228 127.878 228 124.765C228 121.569 225.291 119.029 221.967 119.029H216.724V112.39C216.724 108.868 213.664 106 209.906 106C206.06 106 203 108.868 203 112.39V142.955C203 147.546 204.924 151.807 208.333 155.084C211.742 158.199 216.287 160 221.182 160C224.94 160 228 157.132 228 153.527C228 150.003 224.94 147.135 221.182 147.135Z" fill="url(#paint7_linear_6_50)"/>
</g>
</g>
<defs>
<filter id="filter0_f_6_50" x="-20" y="25" width="298" height="184" filterUnits="userSpaceOnUse" color-interpolation-filters="sRGB">
<feFlood flood-opacity="0" result="BackgroundImageFix"/>
<feBlend mode="normal" in="SourceGraphic" in2="BackgroundImageFix" result="shape"/>
<feGaussianBlur stdDeviation="18.5" result="effect1_foregroundBlur_6_50"/>
</filter>
<filter id="filter1_dd_6_50" x="17" y="58" width="224" height="156" filterUnits="userSpaceOnUse" color-interpolation-filters="sRGB">
<feFlood flood-opacity="0" result="BackgroundImageFix"/>
<feColorMatrix in="SourceAlpha" type="matrix" values="0 0 0 0 0 0 0 0 0 0 0 0 0 0 0 0 0 0 127 0" result="hardAlpha"/>
<feOffset dy="-4"/>
<feComposite in2="hardAlpha" operator="out"/>
<feColorMatrix type="matrix" values="0 0 0 0 0 0 0 0 0 0 0 0 0 0 0 0 0 0 0.25 0"/>
<feBlend mode="normal" in2="BackgroundImageFix" result="effect1_dropShadow_6_50"/>
<feColorMatrix in="SourceAlpha" type="matrix" values="0 0 0 0 0 0 0 0 0 0 0 0 0 0 0 0 0 0 127 0" result="hardAlpha"/>
<feOffset dy="4"/>
<feComposite in2="hardAlpha" operator="out"/>
<feColorMatrix type="matrix" values="0 0 0 0 1 0 0 0 0 1 0 0 0 0 1 0 0 0 0.25 0"/>
<feBlend mode="normal" in2="effect1_dropShadow_6_50" result="effect2_dropShadow_6_50"/>
<feBlend mode="normal" in="SourceGraphic" in2="effect2_dropShadow_6_50" result="shape"/>
</filter>
<linearGradient id="paint0_linear_6_50" x1="17" y1="34" x2="197.768" y2="215.142" gradientUnits="userSpaceOnUse">
<stop stop-color="#05815D"/>
<stop offset="1" stop-color="#0C575F"/>
</linearGradient>
<linearGradient id="paint1_linear_6_50" x1="17" y1="62" x2="241" y2="210" gradientUnits="userSpaceOnUse">
<stop stop-color="#5F585E"/>
<stop offset="1" stop-color="#010101"/>
</linearGradient>
<linearGradient id="paint2_linear_6_50" x1="-51.0357" y1="138.106" x2="231.723" y2="138.106" gradientUnits="userSpaceOnUse">
<stop stop-color="#E2E97A"/>
<stop offset="1" stop-color="#DE8F21"/>
</linearGradient>
<linearGradient id="paint3_linear_6_50" x1="-17.6092" y1="143.702" x2="281.307" y2="143.702" gradientUnits="userSpaceOnUse">
<stop stop-color="#E2E97A"/>
<stop offset="1" stop-color="#DE8F21"/>
</linearGradient>
<linearGradient id="paint4_linear_6_50" x1="50.8317" y1="143.702" x2="252.802" y2="143.702" gradientUnits="userSpaceOnUse">
<stop stop-color="#E2E97A"/>
<stop offset="1" stop-color="#DE8F21"/>
</linearGradient>
<linearGradient id="paint5_linear_6_50" x1="109.272" y1="138.27" x2="214.297" y2="138.27" gradientUnits="userSpaceOnUse">
<stop stop-color="#E2E97A"/>
<stop offset="1" stop-color="#DE8F21"/>
</linearGradient>
<linearGradient id="paint6_linear_6_50" x1="61.9572" y1="152.27" x2="401.268" y2="152.27" gradientUnits="userSpaceOnUse">
<stop stop-color="#E2E97A"/>
<stop offset="1" stop-color="#DE8F21"/>
</linearGradient>
<linearGradient id="paint7_linear_6_50" x1="145.832" y1="139.046" x2="347.802" y2="139.046" gradientUnits="userSpaceOnUse">
<stop stop-color="#E2E97A"/>
<stop offset="1" stop-color="#DE8F21"/>
</linearGradient>
<clipPath id="clip0_6_50">
<rect width="256" height="256" fill="white"/>
</clipPath>
</defs>
</svg>
