<svg width="256" height="256" viewBox="0 0 256 256" fill="none" xmlns="http://www.w3.org/2000/svg">
<mask id="mask0_49_1881" style="mask-type:luminance" maskUnits="userSpaceOnUse" x="0" y="0" width="256" height="256">
<path d="M256 0H0V256H256V0Z" fill="white"/>
</mask>
<g mask="url(#mask0_49_1881)">
<path fill-rule="evenodd" clip-rule="evenodd" d="M104.425 42.3784C100.056 37.0733 93.5437 34 86.6712 34H29C22.3726 34 17 39.3726 17 46V58.1371V68.2V160C17 166.627 22.3726 172 29 172H229C235.627 172 241 166.627 241 160V70.1371C241 63.5097 235.627 58.1371 229 58.1371H117.404L104.425 42.3784Z" fill="#E6E6E6"/>
<mask id="mask1_49_1881" style="mask-type:alpha" maskUnits="userSpaceOnUse" x="17" y="34" width="224" height="138">
<path fill-rule="evenodd" clip-rule="evenodd" d="M104.425 42.3784C100.056 37.0733 93.5437 34 86.6712 34H29C22.3726 34 17 39.3726 17 46V58.1371V68.2V160C17 166.627 22.3726 172 29 172H229C235.627 172 241 166.627 241 160V70.1371C241 63.5097 235.627 58.1371 229 58.1371H117.404L104.425 42.3784Z" fill="url(#paint0_linear_49_1881)"/>
</mask>
<g mask="url(#mask1_49_1881)">
<g style="mix-blend-mode:multiply" filter="url(#filter0_f_49_1881)">
<path fill-rule="evenodd" clip-rule="evenodd" d="M92.789 74C97.7642 74 102.605 72.3868 106.586 69.4024L116.459 62H229C235.627 62 241 67.3726 241 74V108V160C241 166.627 235.627 172 229 172H29C22.3726 172 17 166.627 17 160V108V86C17 79.3726 22.3726 74 29 74H87H92.789Z" fill="black" fill-opacity="0.3"/>
</g>
</g>
<g filter="url(#filter1_dd_49_1881)">
<path fill-rule="evenodd" clip-rule="evenodd" d="M92.789 74C97.7642 74 102.605 72.3868 106.586 69.4024L116.459 62H229C235.627 62 241 67.3726 241 74V108V198C241 204.627 235.627 210 229 210H29C22.3726 210 17 204.627 17 198V108V86C17 79.3726 22.3726 74 29 74H87H92.789Z" fill="url(#paint1_linear_49_1881)"/>
</g>
<path d="M63.143 157C59.8285 157 55.8513 155.819 53.1996 154.047C50.9459 152.538 50.2831 149.521 51.8739 147.289C53.3986 145.059 56.4478 144.467 58.7017 145.976C61.7509 148.012 67.5181 147.552 67.9821 143.09C68.1809 141.581 67.4517 140.006 66.2586 139.153C64.8002 138.103 62.7452 138.038 61.1544 137.315C59.2319 136.594 57.4422 135.413 55.9838 133.97C53.266 131.476 51.7414 128.262 51.6088 125.047C51.6088 123.209 51.9402 121.438 52.6032 119.666C53.266 118.091 54.2604 116.648 55.4536 115.336C56.713 114.089 58.105 113.106 59.6297 112.384C61.3531 111.597 63.0766 111.137 64.8664 111.005C67.3192 110.94 70.9651 111.465 73.6166 113.039C76.003 114.483 76.7322 117.436 75.4064 119.797C73.948 122.094 70.9651 122.815 68.6449 121.438C66.9877 120.519 64.6014 120.519 63.0766 121.7C62.215 122.356 61.6183 123.472 61.6183 124.522C61.4857 128.393 66.4574 128.458 69.0427 129.508C71.0313 130.361 72.8874 131.607 74.3458 133.249C76.5996 135.742 77.9253 138.891 77.9917 142.304C78.1242 146.174 76.6658 149.782 73.8816 152.538C71.2965 155.162 67.7169 156.737 64.0048 156.934C63.7396 156.934 63.4081 157 63.143 157Z" fill="url(#paint2_linear_49_1881)"/>
<path d="M96.7533 156C94.4744 156 92.2628 155.604 90.2529 154.746C88.243 153.889 86.4333 152.7 84.8927 151.183C83.3506 149.663 82.1444 147.881 81.2732 145.967C80.4691 143.921 80 141.743 80 139.5C80 137.322 80.4691 135.144 81.2732 133.031C82.1444 131.117 83.3506 129.402 84.8927 127.817C86.4333 126.3 88.243 125.177 90.2529 124.32C92.2628 123.396 94.4744 123 96.7533 123C98.6302 123 100.44 123.329 102.248 123.924C103.99 124.451 105.533 125.31 106.939 126.432C109.218 128.147 109.687 131.381 107.944 133.691C106.873 135.012 105.331 135.737 103.723 135.737C102.65 135.737 101.511 135.341 100.506 134.616C99.4341 133.758 98.161 133.362 96.7533 133.362C93.2685 133.362 90.5219 136.134 90.5219 139.5C90.5219 142.932 93.2685 145.638 96.7533 145.638C98.161 145.638 99.4341 145.242 100.506 144.384C102.852 142.668 106.135 143.064 107.877 145.374C109.687 147.619 109.218 150.918 106.939 152.634C104.058 154.878 100.44 156 96.7533 156Z" fill="url(#paint3_linear_49_1881)"/>
<path d="M126.308 123.065C126.121 123 125.872 123 125.621 123C123.496 123 121.373 123.528 119.497 124.518C118.748 123.593 117.561 123.065 116.311 123.065C113.937 123.065 112 125.111 112 127.619V150.786C112 153.69 114.187 156 116.874 156C119.623 156 121.809 153.69 121.809 150.786V137.454C121.809 135.209 123.559 133.427 125.621 133.427H126.058C128.683 133.427 130.869 131.249 130.995 128.478C131.12 125.573 128.995 123.197 126.308 123.065Z" fill="url(#paint4_linear_49_1881)"/>
<path d="M145.619 117.537C145.619 120.092 143.581 122.136 141.033 122.136C138.484 122.136 136.382 120.092 136.382 117.537C136.382 115.044 138.484 113 141.033 113C143.581 113 145.619 115.044 145.619 117.537ZM141.033 156C138.23 156 136 153.7 136 150.953V129.101C136 126.353 138.23 124.054 141.033 124.054C143.771 124.054 146 126.353 146 129.101V150.953C146 153.7 143.771 156 141.033 156Z" fill="url(#paint5_linear_49_1881)"/>
<path d="M167 123C164.195 123 161.517 123.8 159.159 125.133C158.394 123.8 156.993 123 155.398 123C152.976 123 151 124.999 151 127.599V161.732C151 164.599 153.294 167 156.099 167C158.841 167 161.135 164.599 161.135 161.732V155.266C162.92 156.066 164.96 156.466 167 156.466C175.86 156.466 183 149 183 139.732C183 130.466 175.86 123 167 123ZM171.208 144.132C170.059 145.333 168.593 145.934 167 145.934C165.407 145.934 163.94 145.333 162.792 144.132C161.645 142.999 161.009 141.4 161.009 139.732C161.009 138.066 161.645 136.467 162.792 135.266C163.94 134.133 165.407 133.466 167 133.466C168.593 133.466 170.059 134.133 171.208 135.266C172.355 136.467 172.993 138.066 172.993 139.732C172.993 141.4 172.355 142.999 171.208 144.132Z" fill="url(#paint6_linear_49_1881)"/>
<path d="M199.818 145.994C197.958 145.994 196.43 144.528 196.43 142.743V132.992H200.415C202.941 132.992 205 131.016 205 128.595C205 126.109 202.941 124.134 200.415 124.134H196.43V118.97C196.43 116.231 194.105 114 191.248 114C188.326 114 186 116.231 186 118.97V142.743C186 146.313 187.462 149.627 190.053 152.176C192.644 154.599 196.098 156 199.818 156C202.674 156 205 153.769 205 150.965C205 148.225 202.674 145.994 199.818 145.994Z" fill="url(#paint7_linear_49_1881)"/>
<path d="M210.112 201.189L231.676 181.47C227.196 164.77 209.407 154.703 191.942 158.986C184.077 160.915 177.246 165.577 172.782 172.063C173.116 172.054 210.112 201.189 210.112 201.189Z" fill="#0364B8"/>
<path d="M186.835 175.775L186.834 175.779C182.713 173.338 177.962 172.049 173.115 172.055C173.003 172.055 172.893 172.061 172.782 172.063C158.365 172.234 146.823 183.547 147.002 197.332C147.067 202.333 148.701 207.199 151.692 211.302L183.997 207.432L208.764 188.336L186.835 175.775Z" fill="#0078D4"/>
<path d="M231.676 181.471C231.201 181.44 230.725 181.419 230.243 181.419C227.351 181.416 224.488 181.981 221.832 183.079L221.832 183.077L208.765 188.335L223.171 205.351L248.925 211.338C254.482 201.472 250.623 189.166 240.305 183.851C237.639 182.478 234.697 181.666 231.676 181.471Z" fill="#1490DF"/>
<path d="M151.692 211.301C156.57 218.008 164.573 222.004 173.116 222H230.243C238.047 222.002 245.222 217.907 248.924 211.338L208.765 188.335L151.692 211.301Z" fill="#28A8EA"/>
</g>
<defs>
<filter id="filter0_f_49_1881" x="-20" y="25" width="298" height="184" filterUnits="userSpaceOnUse" color-interpolation-filters="sRGB">
<feFlood flood-opacity="0" result="BackgroundImageFix"/>
<feBlend mode="normal" in="SourceGraphic" in2="BackgroundImageFix" result="shape"/>
<feGaussianBlur stdDeviation="18.5" result="effect1_foregroundBlur_49_1881"/>
</filter>
<filter id="filter1_dd_49_1881" x="17" y="58" width="224" height="156" filterUnits="userSpaceOnUse" color-interpolation-filters="sRGB">
<feFlood flood-opacity="0" result="BackgroundImageFix"/>
<feColorMatrix in="SourceAlpha" type="matrix" values="0 0 0 0 0 0 0 0 0 0 0 0 0 0 0 0 0 0 127 0" result="hardAlpha"/>
<feOffset dy="-4"/>
<feComposite in2="hardAlpha" operator="out"/>
<feColorMatrix type="matrix" values="0 0 0 0 0 0 0 0 0 0 0 0 0 0 0 0 0 0 0.25 0"/>
<feBlend mode="normal" in2="BackgroundImageFix" result="effect1_dropShadow_49_1881"/>
<feColorMatrix in="SourceAlpha" type="matrix" values="0 0 0 0 0 0 0 0 0 0 0 0 0 0 0 0 0 0 127 0" result="hardAlpha"/>
<feOffset dy="4"/>
<feComposite in2="hardAlpha" operator="out"/>
<feColorMatrix type="matrix" values="0 0 0 0 1 0 0 0 0 1 0 0 0 0 1 0 0 0 0.25 0"/>
<feBlend mode="normal" in2="effect1_dropShadow_49_1881" result="effect2_dropShadow_49_1881"/>
<feBlend mode="normal" in="SourceGraphic" in2="effect2_dropShadow_49_1881" result="shape"/>
</filter>
<linearGradient id="paint0_linear_49_1881" x1="17" y1="34" x2="197.768" y2="215.142" gradientUnits="userSpaceOnUse">
<stop stop-color="#05815D"/>
<stop offset="1" stop-color="#0C575F"/>
</linearGradient>
<linearGradient id="paint1_linear_49_1881" x1="17" y1="62" x2="241" y2="210" gradientUnits="userSpaceOnUse">
<stop stop-color="#5F585E"/>
<stop offset="1" stop-color="#010101"/>
</linearGradient>
<linearGradient id="paint2_linear_49_1881" x1="-10.7418" y1="139.15" x2="207.387" y2="139.15" gradientUnits="userSpaceOnUse">
<stop stop-color="#E2E97A"/>
<stop offset="1" stop-color="#DE3721"/>
</linearGradient>
<linearGradient id="paint3_linear_49_1881" x1="13.6847" y1="143.195" x2="247.971" y2="143.195" gradientUnits="userSpaceOnUse">
<stop stop-color="#E2E97A"/>
<stop offset="1" stop-color="#DE3721"/>
</linearGradient>
<linearGradient id="paint4_linear_49_1881" x1="68.5521" y1="143.195" x2="222.05" y2="143.195" gradientUnits="userSpaceOnUse">
<stop stop-color="#E2E97A"/>
<stop offset="1" stop-color="#DE3721"/>
</linearGradient>
<linearGradient id="paint5_linear_49_1881" x1="113.133" y1="139.314" x2="193.921" y2="139.314" gradientUnits="userSpaceOnUse">
<stop stop-color="#E2E97A"/>
<stop offset="1" stop-color="#DE3721"/>
</linearGradient>
<linearGradient id="paint6_linear_49_1881" x1="77.8245" y1="149.926" x2="336.347" y2="149.926" gradientUnits="userSpaceOnUse">
<stop stop-color="#E2E97A"/>
<stop offset="1" stop-color="#DE3721"/>
</linearGradient>
<linearGradient id="paint7_linear_49_1881" x1="142.552" y1="139.702" x2="296.05" y2="139.702" gradientUnits="userSpaceOnUse">
<stop stop-color="#E2E97A"/>
<stop offset="1" stop-color="#DE3721"/>
</linearGradient>
</defs>
</svg>
