<svg width="256" height="256" viewBox="0 0 256 256" fill="none" xmlns="http://www.w3.org/2000/svg">
<mask id="mask0_49_2794" style="mask-type:luminance" maskUnits="userSpaceOnUse" x="0" y="0" width="256" height="256">
<path d="M256 0H0V256H256V0Z" fill="white"/>
</mask>
<g mask="url(#mask0_49_2794)">
<path fill-rule="evenodd" clip-rule="evenodd" d="M104.425 42.3784C100.056 37.0733 93.5437 34 86.6712 34H29C22.3726 34 17 39.3726 17 46V58.1371V68.2V160C17 166.627 22.3726 172 29 172H229C235.627 172 241 166.627 241 160V70.1371C241 63.5097 235.627 58.1371 229 58.1371H117.404L104.425 42.3784Z" fill="#0C5687"/>
<mask id="mask1_49_2794" style="mask-type:alpha" maskUnits="userSpaceOnUse" x="17" y="34" width="224" height="138">
<path fill-rule="evenodd" clip-rule="evenodd" d="M104.425 42.3784C100.056 37.0733 93.5437 34 86.6712 34H29C22.3726 34 17 39.3726 17 46V58.1371V68.2V160C17 166.627 22.3726 172 29 172H229C235.627 172 241 166.627 241 160V70.1371C241 63.5097 235.627 58.1371 229 58.1371H117.404L104.425 42.3784Z" fill="url(#paint0_linear_49_2794)"/>
</mask>
<g mask="url(#mask1_49_2794)">
<g style="mix-blend-mode:multiply" filter="url(#filter0_f_49_2794)">
<path fill-rule="evenodd" clip-rule="evenodd" d="M92.789 74C97.7642 74 102.605 72.3868 106.586 69.4024L116.459 62H229C235.627 62 241 67.3726 241 74V108V160C241 166.627 235.627 172 229 172H29C22.3726 172 17 166.627 17 160V108V86C17 79.3726 22.3726 74 29 74H87H92.789Z" fill="black" fill-opacity="0.3"/>
</g>
</g>
<g filter="url(#filter1_dd_49_2794)">
<path fill-rule="evenodd" clip-rule="evenodd" d="M92.789 74C97.7642 74 102.605 72.3868 106.586 69.4024L116.459 62H229C235.627 62 241 67.3726 241 74V108V198C241 204.627 235.627 210 229 210H29C22.3726 210 17 204.627 17 198V108V86C17 79.3726 22.3726 74 29 74H87H92.789Z" fill="url(#paint1_linear_49_2794)"/>
</g>
<mask id="mask2_49_2794" style="mask-type:alpha" maskUnits="userSpaceOnUse" x="82" y="90" width="94" height="93">
<path fill-rule="evenodd" clip-rule="evenodd" d="M148.26 181.726C149.713 182.291 151.369 182.255 152.836 181.55L171.825 172.412C173.821 171.452 175.09 169.432 175.09 167.217V105.259C175.09 103.043 173.821 101.024 171.825 100.064L152.836 90.9259C150.911 90 148.659 90.2268 146.97 91.4546C146.729 91.63 146.499 91.8258 146.284 92.0416L109.93 125.208L94.0952 113.188C92.6211 112.069 90.5593 112.16 89.1902 113.406L84.1114 118.026C82.4368 119.549 82.4349 122.184 84.1073 123.709L97.8398 136.238L84.1073 148.766C82.4349 150.292 82.4368 152.927 84.1114 154.45L89.1902 159.07C90.5593 160.315 92.6211 160.407 94.0952 159.288L109.93 147.268L146.284 180.434C146.859 181.009 147.534 181.443 148.26 181.726ZM152.045 115.299L124.461 136.238L152.045 157.176V115.299Z" fill="white"/>
</mask>
<g mask="url(#mask2_49_2794)">
<path d="M171.826 100.078L152.821 90.9275C150.621 89.8684 147.992 90.3152 146.266 92.0415L84.0519 148.766C82.3785 150.292 82.3804 152.926 84.0561 154.45L89.1379 159.07C90.5078 160.315 92.5709 160.407 94.0458 159.288L168.966 102.452C171.479 100.545 175.09 102.338 175.09 105.493V105.272C175.09 103.057 173.821 101.039 171.826 100.078Z" fill="#9DB2ED"/>
<g filter="url(#filter2_d_49_2794)">
<path d="M171.826 172.397L152.821 181.548C150.621 182.607 147.992 182.16 146.266 180.434L84.0519 123.709C82.3785 122.183 82.3804 119.549 84.0561 118.026L89.1379 113.406C90.5078 112.16 92.5709 112.069 94.0458 113.188L168.966 170.024C171.479 171.93 175.09 170.138 175.09 166.983V167.203C175.09 169.418 173.821 171.437 171.826 172.397Z" fill="#C0DFF0"/>
</g>
<g filter="url(#filter3_d_49_2794)">
<path d="M152.822 181.55C150.621 182.608 147.992 182.16 146.266 180.434C148.393 182.561 152.031 181.054 152.031 178.046V94.4293C152.031 91.4209 148.393 89.9142 146.266 92.0415C147.992 90.315 150.621 89.8676 152.822 90.9258L171.823 100.064C173.82 101.024 175.089 103.043 175.089 105.259V167.217C175.089 169.432 173.82 171.452 171.823 172.412L152.822 181.55Z" fill="#D4E6F7"/>
</g>
<g style="mix-blend-mode:overlay" opacity="0.25">
<path fill-rule="evenodd" clip-rule="evenodd" d="M148.204 181.725C149.657 182.291 151.313 182.255 152.779 181.55L171.769 172.412C173.764 171.452 175.033 169.432 175.033 167.217V105.259C175.033 103.043 173.765 101.024 171.769 100.064L152.779 90.9258C150.855 89.9999 148.603 90.2267 146.914 91.4545C146.673 91.6299 146.443 91.8258 146.227 92.0416L109.874 125.208L94.039 113.188C92.565 112.069 90.5031 112.16 89.1341 113.406L84.0553 118.026C82.3807 119.549 82.3788 122.184 84.0511 123.709L97.7837 136.238L84.0511 148.766C82.3788 150.292 82.3807 152.926 84.0553 154.45L89.1341 159.07C90.5031 160.315 92.565 160.407 94.039 159.288L109.874 147.268L146.227 180.434C146.803 181.009 147.478 181.443 148.204 181.725ZM151.989 115.299L124.405 136.238L151.989 157.176V115.299Z" fill="url(#paint2_linear_49_2794)"/>
</g>
</g>
</g>
<path d="M209.112 206.189L230.676 186.47C226.196 169.77 208.407 159.703 190.942 163.986C183.077 165.915 176.246 170.577 171.782 177.063C172.116 177.054 209.112 206.189 209.112 206.189Z" fill="#0364B8"/>
<path d="M185.835 180.775L185.834 180.779C181.713 178.339 176.962 177.049 172.115 177.055C172.003 177.055 171.893 177.061 171.782 177.063C157.365 177.234 145.823 188.548 146.002 202.333C146.067 207.333 147.701 212.2 150.692 216.302L182.997 212.433L207.764 193.336L185.835 180.775Z" fill="#0078D4"/>
<path d="M230.676 186.471C230.201 186.44 229.725 186.419 229.243 186.419C226.351 186.416 223.488 186.981 220.832 188.079L220.832 188.077L207.765 193.335L222.171 210.351L247.925 216.338C253.482 206.472 249.623 194.165 239.305 188.851C236.639 187.478 233.697 186.666 230.676 186.471Z" fill="#1490DF"/>
<path d="M150.692 216.301C155.57 223.008 163.573 227.004 172.116 227H229.243C237.047 227.002 244.222 222.907 247.924 216.338L207.765 193.335L150.692 216.301Z" fill="#28A8EA"/>
<defs>
<filter id="filter0_f_49_2794" x="-20" y="25" width="298" height="184" filterUnits="userSpaceOnUse" color-interpolation-filters="sRGB">
<feFlood flood-opacity="0" result="BackgroundImageFix"/>
<feBlend mode="normal" in="SourceGraphic" in2="BackgroundImageFix" result="shape"/>
<feGaussianBlur stdDeviation="18.5" result="effect1_foregroundBlur_49_2794"/>
</filter>
<filter id="filter1_dd_49_2794" x="17" y="58" width="224" height="156" filterUnits="userSpaceOnUse" color-interpolation-filters="sRGB">
<feFlood flood-opacity="0" result="BackgroundImageFix"/>
<feColorMatrix in="SourceAlpha" type="matrix" values="0 0 0 0 0 0 0 0 0 0 0 0 0 0 0 0 0 0 127 0" result="hardAlpha"/>
<feOffset dy="4"/>
<feComposite in2="hardAlpha" operator="out"/>
<feColorMatrix type="matrix" values="0 0 0 0 1 0 0 0 0 1 0 0 0 0 1 0 0 0 0.25 0"/>
<feBlend mode="normal" in2="BackgroundImageFix" result="effect1_dropShadow_49_2794"/>
<feColorMatrix in="SourceAlpha" type="matrix" values="0 0 0 0 0 0 0 0 0 0 0 0 0 0 0 0 0 0 127 0" result="hardAlpha"/>
<feOffset dy="-4"/>
<feComposite in2="hardAlpha" operator="out"/>
<feColorMatrix type="matrix" values="0 0 0 0 0 0 0 0 0 0 0 0 0 0 0 0 0 0 0.9 0"/>
<feBlend mode="soft-light" in2="effect1_dropShadow_49_2794" result="effect2_dropShadow_49_2794"/>
<feBlend mode="normal" in="SourceGraphic" in2="effect2_dropShadow_49_2794" result="shape"/>
</filter>
<filter id="filter2_d_49_2794" x="75.1118" y="104.72" width="107.664" height="85.0831" filterUnits="userSpaceOnUse" color-interpolation-filters="sRGB">
<feFlood flood-opacity="0" result="BackgroundImageFix"/>
<feColorMatrix in="SourceAlpha" type="matrix" values="0 0 0 0 0 0 0 0 0 0 0 0 0 0 0 0 0 0 127 0" result="hardAlpha"/>
<feOffset/>
<feGaussianBlur stdDeviation="3.84314"/>
<feColorMatrix type="matrix" values="0 0 0 0 0 0 0 0 0 0 0 0 0 0 0 0 0 0 0.25 0"/>
<feBlend mode="overlay" in2="BackgroundImageFix" result="effect1_dropShadow_49_2794"/>
<feBlend mode="normal" in="SourceGraphic" in2="effect1_dropShadow_49_2794" result="shape"/>
</filter>
<filter id="filter3_d_49_2794" x="138.58" y="82.6714" width="44.1961" height="107.133" filterUnits="userSpaceOnUse" color-interpolation-filters="sRGB">
<feFlood flood-opacity="0" result="BackgroundImageFix"/>
<feColorMatrix in="SourceAlpha" type="matrix" values="0 0 0 0 0 0 0 0 0 0 0 0 0 0 0 0 0 0 127 0" result="hardAlpha"/>
<feOffset/>
<feGaussianBlur stdDeviation="3.84314"/>
<feColorMatrix type="matrix" values="0 0 0 0 0 0 0 0 0 0 0 0 0 0 0 0 0 0 0.25 0"/>
<feBlend mode="overlay" in2="BackgroundImageFix" result="effect1_dropShadow_49_2794"/>
<feBlend mode="normal" in="SourceGraphic" in2="effect1_dropShadow_49_2794" result="shape"/>
</filter>
<linearGradient id="paint0_linear_49_2794" x1="17" y1="34" x2="197.768" y2="215.142" gradientUnits="userSpaceOnUse">
<stop stop-color="#FFE7A2"/>
<stop offset="1" stop-color="#FFCB3D"/>
</linearGradient>
<linearGradient id="paint1_linear_49_2794" x1="17" y1="62" x2="241" y2="210" gradientUnits="userSpaceOnUse">
<stop stop-color="#3C99D4"/>
<stop offset="0.953125" stop-color="#1070B3"/>
</linearGradient>
<linearGradient id="paint2_linear_49_2794" x1="128.916" y1="90.3578" x2="128.916" y2="182.118" gradientUnits="userSpaceOnUse">
<stop stop-color="white"/>
<stop offset="1" stop-color="white" stop-opacity="0"/>
</linearGradient>
</defs>
</svg>
