<!-- created by svgstack.com | Attribution is required. --><svg width="60" height="80" viewBox="0 0 60 80" fill="none" xmlns="http://www.w3.org/2000/svg"><g clip-path="url(#clip0_202_868)"><path d="M0 8C0 3.58172 3.58172 0 8 0H34L60 26V72C60 76.4183 56.4183 80 52 80H8C3.58172 80 0 76.4183 0 72V8Z" fill="url(#paint0_linear_202_868)" style=""/><path d="M40 26H60L34 0V20C34 23.3137 36.6863 26 40 26Z" fill="#DCE2EB" style="fill:#DCE2EB;fill:color(display-p3 0.8633 0.8868 0.9204);fill-opacity:1;"/><path d="M1 8C1 4.13401 4.13401 1 8 1H33.5858L59 26.4142V72C59 75.866 55.866 79 52 79H8C4.13401 79 1 75.866 1 72V8Z" stroke="black" stroke-opacity="0.06" style="stroke:black;stroke-opacity:0.06;" stroke-width="2"/></g><path d="M24 43.75L15 53.0742L24 61.75M36 43.75L45 53.0742L36 61.75M33 37L27.75 67" stroke="#344054" style="stroke:#344054;stroke:color(display-p3 0.2039 0.2510 0.3294);stroke-opacity:1;" stroke-width="3" stroke-linecap="round" stroke-linejoin="round"/><defs><linearGradient id="paint0_linear_202_868" x1="30" y1="0" x2="30" y2="80" gradientUnits="userSpaceOnUse"><stop stop-color="#F2F6FC" style="stop-color:#F2F6FC;stop-color:color(display-p3 0.9476 0.9643 0.9881);stop-opacity:1;"/><stop offset="1" stop-color="#EDF1F7" style="stop-color:#EDF1F7;stop-color:color(display-p3 0.9301 0.9467 0.9705);stop-opacity:1;"/></linearGradient><clipPath id="clip0_202_868"><rect width="60" height="80" fill="white" style="fill:white;fill-opacity:1;"/></clipPath></defs></svg> 