<!-- created by svgstack.com | Attribution is required. --><svg width="120" height="120" viewBox="0 0 120 120" fill="none" xmlns="http://www.w3.org/2000/svg"><path fill-rule="evenodd" clip-rule="evenodd" d="M91.2758 0.249023C108.548 0.249023 119.751 11.4523 119.751 28.7242V91.2759C119.751 108.548 108.548 119.751 91.2758 119.751H28.7241C11.4522 119.751 0.248901 108.548 0.248901 91.2759V28.7242C0.248901 11.4523 11.4522 0.249023 28.7241 0.249023H91.2758Z" fill="white"/><path fill-rule="evenodd" clip-rule="evenodd" d="M91.2758 0.249023C108.548 0.249023 119.751 11.4523 119.751 28.7242V91.2759C119.751 108.548 108.548 119.751 91.2758 119.751H28.7241C11.4522 119.751 0.248901 108.548 0.248901 91.2759V28.7242C0.248901 11.4523 11.4522 0.249023 28.7241 0.249023H91.2758Z" fill="white"/><path fill-rule="evenodd" clip-rule="evenodd" d="M8.18564 8.18564C3.27988 13.0914 0.497925 20.143 0.497925 28.7241V91.2759C0.497925 99.8569 3.27988 106.909 8.18564 111.814C13.0914 116.72 20.143 119.502 28.7241 119.502H91.2759C99.8569 119.502 106.909 116.72 111.814 111.814C116.72 106.909 119.502 99.8569 119.502 91.2759V28.7241C119.502 20.143 116.72 13.0914 111.814 8.18564C106.909 3.27988 99.8569 0.497925 91.2759 0.497925H28.7241C20.143 0.497925 13.0914 3.27988 8.18564 8.18564ZM7.83356 7.83356C12.8474 2.81971 20.0333 0 28.7241 0H91.2759C99.9667 0 107.153 2.81971 112.166 7.83356C117.18 12.8474 120 20.0333 120 28.7241V91.2759C120 99.9667 117.18 107.153 112.166 112.166C107.153 117.18 99.9667 120 91.2759 120H28.7241C20.0333 120 12.8474 117.18 7.83356 112.166C2.81971 107.153 0 99.9667 0 91.2759V28.7241C0 20.0333 2.81971 12.8474 7.83356 7.83356Z" fill="#A4A4A4"/><g filter="url(#filter0_dd_2_2015)"><path fill-rule="evenodd" clip-rule="evenodd" d="M31.1249 16.1826C28.9291 16.1826 27.137 17.9705 27.137 20.1758V99.8241C27.137 102.027 28.9224 103.817 31.1249 103.817H88.8751C91.071 103.817 92.8631 102.03 92.8631 99.8241V37.522L71.533 16.1826H31.1249Z" fill="url(#paint0_linear_2_2015)"/></g><mask id="mask0_2_2015" style="mask-type:alpha" maskUnits="userSpaceOnUse" x="27" y="16" width="66" height="88"><path fill-rule="evenodd" clip-rule="evenodd" d="M31.1249 16.1826C28.9291 16.1826 27.137 17.9705 27.137 20.1758V99.8241C27.137 102.027 28.9224 103.817 31.1249 103.817H88.8751C91.071 103.817 92.8631 102.03 92.8631 99.8241V37.522L71.533 16.1826H31.1249Z" fill="white"/></mask><g mask="url(#mask0_2_2015)"><path fill-rule="evenodd" clip-rule="evenodd" d="M72.5096 36.7349L92.9335 57.4458V36.7349H72.5096Z" fill="url(#paint1_linear_2_2015)" fill-opacity="0.8"/><path fill-rule="evenodd" clip-rule="evenodd" d="M72.5096 36.7349L92.9335 57.4458V36.7349H72.5096Z" fill="url(#paint2_linear_2_2015)"/><path d="M92.9228 11.1614H75.9336C73.1836 11.1614 70.9543 13.3907 70.9543 16.1406V33.1119C70.9543 35.8619 73.1836 38.0912 75.9336 38.0912H92.9228C95.6728 38.0912 97.9021 35.8619 97.9021 33.1119V16.1406C97.9021 13.3907 95.6728 11.1614 92.9228 11.1614Z" fill="#A6C5FA"/><path fill-rule="evenodd" clip-rule="evenodd" d="M44.0664 56.0166H75.9336V59.0042H44.0664V56.0166ZM44.0664 62.9876H75.9336V65.9751H44.0664V62.9876ZM44.0664 69.9585H75.9336V72.9461H44.0664V69.9585ZM44.0664 76.9295H63.9834V79.917H44.0664V76.9295Z" fill="white"/></g><defs><filter id="filter0_dd_2_2015" x="27.137" y="15.1826" width="65.7262" height="89.6348" filterUnits="userSpaceOnUse" color-interpolation-filters="sRGB"><feFlood flood-opacity="0" result="BackgroundImageFix"/><feColorMatrix in="SourceAlpha" type="matrix" values="0 0 0 0 0 0 0 0 0 0 0 0 0 0 0 0 0 0 127 0" result="hardAlpha"/><feOffset dy="-1"/><feComposite in2="hardAlpha" operator="out"/><feColorMatrix type="matrix" values="0 0 0 0 0.223529 0 0 0 0 0.454902 0 0 0 0 0.835294 0 0 0 1 0"/><feBlend mode="normal" in2="BackgroundImageFix" result="effect1_dropShadow_2_2015"/><feColorMatrix in="SourceAlpha" type="matrix" values="0 0 0 0 0 0 0 0 0 0 0 0 0 0 0 0 0 0 127 0" result="hardAlpha"/><feOffset dy="1"/><feComposite in2="hardAlpha" operator="out"/><feColorMatrix type="matrix" values="0 0 0 0 0.423529 0 0 0 0 0.631373 0 0 0 0 0.968627 0 0 0 1 0"/><feBlend mode="normal" in2="effect1_dropShadow_2_2015" result="effect2_dropShadow_2_2015"/><feBlend mode="normal" in="SourceGraphic" in2="effect2_dropShadow_2_2015" result="shape"/></filter><linearGradient id="paint0_linear_2_2015" x1="27.137" y1="16.1826" x2="27.137" y2="103.817" gradientUnits="userSpaceOnUse"><stop stop-color="#518FF5"/><stop offset="1" stop-color="#4385F4"/></linearGradient><linearGradient id="paint1_linear_2_2015" x1="72.5096" y1="36.7349" x2="72.5096" y2="57.4458" gradientUnits="userSpaceOnUse"><stop stop-color="#3664B2"/><stop offset="1" stop-color="#4788F4" stop-opacity="0.01"/></linearGradient><linearGradient id="paint2_linear_2_2015" x1="80.2659" y1="37.6392" x2="80.2659" y2="42.6195" gradientUnits="userSpaceOnUse"><stop stop-color="#345FA7"/><stop offset="1" stop-color="#2B70E3" stop-opacity="0.01"/></linearGradient></defs></svg> 