<!-- created by svgstack.com | Attribution is required. --><svg width="120" height="120" viewBox="0 0 120 120" fill="none" xmlns="http://www.w3.org/2000/svg"><path fill-rule="evenodd" clip-rule="evenodd" d="M91.2759 0.249023C108.548 0.249023 119.751 11.4523 119.751 28.7242V91.2759C119.751 108.548 108.548 119.751 91.2759 119.751H28.7241C11.4523 119.751 0.248962 108.548 0.248962 91.2759V28.7242C0.248962 11.4523 11.4523 0.249023 28.7241 0.249023H91.2759Z" fill="white"/><path fill-rule="evenodd" clip-rule="evenodd" d="M8.18564 8.18564C3.27988 13.0914 0.497925 20.143 0.497925 28.7241V91.2759C0.497925 99.8569 3.27988 106.909 8.18564 111.814C13.0914 116.72 20.143 119.502 28.7241 119.502H91.2759C99.8569 119.502 106.909 116.72 111.814 111.814C116.72 106.909 119.502 99.8569 119.502 91.2759V28.7241C119.502 20.143 116.72 13.0914 111.814 8.18564C106.909 3.27988 99.8569 0.497925 91.2759 0.497925H28.7241C20.143 0.497925 13.0914 3.27988 8.18564 8.18564ZM7.83356 7.83356C12.8474 2.81971 20.0333 0 28.7241 0H91.2759C99.9667 0 107.153 2.81971 112.166 7.83356C117.18 12.8474 120 20.0333 120 28.7241V91.2759C120 99.9667 117.18 107.153 112.166 112.166C107.153 117.18 99.9667 120 91.2759 120H28.7241C20.0333 120 12.8474 117.18 7.83356 112.166C2.81971 107.153 0 99.9667 0 91.2759V28.7241C0 20.0333 2.81971 12.8474 7.83356 7.83356Z" fill="#A4A4A4"/><g filter="url(#filter0_dd_2_2588)"><path fill-rule="evenodd" clip-rule="evenodd" d="M22.1577 28.128C22.1577 24.8307 24.8292 22.1576 28.1281 22.1576H91.8719C95.1693 22.1576 97.8423 24.8291 97.8423 28.128V91.8718C97.8423 95.1692 95.1709 97.8422 91.8719 97.8422H28.1281C24.8307 97.8422 22.1577 95.1708 22.1577 91.8718V28.128ZM97.8423 76.4314V91.8718C97.8423 95.1692 95.1709 97.8422 91.8719 97.8422H76.4315L97.8423 76.4314Z" fill="#F4B709"/></g><mask id="mask0_2_2588" style="mask-type:alpha" maskUnits="userSpaceOnUse" x="22" y="22" width="76" height="76"><path fill-rule="evenodd" clip-rule="evenodd" d="M22.1577 28.128C22.1577 24.8307 24.8292 22.1576 28.1281 22.1576H91.8719C95.1693 22.1576 97.8423 24.8291 97.8423 28.128V91.8718C97.8423 95.1692 95.1709 97.8422 91.8719 97.8422H28.1281C24.8307 97.8422 22.1577 95.1708 22.1577 91.8718V28.128ZM97.8423 76.4314V91.8718C97.8423 95.1692 95.1709 97.8422 91.8719 97.8422H76.4315L97.8423 76.4314Z" fill="white"/></mask><g mask="url(#mask0_2_2588)"><path opacity="0.451318" fill-rule="evenodd" clip-rule="evenodd" d="M65.4772 36.5973L56.5145 36.0994L50.5394 39.5848L46.556 44.0662L44.0664 50.0413V56.0164L45.5602 60.4977L50.5394 65.477L53.029 68.9624V74.9375L51.0373 81.9085L70.9544 100.83C70.9544 100.83 103.32 102.323 103.32 101.826C103.32 101.328 100.332 66.4728 100.332 66.4728L72.9461 39.5848L65.4772 36.5973Z" fill="url(#paint0_linear_2_2588)"/><g filter="url(#filter1_d_2_2588)"><path d="M98.8382 75.9336H81.9087C78.6088 75.9336 75.9336 78.6087 75.9336 81.9087V99.834C75.9336 103.134 78.6088 105.809 81.9087 105.809H98.8382C102.138 105.809 104.813 103.134 104.813 99.834V81.9087C104.813 78.6087 102.138 75.9336 98.8382 75.9336Z" fill="#FADA80"/></g></g><path fill-rule="evenodd" clip-rule="evenodd" d="M60 34.1079C50.1002 34.1079 42.0747 42.1334 42.0747 52.0332C42.0747 58.2762 45.1496 63.6181 50.9801 66.9909V79.917V81.9087H52.9718H67.9668H69.9585V79.917V66.9909C75.4586 63.8094 77.9253 58.5059 77.9253 52.0332C77.9253 42.1334 69.8999 34.1079 60 34.1079ZM73.9419 52.0332C73.9419 44.3333 67.6999 38.0913 60 38.0913C52.3001 38.0913 46.0581 44.3333 46.0581 52.0332C46.0581 57.9788 49.7799 63.0552 55.0208 65.0596V69.9585H65.9751V64.9793C70.6854 62.7417 73.9419 57.5948 73.9419 52.0332ZM55.0208 81.9087H65.9751V85.8921H55.0208V81.9087ZM55.0208 73.9419H65.9751V77.9253H55.0208V73.9419Z" fill="#F1F1F1"/><g filter="url(#filter2_d_2_2588)"><path fill-rule="evenodd" clip-rule="evenodd" d="M55.0208 73.9419H65.9751V77.9253H55.0208V73.9419Z" fill="black" fill-opacity="0.01"/></g><g filter="url(#filter3_d_2_2588)"><path fill-rule="evenodd" clip-rule="evenodd" d="M73.9419 52.0331C73.9419 44.3332 67.6999 38.0912 60 38.0912C52.3001 38.0912 46.0581 44.3332 46.0581 52.0331C46.0581 57.9787 49.7799 63.0551 55.0207 65.0595V69.9584H65.9751V64.9792C70.6854 62.7416 73.9419 57.5947 73.9419 52.0331Z" fill="black" fill-opacity="0.01"/></g><defs><filter id="filter0_dd_2_2588" x="22.1577" y="21.1576" width="75.6846" height="77.6847" filterUnits="userSpaceOnUse" color-interpolation-filters="sRGB"><feFlood flood-opacity="0" result="BackgroundImageFix"/><feColorMatrix in="SourceAlpha" type="matrix" values="0 0 0 0 0 0 0 0 0 0 0 0 0 0 0 0 0 0 127 0" result="hardAlpha"/><feOffset dy="1"/><feComposite in2="hardAlpha" operator="out"/><feColorMatrix type="matrix" values="0 0 0 0 0.964706 0 0 0 0 0.74902 0 0 0 0 0.14902 0 0 0 1 0"/><feBlend mode="normal" in2="BackgroundImageFix" result="effect1_dropShadow_2_2588"/><feColorMatrix in="SourceAlpha" type="matrix" values="0 0 0 0 0 0 0 0 0 0 0 0 0 0 0 0 0 0 127 0" result="hardAlpha"/><feOffset dy="-1"/><feComposite in2="hardAlpha" operator="out"/><feColorMatrix type="matrix" values="0 0 0 0 0.94902 0 0 0 0 0.690196 0 0 0 0 0.0196078 0 0 0 1 0"/><feBlend mode="normal" in2="effect1_dropShadow_2_2588" result="effect2_dropShadow_2_2588"/><feBlend mode="normal" in="SourceGraphic" in2="effect2_dropShadow_2_2588" result="shape"/></filter><filter id="filter1_d_2_2588" x="75.9336" y="75.9336" width="28.8797" height="30.8755" filterUnits="userSpaceOnUse" color-interpolation-filters="sRGB"><feFlood flood-opacity="0" result="BackgroundImageFix"/><feColorMatrix in="SourceAlpha" type="matrix" values="0 0 0 0 0 0 0 0 0 0 0 0 0 0 0 0 0 0 127 0" result="hardAlpha"/><feOffset dy="1"/><feComposite in2="hardAlpha" operator="out"/><feColorMatrix type="matrix" values="0 0 0 0 0.980392 0 0 0 0 0.870588 0 0 0 0 0.552941 0 0 0 1 0"/><feBlend mode="normal" in2="BackgroundImageFix" result="effect1_dropShadow_2_2588"/><feBlend mode="normal" in="SourceGraphic" in2="effect1_dropShadow_2_2588" result="shape"/></filter><filter id="filter2_d_2_2588" x="51.0208" y="69.9419" width="18.9544" height="11.9834" filterUnits="userSpaceOnUse" color-interpolation-filters="sRGB"><feFlood flood-opacity="0" result="BackgroundImageFix"/><feColorMatrix in="SourceAlpha" type="matrix" values="0 0 0 0 0 0 0 0 0 0 0 0 0 0 0 0 0 0 127 0" result="hardAlpha"/><feOffset/><feGaussianBlur stdDeviation="2"/><feComposite in2="hardAlpha" operator="out"/><feColorMatrix type="matrix" values="0 0 0 0 0.0509804 0 0 0 0 0.0352941 0 0 0 0 0 0 0 0 0.1 0"/><feBlend mode="normal" in2="BackgroundImageFix" result="effect1_dropShadow_2_2588"/><feBlend mode="normal" in="SourceGraphic" in2="effect1_dropShadow_2_2588" result="shape"/></filter><filter id="filter3_d_2_2588" x="42.0581" y="34.0912" width="35.8838" height="39.8672" filterUnits="userSpaceOnUse" color-interpolation-filters="sRGB"><feFlood flood-opacity="0" result="BackgroundImageFix"/><feColorMatrix in="SourceAlpha" type="matrix" values="0 0 0 0 0 0 0 0 0 0 0 0 0 0 0 0 0 0 127 0" result="hardAlpha"/><feOffset/><feGaussianBlur stdDeviation="2"/><feComposite in2="hardAlpha" operator="out"/><feColorMatrix type="matrix" values="0 0 0 0 0.0509804 0 0 0 0 0.0352941 0 0 0 0 0 0 0 0 0.1 0"/><feBlend mode="normal" in2="BackgroundImageFix" result="effect1_dropShadow_2_2588"/><feBlend mode="normal" in="SourceGraphic" in2="effect1_dropShadow_2_2588" result="shape"/></filter><linearGradient id="paint0_linear_2_2588" x1="-6.58032" y1="52.8659" x2="59.0601" y2="114.397" gradientUnits="userSpaceOnUse"><stop stop-color="#E88C0A" stop-opacity="0.807829"/><stop offset="1" stop-color="#F4B709"/></linearGradient></defs></svg> 