<!-- created by svgstack.com | Attribution is required. --><svg width="120" height="120" viewBox="0 0 120 120" fill="none" xmlns="http://www.w3.org/2000/svg"><path fill-rule="evenodd" clip-rule="evenodd" d="M91.2759 0.249023C108.548 0.249023 119.751 11.4523 119.751 28.7242V91.2759C119.751 108.548 108.548 119.751 91.2759 119.751H28.7242C11.4523 119.751 0.249023 108.548 0.249023 91.2759V28.7242C0.249023 11.4523 11.4523 0.249023 28.7242 0.249023H91.2759Z" fill="white"/><path fill-rule="evenodd" clip-rule="evenodd" d="M8.18564 8.18564C3.27988 13.0914 0.497925 20.143 0.497925 28.7241V91.2759C0.497925 99.8569 3.27988 106.909 8.18564 111.814C13.0914 116.72 20.143 119.502 28.7241 119.502H91.2759C99.8569 119.502 106.909 116.72 111.814 111.814C116.72 106.909 119.502 99.8569 119.502 91.2759V28.7241C119.502 20.143 116.72 13.0914 111.814 8.18564C106.909 3.27988 99.8569 0.497925 91.2759 0.497925H28.7241C20.143 0.497925 13.0914 3.27988 8.18564 8.18564ZM7.83356 7.83356C12.8474 2.81971 20.0333 0 28.7241 0H91.2759C99.9667 0 107.153 2.81971 112.166 7.83356C117.18 12.8474 120 20.0333 120 28.7241V91.2759C120 99.9667 117.18 107.153 112.166 112.166C107.153 117.18 99.9667 120 91.2759 120H28.7241C20.0333 120 12.8474 117.18 7.83356 112.166C2.81971 107.153 0 99.9667 0 91.2759V28.7241C0 20.0333 2.81971 12.8474 7.83356 7.83356Z" fill="#A4A4A4"/><path fill-rule="evenodd" clip-rule="evenodd" d="M59.4978 94.8527C36.3981 94.8527 18.1742 76.5747 18.1742 54.0249C18.1742 31.4752 36.9002 13.1951 59.9999 13.1951C81.8013 13.1951 99.7065 29.478 101.65 50.2655C102.026 52.0899 102.092 54.1961 101.801 56.6155C101.756 56.9924 101.707 57.367 101.655 57.7395C101.244 62.1847 100.353 67.499 98.6004 71.4183C88.239 97.9131 59.9999 109.246 59.9999 109.246V94.8527C59.8582 94.8541 59.6398 94.8527 59.4978 94.8527Z" fill="#1EA260"/><mask id="mask0_2_2432" style="mask-type:alpha" maskUnits="userSpaceOnUse" x="18" y="13" width="84" height="97"><path fill-rule="evenodd" clip-rule="evenodd" d="M59.4978 94.8527C36.3981 94.8527 18.1742 76.5747 18.1742 54.0249C18.1742 31.4752 36.9002 13.1951 59.9999 13.1951C81.8013 13.1951 99.7065 29.478 101.65 50.2655C102.026 52.0899 102.092 54.1961 101.801 56.6155C101.756 56.9924 101.707 57.367 101.655 57.7395C101.244 62.1847 100.353 67.499 98.6004 71.4183C88.239 97.9131 59.9999 109.246 59.9999 109.246V94.8527C59.8582 94.8541 59.6398 94.8527 59.4978 94.8527Z" fill="white"/></mask><g mask="url(#mask0_2_2432)"><path fill-rule="evenodd" clip-rule="evenodd" d="M57.0401 43.0972L70.5233 55.5857L81.0052 43.0706L116.407 77.5118L85.7476 109.073L39.087 61.0145L57.0401 43.0972Z" fill="url(#paint0_linear_2_2432)"/><g filter="url(#filter0_d_2_2432)"><path fill-rule="evenodd" clip-rule="evenodd" d="M49.0455 60.9959V70.9544C53.4455 70.9544 57.0123 66.9417 57.0123 61.9917C57.0123 61.6551 56.9958 61.3228 56.9637 60.9959H57.0123V43.0706H39.087V60.9959H49.0455ZM72.946 60.9959V70.9544C77.3459 70.9544 80.9128 66.9417 80.9128 61.9917C80.9128 61.6551 80.8962 61.3228 80.8642 60.9959H80.9128V43.0706H62.9875V60.9959H72.946Z" fill="#F0F0F0"/></g></g><defs><filter id="filter0_d_2_2432" x="37.087" y="41.0706" width="47.8257" height="33.8838" filterUnits="userSpaceOnUse" color-interpolation-filters="sRGB"><feFlood flood-opacity="0" result="BackgroundImageFix"/><feColorMatrix in="SourceAlpha" type="matrix" values="0 0 0 0 0 0 0 0 0 0 0 0 0 0 0 0 0 0 127 0" result="hardAlpha"/><feOffset dx="1" dy="1"/><feGaussianBlur stdDeviation="1.5"/><feColorMatrix type="matrix" values="0 0 0 0 0 0 0 0 0 0 0 0 0 0 0 0 0 0 0.152938 0"/><feBlend mode="normal" in2="BackgroundImageFix" result="effect1_dropShadow_2_2432"/><feBlend mode="normal" in="SourceGraphic" in2="effect1_dropShadow_2_2432" result="shape"/></filter><linearGradient id="paint0_linear_2_2432" x1="27.2429" y1="59.0456" x2="57.2882" y2="108.082" gradientUnits="userSpaceOnUse"><stop stop-opacity="0.159052"/><stop offset="1" stop-opacity="0.01"/></linearGradient></defs></svg> 