<!-- created by svgstack.com | Attribution is required. --><svg width="120" height="120" viewBox="0 0 120 120" fill="none" xmlns="http://www.w3.org/2000/svg"><path fill-rule="evenodd" clip-rule="evenodd" d="M91.4062 0C108.75 0 120 11.25 120 28.5938V91.4062C120 108.75 108.75 120 91.4062 120H28.5938C11.25 120 0 108.75 0 91.4062V28.5938C0 11.25 11.25 0 28.5938 0H91.4062Z" fill="white"/><g clip-path="url(#clip0_8_734)"><path d="M80.9951 39.001H38.9268V80.73H80.9951V39.001Z" fill="white"/><path d="M80.9951 99.5042L99.9219 80.73H80.9951V99.5042Z" fill="#F72A25"/><path d="M99.9219 39.001H80.9951V80.73H99.9219V39.001Z" fill="#FBBC04"/><path d="M80.9951 80.73H38.9268V99.5042H80.9951V80.73Z" fill="#34A853"/><path d="M20 80.73V93.2461C20 96.7042 22.8228 99.5042 26.3089 99.5042H38.9268V80.73H20Z" fill="#188038"/><path d="M99.9219 39.001V26.4849C99.9219 23.0268 97.0992 20.2268 93.613 20.2268H80.9951V39.001H99.9219Z" fill="#1967D2"/><path d="M80.9951 20.2268H26.3089C22.8228 20.2268 20 23.0268 20 26.4849V80.73H38.9268V39.001H80.9886V20.2268H80.9951Z" fill="#4285F4"/><path d="M47.5577 71.3688C45.9837 70.3172 44.8976 68.7753 44.3057 66.743L47.9545 65.2527C48.2862 66.5043 48.865 67.472 49.6911 68.1624C50.5106 68.8527 51.5122 69.1882 52.6764 69.1882C53.8732 69.1882 54.8943 68.8269 55.7529 68.1107C56.6114 67.3882 57.0407 66.472 57.0407 65.3624C57.0407 64.2269 56.5854 63.2978 55.6813 62.5753C54.7772 61.8527 53.639 61.4978 52.2862 61.4978H50.1789V57.9172H52.0715C53.2358 57.9172 54.2244 57.6075 55.0244 56.9753C55.8244 56.3495 56.2211 55.4914 56.2211 54.4011C56.2211 53.4333 55.8634 52.6591 55.148 52.0785C54.4325 51.4978 53.5285 51.2075 52.4293 51.2075C51.3561 51.2075 50.5041 51.4914 49.8732 52.0591C49.2423 52.6269 48.7675 53.3495 48.4943 54.1495L44.8846 52.6591C45.3659 51.3107 46.2439 50.1236 47.5317 49.0978C48.8195 48.072 50.465 47.5559 52.4618 47.5559C53.9382 47.5559 55.2715 47.8398 56.4488 48.4075C57.626 48.9753 58.5496 49.7624 59.2195 50.7624C59.8894 51.7688 60.2211 52.8978 60.2211 54.1495C60.2211 55.4269 59.9089 56.5043 59.2911 57.3946C58.6732 58.2785 57.9057 58.9624 57.0016 59.4333V59.6462C58.1659 60.1236 59.187 60.9107 59.935 61.9172C60.6959 62.9366 61.0797 64.1495 61.0797 65.5688C61.0797 66.9882 60.7155 68.2527 59.9935 69.3624C59.265 70.472 58.2634 71.3495 56.9886 71.9882C55.7138 72.6269 54.2764 72.9495 52.6829 72.9495C50.8358 72.9495 49.1317 72.4269 47.5577 71.3688ZM69.9707 53.4075L65.9642 56.2785L63.961 53.2656L71.148 48.1237H73.9057V72.3817H69.9707V53.4075Z" fill="#1A73E8"/></g><defs><clipPath id="clip0_8_734"><rect width="80" height="80" fill="white" transform="translate(20 20)"/></clipPath></defs></svg> 