<!-- created by svgstack.com | Attribution is required. --><svg width="120" height="120" viewBox="0 0 120 120" fill="none" xmlns="http://www.w3.org/2000/svg"><path fill-rule="evenodd" clip-rule="evenodd" d="M91.4062 0C108.75 0 120 11.25 120 28.5938V91.4062C120 108.75 108.75 120 91.4062 120H28.5938C11.25 120 0 108.75 0 91.4062V28.5938C0 11.25 11.25 0 28.5938 0H91.4062Z" fill="white"/><g clip-path="url(#clip0_9_179)"><path d="M42.7847 71.4136C56.9592 71.4136 68.4499 59.9229 68.4499 45.7484C68.4499 31.5739 56.9592 20.0833 42.7847 20.0833C28.6102 20.0833 17.1195 31.5739 17.1195 45.7484C17.1195 59.9229 28.6102 71.4136 42.7847 71.4136Z" fill="#4285F4"/><path fill-rule="evenodd" clip-rule="evenodd" d="M101.209 48.2523C101.209 51.1338 98.8734 53.4688 95.993 53.4688C93.1125 53.4688 90.7765 51.1338 90.7765 48.2523C90.7765 45.3712 93.1125 43.0359 95.993 43.0359C98.8734 43.0359 101.209 45.3712 101.209 48.2523Z" fill="#34A853"/><path fill-rule="evenodd" clip-rule="evenodd" d="M91.8199 60.9805C91.8199 66.7421 87.1491 71.4134 81.387 71.4134C75.6242 71.4134 70.9539 66.7421 70.9539 60.9805C70.9539 55.2184 75.6244 50.5474 81.387 50.5474C87.1496 50.5474 91.8199 55.2186 91.8199 60.9805Z" fill="#EA4335"/><path fill-rule="evenodd" clip-rule="evenodd" d="M93.9064 87.8973C93.9064 94.8118 88.302 100.416 81.3868 100.416C74.4718 100.416 68.8671 94.8118 68.8671 87.8973C68.8671 80.9834 74.4716 75.3779 81.3868 75.3779C88.302 75.3779 93.9064 80.9834 93.9064 87.8973Z" fill="#FBBC05"/></g><defs><clipPath id="clip0_9_179"><rect width="84.0901" height="80.3333" fill="white" transform="translate(17.1195 20.0833)"/></clipPath></defs></svg> 