<!-- created by svgstack.com | Attribution is required. --><svg width="201" height="183" viewBox="0 0 201 183" fill="none" xmlns="http://www.w3.org/2000/svg"><g clip-path="url(#clip0_103_269)"><path d="M69.1133 23.5017C71.041 18.4415 73.6916 13.7828 77.6274 10.0077C93.3703 -5.33362 119.394 -1.4782 130.077 17.7989C138.109 32.4174 146.623 46.7145 154.896 61.1724C168.712 85.1884 182.688 109.205 196.342 133.301C207.828 153.462 195.378 178.923 172.567 182.377C158.591 184.466 145.499 178.04 138.27 165.51C126.141 144.385 113.933 123.261 101.804 102.217C101.563 101.735 101.242 101.333 100.92 100.931C99.6353 99.8872 99.0731 98.3611 98.2699 96.9957C92.8883 87.5178 87.3462 78.1202 81.9647 68.7226C78.5109 62.6182 74.8965 56.5941 71.4426 50.4896C68.3101 45.0278 66.8643 39.084 67.025 32.819C67.2659 29.6061 67.6675 26.3933 69.1133 23.5017Z" fill="#3C8BD9"/><path d="M69.113 23.5017C68.3901 26.3933 67.7476 29.2848 67.5869 32.3371C67.346 39.084 69.0327 45.3491 72.4062 51.2126C81.2412 66.3933 90.0766 81.6542 98.8316 96.9153C99.6348 98.2807 100.277 99.6462 101.081 100.931C96.2613 109.285 91.442 117.558 86.5424 125.911C79.7958 137.558 73.0488 149.285 66.2215 160.931C65.9002 160.931 65.8199 160.771 65.7395 160.53C65.6592 159.887 65.9002 159.325 66.0608 158.682C69.354 146.634 66.6231 135.951 58.35 126.795C53.2897 121.253 46.864 118.12 39.4745 117.076C29.8359 115.71 21.3219 118.2 13.6914 124.225C12.3259 125.269 11.4424 126.795 9.83593 127.598C9.51465 127.598 9.354 127.437 9.27368 127.196C13.1291 120.53 16.9042 113.863 20.7596 107.196C36.6632 79.566 52.5669 51.9354 68.5508 24.3852C68.7114 24.064 68.9524 23.823 69.113 23.5017Z" fill="#FABC04"/><path d="M9.59502 127.437C11.1211 126.072 12.5669 124.626 14.1733 123.341C33.6914 107.919 63.0087 119.084 67.2657 143.502C68.3099 149.365 67.7476 154.988 65.9806 160.61C65.9002 161.092 65.8199 161.494 65.6593 161.976C64.9364 163.261 64.2938 164.626 63.4906 165.911C56.342 177.719 45.8199 183.582 32.0047 182.698C16.1814 181.574 3.73159 169.686 1.56292 153.943C0.518738 146.313 2.04484 139.164 5.98059 132.578C6.7838 131.132 7.74765 129.847 8.63119 128.401C9.03277 128.08 8.87215 127.437 9.59502 127.437Z" fill="#34A852"/><path d="M9.5945 127.437C9.27321 127.759 9.27321 128.321 8.71097 128.401C8.63065 127.839 8.95193 127.518 9.27321 127.116L9.5945 127.437Z" fill="#FABC04"/><path d="M65.6597 161.976C65.3384 161.413 65.6597 161.012 65.981 160.61C66.0613 160.69 66.2219 160.851 66.3023 160.931L65.6597 161.976Z" fill="#E1C025"/></g><defs><clipPath id="clip0_103_269"><rect width="200" height="182.329" fill="white" transform="translate(0.920166 0.529785)"/></clipPath></defs></svg> 