<!-- created by svgstack.com | Attribution is required. --><svg width="120" height="120" viewBox="0 0 120 120" fill="none" xmlns="http://www.w3.org/2000/svg"><path fill-rule="evenodd" clip-rule="evenodd" d="M91.2759 0.249023C108.548 0.249023 119.751 11.4523 119.751 28.7242V91.2759C119.751 108.548 108.548 119.751 91.2759 119.751H28.7242C11.4523 119.751 0.249023 108.548 0.249023 91.2759V28.7242C0.249023 11.4523 11.4523 0.249023 28.7242 0.249023H91.2759Z" fill="white"/><path fill-rule="evenodd" clip-rule="evenodd" d="M8.18564 8.18564C3.27988 13.0914 0.497925 20.143 0.497925 28.7241V91.2759C0.497925 99.8569 3.27988 106.909 8.18564 111.814C13.0914 116.72 20.143 119.502 28.7241 119.502H91.2759C99.8569 119.502 106.909 116.72 111.814 111.814C116.72 106.909 119.502 99.8569 119.502 91.2759V28.7241C119.502 20.143 116.72 13.0914 111.814 8.18564C106.909 3.27988 99.8569 0.497925 91.2759 0.497925H28.7241C20.143 0.497925 13.0914 3.27988 8.18564 8.18564ZM7.83356 7.83356C12.8474 2.81971 20.0333 0 28.7241 0H91.2759C99.9667 0 107.153 2.81971 112.166 7.83356C117.18 12.8474 120 20.0333 120 28.7241V91.2759C120 99.9667 117.18 107.153 112.166 112.166C107.153 117.18 99.9667 120 91.2759 120H28.7241C20.0333 120 12.8474 117.18 7.83356 112.166C2.81971 107.153 0 99.9667 0 91.2759V28.7241C0 20.0333 2.81971 12.8474 7.83356 7.83356Z" fill="#A4A4A4"/><path fill-rule="evenodd" clip-rule="evenodd" d="M60 22.1577V97.8424H83.9004L103.817 77.9254V22.1577L97.3444 28.1328L91.3693 22.1577H97.5934H60ZM85.3942 28.1328L91.3693 22.1577H78.9212L85.3942 28.1328ZM72.4481 28.1328L78.9212 22.1577H66.473L72.4481 28.1328ZM66.473 22.1577H60.0199V28.1328L66.473 22.1577Z" fill="#E4E4E4"/><mask id="mask0_2_2816" style="mask-type:alpha" maskUnits="userSpaceOnUse" x="60" y="22" width="44" height="76"><path fill-rule="evenodd" clip-rule="evenodd" d="M60 22.1577V97.8424H83.9004L103.817 77.9254V22.1577L97.3444 28.1328L91.3693 22.1577H97.5934H60ZM85.3942 28.1328L91.3693 22.1577H78.9212L85.3942 28.1328ZM72.4481 28.1328L78.9212 22.1577H66.473L72.4481 28.1328ZM66.473 22.1577H60.0199V28.1328L66.473 22.1577Z" fill="white"/></mask><g mask="url(#mask0_2_2816)"><path d="M97.8423 54.0249H65.9751V58.0083H97.8423V54.0249Z" fill="#CBCBCB"/><path d="M97.8423 61.9917H65.9751V65.9751H97.8423V61.9917Z" fill="#CBCBCB"/><path d="M97.8423 69.9587H65.9751V73.9421H97.8423V69.9587Z" fill="#CBCBCB"/><path d="M97.8423 77.925H65.9751V81.9085H97.8423V77.925Z" fill="#CBCBCB"/><path d="M97.8423 85.8921H65.9751V89.8755H97.8423V85.8921Z" fill="#CBCBCB"/><path d="M97.8423 38.0913H60V48.0498H97.8423V38.0913Z" fill="#0CACF4"/><path fill-rule="evenodd" clip-rule="evenodd" d="M83.9004 83.9002C83.9004 80.6002 86.5755 77.925 89.8755 77.925H103.817C107.118 77.925 109.793 80.6002 109.793 83.9002V98.8379C109.793 102.138 107.118 104.813 103.817 104.813H89.8755C86.5755 104.813 83.9004 102.138 83.9004 98.8379V83.9002Z" fill="#A4A4A4"/></g><path fill-rule="evenodd" clip-rule="evenodd" d="M22.4067 22.1577H60V97.8424H22.1605C18.859 97.8424 16.1826 95.1709 16.1826 91.8719V22.1577L22.6556 28.1328L28.6307 22.1577H22.4067ZM34.6059 28.1328L28.6307 22.1577H41.0789L34.6059 28.1328ZM47.5519 28.1328L41.0789 22.1577H53.527L47.5519 28.1328ZM59.9801 28.1328L53.527 22.1577H59.9801V28.1328Z" fill="#E0E0E0"/><mask id="mask1_2_2816" style="mask-type:alpha" maskUnits="userSpaceOnUse" x="16" y="22" width="44" height="76"><path fill-rule="evenodd" clip-rule="evenodd" d="M22.4067 22.1577H60V97.8424H22.1605C18.859 97.8424 16.1826 95.1709 16.1826 91.8719V22.1577L22.6556 28.1328L28.6307 22.1577H22.4067ZM34.6059 28.1328L28.6307 22.1577H41.0789L34.6059 28.1328ZM47.5519 28.1328L41.0789 22.1577H53.527L47.5519 28.1328ZM59.9801 28.1328L53.527 22.1577H59.9801V28.1328Z" fill="white"/></mask><g mask="url(#mask1_2_2816)"><path d="M60 38.0913H22.1577V48.0498H60V38.0913Z" fill="#4F8DF5"/><path d="M60 54.0249H22.1577V91.8672H60V54.0249Z" fill="#4B5CBA"/><path fill-rule="evenodd" clip-rule="evenodd" d="M37.6692 62.3339C34.9406 63.2693 32.6155 65.315 31.3205 67.9037C30.8687 68.7968 30.5434 69.7442 30.3446 70.7278C29.8507 73.1658 30.1941 75.7666 31.3144 77.9873C32.0432 79.4356 33.0914 80.727 34.3563 81.7347C35.555 82.6881 36.9464 83.4002 38.4281 83.7924C40.2955 84.2933 42.2832 84.2813 44.1625 83.8528C45.8612 83.4606 47.4695 82.6459 48.7524 81.4631C50.1078 80.214 51.0775 78.5727 51.5895 76.8045C52.1498 74.8795 52.222 72.8218 51.8726 70.8425C48.361 70.8425 44.8432 70.8425 41.3315 70.8425C41.3315 72.3029 41.3315 73.7632 41.3315 75.2235C43.3675 75.2235 45.4034 75.2235 47.4393 75.2235C47.2045 76.6235 46.3731 77.9028 45.1986 78.6934C44.4577 79.1942 43.6084 79.514 42.7289 79.6709C41.8495 79.8217 40.934 79.8399 40.0546 79.6649C39.157 79.4839 38.3077 79.1097 37.5608 78.5847C36.3681 77.7459 35.4586 76.5209 34.9947 75.1391C34.5189 73.733 34.513 72.1701 34.9947 70.7701C35.3321 69.7805 35.8862 68.8693 36.6212 68.121C37.5247 67.1917 38.6992 66.5278 39.9702 66.2564C41.0544 66.027 42.1989 66.0693 43.259 66.3891C44.1625 66.6606 44.9938 67.1615 45.6744 67.8132C46.3611 67.1253 47.0478 66.4373 47.7345 65.7494C48.0959 65.3813 48.4754 65.0253 48.8247 64.6451C47.7827 63.6796 46.5539 62.9012 45.2167 62.4063C42.8073 61.5132 40.0967 61.4951 37.6692 62.3339Z" fill="#EFEFEF"/></g><mask id="mask2_2_2816" style="mask-type:alpha" maskUnits="userSpaceOnUse" x="16" y="22" width="88" height="76"><path fill-rule="evenodd" clip-rule="evenodd" d="M60 97.8424H83.9005V96.8465L103.817 77.9254V22.1577L97.3444 28.1328L91.3693 22.1577H97.5934H60V97.8424ZM85.3942 28.1328L91.3693 22.1577H78.9212L85.3942 28.1328ZM72.4482 28.1328L78.9212 22.1577H66.4731L72.4482 28.1328ZM66.4731 22.1577H60.02V28.1328L66.4731 22.1577ZM60 22.1577V97.8424H22.1605C18.859 97.8424 16.1826 95.1709 16.1826 91.8719V22.1577L22.6556 28.1328L28.6307 22.1577H22.4067H60Z" fill="white"/></mask><g mask="url(#mask2_2_2816)"><g filter="url(#filter0_d_2_2816)"><path fill-rule="evenodd" clip-rule="evenodd" d="M22.4067 22.1577H60V97.8424H22.1605C18.859 97.8424 16.1826 95.1709 16.1826 91.8719V22.1577L22.6556 28.1328L28.6307 22.1577H22.4067ZM34.6059 28.1328L28.6307 22.1577H41.0789L34.6059 28.1328ZM47.5519 28.1328L41.0789 22.1577H53.527L47.5519 28.1328ZM59.9801 28.1328L53.527 22.1577H59.9801V28.1328ZM103.817 97.8424V22.1577L97.3444 28.1328H85.3942L78.9212 22.1577L72.4482 28.1328L66.4731 22.1577L60 28.1328V97.8424H83.9005H103.817Z" fill="black" fill-opacity="0.01"/></g></g><defs><filter id="filter0_d_2_2816" x="16.1826" y="21.1577" width="87.6348" height="76.6846" filterUnits="userSpaceOnUse" color-interpolation-filters="sRGB"><feFlood flood-opacity="0" result="BackgroundImageFix"/><feColorMatrix in="SourceAlpha" type="matrix" values="0 0 0 0 0 0 0 0 0 0 0 0 0 0 0 0 0 0 127 0" result="hardAlpha"/><feOffset dy="-1"/><feComposite in2="hardAlpha" operator="out"/><feColorMatrix type="matrix" values="0 0 0 0 0.819608 0 0 0 0 0.819608 0 0 0 0 0.819608 0 0 0 1 0"/><feBlend mode="normal" in2="BackgroundImageFix" result="effect1_dropShadow_2_2816"/><feBlend mode="normal" in="SourceGraphic" in2="effect1_dropShadow_2_2816" result="shape"/></filter></defs></svg> 