<!-- created by svgstack.com | Attribution is required. --><svg width="120" height="120" viewBox="0 0 120 120" fill="none" xmlns="http://www.w3.org/2000/svg"><path fill-rule="evenodd" clip-rule="evenodd" d="M91.2759 0.249023C108.548 0.249023 119.751 11.4523 119.751 28.7242V91.2759C119.751 108.548 108.548 119.751 91.2759 119.751H28.7242C11.4523 119.751 0.249023 108.548 0.249023 91.2759V28.7242C0.249023 11.4523 11.4523 0.249023 28.7242 0.249023H91.2759Z" fill="white"/><path fill-rule="evenodd" clip-rule="evenodd" d="M91.2759 0.249023C108.548 0.249023 119.751 11.4523 119.751 28.7242V91.2759C119.751 108.548 108.548 119.751 91.2759 119.751H28.7242C11.4523 119.751 0.249023 108.548 0.249023 91.2759V28.7242C0.249023 11.4523 11.4523 0.249023 28.7242 0.249023H91.2759Z" fill="white"/><path fill-rule="evenodd" clip-rule="evenodd" d="M8.18564 8.18564C3.27988 13.0914 0.497925 20.143 0.497925 28.7241V91.2759C0.497925 99.8569 3.27988 106.909 8.18564 111.814C13.0914 116.72 20.143 119.502 28.7241 119.502H91.2759C99.8569 119.502 106.909 116.72 111.814 111.814C116.72 106.909 119.502 99.8569 119.502 91.2759V28.7241C119.502 20.143 116.72 13.0914 111.814 8.18564C106.909 3.27988 99.8569 0.497925 91.2759 0.497925H28.7241C20.143 0.497925 13.0914 3.27988 8.18564 8.18564ZM7.83356 7.83356C12.8474 2.81971 20.0333 0 28.7241 0H91.2759C99.9667 0 107.153 2.81971 112.166 7.83356C117.18 12.8474 120 20.0333 120 28.7241V91.2759C120 99.9667 117.18 107.153 112.166 112.166C107.153 117.18 99.9667 120 91.2759 120H28.7241C20.0333 120 12.8474 117.18 7.83356 112.166C2.81971 107.153 0 99.9667 0 91.2759V28.7241C0 20.0333 2.81971 12.8474 7.83356 7.83356Z" fill="#A4A4A4"/><g filter="url(#filter0_dd_2_1827)"><path d="M92.8631 28.1328H27.137C24.387 28.1328 22.1577 30.3621 22.1577 33.1121V78.9212C22.1577 81.6712 24.387 83.9004 27.137 83.9004H92.8631C95.6131 83.9004 97.8424 81.6712 97.8424 78.9212V33.1121C97.8424 30.3621 95.6131 28.1328 92.8631 28.1328Z" fill="#8E592D"/></g><g filter="url(#filter1_d_2_1827)"><path fill-rule="evenodd" clip-rule="evenodd" d="M49.187 83.8399C49.187 83.8399 52.7653 70.2937 59.6599 70.2937C66.5543 70.2937 70.1326 83.9406 70.1326 83.9406L49.187 83.8399Z" fill="black" fill-opacity="0.01"/></g><g filter="url(#filter2_d_2_1827)"><path fill-rule="evenodd" clip-rule="evenodd" d="M79.917 71.9502C85.4169 71.9502 89.8755 67.4916 89.8755 61.9917C89.8755 56.4918 85.4169 52.0332 79.917 52.0332C74.4171 52.0332 69.9585 56.4918 69.9585 61.9917C69.9585 67.4916 74.4171 71.9502 79.917 71.9502Z" fill="black" fill-opacity="0.01"/></g><g filter="url(#filter3_d_2_1827)"><path fill-rule="evenodd" clip-rule="evenodd" d="M40.083 71.9502C45.5829 71.9502 50.0415 67.4916 50.0415 61.9917C50.0415 56.4918 45.5829 52.0332 40.083 52.0332C34.5831 52.0332 30.1245 56.4918 30.1245 61.9917C30.1245 67.4916 34.5831 71.9502 40.083 71.9502Z" fill="black" fill-opacity="0.01"/></g><g filter="url(#filter4_dd_2_1827)"><path fill-rule="evenodd" clip-rule="evenodd" d="M97.8451 34.1079C101.144 34.1079 103.817 36.7779 103.817 40.0851V85.8901C103.817 89.1912 101.142 91.8672 97.8415 91.8672H76.1052C75.0032 91.8672 73.7178 91.0647 73.238 90.0825L66.1171 75.5076C62.7387 68.593 57.0828 68.5047 53.4796 75.3189L45.6617 90.1042C45.1468 91.0779 43.8438 91.8672 42.7447 91.8672H22.167C18.8619 91.8672 16.1826 89.1973 16.1826 85.8901V40.0851C16.1826 36.784 18.8652 34.1079 22.1549 34.1079H22.5957H97.8451ZM40.083 71.9502C45.5829 71.9502 50.0415 67.4916 50.0415 61.9917C50.0415 56.4918 45.5829 52.0332 40.083 52.0332C34.5831 52.0332 30.1245 56.4918 30.1245 61.9917C30.1245 67.4916 34.5831 71.9502 40.083 71.9502ZM79.9171 71.9502C85.417 71.9502 89.8756 67.4916 89.8756 61.9917C89.8756 56.4918 85.417 52.0332 79.9171 52.0332C74.4172 52.0332 69.9585 56.4918 69.9585 61.9917C69.9585 67.4916 74.4172 71.9502 79.9171 71.9502Z" fill="#D89E4E"/></g><defs><filter id="filter0_dd_2_1827" x="22.1577" y="27.1328" width="75.6847" height="57.7676" filterUnits="userSpaceOnUse" color-interpolation-filters="sRGB"><feFlood flood-opacity="0" result="BackgroundImageFix"/><feColorMatrix in="SourceAlpha" type="matrix" values="0 0 0 0 0 0 0 0 0 0 0 0 0 0 0 0 0 0 127 0" result="hardAlpha"/><feOffset dy="1"/><feComposite in2="hardAlpha" operator="out"/><feColorMatrix type="matrix" values="0 0 0 0 0.6 0 0 0 0 0.411765 0 0 0 0 0.258824 0 0 0 1 0"/><feBlend mode="normal" in2="BackgroundImageFix" result="effect1_dropShadow_2_1827"/><feColorMatrix in="SourceAlpha" type="matrix" values="0 0 0 0 0 0 0 0 0 0 0 0 0 0 0 0 0 0 127 0" result="hardAlpha"/><feOffset dy="-1"/><feComposite in2="hardAlpha" operator="out"/><feColorMatrix type="matrix" values="0 0 0 0 0.517647 0 0 0 0 0.317647 0 0 0 0 0.160784 0 0 0 1 0"/><feBlend mode="normal" in2="effect1_dropShadow_2_1827" result="effect2_dropShadow_2_1827"/><feBlend mode="normal" in="SourceGraphic" in2="effect2_dropShadow_2_1827" result="shape"/></filter><filter id="filter1_d_2_1827" x="47.187" y="70.2937" width="24.9456" height="17.647" filterUnits="userSpaceOnUse" color-interpolation-filters="sRGB"><feFlood flood-opacity="0" result="BackgroundImageFix"/><feColorMatrix in="SourceAlpha" type="matrix" values="0 0 0 0 0 0 0 0 0 0 0 0 0 0 0 0 0 0 127 0" result="hardAlpha"/><feOffset dy="2"/><feGaussianBlur stdDeviation="1"/><feComposite in2="hardAlpha" operator="out"/><feColorMatrix type="matrix" values="0 0 0 0 0 0 0 0 0 0 0 0 0 0 0 0 0 0 0.2 0"/><feBlend mode="normal" in2="BackgroundImageFix" result="effect1_dropShadow_2_1827"/><feBlend mode="normal" in="SourceGraphic" in2="effect1_dropShadow_2_1827" result="shape"/></filter><filter id="filter2_d_2_1827" x="65.9585" y="49.0332" width="27.917" height="27.917" filterUnits="userSpaceOnUse" color-interpolation-filters="sRGB"><feFlood flood-opacity="0" result="BackgroundImageFix"/><feColorMatrix in="SourceAlpha" type="matrix" values="0 0 0 0 0 0 0 0 0 0 0 0 0 0 0 0 0 0 127 0" result="hardAlpha"/><feOffset dy="1"/><feGaussianBlur stdDeviation="2"/><feComposite in2="hardAlpha" operator="out"/><feColorMatrix type="matrix" values="0 0 0 0 0 0 0 0 0 0 0 0 0 0 0 0 0 0 0.25 0"/><feBlend mode="normal" in2="BackgroundImageFix" result="effect1_dropShadow_2_1827"/><feBlend mode="normal" in="SourceGraphic" in2="effect1_dropShadow_2_1827" result="shape"/></filter><filter id="filter3_d_2_1827" x="26.1245" y="49.0332" width="27.917" height="27.917" filterUnits="userSpaceOnUse" color-interpolation-filters="sRGB"><feFlood flood-opacity="0" result="BackgroundImageFix"/><feColorMatrix in="SourceAlpha" type="matrix" values="0 0 0 0 0 0 0 0 0 0 0 0 0 0 0 0 0 0 127 0" result="hardAlpha"/><feOffset dy="1"/><feGaussianBlur stdDeviation="2"/><feComposite in2="hardAlpha" operator="out"/><feColorMatrix type="matrix" values="0 0 0 0 0 0 0 0 0 0 0 0 0 0 0 0 0 0 0.25 0"/><feBlend mode="normal" in2="BackgroundImageFix" result="effect1_dropShadow_2_1827"/><feBlend mode="normal" in="SourceGraphic" in2="effect1_dropShadow_2_1827" result="shape"/></filter><filter id="filter4_dd_2_1827" x="16.1826" y="33.1079" width="87.6349" height="59.7593" filterUnits="userSpaceOnUse" color-interpolation-filters="sRGB"><feFlood flood-opacity="0" result="BackgroundImageFix"/><feColorMatrix in="SourceAlpha" type="matrix" values="0 0 0 0 0 0 0 0 0 0 0 0 0 0 0 0 0 0 127 0" result="hardAlpha"/><feOffset dy="1"/><feComposite in2="hardAlpha" operator="out"/><feColorMatrix type="matrix" values="0 0 0 0 0.862745 0 0 0 0 0.654902 0 0 0 0 0.372549 0 0 0 1 0"/><feBlend mode="normal" in2="BackgroundImageFix" result="effect1_dropShadow_2_1827"/><feColorMatrix in="SourceAlpha" type="matrix" values="0 0 0 0 0 0 0 0 0 0 0 0 0 0 0 0 0 0 127 0" result="hardAlpha"/><feOffset dy="-1"/><feComposite in2="hardAlpha" operator="out"/><feColorMatrix type="matrix" values="0 0 0 0 0.811765 0 0 0 0 0.584314 0 0 0 0 0.270588 0 0 0 1 0"/><feBlend mode="normal" in2="effect1_dropShadow_2_1827" result="effect2_dropShadow_2_1827"/><feBlend mode="normal" in="SourceGraphic" in2="effect2_dropShadow_2_1827" result="shape"/></filter></defs></svg> 