<!-- created by svgstack.com | Attribution is required. --><svg width="120" height="120" viewBox="0 0 120 120" fill="none" xmlns="http://www.w3.org/2000/svg"><path fill-rule="evenodd" clip-rule="evenodd" d="M91.4062 0C108.75 0 120 11.25 120 28.5938V91.4062C120 108.75 108.75 120 91.4062 120H28.5938C11.25 120 0 108.75 0 91.4062V28.5938C0 11.25 11.25 0 28.5938 0H91.4062Z" fill="white"/><path fill-rule="evenodd" clip-rule="evenodd" d="M74.0929 42.2854L77.2919 42.3402L85.9836 33.6482L86.4049 29.9657C79.2669 23.5929 70.0308 20.0749 60.4621 20.0833C42.4542 20.0833 27.2553 32.3362 22.7563 48.9335C23.7052 48.2716 25.7335 48.7681 25.7335 48.7681L43.1017 45.9125C43.1017 45.9125 43.9942 44.4348 44.4467 44.5082C48.5531 39.9963 54.3722 37.426 60.4726 37.4284C65.6223 37.4392 70.3661 39.2587 74.0926 42.2689V42.2857H74.0929V42.2854Z" fill="#EA4335"/><path fill-rule="evenodd" clip-rule="evenodd" d="M98.1898 48.9519C96.1719 41.5084 92.0133 34.9358 86.4004 29.95L74.0929 42.2574C79.0242 46.2365 82.1872 52.3255 82.1872 59.1417V61.3139C88.1747 61.3139 93.0389 66.1889 93.0389 72.1655C93.0389 78.1529 88.1639 83.0171 82.1872 83.0171H60.484L58.3118 85.2019V98.2257L60.484 100.387H82.1872C97.7637 100.365 110.385 87.7438 110.409 72.1673C110.397 62.5627 105.571 54.0657 98.1901 48.9537V48.9522L98.1898 48.9519Z" fill="#4285F4"/><path fill-rule="evenodd" clip-rule="evenodd" d="M38.7588 100.416H60.4494V83.033H38.7588C37.2176 83.0333 35.6946 82.7022 34.2928 82.0623L31.1609 83.0219L22.4692 91.7136L21.7079 94.6474C26.6059 98.3842 32.5967 100.407 38.7576 100.404L38.7591 100.416H38.7588Z" fill="#34A853"/><path fill-rule="evenodd" clip-rule="evenodd" d="M38.7588 43.9583C23.1823 43.9957 10.5594 56.6168 10.5375 72.1936C10.5375 81.3585 14.9274 89.5073 21.7199 94.6693L34.3033 82.0856C30.4131 80.3311 27.9105 76.4613 27.9069 72.1936C27.9069 66.2062 32.7819 61.342 38.7585 61.342C43.1589 61.342 46.9418 63.9948 48.652 67.7402L61.2357 55.1565C56.0752 48.3637 47.9248 43.9741 38.7603 43.9741L38.7588 43.9583Z" fill="#FBBC05"/></svg> 