<!-- created by svgstack.com | Attribution is required. --><svg width="120" height="120" viewBox="0 0 120 120" fill="none" xmlns="http://www.w3.org/2000/svg"><path fill-rule="evenodd" clip-rule="evenodd" d="M91.4062 0C108.75 0 120 11.25 120 28.5938V91.4062C120 108.75 108.75 120 91.4062 120H28.5938C11.25 120 0 108.75 0 91.4062V28.5938C0 11.25 11.25 0 28.5938 0H91.4062Z" fill="white"/><g clip-path="url(#clip0_2_4871)"><path d="M40.296 38.1187C51.3771 38.1187 60.3793 47.1208 60.3793 58.202V60.0521H22.0628C21.0691 60.0521 20.2649 59.248 20.2126 58.202C20.2126 47.1143 29.2148 38.1187 40.296 38.1187Z" fill="#F6B704"/><path d="M82.2604 39.9166C82.2604 50.9977 73.2582 59.9999 62.1771 59.9999H60.3793V21.6834C60.3793 20.6831 61.1834 19.8333 62.1771 19.8333C73.3105 19.8333 82.2604 28.8354 82.2604 39.9166Z" fill="#E54335"/><path d="M80.4626 81.9335C69.3815 81.9335 60.3793 72.9313 60.3793 61.8501V60H98.6958C99.6895 60 100.546 60.8041 100.546 61.7978C100.546 72.9313 91.5437 81.9335 80.4626 81.9335Z" fill="#4280EF"/><path d="M38.4982 80.0833C38.4982 69.0022 47.5004 60 58.5815 60H60.3793V98.3165C60.3793 99.3103 59.5752 100.114 58.5292 100.167C47.4481 100.167 38.4982 91.1645 38.4982 80.0833Z" fill="#34A353"/></g><defs><clipPath id="clip0_2_4871"><rect width="80.3333" height="80.3333" fill="white" transform="translate(20.2126 19.8333)"/></clipPath></defs></svg> 