<!-- created by svgstack.com | Attribution is required. --><svg width="120" height="120" viewBox="0 0 120 120" fill="none" xmlns="http://www.w3.org/2000/svg"><path fill-rule="evenodd" clip-rule="evenodd" d="M91.4062 0C108.75 0 120 11.25 120 28.5938V91.4062C120 108.75 108.75 120 91.4062 120H28.5938C11.25 120 0 108.75 0 91.4062V28.5938C0 11.25 11.25 0 28.5938 0H91.4062Z" fill="white"/><path d="M85.2 63.9144H85.2214C85.2214 63.9144 77.1429 75.7644 70.35 84.5715C64.4786 92.1787 62.7643 98.693 62.2714 101.843C62.0786 103 61.1357 103.857 60 103.857C58.8643 103.857 57.9214 103 57.7286 101.843C57.2357 98.693 55.5214 92.1787 49.65 84.5715C48.75 83.393 47.8286 82.1715 46.9072 80.9287L69.0857 54.5716L86.9357 33.4001C88.9071 37.5359 90 42.1644 90 47.0716C90 53.2858 88.2214 59.0501 85.2 63.9144Z" fill="#48B564"/><path d="M69.0857 54.5715L46.9071 80.9287C40.8643 72.8287 34.7785 63.9144 34.7785 63.9144H34.8C34.1571 62.8858 33.5786 61.8358 33.0857 60.743L50.9143 39.5715C49.2214 41.6072 48.2143 44.2215 48.2143 47.0715C48.2143 53.5858 53.4857 58.8572 60 58.8572C63.6642 58.8572 66.9428 57.1858 69.0857 54.5715Z" fill="#FCC60E"/><path d="M69.4286 17.5857L51.0643 39.4L37.0072 27.1428C42.4929 20.3286 50.7643 16 60 16C63.3 16 66.4715 16.5571 69.4286 17.5857Z" fill="#2C85EB"/><path d="M51.0643 39.4L50.9143 39.5714L33.0857 60.7428C31.1143 56.6071 30 51.9785 30 47.0714C30 39.4857 32.6357 32.5214 37.0071 27.1428L51.0643 39.4Z" fill="#ED5748"/><path d="M69.0857 54.5714C70.7786 52.5357 71.7857 49.9214 71.7857 47.0714C71.7857 40.5571 66.5143 35.2857 60 35.2857C56.3357 35.2857 53.0572 36.9571 50.9143 39.5714L69.4286 17.5857C77.1214 20.2 83.4214 25.9643 86.9357 33.4L69.0857 54.5714Z" fill="#5695F6"/></svg> 