<!-- created by svgstack.com | Attribution is required. --><svg width="120" height="120" viewBox="0 0 120 120" fill="none" xmlns="http://www.w3.org/2000/svg"><path fill-rule="evenodd" clip-rule="evenodd" d="M91.4062 0C108.75 0 120 11.25 120 28.5938V91.4062C120 108.75 108.75 120 91.4062 120H28.5938C11.25 120 0 108.75 0 91.4062V28.5938C0 11.25 11.25 0 28.5938 0H91.4062Z" fill="white"/><path d="M65.8894 60.2498L74.2171 69.7661L85.4157 76.919L87.369 60.3124L85.4157 44.0671L74.0016 50.3511L65.8894 60.2498Z" fill="#188038"/><path d="M17.5708 75.3757V89.5286C17.5708 92.7679 20.1915 95.3886 23.4308 95.3886H37.5837L40.5102 84.6905L37.5837 75.3757L27.8727 72.4492L17.5708 75.3757Z" fill="#1967D2"/><path d="M37.5837 25.1042L17.5708 45.1171L27.8727 48.0436L37.5837 45.1171L40.4615 35.9274L37.5837 25.1042Z" fill="#EA4335"/><path d="M17.5708 75.3763H37.5837V45.1172H17.5708V75.3763Z" fill="#4285F4"/><path d="M98.1992 33.5778L85.4157 44.0674V76.9193L98.2548 87.4505C100.18 88.952 102.989 87.5826 102.989 85.1427V35.844C102.989 33.3693 100.111 32.0138 98.1992 33.5778ZM65.8895 60.25V75.383H37.5837V95.3959H79.5627C82.802 95.3959 85.4226 92.7752 85.4226 89.5359V76.9193L65.8895 60.25Z" fill="#34A853"/><path d="M79.5627 25.1042H37.5837V45.1171H65.8964V60.2501L85.4157 44.0674V30.9642C85.4157 27.7249 82.795 25.1042 79.5627 25.1042Z" fill="#FBBC04"/></svg> 