<!-- created by svgstack.com | Attribution is required. --><svg width="120" height="120" viewBox="0 0 120 120" fill="none" xmlns="http://www.w3.org/2000/svg"><path fill-rule="evenodd" clip-rule="evenodd" d="M91.2759 0.249023C108.548 0.249023 119.751 11.4523 119.751 28.7242V91.2759C119.751 108.548 108.548 119.751 91.2759 119.751H28.7241C11.4523 119.751 0.248962 108.548 0.248962 91.2759V28.7242C0.248962 11.4523 11.4523 0.249023 28.7241 0.249023H91.2759Z" fill="white"/><path fill-rule="evenodd" clip-rule="evenodd" d="M91.2759 0.249023C108.548 0.249023 119.751 11.4523 119.751 28.7242V91.2759C119.751 108.548 108.548 119.751 91.2759 119.751H28.7241C11.4523 119.751 0.248962 108.548 0.248962 91.2759V28.7242C0.248962 11.4523 11.4523 0.249023 28.7241 0.249023H91.2759Z" fill="white"/><path fill-rule="evenodd" clip-rule="evenodd" d="M8.18564 8.18564C3.27988 13.0914 0.497925 20.143 0.497925 28.7241V91.2759C0.497925 99.8569 3.27988 106.909 8.18564 111.814C13.0914 116.72 20.143 119.502 28.7241 119.502H91.2759C99.8569 119.502 106.909 116.72 111.814 111.814C116.72 106.909 119.502 99.8569 119.502 91.2759V28.7241C119.502 20.143 116.72 13.0914 111.814 8.18564C106.909 3.27988 99.8569 0.497925 91.2759 0.497925H28.7241C20.143 0.497925 13.0914 3.27988 8.18564 8.18564ZM7.83356 7.83356C12.8474 2.81971 20.0333 0 28.7241 0H91.2759C99.9667 0 107.153 2.81971 112.166 7.83356C117.18 12.8474 120 20.0333 120 28.7241V91.2759C120 99.9667 117.18 107.153 112.166 112.166C107.153 117.18 99.9667 120 91.2759 120H28.7241C20.0333 120 12.8474 117.18 7.83356 112.166C2.81971 107.153 0 99.9667 0 91.2759V28.7241C0 20.0333 2.81971 12.8474 7.83356 7.83356Z" fill="#A4A4A4"/><path fill-rule="evenodd" clip-rule="evenodd" d="M48.5732 22.3446C38.9152 25.6552 30.6857 32.8957 26.1019 42.0586C24.503 45.2197 23.3517 48.5731 22.6481 52.0545C20.8999 60.6834 22.1151 69.889 26.0806 77.7491C28.6604 82.8751 32.37 87.4459 36.8473 91.0128C41.0899 94.3875 46.0148 96.9079 51.2595 98.2962C57.8687 100.069 64.9043 100.026 71.5561 98.5097C77.5683 97.1214 83.2608 94.238 87.802 90.0516C92.5989 85.6305 96.0315 79.8209 97.8436 73.5627C99.8261 66.7493 100.082 59.466 98.8461 52.4604C86.4161 52.4604 73.9653 52.4604 61.5357 52.4604C61.5357 57.6291 61.5357 62.7979 61.5357 67.9668C68.7419 67.9668 75.9481 67.9668 83.1542 67.9668C82.3227 72.922 79.3805 77.45 75.2232 80.248C72.6008 82.0208 69.5947 83.1528 66.482 83.7082C63.3693 84.2421 60.1287 84.3062 57.0159 83.6868C53.8393 83.046 50.8331 81.7217 48.1894 79.8636C43.9681 76.8947 40.7488 72.5589 39.1071 67.6677C37.4229 62.6911 37.4016 57.1592 39.1071 52.204C40.3011 48.7012 42.2625 45.476 44.8636 42.8275C48.0615 39.5383 52.2189 37.1888 56.7175 36.2277C60.555 35.4161 64.6058 35.5656 68.3582 36.6975C71.5561 37.6587 74.4983 39.4315 76.9074 41.7382C79.3379 39.3034 81.7684 36.8684 84.1989 34.4336C85.478 33.1307 86.8212 31.8705 88.0578 30.5249C84.3695 27.1075 80.0202 24.3522 75.2871 22.6008C66.7591 19.4398 57.1651 19.3756 48.5732 22.3446Z" fill="white"/><path fill-rule="evenodd" clip-rule="evenodd" d="M48.5732 22.3443C57.1438 19.3754 66.7591 19.4395 75.2871 22.5793C80.0201 24.3307 84.348 27.0646 88.0577 30.5033C86.8211 31.8489 85.478 33.1091 84.1988 34.412C81.7683 36.8469 79.3378 39.2818 76.9073 41.7166C74.4982 39.4099 71.556 37.6585 68.3581 36.676C64.6058 35.544 60.555 35.3731 56.7174 36.2061C52.2402 37.1673 48.0828 39.5167 44.8635 42.806C42.2625 45.4331 40.301 48.6796 39.1071 52.1824C34.7792 48.8078 30.4512 45.4544 26.1019 42.0798C30.6857 32.8955 38.9152 25.6549 48.5732 22.3443Z" fill="#EA4335"/><path fill-rule="evenodd" clip-rule="evenodd" d="M22.6694 52.0332C23.373 48.5731 24.5243 45.1984 26.1233 42.0374C30.4512 45.412 34.7791 48.7653 39.1284 52.14C37.4228 57.1166 37.4228 62.6485 39.1284 67.6037C34.8005 70.9784 30.4726 74.3531 26.1446 77.7064C22.1364 69.8677 20.9212 60.6621 22.6694 52.0332Z" fill="#FBBC05"/><path fill-rule="evenodd" clip-rule="evenodd" d="M61.5358 52.439C73.9653 52.439 86.4162 52.439 98.8462 52.439C100.082 59.4233 99.8052 66.7066 97.8437 73.5413C96.0315 79.7995 92.599 85.6091 87.802 90.0303C83.602 86.7625 79.4019 83.4946 75.2019 80.2267C79.3593 77.4286 82.3014 72.9006 83.1329 67.9454C75.9268 67.9454 68.7206 67.9454 61.5145 67.9454C61.5358 62.7766 61.5358 57.6077 61.5358 52.439Z" fill="#4285F4"/><path fill-rule="evenodd" clip-rule="evenodd" d="M26.1019 77.7277C30.4299 74.3744 34.7579 70.9997 39.0857 67.625C40.7487 72.5162 43.9467 76.852 48.1681 79.8209C50.8118 81.679 53.8392 83.0033 56.9945 83.6441C60.1072 84.2849 63.3265 84.1994 66.4606 83.6655C69.5733 83.1101 72.5795 81.9781 75.2017 80.2053C79.4018 83.4732 83.6018 86.7411 87.8018 90.0089C83.2608 94.2166 77.5683 97.0787 71.556 98.467C64.9043 99.9834 57.8687 100.026 51.2595 98.2535C46.0148 96.8652 41.0899 94.3662 36.8472 90.9701C32.3913 87.4246 28.6817 82.8538 26.1019 77.7277Z" fill="#34A853"/></svg> 