<!-- svgstack.com --><svg width="400" height="400" viewBox="0 0 400 400" fill="none" xmlns="http://www.w3.org/2000/svg"><path fill-rule="evenodd" clip-rule="evenodd" d="M191.923 239.872V197.92V197.912H214.617C223.974 197.918 231.837 194.978 238.207 189.092C244.645 183.506 248.245 175.475 248.062 167.104C248.189 158.779 244.596 150.807 238.207 145.239C231.893 139.321 223.4 136.092 214.617 136.27H178.187V239.872H191.923ZM191.923 185.191V149.026V149.018H214.959C220.093 148.878 225.042 150.88 228.55 154.515C232.079 157.839 234.07 162.405 234.07 167.175C234.07 171.944 232.079 176.51 228.55 179.834C224.999 183.393 220.065 185.338 214.959 185.191H191.923Z" fill="#5F6368"/><path fill-rule="evenodd" clip-rule="evenodd" d="M303.757 174.56C297.881 169.303 289.867 166.674 279.714 166.674C266.672 166.674 256.823 171.303 250.168 180.562L262.267 187.943C266.737 181.672 272.809 178.536 280.482 178.536C285.374 178.481 290.108 180.213 293.74 183.389C297.362 186.29 299.445 190.615 299.414 195.168V198.21C294.136 195.317 287.418 193.87 279.262 193.87C269.706 193.881 262.067 196.053 256.345 200.384C250.624 204.716 247.763 210.549 247.763 217.884C247.638 224.563 250.628 230.94 255.902 235.243C261.328 239.872 268.071 242.187 276.131 242.187C285.572 242.187 293.137 238.137 298.825 230.036H299.422V239.872H312.561V196.185C312.567 187.026 309.632 179.818 303.757 174.56ZM266.498 226.853C263.621 224.843 261.924 221.61 261.943 218.173C261.943 214.313 263.811 211.097 267.573 208.452C271.299 205.846 275.952 204.542 281.531 204.542C289.193 204.542 295.165 206.196 299.448 209.502C299.448 215.09 297.173 219.959 292.623 224.109C288.524 228.08 282.968 230.316 277.172 230.325C273.307 230.395 269.536 229.168 266.498 226.853Z" fill="#5F6368"/><path fill-rule="evenodd" clip-rule="evenodd" d="M387.982 168.989L342.116 271.119H327.936L344.957 235.384L314.797 168.989H329.727L351.526 219.909H351.825L373.026 168.989H387.982Z" fill="#5F6368"/><path fill-rule="evenodd" clip-rule="evenodd" d="M136.415 188.877C136.421 184.821 136.067 180.772 135.357 176.775H77.4268V199.697H110.607C109.235 207.095 104.803 213.629 98.3381 217.784V232.664H118.14C129.735 222.306 136.415 206.988 136.415 188.877Z" fill="#4285F4"/><path fill-rule="evenodd" clip-rule="evenodd" d="M77.4259 247.039C94.0031 247.039 107.961 241.765 118.139 232.672L98.3372 217.793C92.8257 221.414 85.7273 223.48 77.4259 223.48C61.4032 223.48 47.8036 213.015 42.9405 198.913H22.541V214.247C32.9681 234.35 54.2043 247.038 77.4259 247.039Z" fill="#34A853"/><path fill-rule="evenodd" clip-rule="evenodd" d="M42.9405 198.912C40.3696 191.522 40.3696 183.52 42.9405 176.13V160.796H22.5411C13.8196 177.611 13.8196 197.431 22.5411 214.246L42.9405 198.912Z" fill="#FBBC04"/><path fill-rule="evenodd" clip-rule="evenodd" d="M77.4259 151.563C86.1862 151.424 94.651 154.631 100.991 160.491V160.491L118.523 143.503C107.406 133.386 92.6774 127.831 77.4259 128.004C54.2043 128.005 32.9681 140.693 22.541 160.796L42.9405 176.13C47.8036 162.028 61.4032 151.563 77.4259 151.563Z" fill="#EA4335"/></svg> 