<!-- created by svgstack.com | Attribution is required. --><svg width="120" height="120" viewBox="0 0 120 120" fill="none" xmlns="http://www.w3.org/2000/svg"><path fill-rule="evenodd" clip-rule="evenodd" d="M91.4062 0C108.75 0 120 11.25 120 28.5938V91.4062C120 108.75 108.75 120 91.4062 120H28.5938C11.25 120 0 108.75 0 91.4062V28.5938C0 11.25 11.25 0 28.5938 0H91.4062Z" fill="white"/><path d="M54.4616 57.3958L23.3156 93.8563C24.4484 97.7115 28.0479 100.417 32.071 100.417C33.8221 100.417 35.355 99.9788 36.6684 99.1032L74.9788 77.221L54.4616 57.3958Z" fill="#EA4335"/><path d="M91.1795 52.265L74.7591 42.8506L57.2467 60.1449L74.9788 77.2211L91.3976 68.0263C94.2438 66.4934 96.2146 63.429 96.2146 60.1449C95.9949 56.8608 94.0257 53.7964 91.1795 52.265Z" fill="#FBBC04"/><path d="M54.3863 62.9895L74.7607 42.8505L36.888 21.3966C35.5747 20.521 33.8221 20.0833 32.071 20.0833C27.9129 20.0833 24.1911 22.9295 23.3156 26.6514L54.3863 62.9895Z" fill="#34A853"/><path d="M23.3139 26.6516C23.0958 27.3075 23.0958 28.1846 23.0958 29.0586V91.4511C23.0958 92.3251 23.0958 92.9826 23.3155 93.8581L57.2498 60.145L23.3139 26.6516Z" fill="#4285F4"/></svg> 