<!-- created by svgstack.com | Attribution is required. --><svg width="120" height="120" viewBox="0 0 120 120" fill="none" xmlns="http://www.w3.org/2000/svg"><path fill-rule="evenodd" clip-rule="evenodd" d="M91.4062 0C108.75 0 120 11.25 120 28.5938V91.4062C120 108.75 108.75 120 91.4062 120H28.5938C11.25 120 0 108.75 0 91.4062V28.5938C0 11.25 11.25 0 28.5938 0H91.4062Z" fill="white"/><path fill-rule="evenodd" clip-rule="evenodd" d="M99.9116 62.6481C98.6576 83.8775 81.0643 100.455 59.7962 100.455C37.6059 100.455 19.6101 82.4597 19.6101 60.2694C19.6101 38.079 37.6059 20.0833 59.7962 20.0833H93.5021C97.0463 20.0969 99.9122 22.9744 99.9122 26.518V26.5682L99.9116 62.6478V62.6481Z" fill="#1A73E8"/><path fill-rule="evenodd" clip-rule="evenodd" d="M93.5019 20.209H59.7255C37.6043 20.209 19.6646 38.1488 19.6646 60.2702C19.8683 38.2947 37.7492 20.5847 59.7239 20.5847H93.5021C97.046 20.5981 99.9119 23.4755 99.9119 27.0194V27.0444L99.9116 26.5685C99.8706 23.0544 97.0166 20.2216 93.5019 20.209Z" fill="white" fill-opacity="0.2"/><path fill-rule="evenodd" clip-rule="evenodd" d="M99.9118 62.648V61.6214C99.4173 83.4392 81.58 100.879 59.7509 100.879C37.5684 100.879 19.5792 82.8897 19.5792 60.7075C19.5792 60.4034 19.5842 60.0947 19.589 59.7955C19.5939 59.4964 19.589 60.1712 19.589 60.2462C19.6825 82.3721 37.6486 100.26 59.7753 100.26C81.1907 100.26 98.8528 83.4563 99.9126 62.0704" fill="#1A237E" fill-opacity="0.2"/><path fill-rule="evenodd" clip-rule="evenodd" d="M76.1255 68.1317V68.1475C76.1255 71.673 73.2665 74.5323 69.741 74.5323C69.5914 74.5323 69.4392 74.5267 69.2904 74.5167L46.5056 74.5165C46.3568 74.5267 46.2046 74.5323 46.055 74.5323C42.5324 74.5323 39.6749 71.6793 39.6702 68.1569V70.4102C39.6707 70.4336 39.6697 70.4607 39.6697 70.4857C39.6697 74.2186 42.697 77.2459 46.4299 77.2459C46.4546 77.2459 46.4819 77.2451 46.5059 77.2451L69.3151 77.2456H69.3658C73.0987 77.2456 76.126 74.2184 76.126 70.4854C76.126 70.4607 76.1252 70.4344 76.1252 70.4102L76.1255 68.1317ZM87.1174 69.9594C87.0748 70.6731 86.483 71.2302 85.7679 71.2302C85.4224 71.2302 85.0899 71.0977 84.8391 70.8606L76.1258 62.1975V64.4761L84.7891 73.1394C85.0362 73.4199 85.3925 73.5808 85.7663 73.5808C86.4851 73.5808 87.0682 72.9977 87.0682 72.2787C87.0682 72.2653 87.0679 72.2513 87.0677 72.2379L87.1176 69.9594H87.1174Z" fill="#185ABC"/><path fill-rule="evenodd" clip-rule="evenodd" d="M84.839 48.0512L76.1257 56.6144V62.0977L84.7891 70.7608C85.0388 71.0176 85.3824 71.1627 85.7408 71.1627C86.4645 71.1627 87.055 70.5828 87.0679 69.859L87.0676 48.9524C87.0043 48.2565 86.4201 47.7239 85.7213 47.7239C85.3977 47.7239 85.0846 47.8403 84.8393 48.0512H84.839Z" fill="#F1F3F4"/><path fill-rule="evenodd" clip-rule="evenodd" d="M69.3151 43.9446H46.5053C42.7309 43.9448 39.6699 47.0058 39.6699 50.7802L39.6697 68.1317V68.1566C39.6697 71.9172 42.7193 74.9671 46.4801 74.9671H69.3148C73.0801 74.9536 76.1252 71.8969 76.1252 68.1317V50.7802C76.1255 50.7721 76.1255 50.7637 76.1255 50.7553C76.1255 46.9947 73.0759 43.9448 69.3151 43.9448L69.3148 43.9446H69.3151Z" fill="white"/><path fill-rule="evenodd" clip-rule="evenodd" d="M76.1758 62.7485V62.1975L78.0035 64.0254V54.8865L76.1758 56.7142V62.7485Z" fill="#BDC1C6"/></svg> 