<!-- created by svgstack.com | Attribution is required. --><svg width="120" height="120" viewBox="0 0 120 120" fill="none" xmlns="http://www.w3.org/2000/svg"><path fill-rule="evenodd" clip-rule="evenodd" d="M91.4062 0C108.75 0 120 11.25 120 28.5938V91.4062C120 108.75 108.75 120 91.4062 120H28.5938C11.25 120 0 108.75 0 91.4062V28.5938C0 11.25 11.25 0 28.5938 0H91.4062Z" fill="white"/><path d="M88.7627 74.5773C88.7581 75.2383 88.4922 75.8706 88.023 76.3362C87.5538 76.8018 86.9194 77.0628 86.2584 77.0622H33.2476C32.5849 77.0653 31.9481 76.8055 31.4768 76.3396C31.0055 75.8738 30.7382 75.24 30.7336 74.5773V22.5701C30.7408 21.9081 31.0088 21.2756 31.4795 20.81C31.9501 20.3444 32.5855 20.0832 33.2476 20.0833H86.2584C86.9198 20.0827 87.5544 20.344 88.0236 20.81C88.4929 21.276 88.7586 21.9088 88.7627 22.5701V74.5773Z" fill="#0C9D58"/><path opacity="0.2" d="M88.7627 33.4537L68.895 30.8953L88.7627 36.2267V33.4537Z" fill="#004D40"/><path opacity="0.2" d="M60.7112 22.7905L30.6254 36.2284L63.8865 24.1248V24.0919C63.3063 22.8389 61.8773 22.2548 60.7209 22.7944L60.7112 22.7905Z" fill="#004D40"/><path opacity="0.2" d="M86.2584 20.0833H33.2476C32.5855 20.0832 31.9501 20.3444 31.4795 20.81C31.0088 21.2756 30.7408 21.9081 30.7336 22.5701V23.127C30.7408 22.465 31.0088 21.8325 31.4795 21.3669C31.9501 20.9013 32.5855 20.6401 33.2476 20.6402H86.2584C86.9198 20.6397 87.5544 20.9009 88.0236 21.3669C88.4929 21.8329 88.7586 22.4657 88.7627 23.127V22.5701C88.7586 21.9088 88.4929 21.276 88.0236 20.81C87.5544 20.344 86.9198 20.0827 86.2584 20.0833Z" fill="white"/><path d="M43.6088 72.9779C43.2491 74.3141 43.9646 75.6852 45.1964 76.0062L94.2953 89.2101C95.5271 89.5408 96.8285 88.717 97.1863 87.3827L108.752 44.2167C109.11 42.8805 108.394 41.5094 107.163 41.1884L58.0638 27.9826C56.832 27.6538 55.5306 28.4757 55.1748 29.8119L43.6088 72.9779Z" fill="#EA4335"/><path opacity="0.2" d="M97.6891 59.6233L100.271 75.3121L97.6891 84.954V59.6233Z" fill="#3E2723"/><path opacity="0.2" d="M69.1271 31.5352L71.4418 32.1578L72.8767 41.8403L69.1271 31.5352Z" fill="#3E2723"/><path opacity="0.2" d="M107.157 41.1884L58.0657 27.9826C56.8339 27.6538 55.5325 28.4757 55.1767 29.8119L43.6088 72.9779C43.5894 73.0514 43.5856 73.1229 43.572 73.1964L55.051 30.3553C55.4107 29.021 56.7102 28.1972 57.942 28.5279L107.041 41.7415C108.201 42.0528 108.895 43.2885 108.667 44.5532L108.754 44.2264C109.112 42.8901 108.396 41.5191 107.165 41.1981L107.157 41.1884Z" fill="white"/><path d="M82.2768 67.6546C82.7486 68.9541 82.1549 70.3735 80.9579 70.8105L29.1479 89.6746C27.949 90.1097 26.5818 89.4039 26.11 88.1044L10.8234 46.1103C10.3515 44.8108 10.9452 43.3914 12.1422 42.9563L63.9541 24.098C65.1531 23.6629 66.5183 24.3687 66.9921 25.6682L82.2768 67.6546Z" fill="#FFC107"/><path opacity="0.2" d="M11.0206 46.6401C10.5487 45.3406 11.1424 43.9212 12.3394 43.4842L64.1494 24.6259C65.3348 24.1947 66.6827 24.8831 67.17 26.1555L66.9921 25.6663C66.5183 24.3668 65.1511 23.6609 63.9541 24.098L12.1422 42.9563C10.9432 43.3914 10.3495 44.8108 10.8233 46.1103L26.1099 88.1044C26.1156 88.1183 26.122 88.1318 26.1292 88.145L11.0206 46.6401Z" fill="white"/><path d="M97.6813 97.9068C97.6813 98.5735 97.4165 99.213 96.945 99.6844C96.4736 100.156 95.8342 100.421 95.1674 100.421H24.329C23.6623 100.421 23.0228 100.156 22.5514 99.6844C22.0799 99.213 21.8151 98.5735 21.8151 97.9068V44.3506C21.8151 43.6839 22.0799 43.0444 22.5514 42.573C23.0228 42.1015 23.6623 41.8367 24.329 41.8367H95.179C95.8458 41.8367 96.4852 42.1015 96.9566 42.573C97.4281 43.0444 97.6929 43.6839 97.6929 44.3506L97.6813 97.9068Z" fill="#4285F4"/><path d="M84.1603 63.0406H62.9602V57.4617H84.1603C84.4562 57.4617 84.74 57.5792 84.9493 57.7885C85.1585 57.9977 85.2761 58.2815 85.2761 58.5775V61.9229C85.2763 62.0696 85.2477 62.2149 85.1917 62.3505C85.1358 62.4861 85.0536 62.6093 84.95 62.7132C84.8463 62.817 84.7232 62.8993 84.5877 62.9555C84.4522 63.0117 84.307 63.0406 84.1603 63.0406ZM84.1603 84.2388H62.9602V78.6598H84.1603C84.4562 78.6598 84.74 78.7774 84.9493 78.9866C85.1585 79.1959 85.2761 79.4797 85.2761 79.7756V83.1249C85.2756 83.4205 85.1578 83.7038 84.9486 83.9127C84.7394 84.1215 84.4559 84.2388 84.1603 84.2388ZM87.5077 73.6378H62.9602V68.0588H87.5077C87.8035 68.0593 88.087 68.177 88.2961 68.3862C88.5052 68.5953 88.623 68.8788 88.6235 69.1746V72.522C88.6235 72.8179 88.5059 73.1017 88.2967 73.311C88.0874 73.5202 87.8036 73.6378 87.5077 73.6378Z" fill="white"/><path opacity="0.2" d="M95.179 99.8596H24.329C23.6623 99.8596 23.0228 99.5948 22.5514 99.1233C22.0799 98.6519 21.8151 98.0124 21.8151 97.3457V97.9046C21.8151 98.5713 22.0799 99.2107 22.5514 99.6822C23.0228 100.154 23.6623 100.418 24.329 100.418H95.179C95.8458 100.418 96.4852 100.154 96.9566 99.6822C97.4281 99.2107 97.6929 98.5713 97.6929 97.9046V97.3457C97.6929 98.0124 97.4281 98.6519 96.9566 99.1233C96.4852 99.5948 95.8458 99.8596 95.179 99.8596Z" fill="#1A237E"/><path opacity="0.2" d="M24.329 42.3975H95.179C95.8458 42.3975 96.4852 42.6623 96.9566 43.1338C97.4281 43.6052 97.6929 44.2447 97.6929 44.9114V44.3525C97.6929 43.6858 97.4281 43.0464 96.9566 42.5749C96.4852 42.1035 95.8458 41.8386 95.179 41.8386H24.329C23.6623 41.8386 23.0228 42.1035 22.5514 42.5749C22.0799 43.0464 21.8151 43.6858 21.8151 44.3525V44.9114C21.8151 44.2447 22.0799 43.6052 22.5514 43.1338C23.0228 42.6623 23.6623 42.3975 24.329 42.3975Z" fill="white"/><path d="M43.9937 68.6216V73.6494H51.2125C50.6169 76.7145 47.925 78.9364 43.9937 78.9364C39.6117 78.9364 36.0651 75.2293 36.0651 70.8474C36.0651 66.4654 39.6194 62.7583 43.9937 62.7583C45.9028 62.7273 47.7476 63.4483 49.1298 64.7656L52.951 60.9444C50.5266 58.67 47.3157 57.4225 43.9917 57.4636C42.22 57.4423 40.4616 57.7729 38.8186 58.4362C37.1755 59.0995 35.6805 60.0823 34.42 61.3276C33.1596 62.573 32.1589 64.0561 31.476 65.6911C30.793 67.3261 30.4413 69.0803 30.4413 70.8522C30.4413 72.6241 30.793 74.3783 31.476 76.0133C32.1589 77.6483 33.1596 79.1314 34.42 80.3768C35.6805 81.6221 37.1755 82.6049 38.8186 83.2682C40.4616 83.9315 42.22 84.2621 43.9917 84.2408C51.7269 84.2408 56.8108 78.8049 56.8108 71.1568C56.8076 70.3075 56.7371 69.4597 56.6 68.6216H43.9937Z" fill="white"/><g opacity="0.2"><path d="M44.1328 73.6494V74.2063H51.2182C51.2711 74.0233 51.3155 73.8376 51.3516 73.6494H44.1328Z" fill="#1A237E"/><path d="M44.1328 84.2386C40.6304 84.2383 37.2677 82.8653 34.7659 80.4142C32.2642 77.9631 30.8228 74.6291 30.751 71.1275C30.751 71.2203 30.751 71.3209 30.751 71.406C30.751 74.9571 32.1617 78.3628 34.6727 80.8738C37.1837 83.3848 40.5894 84.7955 44.1405 84.7955C51.8757 84.7955 56.9596 79.3596 56.9596 71.7115C56.9596 71.6496 56.9596 71.5916 56.9596 71.5317C56.7778 78.9806 51.7384 84.2386 44.1328 84.2386ZM49.2689 64.7673C47.8863 63.4506 46.0418 62.7298 44.1328 62.76C39.7508 62.76 36.2043 66.4671 36.2043 70.849C36.2043 70.9438 36.2043 71.0424 36.2178 71.1275C36.3667 66.8732 39.8514 63.317 44.1463 63.317C46.0524 63.2908 47.8923 64.0152 49.2689 65.3339L53.3685 61.2343C53.2718 61.1453 53.1752 61.066 53.0669 60.979L49.2708 64.777L49.2689 64.7673Z" fill="#1A237E"/></g><path opacity="0.2" d="M85.2761 62.4817V61.9229C85.2761 62.2188 85.1585 62.5026 84.9493 62.7118C84.74 62.9211 84.4562 63.0386 84.1603 63.0386H62.9602V63.5936H84.1603C84.3068 63.5942 84.452 63.5657 84.5874 63.5099C84.7229 63.4542 84.846 63.3722 84.9497 63.2687C85.0534 63.1651 85.1356 63.0422 85.1916 62.9068C85.2476 62.7714 85.2763 62.6263 85.2761 62.4798V62.4817ZM84.1603 84.2387H62.9602V84.7957H84.1603C84.4562 84.7957 84.74 84.6781 84.9493 84.4689C85.1585 84.2596 85.2761 83.9758 85.2761 83.6799V83.1249C85.2756 83.4205 85.1578 83.7038 84.9486 83.9126C84.7394 84.1215 84.4559 84.2387 84.1603 84.2387ZM87.5077 73.6377H62.9602V74.1966H87.5077C87.8036 74.1966 88.0874 74.079 88.2967 73.8698C88.5059 73.6605 88.6235 73.3767 88.6235 73.0808V72.5239C88.623 72.8195 88.5052 73.1028 88.296 73.3116C88.0868 73.5204 87.8033 73.6377 87.5077 73.6377Z" fill="#1A237E"/><path d="M107.157 41.1886L88.7626 36.24V22.5701C88.7586 21.9088 88.4929 21.276 88.0236 20.81C87.5544 20.344 86.9197 20.0827 86.2584 20.0833H33.2475C32.5855 20.0832 31.9501 20.3444 31.4794 20.81C31.0087 21.2756 30.7407 21.9081 30.7336 22.5701V36.1859L12.1325 42.9541C10.9336 43.3892 10.3399 44.8086 10.8137 46.1081L21.8189 76.3177V97.9065C21.8189 98.5733 22.0837 99.2127 22.5552 99.6841C23.0266 100.156 23.666 100.42 24.3328 100.42H95.1789C95.8457 100.42 96.4851 100.156 96.9566 99.6841C97.428 99.2127 97.6929 98.5733 97.6929 97.9065V85.5129L108.754 44.2169C109.112 42.8807 108.396 41.5096 107.165 41.1886H107.157Z" fill="url(#paint0_radial_9_145)"/><defs><radialGradient id="paint0_radial_9_145" cx="0" cy="0" r="1" gradientUnits="userSpaceOnUse" gradientTransform="translate(32.7892 26.5904) scale(95.4845 95.4846)"><stop stop-color="white" stop-opacity="0.1"/><stop offset="1" stop-color="white" stop-opacity="0"/></radialGradient></defs></svg> 