<!-- created by svgstack.com | Attribution is required. --><svg width="100" height="100" viewBox="0 0 100 100" fill="none" xmlns="http://www.w3.org/2000/svg"><path d="M90.8542 41.8416L90.8125 41.6666H87.5H58.3333C53.7292 41.6666 50 45.3958 50 49.9999C50 54.6041 53.7292 58.3333 58.3333 58.3333H73.5458C71.8833 63.0291 68.8417 67.0624 64.9333 69.9958C60.7667 73.1208 55.6125 74.9999 50 74.9999C39.1375 74.9999 29.9208 68.0583 26.4708 58.3791C25.5333 55.7583 25 52.9458 25 49.9999C25 46.6041 25.6833 43.3708 26.9083 40.4166C30.6708 31.3666 39.5875 24.9999 50 24.9999C54.1667 24.9999 58.0875 26.0291 61.5375 27.8374C64.8292 29.5624 68.8292 29.0916 71.4583 26.4624C75.3958 22.5249 74.4583 15.8583 69.5458 13.2291C63.7167 10.1083 57.0708 8.33325 50 8.33325C34.0125 8.33325 20.1417 17.3499 13.1542 30.5708C10.0875 36.3749 8.33334 42.9791 8.33334 49.9999C8.33334 56.8416 10.0125 63.2791 12.9333 68.9749C19.8417 82.4333 33.8292 91.6666 50 91.6666C60.7458 91.6666 70.5083 87.5666 77.8958 80.8874C86.3333 73.2624 91.6667 62.2666 91.6667 49.9999C91.6667 47.2041 91.3792 44.4791 90.8542 41.8416Z" fill="url(#paint0_linear_2019_271)"/><path d="M50 10.4166C56.4625 10.4166 62.8833 12.0249 68.5584 15.0624C70.2959 15.9916 71.4583 17.6541 71.75 19.6166C72.0458 21.6083 71.4 23.5666 69.9792 24.9833C68.8292 26.1333 67.2833 26.7666 65.625 26.7666C64.5542 26.7666 63.475 26.4958 62.5 25.9874C58.6667 23.9791 54.3458 22.9166 50 22.9166C39.0208 22.9166 29.2042 29.4708 24.9875 39.6208C23.6125 42.9249 22.9167 46.4166 22.9167 49.9999C22.9167 53.0624 23.45 56.1166 24.5083 59.0791C28.3458 69.8458 38.5917 77.0833 50 77.0833C55.8625 77.0833 61.4583 75.2083 66.1833 71.6624C70.5083 68.4166 73.7333 64.0458 75.5083 59.0291L76.4917 56.2499H73.5458H58.3333C54.8875 56.2499 52.0833 53.4458 52.0833 49.9999C52.0833 46.5541 54.8875 43.7499 58.3333 43.7499H87.5H89.0833C89.4167 45.8374 89.5833 47.9333 89.5833 49.9999C89.5833 61.1291 84.8125 71.8249 76.5 79.3416C69.1917 85.9458 59.7792 89.5833 50 89.5833C35.1042 89.5833 21.6125 81.3208 14.7875 68.0208C11.8875 62.3666 10.4167 56.3041 10.4167 49.9999C10.4167 43.5041 11.9583 37.2958 14.9958 31.5416C21.8833 18.5124 35.2958 10.4166 50 10.4166ZM50 8.33325C34.0125 8.33325 20.1417 17.3499 13.1542 30.5708C10.0875 36.3749 8.33334 42.9791 8.33334 49.9999C8.33334 56.8416 10.0125 63.2791 12.9333 68.9749C19.8417 82.4333 33.8292 91.6666 50 91.6666C60.7458 91.6666 70.5083 87.5666 77.8958 80.8874C86.3333 73.2624 91.6667 62.2666 91.6667 49.9999C91.6667 47.2041 91.3792 44.4791 90.8542 41.8416L90.8125 41.6666H87.5H58.3333C53.7292 41.6666 50 45.3958 50 49.9999C50 54.6041 53.7292 58.3333 58.3333 58.3333H73.5458C71.8833 63.0291 68.8417 67.0624 64.9333 69.9958C60.7667 73.1208 55.6125 74.9999 50 74.9999C39.1375 74.9999 29.9208 68.0583 26.4708 58.3791C25.5333 55.7583 25 52.9458 25 49.9999C25 46.6041 25.6833 43.3708 26.9083 40.4166C30.6708 31.3666 39.5875 24.9999 50 24.9999C54.1667 24.9999 58.0875 26.0291 61.5375 27.8374C62.8333 28.5166 64.2417 28.8541 65.6292 28.8541C67.7667 28.8541 69.8625 28.0541 71.4583 26.4583C75.3958 22.5208 74.4583 15.8541 69.5458 13.2249C63.7167 10.1083 57.0708 8.33325 50 8.33325Z" fill="url(#paint1_linear_2019_271)"/><path d="M25 50C25 46.6041 25.6833 43.3708 26.9083 40.4166L13.1542 30.5708C10.0875 36.375 8.33334 42.9791 8.33334 50C8.33334 56.8416 10.0125 63.2791 12.9333 68.975L26.4667 58.3833C25.5333 55.7583 25 52.9458 25 50Z" fill="url(#paint2_linear_2019_271)"/><path d="M91.6667 50.0001C91.6667 47.2042 91.3792 44.4792 90.8542 41.8417L90.8125 41.6667H87.5H58.3333C53.7292 41.6667 50 45.3959 50 50.0001C50 54.6042 53.7292 58.3334 58.3333 58.3334H73.5458C71.8833 63.0292 68.8417 67.0626 64.9333 69.9959L77.8958 80.8876C86.3333 73.2626 91.6667 62.2667 91.6667 50.0001Z" fill="url(#paint3_linear_2019_271)"/><defs><linearGradient id="paint0_linear_2019_271" x1="20.0338" y1="21.0645" x2="78.9138" y2="79.9445" gradientUnits="userSpaceOnUse"><stop stop-color="white" stop-opacity="0.6"/><stop offset="1" stop-color="white" stop-opacity="0.3"/></linearGradient><linearGradient id="paint1_linear_2019_271" x1="20.0338" y1="21.0645" x2="78.9138" y2="79.9445" gradientUnits="userSpaceOnUse"><stop stop-color="white" stop-opacity="0.6"/><stop offset="0.4927" stop-color="white" stop-opacity="0"/><stop offset="0.9971" stop-color="white" stop-opacity="0.3"/></linearGradient><linearGradient id="paint2_linear_2019_271" x1="4.47626" y1="39.2487" x2="25.0383" y2="59.8112" gradientUnits="userSpaceOnUse"><stop stop-color="white" stop-opacity="0.7"/><stop offset="0.5188" stop-color="white" stop-opacity="0.45"/><stop offset="0.9998" stop-color="white" stop-opacity="0.55"/></linearGradient><linearGradient id="paint3_linear_2019_271" x1="59.295" y1="37.2534" x2="90.45" y2="68.4084" gradientUnits="userSpaceOnUse"><stop stop-color="white" stop-opacity="0.7"/><stop offset="0.5188" stop-color="white" stop-opacity="0.45"/><stop offset="0.9998" stop-color="white" stop-opacity="0.55"/></linearGradient></defs></svg> 