<!-- created by svgstack.com | Attribution is required. --><svg width="120" height="120" viewBox="0 0 120 120" fill="none" xmlns="http://www.w3.org/2000/svg"><path fill-rule="evenodd" clip-rule="evenodd" d="M91.2759 0.249023C108.548 0.249023 119.751 11.4523 119.751 28.7242V91.2759C119.751 108.548 108.548 119.751 91.2759 119.751H28.7242C11.4523 119.751 0.249023 108.548 0.249023 91.2759V28.7242C0.249023 11.4523 11.4523 0.249023 28.7242 0.249023H91.2759Z" fill="white"/><path fill-rule="evenodd" clip-rule="evenodd" d="M91.2759 0.249023C108.548 0.249023 119.751 11.4523 119.751 28.7242V91.2759C119.751 108.548 108.548 119.751 91.2759 119.751H28.7242C11.4523 119.751 0.249023 108.548 0.249023 91.2759V28.7242C0.249023 11.4523 11.4523 0.249023 28.7242 0.249023H91.2759Z" fill="white"/><path fill-rule="evenodd" clip-rule="evenodd" d="M8.18564 8.18564C3.27988 13.0914 0.497925 20.143 0.497925 28.7241V91.2759C0.497925 99.8569 3.27988 106.909 8.18564 111.814C13.0914 116.72 20.143 119.502 28.7241 119.502H91.2759C99.8569 119.502 106.909 116.72 111.814 111.814C116.72 106.909 119.502 99.8569 119.502 91.2759V28.7241C119.502 20.143 116.72 13.0914 111.814 8.18564C106.909 3.27988 99.8569 0.497925 91.2759 0.497925H28.7241C20.143 0.497925 13.0914 3.27988 8.18564 8.18564ZM7.83356 7.83356C12.8474 2.81971 20.0333 0 28.7241 0H91.2759C99.9667 0 107.153 2.81971 112.166 7.83356C117.18 12.8474 120 20.0333 120 28.7241V91.2759C120 99.9667 117.18 107.153 112.166 112.166C107.153 117.18 99.9667 120 91.2759 120H28.7241C20.0333 120 12.8474 117.18 7.83356 112.166C2.81971 107.153 0 99.9667 0 91.2759V28.7241C0 20.0333 2.81971 12.8474 7.83356 7.83356Z" fill="#A4A4A4"/><mask id="mask0_2_1861" style="mask-type:alpha" maskUnits="userSpaceOnUse" x="16" y="16" width="88" height="88"><path fill-rule="evenodd" clip-rule="evenodd" d="M60 103.817C84.1997 103.817 103.817 84.1995 103.817 59.9998C103.817 35.8001 84.1997 16.1824 60 16.1824C35.8004 16.1824 16.1826 35.8001 16.1826 59.9998C16.1826 84.1995 35.8004 103.817 60 103.817Z" fill="white"/></mask><g mask="url(#mask0_2_1861)"><path fill-rule="evenodd" clip-rule="evenodd" d="M19.5425 29.5076L43.3349 70.9811L59.7933 40.0857L116.999 40.1546L65.1082 5.72729L19.5425 29.5076Z" fill="#DC493C"/><path fill-rule="evenodd" clip-rule="evenodd" d="M109.874 40.0909L59.7031 40.0842C59.7031 40.0842 67.4375 41.3335 70.18 43.601C75.3008 47.8346 79.3868 55.7377 79.3868 55.7377L50.2673 120.517L106.492 87.2222L109.874 40.0909Z" fill="#FFCD41"/><path fill-rule="evenodd" clip-rule="evenodd" d="M50.6146 116.363L77.4098 69.6663L43.5204 71.0662L19.5585 29.5493L12.4268 88.5617L50.6146 116.363Z" fill="#139F5B"/><path fill-rule="evenodd" clip-rule="evenodd" d="M64.7044 75.2087L57.8381 103.776L77.2171 70.0469L64.7044 75.2087Z" fill="url(#paint0_linear_2_1861)"/><path fill-rule="evenodd" clip-rule="evenodd" d="M23.2886 36.0281L41.2975 54.4554L41.7659 68.0485L23.2886 36.0281Z" fill="url(#paint1_linear_2_1861)"/><path fill-rule="evenodd" clip-rule="evenodd" d="M59.8992 40.0916H99.0374L66.8293 48.8073L59.8992 40.0916Z" fill="url(#paint2_linear_2_1861)"/><path d="M60.0001 78.4231C70.175 78.4231 78.4234 70.1748 78.4234 59.9999C78.4234 49.825 70.175 41.5767 60.0001 41.5767C49.8252 41.5767 41.5769 49.825 41.5769 59.9999C41.5769 70.1748 49.8252 78.4231 60.0001 78.4231Z" fill="#4687F4"/><path fill-rule="evenodd" clip-rule="evenodd" d="M40.083 60C40.083 49.0001 49.0001 40.083 60 40.083C70.9999 40.083 79.917 49.0001 79.917 60C79.917 70.9999 70.9999 79.917 60 79.917C49.0001 79.917 40.083 70.9999 40.083 60ZM60 43.0706C50.6501 43.0706 43.0706 50.6501 43.0706 60C43.0706 69.3499 50.6501 76.9295 60 76.9295C69.3499 76.9295 76.9295 69.3499 76.9295 60C76.9295 50.6501 69.3499 43.0706 60 43.0706Z" fill="white"/></g><defs><linearGradient id="paint0_linear_2_1861" x1="59.0032" y1="63.6693" x2="42.1397" y2="86.2098" gradientUnits="userSpaceOnUse"><stop stop-color="#13834D"/><stop offset="1" stop-color="#139F5B"/></linearGradient><linearGradient id="paint1_linear_2_1861" x1="52.5818" y1="47.6698" x2="24.9284" y2="36.9957" gradientUnits="userSpaceOnUse"><stop stop-color="#B4372C"/><stop offset="1" stop-color="#CF4539"/></linearGradient><linearGradient id="paint2_linear_2_1861" x1="47.8363" y1="43.5442" x2="50.0443" y2="58.018" gradientUnits="userSpaceOnUse"><stop stop-color="#D3AA36"/><stop offset="1" stop-color="#FFCD41" stop-opacity="0.01"/></linearGradient></defs></svg> 