<!-- created by svgstack.com | Attribution is required. --><svg width="120" height="120" viewBox="0 0 120 120" fill="none" xmlns="http://www.w3.org/2000/svg"><path fill-rule="evenodd" clip-rule="evenodd" d="M91.2759 0.249023C108.548 0.249023 119.751 11.4523 119.751 28.7242V91.2759C119.751 108.548 108.548 119.751 91.2759 119.751H28.7242C11.4523 119.751 0.249023 108.548 0.249023 91.2759V28.7242C0.249023 11.4523 11.4523 0.249023 28.7242 0.249023H91.2759Z" fill="white"/><path fill-rule="evenodd" clip-rule="evenodd" d="M91.2759 0.249023C108.548 0.249023 119.751 11.4523 119.751 28.7242V91.2759C119.751 108.548 108.548 119.751 91.2759 119.751H28.7242C11.4523 119.751 0.249023 108.548 0.249023 91.2759V28.7242C0.249023 11.4523 11.4523 0.249023 28.7242 0.249023H91.2759Z" fill="white"/><path fill-rule="evenodd" clip-rule="evenodd" d="M8.18564 8.18564C3.27988 13.0914 0.497925 20.143 0.497925 28.7241V91.2759C0.497925 99.8569 3.27988 106.909 8.18564 111.814C13.0914 116.72 20.143 119.502 28.7241 119.502H91.2759C99.8569 119.502 106.909 116.72 111.814 111.814C116.72 106.909 119.502 99.8569 119.502 91.2759V28.7241C119.502 20.143 116.72 13.0914 111.814 8.18564C106.909 3.27988 99.8569 0.497925 91.2759 0.497925H28.7241C20.143 0.497925 13.0914 3.27988 8.18564 8.18564ZM7.83356 7.83356C12.8474 2.81971 20.0333 0 28.7241 0H91.2759C99.9667 0 107.153 2.81971 112.166 7.83356C117.18 12.8474 120 20.0333 120 28.7241V91.2759C120 99.9667 117.18 107.153 112.166 112.166C107.153 117.18 99.9667 120 91.2759 120H28.7241C20.0333 120 12.8474 117.18 7.83356 112.166C2.81971 107.153 0 99.9667 0 91.2759V28.7241C0 20.0333 2.81971 12.8474 7.83356 7.83356Z" fill="#A4A4A4"/><g filter="url(#filter0_d_2_2059)"><path fill-rule="evenodd" clip-rule="evenodd" d="M45.0623 21.1616H74.9378L103.817 72.9459H73.9419L45.0623 21.1616Z" fill="#FFCF48"/></g><g filter="url(#filter1_d_2_2059)"><path fill-rule="evenodd" clip-rule="evenodd" d="M31.2613 96.8465C35.5915 88.8047 45.2032 72.946 45.2032 72.946H103.959L89.0206 98.8382H31.2613C31.2613 98.8382 30.9442 97.4354 31.2613 96.8465Z" fill="#4587F4"/></g><path fill-rule="evenodd" clip-rule="evenodd" d="M45.0623 21.1616L60 48.0496L31.1204 98.838L16.1826 72.9459L45.0623 21.1616Z" fill="#1BA261"/><path fill-rule="evenodd" clip-rule="evenodd" d="M45.8248 73L58.4528 97.8184H31.7302L45.8248 73Z" fill="url(#paint0_linear_2_2059)"/><path fill-rule="evenodd" clip-rule="evenodd" d="M45.8248 73L58.4528 97.8184H31.7302L45.8248 73Z" fill="url(#paint1_linear_2_2059)"/><path fill-rule="evenodd" clip-rule="evenodd" d="M45.0898 21.1953L53.7677 58.9919L60.0462 48.0146L45.0898 21.1953Z" fill="url(#paint2_linear_2_2059)"/><defs><filter id="filter0_d_2_2059" x="45.0623" y="21.1616" width="59.3551" height="52.7842" filterUnits="userSpaceOnUse" color-interpolation-filters="sRGB"><feFlood flood-opacity="0" result="BackgroundImageFix"/><feColorMatrix in="SourceAlpha" type="matrix" values="0 0 0 0 0 0 0 0 0 0 0 0 0 0 0 0 0 0 127 0" result="hardAlpha"/><feOffset dx="0.6" dy="1"/><feComposite in2="hardAlpha" operator="out"/><feColorMatrix type="matrix" values="0 0 0 0 1 0 0 0 0 0.88914 0 0 0 0 0.556562 0 0 0 1 0"/><feBlend mode="normal" in2="BackgroundImageFix" result="effect1_dropShadow_2_2059"/><feBlend mode="normal" in="SourceGraphic" in2="effect1_dropShadow_2_2059" result="shape"/></filter><filter id="filter1_d_2_2059" x="31.1204" y="71.946" width="73.4385" height="26.8921" filterUnits="userSpaceOnUse" color-interpolation-filters="sRGB"><feFlood flood-opacity="0" result="BackgroundImageFix"/><feColorMatrix in="SourceAlpha" type="matrix" values="0 0 0 0 0 0 0 0 0 0 0 0 0 0 0 0 0 0 127 0" result="hardAlpha"/><feOffset dx="0.6" dy="-1"/><feComposite in2="hardAlpha" operator="out"/><feColorMatrix type="matrix" values="0 0 0 0 0.580392 0 0 0 0 0.713726 0 0 0 0 0.909804 0 0 0 1 0"/><feBlend mode="normal" in2="BackgroundImageFix" result="effect1_dropShadow_2_2059"/><feBlend mode="normal" in="SourceGraphic" in2="effect1_dropShadow_2_2059" result="shape"/></filter><linearGradient id="paint0_linear_2_2059" x1="22.5467" y1="61.5045" x2="22.5467" y2="100.205" gradientUnits="userSpaceOnUse"><stop stop-color="#155ACA"/><stop offset="1" stop-color="#2F71DD" stop-opacity="0.01"/></linearGradient><linearGradient id="paint1_linear_2_2059" x1="30.7598" y1="88.2962" x2="39.5207" y2="94.0544" gradientUnits="userSpaceOnUse"><stop stop-color="#002D77" stop-opacity="0.8018"/><stop offset="1" stop-color="#2F71DD" stop-opacity="0.01"/></linearGradient><linearGradient id="paint2_linear_2_2059" x1="44.6767" y1="41.1653" x2="62.4963" y2="50.9841" gradientUnits="userSpaceOnUse"><stop stop-color="#1B935A"/><stop offset="1" stop-color="#118B50" stop-opacity="0.01"/></linearGradient></defs></svg> 