<!-- created by svgstack.com | Attribution is required. --><svg width="120" height="120" viewBox="0 0 120 120" fill="none" xmlns="http://www.w3.org/2000/svg"><path fill-rule="evenodd" clip-rule="evenodd" d="M91.4062 0C108.75 0 120 11.25 120 28.5938V91.4062C120 108.75 108.75 120 91.4062 120H28.5938C11.25 120 0 108.75 0 91.4062V28.5938C0 11.25 11.25 0 28.5938 0H91.4062Z" fill="white"/><g clip-path="url(#clip0_8_781)"><path d="M45.9863 30.1992C46.8361 27.9685 48.0046 25.9149 49.7396 24.2507C56.6795 17.4878 68.1516 19.1874 72.8609 27.6853C76.4017 34.1295 80.1549 40.4321 83.8019 46.8055C89.8921 57.3924 96.053 67.9794 102.072 78.6018C107.136 87.4891 101.647 98.7134 91.5916 100.236C85.4307 101.157 79.6592 98.3239 76.4725 92.8003C71.1259 83.488 65.7439 74.1758 60.3973 64.8989C60.2911 64.6865 60.1495 64.5094 60.0078 64.3324C59.4413 63.8721 59.1935 63.1993 58.8394 62.5974C56.4671 58.4193 54.0239 54.2766 51.6516 50.1338C50.1291 47.4428 48.5357 44.7873 47.0132 42.0963C45.6323 39.6885 44.9949 37.0683 45.0657 34.3065C45.172 32.8902 45.349 31.4739 45.9863 30.1992Z" fill="#3C8BD9"/><path d="M45.9863 30.1992C45.6676 31.4739 45.3843 32.7486 45.3135 34.0941C45.2073 37.0683 45.9509 39.8302 47.438 42.4149C51.3329 49.107 55.2277 55.8345 59.0872 62.562C59.4413 63.1639 59.7245 63.7659 60.0786 64.3324C57.9541 68.0148 55.8297 71.6618 53.6698 75.3442C50.6955 80.4784 47.7213 85.6479 44.7116 90.7821C44.57 90.7821 44.5346 90.7112 44.4991 90.605C44.4637 90.3218 44.57 90.0739 44.6408 89.7906C46.0925 84.4795 44.8886 79.7702 41.2416 75.7337C39.0109 73.2906 36.1783 71.9097 32.9208 71.4494C28.6718 70.8474 24.9186 71.9451 21.5549 74.6007C20.9529 75.061 20.5634 75.7337 19.8553 76.0878C19.7136 76.0878 19.6428 76.017 19.6074 75.9108C21.307 72.9719 22.9712 70.0331 24.6707 67.0942C31.6815 54.9139 38.6923 42.7336 45.7384 30.5887C45.8092 30.4471 45.9155 30.3409 45.9863 30.1992Z" fill="#FABC04"/><path d="M19.7491 76.017C20.4219 75.415 21.0592 74.7777 21.7674 74.2112C30.3715 67.4129 43.2954 72.3345 45.172 83.0985C45.6323 85.6833 45.3844 88.1619 44.6054 90.6404C44.57 90.8529 44.5346 91.0299 44.4638 91.2423C44.1451 91.8089 43.8619 92.4108 43.5078 92.9773C40.3565 98.1823 35.7181 100.767 29.6279 100.378C22.6526 99.8819 17.1644 94.6415 16.2084 87.7016C15.7481 84.3378 16.4208 81.1865 18.1558 78.2831C18.5099 77.6457 18.9348 77.0792 19.3242 76.4419C19.5013 76.3002 19.4305 76.017 19.7491 76.017Z" fill="#34A852"/><path d="M19.7491 76.0171C19.6075 76.1587 19.6075 76.4066 19.3596 76.442C19.3242 76.1942 19.4659 76.0525 19.6075 75.8755L19.7491 76.0171Z" fill="#FABC04"/><path d="M44.4638 91.2426C44.3222 90.9947 44.4638 90.8177 44.6054 90.6406C44.6409 90.676 44.7117 90.7468 44.7471 90.7823L44.4638 91.2426Z" fill="#E1C025"/></g><defs><clipPath id="clip0_8_781"><rect width="87.9212" height="80.3333" fill="white" transform="translate(16.0667 20.0833)"/></clipPath></defs></svg> 