<!-- created by svgstack.com | Attribution is required. --><svg width="120" height="120" viewBox="0 0 120 120" fill="none" xmlns="http://www.w3.org/2000/svg"><path fill-rule="evenodd" clip-rule="evenodd" d="M91.4062 0C108.75 0 120 11.25 120 28.5938V91.4062C120 108.75 108.75 120 91.4062 120H28.5938C11.25 120 0 108.75 0 91.4062V28.5938C0 11.25 11.25 0 28.5938 0H91.4062Z" fill="white"/><g clip-path="url(#clip0_9_311)"><path fill-rule="evenodd" clip-rule="evenodd" d="M94.4408 100.417C97.378 100.417 99.7842 98.0507 99.7842 95.154V41.4723C99.7842 38.5754 97.378 36.2095 94.4408 36.2095H42.288L63.2183 100.417H94.4408Z" fill="#DBDBDB"/><path fill-rule="evenodd" clip-rule="evenodd" d="M94.4408 38.6238C95.2213 38.6238 95.9617 38.9296 96.5171 39.4768C97.0643 40.016 97.3701 40.7242 97.3701 41.4726V95.1542C97.3701 95.9026 97.0725 96.6108 96.5171 97.1498C95.962 97.697 95.2215 98.0028 94.4408 98.0028H64.9727L45.6115 38.6238H94.4408ZM94.4408 36.2097H42.288L63.2183 100.417H94.4408C97.378 100.417 99.7842 98.051 99.7842 95.1542V41.4726C99.7842 38.5756 97.378 36.2097 94.4408 36.2097Z" fill="#DCDCDC"/><path fill-rule="evenodd" clip-rule="evenodd" d="M58.2776 85.2483L63.2185 100.417L76.9547 85.2483H58.2776Z" fill="#4352B8"/><path fill-rule="evenodd" clip-rule="evenodd" d="M94.795 58.395V55.2486H79.6264V50.1628H74.7015V55.2486H65.0211V58.395H84.2856C83.2556 62.0242 80.9783 65.4522 78.7575 68.1157C74.8225 63.4564 74.8064 61.9437 74.8064 61.9437H70.7184C70.7184 61.9437 70.8875 64.213 76.4077 70.6828C74.6131 72.5174 73.2532 73.6038 73.2532 73.6038L74.5085 77.5309C74.5085 77.5309 76.4077 75.8972 78.7816 73.3786C81.1634 75.9616 84.2374 79.0677 88.2127 82.7694L90.7957 80.1864C86.5388 76.3239 83.4165 73.2581 81.1231 70.7955C84.197 67.1584 87.3192 62.5796 87.9792 58.387H94.787V58.395H94.795Z" fill="#607988"/><path fill-rule="evenodd" clip-rule="evenodd" d="M24.8101 20.0833C21.8729 20.0833 19.4667 22.4894 19.4667 25.4346V79.9128C19.4667 82.85 21.8726 85.2561 24.8101 85.2561H76.9629L56.0326 20.0833H24.8101Z" fill="#4285F4"/><path fill-rule="evenodd" clip-rule="evenodd" d="M49.3534 54.7339C49.1522 57.1721 47.068 60.7852 42.0225 60.7852C37.653 60.7852 34.1123 57.1721 34.1123 52.7222C34.1123 48.272 37.653 44.659 42.0225 44.659C44.5091 44.659 46.1668 45.7372 47.1162 46.6143L50.4314 43.4277C48.2508 41.416 45.4102 40.1606 42.0222 40.1606C35.0939 40.1606 29.4689 45.7854 29.4689 52.714C29.4689 59.6423 35.0939 65.2673 42.0222 65.2673C49.2807 65.2673 54.0766 60.1736 54.0766 52.9877C54.0766 51.9576 53.9479 51.2013 53.779 50.4288H42.0302V54.7259L49.3529 54.7339H49.3534Z" fill="#EEEEEE"/><mask id="mask0_9_311" style="mask-type:luminance" maskUnits="userSpaceOnUse" x="19" y="20" width="81" height="81"><path fill-rule="evenodd" clip-rule="evenodd" d="M19.4307 20.0474H99.8204V100.453H19.4307V20.0474Z" fill="url(#paint0_radial_9_311)"/></mask><g mask="url(#mask0_9_311)"><path fill-rule="evenodd" clip-rule="evenodd" d="M94.4411 36.2094H61.2148L56.0326 20.0833H24.8101C21.8729 20.0833 19.467 22.4894 19.467 25.4346V79.9128C19.467 82.85 21.8729 85.2561 24.8101 85.2561H58.2776L63.2185 100.417H94.4411C97.3783 100.417 99.7842 98.0509 99.7842 95.154V41.4723C99.7842 38.5756 97.3783 36.2094 94.4411 36.2094Z" fill="url(#paint1_radial_9_311)"/></g></g><defs><radialGradient id="paint0_radial_9_311" cx="0" cy="0" r="1" gradientUnits="userSpaceOnUse" gradientTransform="translate(-137.71 -153.787) scale(715.928 715.928)"><stop stop-color="white" stop-opacity="0.102"/><stop offset="1" stop-color="white"/></radialGradient><radialGradient id="paint1_radial_9_311" cx="0" cy="0" r="1" gradientUnits="userSpaceOnUse" gradientTransform="translate(25.0889 21.6899) scale(40.1667 40.1667)"><stop stop-color="white"/><stop offset="1" stop-color="white"/></radialGradient><clipPath id="clip0_9_311"><rect width="80.3174" height="80.3333" fill="white" transform="translate(19.4667 20.0833)"/></clipPath></defs></svg> 