<!-- created by svgstack.com | Attribution is required. --><svg width="120" height="120" viewBox="0 0 120 120" fill="none" xmlns="http://www.w3.org/2000/svg"><path fill-rule="evenodd" clip-rule="evenodd" d="M91.4062 0C108.75 0 120 11.25 120 28.5938V91.4062C120 108.75 108.75 120 91.4062 120H28.5938C11.25 120 0 108.75 0 91.4062V28.5938C0 11.25 11.25 0 28.5938 0H91.4062Z" fill="white"/><g clip-path="url(#clip0_9_329)"><path fill-rule="evenodd" clip-rule="evenodd" d="M83.5143 41.5983C84.6509 41.6035 85.7635 41.2711 86.711 40.6432C87.6585 40.0154 88.3983 39.1204 88.8365 38.0716C89.2748 37.0228 89.3918 35.8676 89.1728 34.7522C88.9537 33.6369 88.4085 32.6117 87.6061 31.8066C86.8038 31.0015 85.7805 30.4527 84.6659 30.2299C83.5513 30.007 82.3956 30.1201 81.3454 30.5547C80.2951 30.9894 79.3976 31.7261 78.7665 32.6714C78.1354 33.6168 77.7992 34.7282 77.8005 35.8649C77.8022 37.385 78.4068 38.8423 79.4817 39.9171C80.5565 40.992 82.0138 41.5966 83.5339 41.5983H83.5143ZM42.8638 39.8462L60.4694 22.2472C61.1564 21.5607 61.9718 21.0163 62.8692 20.645C63.7666 20.2737 64.7283 20.0828 65.6995 20.0833H91.8496C93.821 20.0833 95.7117 20.8664 97.1057 22.2604C98.4997 23.6544 99.2828 25.545 99.2828 27.5164V53.6666C99.2836 54.6413 99.089 55.6063 98.7106 56.5046C98.3322 57.4029 97.7776 58.2163 97.0797 58.8966L79.5198 76.5023L42.8638 39.8462Z" fill="#4285F4"/><path fill-rule="evenodd" clip-rule="evenodd" d="M79.5199 76.5022L57.8283 98.2134C56.4192 99.6121 54.5182 100.403 52.5329 100.417C51.5539 100.413 50.5852 100.217 49.6821 99.839C48.7791 99.461 47.9595 98.9086 47.2702 98.2134L21.1657 72.109C20.4672 71.4291 19.9122 70.6158 19.5338 69.7174C19.1553 68.819 18.9611 67.8538 18.9626 66.879C18.9626 65.8946 19.1573 64.9201 19.5354 64.0113C19.9135 63.1025 20.4676 62.2774 21.1657 61.5835L42.8639 39.8789L79.5199 76.5022Z" fill="#34A853"/><path fill-rule="evenodd" clip-rule="evenodd" d="M33.8355 84.8049L21.1657 72.109C20.4672 71.4291 19.9122 70.6158 19.5338 69.7174C19.1553 68.819 18.9611 67.8538 18.9626 66.879C18.9626 65.8947 19.1573 64.9201 19.5354 64.0113C19.9135 63.1025 20.4676 62.2774 21.1657 61.5836L42.8639 39.8528L60.8029 57.7983L33.8355 84.8049Z" fill="#FBBC05"/><path fill-rule="evenodd" clip-rule="evenodd" d="M96.7201 21.8876C95.3698 20.723 93.6459 20.0826 91.8627 20.0833H65.7125C64.7414 20.0828 63.7797 20.2737 62.8823 20.645C61.9849 21.0163 61.1694 21.5607 60.4825 22.2472L42.8638 39.8462L60.8028 57.7983L79.108 39.4932C78.2605 38.4667 77.7981 37.1764 77.8005 35.8453C77.8005 34.3241 78.4043 32.8651 79.4793 31.7888C80.5544 30.7126 82.0127 30.107 83.5339 30.1053C84.8631 30.1028 86.1513 30.5653 87.1753 31.4128L96.7201 21.8876Z" fill="#EA4335"/><path fill-rule="evenodd" clip-rule="evenodd" d="M72.4593 59.8315C72.4593 57.5261 71.7757 55.2724 70.4948 53.3555C69.214 51.4386 67.3935 49.9446 65.2636 49.0623C63.1337 48.1801 60.7899 47.9493 58.5288 48.399C56.2677 48.8488 54.1907 49.959 52.5605 51.5891C50.9303 53.2193 49.8202 55.2963 49.3704 57.5574C48.9206 59.8186 49.1515 62.1623 50.0337 64.2922C50.916 66.4222 52.41 68.2426 54.3269 69.5235C56.2438 70.8043 58.4974 71.4879 60.8029 71.4879C63.8943 71.4879 66.8592 70.2598 69.0452 68.0738C71.2312 65.8878 72.4593 62.923 72.4593 59.8315Z" fill="#4285F4"/><path fill-rule="evenodd" clip-rule="evenodd" d="M76.6826 56.4057H61.1821V63.0544H70.1058C69.3017 67.2777 65.791 69.7031 61.1821 69.7031C58.5473 69.6086 56.0519 68.4955 54.2214 66.5982C52.3908 64.7008 51.3679 62.1672 51.3679 59.5307C51.3679 56.8942 52.3908 54.3606 54.2214 52.4632C56.0519 50.5658 58.5473 49.4527 61.1821 49.3583C63.4399 49.3547 65.6244 50.1594 67.3404 51.6268L72.1782 46.619C69.1834 43.8538 65.2582 42.3159 61.1821 42.3108C51.9576 42.3108 44.544 49.9859 44.544 59.5307C44.544 69.0755 51.9576 76.744 61.1821 76.744C69.4978 76.744 77.0617 70.4876 77.0617 59.5307C77.0485 58.4784 76.9213 57.4307 76.6826 56.4057Z" fill="white"/></g><defs><clipPath id="clip0_9_329"><rect width="80.3333" height="80.3333" fill="white" transform="translate(18.9626 20.0833)"/></clipPath></defs></svg> 