<!-- created by svgstack.com | Attribution is required. --><svg width="120" height="120" viewBox="0 0 120 120" fill="none" xmlns="http://www.w3.org/2000/svg"><path fill-rule="evenodd" clip-rule="evenodd" d="M91.4062 0C108.75 0 120 11.25 120 28.5938V91.4062C120 108.75 108.75 120 91.4062 120H28.5938C11.25 120 0 108.75 0 91.4062V28.5938C0 11.25 11.25 0 28.5938 0H91.4062Z" fill="white"/><g clip-path="url(#clip0_9_367)"><path d="M72.7203 82.7187V91.1131C72.7359 92.2869 72.5181 93.4521 72.0797 94.541C71.6413 95.6299 70.991 96.6209 70.1665 97.4564C69.342 98.292 68.3597 98.9554 67.2767 99.4082C66.1937 99.861 65.0315 100.094 63.8577 100.094C62.6838 100.094 61.5217 99.861 60.4387 99.4082C59.3557 98.9554 58.3734 98.292 57.5489 97.4564C56.7244 96.6209 56.074 95.6299 55.6356 94.541C55.1972 93.4521 54.9795 92.2869 54.9951 91.1131V69.1431L72.7203 82.7187Z" fill="#34A853"/><path d="M72.7202 28.8899V82.7187L54.9951 69.1431V47.731L69.4975 35.7418C70.5077 34.9089 71.3207 33.8624 71.8779 32.6776C72.4352 31.4928 72.7229 30.1992 72.7202 28.8899Z" fill="url(#paint0_linear_9_367)"/><path d="M72.7155 28.582C72.7155 28.682 72.7155 28.782 72.7155 28.8852C72.7186 30.195 72.4312 31.4892 71.8739 32.6746C71.3166 33.86 70.5034 34.907 69.4928 35.7402L54.9904 47.731V28.8899C54.9884 27.5072 55.3096 26.1431 55.9283 24.9066C56.547 23.67 57.4461 22.5951 58.5538 21.7676C58.7101 21.6504 58.8664 21.541 59.0305 21.4363C59.1071 21.3863 59.1868 21.3363 59.2572 21.2909C59.3978 21.2003 59.5479 21.1174 59.6854 21.0456L60.0761 20.8502L60.4028 20.6939C60.5356 20.6392 60.6669 20.5845 60.8076 20.5376C60.9482 20.4907 61.0795 20.4423 61.2171 20.3969C61.4718 20.3188 61.7297 20.2406 61.9985 20.1922C62.0751 20.1734 62.1548 20.1609 62.2439 20.1422L62.4205 20.1156C62.5252 20.0969 62.63 20.0828 62.7331 20.0703C62.8363 20.0578 62.9785 20.0375 63.1066 20.0281C63.2051 20.0203 63.3051 20.0109 63.4052 20.0062C63.5521 20.0062 63.7006 19.9968 63.8506 19.9968C64.1741 19.9968 64.4883 20.0156 64.8056 20.0468C64.9618 20.0656 65.1181 20.0875 65.2822 20.1156C65.4464 20.1437 65.5948 20.1703 65.7511 20.2063C65.9074 20.2422 66.0637 20.2782 66.22 20.3235C66.3466 20.3563 66.4779 20.3969 66.606 20.4423C66.8561 20.5235 67.1062 20.6157 67.3422 20.7189C67.4594 20.7689 67.5782 20.8236 67.697 20.8752C67.8533 20.9486 67.997 21.0315 68.1424 21.1034C68.3596 21.2253 68.5691 21.3534 68.7785 21.4941C68.8004 21.5113 68.8238 21.5254 68.8457 21.5394C69.0692 21.6957 69.2833 21.8614 69.4959 22.0349C69.6006 22.1255 69.7053 22.2115 69.8085 22.3068L69.8179 22.3162C69.9179 22.4115 70.0179 22.5069 70.1179 22.6069C70.218 22.7069 70.318 22.8117 70.4133 22.9195C70.606 23.1289 70.7865 23.3491 70.9541 23.5791C71.0713 23.7353 71.1807 23.8916 71.2854 24.0557C71.3355 24.1339 71.3855 24.212 71.4308 24.2824C71.5215 24.4246 71.6043 24.5746 71.6762 24.7106C71.7309 24.82 71.8168 24.9966 71.8715 25.1013C71.9262 25.2061 71.9716 25.3202 72.0169 25.428C72.0716 25.5608 72.1263 25.6968 72.1732 25.8328C72.2201 25.9688 72.2685 26.1063 72.3092 26.2423C72.3686 26.4376 72.4186 26.633 72.4655 26.8237C72.4919 26.9117 72.5118 27.0016 72.5248 27.0925C72.5514 27.2191 72.5749 27.3426 72.5983 27.4645C72.6217 27.5864 72.6249 27.6645 72.6389 27.7646C72.653 27.8646 72.6702 28.01 72.6796 28.1381C72.689 28.2381 72.6983 28.3382 72.7015 28.4382C72.7015 28.4835 72.7015 28.5335 72.7015 28.5835L72.7155 28.582Z" fill="#EA4335"/><path d="M58.2132 22.0319C58.321 21.9413 58.4351 21.8553 58.5492 21.7725C57.4438 22.6015 56.5469 23.677 55.93 24.9133C55.313 26.1497 54.9929 27.513 54.9951 28.8947V47.7342L47.468 53.9672C46.5727 54.7085 45.5397 55.2656 44.4284 55.6064C43.3171 55.9472 42.1494 56.065 40.9924 55.953C39.8354 55.841 38.7119 55.5015 37.6866 54.9539C36.6613 54.4063 35.7543 53.6615 35.0177 52.7622C33.5277 50.9413 32.8177 48.6053 33.0425 46.2632C33.2674 43.9212 34.4088 41.7629 36.2181 40.2588L58.2132 22.0319Z" fill="#FBBC04"/></g><defs><linearGradient id="paint0_linear_9_367" x1="63.8569" y1="83.1375" x2="63.8569" y2="28.868" gradientUnits="userSpaceOnUse"><stop stop-color="#1A73E8"/><stop offset="1" stop-color="#4285F4"/></linearGradient><clipPath id="clip0_9_367"><rect width="39.7202" height="80" fill="white" transform="translate(33 20)"/></clipPath></defs></svg> 