<!-- created by svgstack.com | Attribution is required. --><svg width="120" height="120" viewBox="0 0 120 120" fill="none" xmlns="http://www.w3.org/2000/svg"><path fill-rule="evenodd" clip-rule="evenodd" d="M91.2758 0.249023C108.548 0.249023 119.751 11.4523 119.751 28.7242V91.2759C119.751 108.548 108.548 119.751 91.2758 119.751H28.7241C11.4522 119.751 0.248901 108.548 0.248901 91.2759V28.7242C0.248901 11.4523 11.4522 0.249023 28.7241 0.249023H91.2758Z" fill="white"/><path fill-rule="evenodd" clip-rule="evenodd" d="M91.2758 0.249023C108.548 0.249023 119.751 11.4523 119.751 28.7242V91.2759C119.751 108.548 108.548 119.751 91.2758 119.751H28.7241C11.4522 119.751 0.248901 108.548 0.248901 91.2759V28.7242C0.248901 11.4523 11.4522 0.249023 28.7241 0.249023H91.2758Z" fill="white"/><path fill-rule="evenodd" clip-rule="evenodd" d="M8.18564 8.18564C3.27988 13.0914 0.497925 20.143 0.497925 28.7241V91.2759C0.497925 99.8569 3.27988 106.909 8.18564 111.814C13.0914 116.72 20.143 119.502 28.7241 119.502H91.2759C99.8569 119.502 106.909 116.72 111.814 111.814C116.72 106.909 119.502 99.8569 119.502 91.2759V28.7241C119.502 20.143 116.72 13.0914 111.814 8.18564C106.909 3.27988 99.8569 0.497925 91.2759 0.497925H28.7241C20.143 0.497925 13.0914 3.27988 8.18564 8.18564ZM7.83356 7.83356C12.8474 2.81971 20.0333 0 28.7241 0H91.2759C99.9667 0 107.153 2.81971 112.166 7.83356C117.18 12.8474 120 20.0333 120 28.7241V91.2759C120 99.9667 117.18 107.153 112.166 112.166C107.153 117.18 99.9667 120 91.2759 120H28.7241C20.0333 120 12.8474 117.18 7.83356 112.166C2.81971 107.153 0 99.9667 0 91.2759V28.7241C0 20.0333 2.81971 12.8474 7.83356 7.83356Z" fill="#A4A4A4"/><g filter="url(#filter0_d_2_1793)"><path d="M88.8796 22.1577H31.1202C27.8203 22.1577 25.1451 24.8329 25.1451 28.1328V37.0955C25.1451 40.3954 27.8203 43.0706 31.1202 43.0706H88.8796C92.1795 43.0706 94.8547 40.3954 94.8547 37.0955V28.1328C94.8547 24.8329 92.1795 22.1577 88.8796 22.1577Z" fill="#C4C4C4"/></g><path fill-rule="evenodd" clip-rule="evenodd" d="M39.0254 30.3021L46.4985 38.1062H54.3011L43.1721 25.9917L39.0254 30.3021Z" fill="url(#paint0_linear_2_1793)"/><g filter="url(#filter1_d_2_1793)"><path fill-rule="evenodd" clip-rule="evenodd" d="M41.0789 31.1204C42.7289 31.1204 44.0664 29.7828 44.0664 28.1328C44.0664 26.4828 42.7289 25.1453 41.0789 25.1453C39.4288 25.1453 38.0913 26.4828 38.0913 28.1328C38.0913 29.7828 39.4288 31.1204 41.0789 31.1204Z" fill="#EFEFEF"/></g><path fill-rule="evenodd" clip-rule="evenodd" d="M76.8677 30.3021L84.3407 38.1062H92.1434L81.0144 25.9917L76.8677 30.3021Z" fill="url(#paint1_linear_2_1793)"/><g filter="url(#filter2_d_2_1793)"><path fill-rule="evenodd" clip-rule="evenodd" d="M78.9211 31.1204C80.5712 31.1204 81.9087 29.7828 81.9087 28.1328C81.9087 26.4828 80.5712 25.1453 78.9211 25.1453C77.2711 25.1453 75.9336 26.4828 75.9336 28.1328C75.9336 29.7828 77.2711 31.1204 78.9211 31.1204Z" fill="#EFEFEF"/></g><g filter="url(#filter3_d_2_1793)"><path fill-rule="evenodd" clip-rule="evenodd" d="M98.9607 40.0832C99.4646 36.7838 97.1309 34.1079 93.7473 34.1079H26.2341C22.8532 34.1079 20.5163 36.7832 21.0207 40.0832L24.978 65.9719L22.8351 91.8579C22.3307 95.1579 26.7306 97.8332 30.1116 97.8332H90.2196C93.6033 97.8332 96.9942 95.1573 96.4899 91.8579L95.0034 65.9726L98.9607 40.0832Z" fill="#4687F4"/></g><g filter="url(#filter4_d_2_1793)"><path fill-rule="evenodd" clip-rule="evenodd" d="M26.2341 34.1079H93.7473C97.1309 34.1079 99.4646 36.7838 98.9607 40.0832L95.003 65.9751H24.9784L21.0207 40.0832C20.5163 36.7832 22.8532 34.1079 26.2341 34.1079Z" fill="#3866D0"/></g><path fill-rule="evenodd" clip-rule="evenodd" d="M90.2197 97.8331C93.6033 97.8331 96.9943 95.1573 96.49 91.8578L94.9908 66.4644H24.9425L55.1908 97.8331H90.2197Z" fill="url(#paint2_linear_2_1793)"/><path fill-rule="evenodd" clip-rule="evenodd" d="M64.8384 53.6267L77.8323 48.6604V83.0157H73.8213V54.2122L64.8384 57.5565V53.6267ZM45.3938 63.7612H49.2815C51.2554 63.7612 52.653 63.2607 53.4742 62.2595C54.2955 61.2584 54.7061 59.8638 54.7061 58.0756C54.7061 56.1651 54.239 54.7132 53.3047 53.7197C52.3705 52.7263 50.9917 52.2295 49.1684 52.2295C47.4355 52.2295 46.0454 52.7454 44.9982 53.7771C43.951 54.8087 43.4273 56.1804 43.4273 57.8922H39.1554L39.1101 57.7546C39.0349 55.2328 39.9352 53.0892 41.8112 51.324C43.6873 49.5588 46.1396 48.6761 49.1684 48.6761C52.2122 48.6761 54.6382 49.4976 56.4465 51.1406C58.2548 52.7836 59.1588 55.1259 59.1588 58.1673C59.1588 59.5429 58.7482 60.9145 57.9269 62.2824C57.1058 63.6503 55.8739 64.6935 54.2314 65.4118C56.2054 66.0691 57.603 67.1007 58.4243 68.5068C59.2454 69.9128 59.6561 71.4871 59.6561 73.2294C59.6561 76.271 58.6729 78.6628 56.7064 80.4052C54.74 82.1476 52.2273 83.0187 49.1684 83.0187C46.1697 83.0187 43.6873 82.1973 41.7208 80.5542C39.7544 78.9112 38.8088 76.6836 38.8842 73.8714L38.952 73.7338H43.2013C43.2013 75.4915 43.7325 76.8899 44.7948 77.9292C45.8571 78.9685 47.3149 79.4882 49.1684 79.4882C51.052 79.4882 52.5287 78.9685 53.5986 77.9292C54.6684 76.8899 55.2034 75.3539 55.2034 73.3211C55.2034 71.2578 54.7287 69.7371 53.7794 68.759C52.8301 67.7808 51.3307 67.2917 49.2815 67.2917H45.3938V63.7612Z" fill="#EEEEEE"/><path fill-rule="evenodd" clip-rule="evenodd" d="M55.6091 65.9775H45.3937V63.7612H49.2814C51.2554 63.7612 52.653 63.2607 53.4743 62.2595C54.2954 61.2584 54.7061 59.8638 54.7061 58.0756C54.7061 56.1651 54.239 54.7132 53.3048 53.7197C52.3705 52.7263 50.9917 52.2295 49.1684 52.2295C47.4355 52.2295 46.0455 52.7454 44.9982 53.7771C43.9509 54.8087 43.4273 56.1804 43.4273 57.8922H39.1554L39.1102 57.7546C39.0348 55.2328 39.9352 53.0892 41.8112 51.324C43.6872 49.5588 46.1396 48.6761 49.1684 48.6761C52.2122 48.6761 54.6383 49.4976 56.4465 51.1406C58.2547 52.7836 59.1589 55.1259 59.1589 58.1673C59.1589 59.5429 58.7482 60.9145 57.927 62.2824C57.1057 63.6503 55.8739 64.6935 54.2314 65.4118C54.7269 65.5768 55.1862 65.7653 55.6091 65.9775ZM77.8324 65.9604V48.6604L64.8385 53.6267V57.5565L73.8213 54.2122V65.9604H77.8324Z" fill="#D4D4D4"/><g filter="url(#filter5_d_2_1793)"><path fill-rule="evenodd" clip-rule="evenodd" d="M30.1116 97.833H90.2197C93.6034 97.833 96.9943 95.1572 96.49 91.8577L95.0031 65.9658H24.9785L22.8352 91.8577C22.3308 95.1579 26.7307 97.833 30.1116 97.833Z" fill="black" fill-opacity="0.01"/></g><defs><filter id="filter0_d_2_1793" x="25.1451" y="22.1577" width="69.7096" height="21.9128" filterUnits="userSpaceOnUse" color-interpolation-filters="sRGB"><feFlood flood-opacity="0" result="BackgroundImageFix"/><feColorMatrix in="SourceAlpha" type="matrix" values="0 0 0 0 0 0 0 0 0 0 0 0 0 0 0 0 0 0 127 0" result="hardAlpha"/><feOffset dy="1"/><feComposite in2="hardAlpha" operator="out"/><feColorMatrix type="matrix" values="0 0 0 0 0.792157 0 0 0 0 0.792157 0 0 0 0 0.792157 0 0 0 1 0"/><feBlend mode="normal" in2="BackgroundImageFix" result="effect1_dropShadow_2_1793"/><feBlend mode="normal" in="SourceGraphic" in2="effect1_dropShadow_2_1793" result="shape"/></filter><filter id="filter1_d_2_1793" x="37.5913" y="25.1453" width="7.9751" height="7.9751" filterUnits="userSpaceOnUse" color-interpolation-filters="sRGB"><feFlood flood-opacity="0" result="BackgroundImageFix"/><feColorMatrix in="SourceAlpha" type="matrix" values="0 0 0 0 0 0 0 0 0 0 0 0 0 0 0 0 0 0 127 0" result="hardAlpha"/><feOffset dx="0.5" dy="1"/><feGaussianBlur stdDeviation="0.5"/><feColorMatrix type="matrix" values="0 0 0 0 0 0 0 0 0 0 0 0 0 0 0 0 0 0 0.1 0"/><feBlend mode="normal" in2="BackgroundImageFix" result="effect1_dropShadow_2_1793"/><feBlend mode="normal" in="SourceGraphic" in2="effect1_dropShadow_2_1793" result="shape"/></filter><filter id="filter2_d_2_1793" x="75.4336" y="25.1453" width="7.9751" height="7.9751" filterUnits="userSpaceOnUse" color-interpolation-filters="sRGB"><feFlood flood-opacity="0" result="BackgroundImageFix"/><feColorMatrix in="SourceAlpha" type="matrix" values="0 0 0 0 0 0 0 0 0 0 0 0 0 0 0 0 0 0 127 0" result="hardAlpha"/><feOffset dx="0.5" dy="1"/><feGaussianBlur stdDeviation="0.5"/><feColorMatrix type="matrix" values="0 0 0 0 0 0 0 0 0 0 0 0 0 0 0 0 0 0 0.1 0"/><feBlend mode="normal" in2="BackgroundImageFix" result="effect1_dropShadow_2_1793"/><feBlend mode="normal" in="SourceGraphic" in2="effect1_dropShadow_2_1793" result="shape"/></filter><filter id="filter3_d_2_1793" x="20.9523" y="33.1079" width="78.0768" height="64.7253" filterUnits="userSpaceOnUse" color-interpolation-filters="sRGB"><feFlood flood-opacity="0" result="BackgroundImageFix"/><feColorMatrix in="SourceAlpha" type="matrix" values="0 0 0 0 0 0 0 0 0 0 0 0 0 0 0 0 0 0 127 0" result="hardAlpha"/><feOffset dy="-1"/><feComposite in2="hardAlpha" operator="out"/><feColorMatrix type="matrix" values="0 0 0 0 0.258824 0 0 0 0 0.494118 0 0 0 0 0.913725 0 0 0 1 0"/><feBlend mode="normal" in2="BackgroundImageFix" result="effect1_dropShadow_2_1793"/><feBlend mode="normal" in="SourceGraphic" in2="effect1_dropShadow_2_1793" result="shape"/></filter><filter id="filter4_d_2_1793" x="20.9523" y="34.1079" width="78.0768" height="32.8672" filterUnits="userSpaceOnUse" color-interpolation-filters="sRGB"><feFlood flood-opacity="0" result="BackgroundImageFix"/><feColorMatrix in="SourceAlpha" type="matrix" values="0 0 0 0 0 0 0 0 0 0 0 0 0 0 0 0 0 0 127 0" result="hardAlpha"/><feOffset dy="1"/><feComposite in2="hardAlpha" operator="out"/><feColorMatrix type="matrix" values="0 0 0 0 0.282353 0 0 0 0 0.45098 0 0 0 0 0.831373 0 0 0 1 0"/><feBlend mode="normal" in2="BackgroundImageFix" result="effect1_dropShadow_2_1793"/><feBlend mode="normal" in="SourceGraphic" in2="effect1_dropShadow_2_1793" result="shape"/></filter><filter id="filter5_d_2_1793" x="22.7954" y="65.9658" width="73.7446" height="32.3672" filterUnits="userSpaceOnUse" color-interpolation-filters="sRGB"><feFlood flood-opacity="0" result="BackgroundImageFix"/><feColorMatrix in="SourceAlpha" type="matrix" values="0 0 0 0 0 0 0 0 0 0 0 0 0 0 0 0 0 0 127 0" result="hardAlpha"/><feOffset dy="0.5"/><feComposite in2="hardAlpha" operator="out"/><feColorMatrix type="matrix" values="0 0 0 0 0.588542 0 0 0 0 0.588542 0 0 0 0 0.588542 0 0 0 0.2 0"/><feBlend mode="normal" in2="BackgroundImageFix" result="effect1_dropShadow_2_1793"/><feBlend mode="normal" in="SourceGraphic" in2="effect1_dropShadow_2_1793" result="shape"/></filter><linearGradient id="paint0_linear_2_1793" x1="35.5155" y1="31.7004" x2="41.4184" y2="42.6758" gradientUnits="userSpaceOnUse"><stop stop-color="#B0B0B0"/><stop offset="1" stop-color="#D8D8D8" stop-opacity="0.01"/></linearGradient><linearGradient id="paint1_linear_2_1793" x1="73.3578" y1="31.7004" x2="79.2607" y2="42.6758" gradientUnits="userSpaceOnUse"><stop stop-color="#B0B0B0"/><stop offset="1" stop-color="#D8D8D8" stop-opacity="0.01"/></linearGradient><linearGradient id="paint2_linear_2_1793" x1="35.0591" y1="70.0903" x2="38.4034" y2="99.8301" gradientUnits="userSpaceOnUse"><stop stop-color="#3C78DD"/><stop offset="1" stop-color="#4688F4" stop-opacity="0.01"/></linearGradient></defs></svg> 