<svg width="256" height="256" viewBox="0 0 256 256" fill="none" xmlns="http://www.w3.org/2000/svg">
<path d="M86.6709 34C93.5434 34 100.057 37.0729 104.426 42.3779L117.403 58.1367H229C235.627 58.1367 241 63.5095 241 70.1367V160C241 166.627 235.627 172 229 172H29C22.3726 172 17 166.627 17 160V46C17 39.3726 22.3726 34 29 34H86.6709Z" fill="#FCBC19"/>
<mask id="mask0_524_1921" style="mask-type:alpha" maskUnits="userSpaceOnUse" x="17" y="34" width="224" height="138">
<path d="M86.6709 34C93.5434 34 100.057 37.0729 104.426 42.3779L117.403 58.1367H229C235.627 58.1367 241 63.5095 241 70.1367V160C241 166.627 235.627 172 229 172H29C22.3726 172 17 166.627 17 160V46C17 39.3726 22.3726 34 29 34H86.6709Z" fill="url(#paint0_linear_524_1921)"/>
</mask>
<g mask="url(#mask0_524_1921)">
<g filter="url(#filter0_f_524_1921)">
<path d="M241 160C241 166.627 235.627 172 229 172H29C22.3726 172 17 166.627 17 160V86C17 79.3726 22.3726 74 29 74H92.79C97.7649 73.9999 102.605 72.3865 106.586 69.4023L116.46 62H229C235.627 62 241 67.3726 241 74V160Z" fill="black" fill-opacity="0.3"/>
</g>
</g>
<g filter="url(#filter1_ii_524_1921)">
<path d="M241 198C241 204.627 235.627 210 229 210H29C22.3726 210 17 204.627 17 198V86C17 79.3726 22.3726 74 29 74H92.79C97.7649 73.9999 102.605 72.3865 106.586 69.4023L116.46 62H229C235.627 62 241 67.3726 241 74V198Z" fill="url(#paint1_linear_524_1921)"/>
</g>
<g filter="url(#filter2_d_524_1921)">
<path d="M51.4347 155V145.909L68.7983 131.545C69.9498 130.591 70.9347 129.697 71.7528 128.864C72.5862 128.015 73.2225 127.144 73.6619 126.25C74.1165 125.356 74.3438 124.364 74.3438 123.273C74.3438 122.076 74.0862 121.053 73.571 120.205C73.071 119.356 72.3741 118.705 71.4801 118.25C70.5862 117.78 69.5559 117.545 68.3892 117.545C67.2225 117.545 66.1922 117.78 65.2983 118.25C64.4195 118.72 63.7377 119.409 63.2528 120.318C62.768 121.227 62.5256 122.333 62.5256 123.636H50.5256C50.5256 120.364 51.2604 117.545 52.7301 115.182C54.1998 112.818 56.2756 111 58.9574 109.727C61.6392 108.455 64.7831 107.818 68.3892 107.818C72.1165 107.818 75.3438 108.417 78.071 109.614C80.8134 110.795 82.9271 112.462 84.4119 114.614C85.9119 116.765 86.6619 119.288 86.6619 122.182C86.6619 123.97 86.2907 125.75 85.5483 127.523C84.8059 129.28 83.4725 131.227 81.5483 133.364C79.6241 135.5 76.8892 138.045 73.3438 141L68.9801 144.636V144.909H87.1619V155H51.4347ZM113.082 156.273C108.855 156.258 105.204 155.28 102.128 153.341C99.0521 151.402 96.6809 148.606 95.0142 144.955C93.3475 141.303 92.5218 136.924 92.5369 131.818C92.5521 126.697 93.3854 122.348 95.0369 118.773C96.7036 115.197 99.0672 112.477 102.128 110.614C105.204 108.75 108.855 107.818 113.082 107.818C117.31 107.818 120.961 108.758 124.037 110.636C127.113 112.5 129.484 115.22 131.151 118.795C132.817 122.371 133.643 126.712 133.628 131.818C133.628 136.955 132.795 141.348 131.128 145C129.461 148.652 127.09 151.447 124.014 153.386C120.954 155.311 117.31 156.273 113.082 156.273ZM113.082 146C115.264 146 117.052 144.864 118.446 142.591C119.855 140.303 120.552 136.712 120.537 131.818C120.537 128.621 120.219 126.008 119.582 123.977C118.946 121.947 118.067 120.447 116.946 119.477C115.825 118.492 114.537 118 113.082 118C110.901 118 109.12 119.106 107.741 121.318C106.363 123.53 105.658 127.03 105.628 131.818C105.613 135.076 105.923 137.758 106.56 139.864C107.196 141.955 108.075 143.5 109.196 144.5C110.332 145.5 111.628 146 113.082 146ZM139.56 155V145.909L156.923 131.545C158.075 130.591 159.06 129.697 159.878 128.864C160.711 128.015 161.348 127.144 161.787 126.25C162.241 125.356 162.469 124.364 162.469 123.273C162.469 122.076 162.211 121.053 161.696 120.205C161.196 119.356 160.499 118.705 159.605 118.25C158.711 117.78 157.681 117.545 156.514 117.545C155.348 117.545 154.317 117.78 153.423 118.25C152.545 118.72 151.863 119.409 151.378 120.318C150.893 121.227 150.651 122.333 150.651 123.636H138.651C138.651 120.364 139.385 117.545 140.855 115.182C142.325 112.818 144.401 111 147.082 109.727C149.764 108.455 152.908 107.818 156.514 107.818C160.241 107.818 163.469 108.417 166.196 109.614C168.938 110.795 171.052 112.462 172.537 114.614C174.037 116.765 174.787 119.288 174.787 122.182C174.787 123.97 174.416 125.75 173.673 127.523C172.931 129.28 171.598 131.227 169.673 133.364C167.749 135.5 165.014 138.045 161.469 141L157.105 144.636V144.909H175.287V155H139.56ZM199.571 155.636C195.995 155.636 192.821 155.008 190.048 153.75C187.291 152.477 185.116 150.727 183.526 148.5C181.95 146.273 181.147 143.712 181.116 140.818H193.389C193.435 142.424 194.056 143.705 195.253 144.659C196.465 145.614 197.904 146.091 199.571 146.091C200.859 146.091 201.995 145.818 202.98 145.273C203.965 144.712 204.738 143.924 205.298 142.909C205.859 141.894 206.132 140.712 206.116 139.364C206.132 138 205.859 136.818 205.298 135.818C204.738 134.803 203.965 134.023 202.98 133.477C201.995 132.917 200.859 132.636 199.571 132.636C198.238 132.636 197.003 132.962 195.866 133.614C194.745 134.25 193.92 135.136 193.389 136.273L182.298 134.091L184.116 108.455H215.389V118.545H194.48L193.571 128.818H193.844C194.571 127.409 195.829 126.242 197.616 125.318C199.404 124.379 201.48 123.909 203.844 123.909C206.616 123.909 209.086 124.553 211.253 125.841C213.435 127.129 215.154 128.909 216.412 131.182C217.685 133.439 218.313 136.045 218.298 139C218.313 142.242 217.541 145.121 215.98 147.636C214.435 150.136 212.26 152.098 209.457 153.523C206.654 154.932 203.359 155.636 199.571 155.636Z" fill="#3A3B40"/>
</g>
<defs>
<filter id="filter0_f_524_1921" x="-20" y="25" width="298" height="184" filterUnits="userSpaceOnUse" color-interpolation-filters="sRGB">
<feFlood flood-opacity="0" result="BackgroundImageFix"/>
<feBlend mode="normal" in="SourceGraphic" in2="BackgroundImageFix" result="shape"/>
<feGaussianBlur stdDeviation="18.5" result="effect1_foregroundBlur_524_1921"/>
</filter>
<filter id="filter1_ii_524_1921" x="17" y="62" width="224" height="148" filterUnits="userSpaceOnUse" color-interpolation-filters="sRGB">
<feFlood flood-opacity="0" result="BackgroundImageFix"/>
<feBlend mode="normal" in="SourceGraphic" in2="BackgroundImageFix" result="shape"/>
<feColorMatrix in="SourceAlpha" type="matrix" values="0 0 0 0 0 0 0 0 0 0 0 0 0 0 0 0 0 0 127 0" result="hardAlpha"/>
<feOffset dy="4"/>
<feComposite in2="hardAlpha" operator="arithmetic" k2="-1" k3="1"/>
<feColorMatrix type="matrix" values="0 0 0 0 1 0 0 0 0 1 0 0 0 0 1 0 0 0 0.25 0"/>
<feBlend mode="normal" in2="shape" result="effect1_innerShadow_524_1921"/>
<feColorMatrix in="SourceAlpha" type="matrix" values="0 0 0 0 0 0 0 0 0 0 0 0 0 0 0 0 0 0 127 0" result="hardAlpha"/>
<feOffset dy="-4"/>
<feComposite in2="hardAlpha" operator="arithmetic" k2="-1" k3="1"/>
<feColorMatrix type="matrix" values="0 0 0 0 0 0 0 0 0 0 0 0 0 0 0 0 0 0 0.9 0"/>
<feBlend mode="soft-light" in2="effect1_innerShadow_524_1921" result="effect2_innerShadow_524_1921"/>
</filter>
<filter id="filter2_d_524_1921" x="46.3256" y="107.618" width="176.195" height="56.8545" filterUnits="userSpaceOnUse" color-interpolation-filters="sRGB">
<feFlood flood-opacity="0" result="BackgroundImageFix"/>
<feColorMatrix in="SourceAlpha" type="matrix" values="0 0 0 0 0 0 0 0 0 0 0 0 0 0 0 0 0 0 127 0" result="hardAlpha"/>
<feOffset dy="4"/>
<feGaussianBlur stdDeviation="2.1"/>
<feComposite in2="hardAlpha" operator="out"/>
<feColorMatrix type="matrix" values="0 0 0 0 0 0 0 0 0 0 0 0 0 0 0 0 0 0 0.25 0"/>
<feBlend mode="normal" in2="BackgroundImageFix" result="effect1_dropShadow_524_1921"/>
<feBlend mode="normal" in="SourceGraphic" in2="effect1_dropShadow_524_1921" result="shape"/>
</filter>
<linearGradient id="paint0_linear_524_1921" x1="17" y1="34" x2="197.768" y2="215.142" gradientUnits="userSpaceOnUse">
<stop stop-color="#05815D"/>
<stop offset="1" stop-color="#0C575F"/>
</linearGradient>
<linearGradient id="paint1_linear_524_1921" x1="17" y1="62" x2="241" y2="210" gradientUnits="userSpaceOnUse">
<stop stop-color="#FFE7A2"/>
<stop offset="0.953125" stop-color="#FFCB3D"/>
</linearGradient>
</defs>
</svg>
