<svg width="297" height="272" viewBox="0 0 297 272" fill="none" xmlns="http://www.w3.org/2000/svg">
<g clip-path="url(#clip0_705_10116)">
<mask id="mask0_705_10116" style="mask-type:luminance" maskUnits="userSpaceOnUse" x="21" y="-24" width="256" height="256">
<path d="M277 -24H21V232H277V-24Z" fill="white"/>
</mask>
<g mask="url(#mask0_705_10116)">
<path fill-rule="evenodd" clip-rule="evenodd" d="M125.425 18.3784C121.056 13.0733 114.544 10 107.671 10H50C43.3726 10 38 15.3726 38 22V34.1371V44.2V136C38 142.627 43.3726 148 50 148H250C256.627 148 262 142.627 262 136V46.1371C262 39.5097 256.627 34.1371 250 34.1371H138.404L125.425 18.3784Z" fill="url(#paint0_linear_705_10116)"/>
<mask id="mask1_705_10116" style="mask-type:alpha" maskUnits="userSpaceOnUse" x="38" y="10" width="224" height="138">
<path fill-rule="evenodd" clip-rule="evenodd" d="M125.425 18.3784C121.056 13.0733 114.544 10 107.671 10H50C43.3726 10 38 15.3726 38 22V34.1371V44.2V136C38 142.627 43.3726 148 50 148H250C256.627 148 262 142.627 262 136V46.1371C262 39.5097 256.627 34.1371 250 34.1371H138.404L125.425 18.3784Z" fill="url(#paint1_linear_705_10116)"/>
</mask>
<g mask="url(#mask1_705_10116)">
<g style="mix-blend-mode:multiply" filter="url(#filter0_f_705_10116)">
<path fill-rule="evenodd" clip-rule="evenodd" d="M113.789 50C118.764 50 123.605 48.3868 127.586 45.4024L137.459 38H250C256.627 38 262 43.3726 262 50V84V136C262 142.627 256.627 148 250 148H50C43.3726 148 38 142.627 38 136V84V62C38 55.3726 43.3726 50 50 50H108H113.789Z" fill="black" fill-opacity="0.3"/>
</g>
</g>
<g filter="url(#filter1_dd_705_10116)">
<path fill-rule="evenodd" clip-rule="evenodd" d="M113.789 50C118.764 50 123.605 48.3868 127.586 45.4024L137.459 38H250C256.627 38 262 43.3726 262 50V84V174C262 180.627 256.627 186 250 186H50C43.3726 186 38 180.627 38 174V84V62C38 55.3726 43.3726 50 50 50H108H113.789Z" fill="url(#paint2_linear_705_10116)"/>
</g>
<path fill-rule="evenodd" clip-rule="evenodd" d="M128.572 122.464C128.572 127.949 125.194 136.258 114.501 136.241H101V88H114.786C125.098 88 128.566 96.298 128.569 101.785L128.572 122.464ZM115.266 97.026C116.395 97.026 117.527 97.449 118.656 98.295C119.782 99.14 120.35 100.411 120.352 102.103V122.409C120.352 124.103 119.788 125.371 118.659 126.217C117.53 127.062 116.398 127.485 115.269 127.485H110.192V97.026H115.266Z" fill="white"/>
<path d="M157.87 96.6158H142.367V107.818H151.844V116.439H142.367V127.638H157.873V136.259H139.78C136.533 136.344 133.833 133.772 133.752 130.519V94.0418C133.673 90.7908 136.243 88.0908 139.487 88.0098H157.873L157.87 96.6158Z" fill="white"/>
<path d="M188.023 130.229C184.182 139.194 177.3 137.41 174.219 130.229L163.008 88.0117H172.485L181.13 121.167L189.733 88.0117H199.213L188.023 130.229Z" fill="white"/>
</g>
</g>
<defs>
<filter id="filter0_f_705_10116" x="1" y="1" width="298" height="184" filterUnits="userSpaceOnUse" color-interpolation-filters="sRGB">
<feFlood flood-opacity="0" result="BackgroundImageFix"/>
<feBlend mode="normal" in="SourceGraphic" in2="BackgroundImageFix" result="shape"/>
<feGaussianBlur stdDeviation="18.5" result="effect1_foregroundBlur_705_10116"/>
</filter>
<filter id="filter1_dd_705_10116" x="38" y="34" width="224" height="156" filterUnits="userSpaceOnUse" color-interpolation-filters="sRGB">
<feFlood flood-opacity="0" result="BackgroundImageFix"/>
<feColorMatrix in="SourceAlpha" type="matrix" values="0 0 0 0 0 0 0 0 0 0 0 0 0 0 0 0 0 0 127 0" result="hardAlpha"/>
<feOffset dy="-4"/>
<feComposite in2="hardAlpha" operator="out"/>
<feColorMatrix type="matrix" values="0 0 0 0 0 0 0 0 0 0 0 0 0 0 0 0 0 0 0.25 0"/>
<feBlend mode="normal" in2="BackgroundImageFix" result="effect1_dropShadow_705_10116"/>
<feColorMatrix in="SourceAlpha" type="matrix" values="0 0 0 0 0 0 0 0 0 0 0 0 0 0 0 0 0 0 127 0" result="hardAlpha"/>
<feOffset dy="4"/>
<feComposite in2="hardAlpha" operator="out"/>
<feColorMatrix type="matrix" values="0 0 0 0 1 0 0 0 0 1 0 0 0 0 1 0 0 0 0.25 0"/>
<feBlend mode="normal" in2="effect1_dropShadow_705_10116" result="effect2_dropShadow_705_10116"/>
<feBlend mode="normal" in="SourceGraphic" in2="effect2_dropShadow_705_10116" result="shape"/>
</filter>
<linearGradient id="paint0_linear_705_10116" x1="150" y1="10" x2="150" y2="148" gradientUnits="userSpaceOnUse">
<stop stop-color="#696363"/>
<stop offset="1" stop-color="#595757"/>
</linearGradient>
<linearGradient id="paint1_linear_705_10116" x1="38" y1="10" x2="218.768" y2="191.142" gradientUnits="userSpaceOnUse">
<stop stop-color="#05815D"/>
<stop offset="1" stop-color="#0C575F"/>
</linearGradient>
<linearGradient id="paint2_linear_705_10116" x1="38" y1="38" x2="262" y2="186" gradientUnits="userSpaceOnUse">
<stop stop-color="#978D95"/>
<stop offset="1" stop-color="#524F4F"/>
</linearGradient>
<clipPath id="clip0_705_10116">
<rect width="297" height="272" fill="white"/>
</clipPath>
</defs>
</svg>
