<svg width="256" height="256" viewBox="0 0 256 256" fill="none" xmlns="http://www.w3.org/2000/svg">
<path d="M86.6709 34C93.5434 34 100.057 37.0729 104.426 42.3779L117.403 58.1367H229C235.627 58.1367 241 63.5095 241 70.1367V160C241 166.627 235.627 172 229 172H29C22.3726 172 17 166.627 17 160V46C17 39.3726 22.3726 34 29 34H86.6709Z" fill="url(#paint0_linear_575_10132)"/>
<mask id="mask0_575_10132" style="mask-type:alpha" maskUnits="userSpaceOnUse" x="17" y="34" width="224" height="138">
<path d="M86.6709 34C93.5434 34 100.057 37.0729 104.426 42.3779L117.403 58.1367H229C235.627 58.1367 241 63.5095 241 70.1367V160C241 166.627 235.627 172 229 172H29C22.3726 172 17 166.627 17 160V46C17 39.3726 22.3726 34 29 34H86.6709Z" fill="url(#paint1_linear_575_10132)"/>
</mask>
<g mask="url(#mask0_575_10132)">
<g filter="url(#filter0_f_575_10132)">
<path d="M241 160C241 166.627 235.627 172 229 172H29C22.3726 172 17 166.627 17 160V86C17 79.3726 22.3726 74 29 74H92.79C97.7649 73.9999 102.605 72.3865 106.586 69.4023L116.46 62H229C235.627 62 241 67.3726 241 74V160Z" fill="black" fill-opacity="0.3"/>
</g>
</g>
<g filter="url(#filter1_ii_575_10132)">
<path d="M241 198C241 204.627 235.627 210 229 210H29C22.3726 210 17 204.627 17 198V86C17 79.3726 22.3726 74 29 74H92.79C97.7649 73.9999 102.605 72.3865 106.586 69.4023L116.46 62H229C235.627 62 241 67.3726 241 74V198Z" fill="url(#paint2_linear_575_10132)"/>
</g>
<path d="M98.5642 92H78.2817V109.998H98.5642V92Z" fill="#FFD800"/>
<path d="M179.704 92H159.422V109.998H179.704V92Z" fill="#FFD800"/>
<path d="M118.846 109.998H78.2817V127.995H118.846V109.998Z" fill="#FFAF00"/>
<path d="M179.705 109.998H139.14V127.995H179.705V109.998Z" fill="#FFAF00"/>
<path d="M179.706 127.996H78.2817V145.994H179.706V127.996Z" fill="#FF8205"/>
<path d="M98.5642 145.994H78.2817V163.992H98.5642V145.994Z" fill="#FA500F"/>
<path d="M139.134 145.994H118.851V163.992H139.134V145.994Z" fill="#FA500F"/>
<path d="M179.704 145.994H159.422V163.992H179.704V145.994Z" fill="#FA500F"/>
<path d="M118.86 164.002H58V182H118.86V164.002Z" fill="#E10500"/>
<path d="M200 164.002H139.14V182H200V164.002Z" fill="#E10500"/>
<defs>
<filter id="filter0_f_575_10132" x="-20" y="25" width="298" height="184" filterUnits="userSpaceOnUse" color-interpolation-filters="sRGB">
<feFlood flood-opacity="0" result="BackgroundImageFix"/>
<feBlend mode="normal" in="SourceGraphic" in2="BackgroundImageFix" result="shape"/>
<feGaussianBlur stdDeviation="18.5" result="effect1_foregroundBlur_575_10132"/>
</filter>
<filter id="filter1_ii_575_10132" x="17" y="62" width="224" height="148" filterUnits="userSpaceOnUse" color-interpolation-filters="sRGB">
<feFlood flood-opacity="0" result="BackgroundImageFix"/>
<feBlend mode="normal" in="SourceGraphic" in2="BackgroundImageFix" result="shape"/>
<feColorMatrix in="SourceAlpha" type="matrix" values="0 0 0 0 0 0 0 0 0 0 0 0 0 0 0 0 0 0 127 0" result="hardAlpha"/>
<feOffset dy="4"/>
<feComposite in2="hardAlpha" operator="arithmetic" k2="-1" k3="1"/>
<feColorMatrix type="matrix" values="0 0 0 0 1 0 0 0 0 1 0 0 0 0 1 0 0 0 0.25 0"/>
<feBlend mode="normal" in2="shape" result="effect1_innerShadow_575_10132"/>
<feColorMatrix in="SourceAlpha" type="matrix" values="0 0 0 0 0 0 0 0 0 0 0 0 0 0 0 0 0 0 127 0" result="hardAlpha"/>
<feOffset dy="-4"/>
<feComposite in2="hardAlpha" operator="arithmetic" k2="-1" k3="1"/>
<feColorMatrix type="matrix" values="0 0 0 0 0 0 0 0 0 0 0 0 0 0 0 0 0 0 0.9 0"/>
<feBlend mode="soft-light" in2="effect1_innerShadow_575_10132" result="effect2_innerShadow_575_10132"/>
</filter>
<linearGradient id="paint0_linear_575_10132" x1="17" y1="34" x2="197.768" y2="215.142" gradientUnits="userSpaceOnUse">
<stop stop-color="#A96725"/>
<stop offset="1" stop-color="#B47C44"/>
</linearGradient>
<linearGradient id="paint1_linear_575_10132" x1="17" y1="34" x2="197.768" y2="215.142" gradientUnits="userSpaceOnUse">
<stop stop-color="#05815D"/>
<stop offset="1" stop-color="#0C575F"/>
</linearGradient>
<linearGradient id="paint2_linear_575_10132" x1="17" y1="62" x2="241" y2="210" gradientUnits="userSpaceOnUse">
<stop stop-color="#C5884A"/>
<stop offset="1" stop-color="#CF8670"/>
</linearGradient>
</defs>
</svg>
