<svg width="256" height="255" viewBox="0 0 256 255" fill="none" xmlns="http://www.w3.org/2000/svg">
<path fill-rule="evenodd" clip-rule="evenodd" d="M104.425 42.118C100.056 36.8937 93.5437 33.8672 86.6712 33.8672H29C22.3726 33.8672 17 39.158 17 45.6845V57.6368V67.5465V157.949C17 164.475 22.3726 169.766 29 169.766H229C235.627 169.766 241 164.475 241 157.949V69.4541C241 62.9276 235.627 57.6368 229 57.6368H117.404L104.425 42.118Z" fill="#015798"/>
<mask id="mask0_541_6666" style="mask-type:alpha" maskUnits="userSpaceOnUse" x="17" y="33" width="224" height="137">
<path fill-rule="evenodd" clip-rule="evenodd" d="M104.425 42.118C100.056 36.8937 93.5437 33.8672 86.6712 33.8672H29C22.3726 33.8672 17 39.158 17 45.6845V57.6368V67.5465V157.949C17 164.475 22.3726 169.766 29 169.766H229C235.627 169.766 241 164.475 241 157.949V69.4541C241 62.9276 235.627 57.6368 229 57.6368H117.404L104.425 42.118Z" fill="url(#paint0_linear_541_6666)"/>
</mask>
<g mask="url(#mask0_541_6666)">
<g style="mix-blend-mode:multiply" filter="url(#filter0_f_541_6666)">
<path fill-rule="evenodd" clip-rule="evenodd" d="M92.789 73.258C97.7642 73.258 102.605 71.6693 106.586 68.7304L116.459 61.4407H229C235.627 61.4407 241 66.7315 241 73.258V106.74V157.949C241 164.475 235.627 169.766 229 169.766H29C22.3726 169.766 17 164.475 17 157.949V106.74V85.0753C17 78.5488 22.3726 73.258 29 73.258H87H92.789Z" fill="black" fill-opacity="0.3"/>
</g>
</g>
<g filter="url(#filter1_dd_541_6666)">
<path fill-rule="evenodd" clip-rule="evenodd" d="M92.789 73.2582C97.7642 73.2582 102.605 71.6696 106.586 68.7306L116.459 61.4409H229C235.627 61.4409 241 66.7317 241 73.2582V106.741V195.37C241 201.896 235.627 207.188 229 207.188H29C22.3726 207.188 17 201.896 17 195.37V106.741V85.0755C17 78.549 22.3726 73.2582 29 73.2582H87H92.789Z" fill="url(#paint1_linear_541_6666)"/>
</g>
<defs>
<filter id="filter0_f_541_6666" x="-20" y="24.4407" width="298" height="182.325" filterUnits="userSpaceOnUse" color-interpolation-filters="sRGB">
<feFlood flood-opacity="0" result="BackgroundImageFix"/>
<feBlend mode="normal" in="SourceGraphic" in2="BackgroundImageFix" result="shape"/>
<feGaussianBlur stdDeviation="18.5" result="effect1_foregroundBlur_541_6666"/>
</filter>
<filter id="filter1_dd_541_6666" x="17" y="57.4409" width="224" height="153.747" filterUnits="userSpaceOnUse" color-interpolation-filters="sRGB">
<feFlood flood-opacity="0" result="BackgroundImageFix"/>
<feColorMatrix in="SourceAlpha" type="matrix" values="0 0 0 0 0 0 0 0 0 0 0 0 0 0 0 0 0 0 127 0" result="hardAlpha"/>
<feOffset dy="4"/>
<feComposite in2="hardAlpha" operator="out"/>
<feColorMatrix type="matrix" values="0 0 0 0 1 0 0 0 0 1 0 0 0 0 1 0 0 0 0.25 0"/>
<feBlend mode="normal" in2="BackgroundImageFix" result="effect1_dropShadow_541_6666"/>
<feColorMatrix in="SourceAlpha" type="matrix" values="0 0 0 0 0 0 0 0 0 0 0 0 0 0 0 0 0 0 127 0" result="hardAlpha"/>
<feOffset dy="-4"/>
<feComposite in2="hardAlpha" operator="out"/>
<feColorMatrix type="matrix" values="0 0 0 0 0 0 0 0 0 0 0 0 0 0 0 0 0 0 0.9 0"/>
<feBlend mode="soft-light" in2="effect1_dropShadow_541_6666" result="effect2_dropShadow_541_6666"/>
<feBlend mode="normal" in="SourceGraphic" in2="effect2_dropShadow_541_6666" result="shape"/>
</filter>
<linearGradient id="paint0_linear_541_6666" x1="17" y1="33.8672" x2="194.989" y2="214.982" gradientUnits="userSpaceOnUse">
<stop stop-color="#FFE7A2"/>
<stop offset="1" stop-color="#FFCB3D"/>
</linearGradient>
<linearGradient id="paint1_linear_541_6666" x1="17" y1="61.4409" x2="238.899" y2="210.319" gradientUnits="userSpaceOnUse">
<stop stop-color="#759FFF"/>
<stop offset="0.953125" stop-color="#0D56E7"/>
</linearGradient>
</defs>
</svg>
