<svg width="224" height="179" viewBox="0 0 224 179" fill="none" xmlns="http://www.w3.org/2000/svg">
<path fill-rule="evenodd" clip-rule="evenodd" d="M87.425 9.11802C83.056 3.89369 76.5437 0.867188 69.6712 0.867188H12C5.3726 0.867188 0 6.15799 0 12.6845V24.6368V34.5465V124.949C0 131.475 5.3726 136.766 12 136.766H212C218.627 136.766 224 131.475 224 124.949V36.4541C224 29.9276 218.627 24.6368 212 24.6368H100.404L87.425 9.11802Z" fill="#015798"/>
<mask id="mask0_541_6667" style="mask-type:alpha" maskUnits="userSpaceOnUse" x="0" y="0" width="224" height="137">
<path fill-rule="evenodd" clip-rule="evenodd" d="M87.425 9.11802C83.056 3.89369 76.5437 0.867188 69.6712 0.867188H12C5.3726 0.867188 0 6.15799 0 12.6845V24.6368V34.5465V124.949C0 131.475 5.3726 136.766 12 136.766H212C218.627 136.766 224 131.475 224 124.949V36.4541C224 29.9276 218.627 24.6368 212 24.6368H100.404L87.425 9.11802Z" fill="url(#paint0_linear_541_6667)"/>
</mask>
<g mask="url(#mask0_541_6667)">
<g style="mix-blend-mode:multiply" filter="url(#filter0_f_541_6667)">
<path fill-rule="evenodd" clip-rule="evenodd" d="M75.789 40.258C80.7642 40.258 85.605 38.6693 89.586 35.7304L99.459 28.4407H212C218.627 28.4407 224 33.7315 224 40.258V73.7403V124.949C224 131.475 218.627 136.766 212 136.766H12C5.3726 136.766 0 131.475 0 124.949V73.7403V52.0753C0 45.5488 5.3726 40.258 12 40.258H70H75.789Z" fill="black" fill-opacity="0.3"/>
</g>
</g>
<g filter="url(#filter1_dd_541_6667)">
<path fill-rule="evenodd" clip-rule="evenodd" d="M75.789 40.2582C80.7642 40.2582 85.605 38.6696 89.586 35.7306L99.459 28.4409H212C218.627 28.4409 224 33.7317 224 40.2582V73.7405V162.37C224 168.896 218.627 174.188 212 174.188H12C5.3726 174.188 0 168.896 0 162.37V73.7405V52.0755C0 45.549 5.3726 40.2582 12 40.2582H70H75.789Z" fill="url(#paint1_linear_541_6667)"/>
</g>
<defs>
<filter id="filter0_f_541_6667" x="-37" y="-8.55933" width="298" height="182.325" filterUnits="userSpaceOnUse" color-interpolation-filters="sRGB">
<feFlood flood-opacity="0" result="BackgroundImageFix"/>
<feBlend mode="normal" in="SourceGraphic" in2="BackgroundImageFix" result="shape"/>
<feGaussianBlur stdDeviation="18.5" result="effect1_foregroundBlur_541_6667"/>
</filter>
<filter id="filter1_dd_541_6667" x="0" y="24.4409" width="224" height="153.747" filterUnits="userSpaceOnUse" color-interpolation-filters="sRGB">
<feFlood flood-opacity="0" result="BackgroundImageFix"/>
<feColorMatrix in="SourceAlpha" type="matrix" values="0 0 0 0 0 0 0 0 0 0 0 0 0 0 0 0 0 0 127 0" result="hardAlpha"/>
<feOffset dy="4"/>
<feComposite in2="hardAlpha" operator="out"/>
<feColorMatrix type="matrix" values="0 0 0 0 1 0 0 0 0 1 0 0 0 0 1 0 0 0 0.25 0"/>
<feBlend mode="normal" in2="BackgroundImageFix" result="effect1_dropShadow_541_6667"/>
<feColorMatrix in="SourceAlpha" type="matrix" values="0 0 0 0 0 0 0 0 0 0 0 0 0 0 0 0 0 0 127 0" result="hardAlpha"/>
<feOffset dy="-4"/>
<feComposite in2="hardAlpha" operator="out"/>
<feColorMatrix type="matrix" values="0 0 0 0 0 0 0 0 0 0 0 0 0 0 0 0 0 0 0.9 0"/>
<feBlend mode="soft-light" in2="effect1_dropShadow_541_6667" result="effect2_dropShadow_541_6667"/>
<feBlend mode="normal" in="SourceGraphic" in2="effect2_dropShadow_541_6667" result="shape"/>
</filter>
<linearGradient id="paint0_linear_541_6667" x1="0" y1="0.867188" x2="177.989" y2="181.982" gradientUnits="userSpaceOnUse">
<stop stop-color="#FFE7A2"/>
<stop offset="1" stop-color="#FFCB3D"/>
</linearGradient>
<linearGradient id="paint1_linear_541_6667" x1="0" y1="28.4409" x2="221.899" y2="177.319" gradientUnits="userSpaceOnUse">
<stop stop-color="#759FFF"/>
<stop offset="0.953125" stop-color="#0D56E7"/>
</linearGradient>
</defs>
</svg>
