<svg width="434" height="512" viewBox="0 0 434 512" fill="none" xmlns="http://www.w3.org/2000/svg">
<path d="M308.467 0.0177071C289.401 23.2602 259.128 106.08 257.286 121.699C256.866 133.257 260.682 156.892 258.947 160.785C257.169 164.775 246.293 137.425 241.104 145.139C210.887 190.069 214.643 188.988 202.57 222.737C198.031 235.427 201.52 277.118 198.696 281.528C195.548 286.441 188.898 251.085 181.864 258.687C153.17 289.699 141.606 309.084 126.627 334.378C118.321 348.406 121.232 392.073 117.957 395.397C114.736 398.665 108.419 350.077 99.0539 360.011C77.9856 382.362 64.2983 393.25 52.2004 407.621C39.3455 422.889 50.2653 451.106 39.6692 495.123L40.0273 495.669C231.554 371.257 291.086 181.202 306.147 47.5862C304.464 205.685 233.416 400.681 45.6658 504.226L45.9445 504.65C96.0005 499.256 101.11 530.512 156.146 494.056C294.12 374.667 358.576 186.687 308.466 0L308.467 0.0177071Z" fill="url(#paint0_linear_598_6612)"/>
<path d="M216.694 55.534C97.0153 55.5339 -0.00292969 152.552 -0.00292969 272.231C0.0401005 322.786 17.7577 371.734 50.0827 410.605C50.7067 409.561 51.409 408.567 52.2041 407.622C64.3021 393.253 77.9901 382.363 99.0576 360.012C108.423 350.076 114.739 398.665 117.96 395.398C121.235 392.075 118.324 348.409 126.631 334.379C141.608 309.085 153.174 289.7 181.868 258.688C188.902 251.086 195.552 286.443 198.7 281.529C201.524 277.121 198.033 235.43 202.573 222.738C214.646 188.989 210.89 190.07 241.107 145.141C246.296 137.426 257.172 164.777 258.95 160.787C260.685 156.896 256.869 133.26 257.289 121.701C258.208 113.912 266.201 89.4061 276.345 63.9145C256.949 58.3571 236.871 55.5357 216.696 55.5322L216.694 55.534ZM323.384 83.6173C337.149 235.942 277.816 382.108 168.089 483.378C184.03 487.052 200.337 488.909 216.696 488.914C336.375 488.914 433.393 391.896 433.393 272.217C433.392 194.117 391.364 122.059 323.384 83.6065V83.6173Z" fill="url(#paint1_linear_598_6612)"/>
<defs>
<linearGradient id="paint0_linear_598_6612" x1="39.6719" y1="358.175" x2="325.358" y2="160.953" gradientUnits="userSpaceOnUse">
<stop stop-color="#21FACF"/>
<stop offset="1" stop-color="#0970EF"/>
</linearGradient>
<linearGradient id="paint1_linear_598_6612" x1="110.849" y1="465.325" x2="432.676" y2="93.4351" gradientUnits="userSpaceOnUse">
<stop stop-color="#72004E"/>
<stop offset="1" stop-color="#0015B1"/>
</linearGradient>
</defs>
</svg>
