<svg width="256" height="256" viewBox="0 0 256 256" fill="none" xmlns="http://www.w3.org/2000/svg">
<mask id="mask0_6_112" style="mask-type:luminance" maskUnits="userSpaceOnUse" x="0" y="0" width="256" height="256">
<path d="M256 0H0V256H256V0Z" fill="white"/>
</mask>
<g mask="url(#mask0_6_112)">
<path fill-rule="evenodd" clip-rule="evenodd" d="M104.425 42.3784C100.056 37.0733 93.5437 34 86.6712 34H29C22.3726 34 17 39.3726 17 46V58.1371V68.2V160C17 166.627 22.3726 172 29 172H229C235.627 172 241 166.627 241 160V70.1371C241 63.5097 235.627 58.1371 229 58.1371H117.404L104.425 42.3784Z" fill="#E6E6E6"/>
<mask id="mask1_6_112" style="mask-type:alpha" maskUnits="userSpaceOnUse" x="17" y="34" width="224" height="138">
<path fill-rule="evenodd" clip-rule="evenodd" d="M104.425 42.3784C100.056 37.0733 93.5437 34 86.6712 34H29C22.3726 34 17 39.3726 17 46V58.1371V68.2V160C17 166.627 22.3726 172 29 172H229C235.627 172 241 166.627 241 160V70.1371C241 63.5097 235.627 58.1371 229 58.1371H117.404L104.425 42.3784Z" fill="url(#paint0_linear_6_112)"/>
</mask>
<g mask="url(#mask1_6_112)">
<g style="mix-blend-mode:multiply" filter="url(#filter0_f_6_112)">
<path fill-rule="evenodd" clip-rule="evenodd" d="M92.789 74C97.7642 74 102.605 72.3868 106.586 69.4024L116.459 62H229C235.627 62 241 67.3726 241 74V108V160C241 166.627 235.627 172 229 172H29C22.3726 172 17 166.627 17 160V108V86C17 79.3726 22.3726 74 29 74H87H92.789Z" fill="black" fill-opacity="0.3"/>
</g>
</g>
<g filter="url(#filter1_dd_6_112)">
<path fill-rule="evenodd" clip-rule="evenodd" d="M92.789 74C97.7642 74 102.605 72.3868 106.586 69.4024L116.459 62H229C235.627 62 241 67.3726 241 74V108V198C241 204.627 235.627 210 229 210H29C22.3726 210 17 204.627 17 198V108V86C17 79.3726 22.3726 74 29 74H87H92.789Z" fill="url(#paint1_linear_6_112)"/>
</g>
<path d="M63.143 147C59.8285 147 55.8513 145.819 53.1996 144.047C50.9459 142.538 50.2831 139.521 51.8739 137.289C53.3986 135.059 56.4478 134.467 58.7017 135.976C61.7509 138.012 67.5181 137.552 67.9821 133.09C68.1809 131.581 67.4517 130.006 66.2586 129.153C64.8002 128.103 62.7452 128.038 61.1544 127.315C59.2319 126.594 57.4422 125.413 55.9838 123.97C53.266 121.476 51.7414 118.262 51.6088 115.047C51.6088 113.209 51.9402 111.438 52.6032 109.666C53.266 108.091 54.2604 106.648 55.4536 105.336C56.713 104.089 58.105 103.106 59.6297 102.384C61.3531 101.597 63.0766 101.137 64.8664 101.005C67.3192 100.94 70.9651 101.465 73.6166 103.039C76.003 104.483 76.7322 107.436 75.4064 109.797C73.948 112.094 70.9651 112.815 68.6449 111.438C66.9877 110.519 64.6014 110.519 63.0766 111.7C62.215 112.356 61.6183 113.472 61.6183 114.522C61.4857 118.393 66.4574 118.458 69.0427 119.508C71.0313 120.361 72.8874 121.607 74.3458 123.249C76.5996 125.742 77.9253 128.891 77.9917 132.304C78.1242 136.174 76.6658 139.782 73.8816 142.538C71.2965 145.162 67.7169 146.737 64.0048 146.934C63.7396 146.934 63.4081 147 63.143 147Z" fill="url(#paint2_linear_6_112)"/>
<path d="M96.7533 146C94.4744 146 92.2628 145.604 90.2529 144.746C88.243 143.889 86.4333 142.7 84.8927 141.183C83.3506 139.663 82.1444 137.881 81.2732 135.967C80.4691 133.921 80 131.743 80 129.5C80 127.322 80.4691 125.144 81.2732 123.031C82.1444 121.117 83.3506 119.402 84.8927 117.817C86.4333 116.3 88.243 115.177 90.2529 114.32C92.2628 113.396 94.4744 113 96.7533 113C98.6302 113 100.44 113.329 102.248 113.924C103.99 114.451 105.533 115.31 106.939 116.432C109.218 118.147 109.687 121.381 107.944 123.691C106.873 125.012 105.331 125.737 103.723 125.737C102.65 125.737 101.511 125.341 100.506 124.616C99.4341 123.758 98.161 123.362 96.7533 123.362C93.2685 123.362 90.5219 126.134 90.5219 129.5C90.5219 132.932 93.2685 135.638 96.7533 135.638C98.161 135.638 99.4341 135.242 100.506 134.384C102.852 132.668 106.135 133.064 107.877 135.374C109.687 137.619 109.218 140.918 106.939 142.634C104.058 144.878 100.44 146 96.7533 146Z" fill="url(#paint3_linear_6_112)"/>
<path d="M126.308 113.065C126.121 113 125.872 113 125.621 113C123.496 113 121.373 113.528 119.497 114.518C118.748 113.593 117.561 113.065 116.311 113.065C113.937 113.065 112 115.111 112 117.619V140.786C112 143.69 114.187 146 116.874 146C119.623 146 121.809 143.69 121.809 140.786V127.454C121.809 125.209 123.559 123.427 125.621 123.427H126.058C128.683 123.427 130.869 121.249 130.995 118.478C131.12 115.573 128.995 113.197 126.308 113.065Z" fill="url(#paint4_linear_6_112)"/>
<path d="M145.619 107.537C145.619 110.092 143.581 112.136 141.033 112.136C138.484 112.136 136.382 110.092 136.382 107.537C136.382 105.044 138.484 103 141.033 103C143.581 103 145.619 105.044 145.619 107.537ZM141.033 146C138.23 146 136 143.7 136 140.953V119.101C136 116.353 138.23 114.054 141.033 114.054C143.771 114.054 146 116.353 146 119.101V140.953C146 143.7 143.771 146 141.033 146Z" fill="url(#paint5_linear_6_112)"/>
<path d="M167 113C164.195 113 161.517 113.8 159.159 115.133C158.394 113.8 156.993 113 155.398 113C152.976 113 151 114.999 151 117.599V151.732C151 154.599 153.294 157 156.099 157C158.841 157 161.135 154.599 161.135 151.732V145.266C162.92 146.066 164.96 146.466 167 146.466C175.86 146.466 183 139 183 129.732C183 120.466 175.86 113 167 113ZM171.208 134.132C170.059 135.333 168.593 135.934 167 135.934C165.407 135.934 163.94 135.333 162.792 134.132C161.645 132.999 161.009 131.4 161.009 129.732C161.009 128.066 161.645 126.467 162.792 125.266C163.94 124.133 165.407 123.466 167 123.466C168.593 123.466 170.059 124.133 171.208 125.266C172.355 126.467 172.993 128.066 172.993 129.732C172.993 131.4 172.355 132.999 171.208 134.132Z" fill="url(#paint6_linear_6_112)"/>
<path d="M199.818 135.994C197.958 135.994 196.43 134.528 196.43 132.743V122.992H200.415C202.941 122.992 205 121.016 205 118.595C205 116.109 202.941 114.134 200.415 114.134H196.43V108.97C196.43 106.231 194.105 104 191.248 104C188.326 104 186 106.231 186 108.97V132.743C186 136.313 187.462 139.627 190.053 142.176C192.644 144.599 196.098 146 199.818 146C202.674 146 205 143.769 205 140.965C205 138.225 202.674 135.994 199.818 135.994Z" fill="url(#paint7_linear_6_112)"/>
</g>
<defs>
<filter id="filter0_f_6_112" x="-20" y="25" width="298" height="184" filterUnits="userSpaceOnUse" color-interpolation-filters="sRGB">
<feFlood flood-opacity="0" result="BackgroundImageFix"/>
<feBlend mode="normal" in="SourceGraphic" in2="BackgroundImageFix" result="shape"/>
<feGaussianBlur stdDeviation="18.5" result="effect1_foregroundBlur_6_112"/>
</filter>
<filter id="filter1_dd_6_112" x="17" y="58" width="224" height="156" filterUnits="userSpaceOnUse" color-interpolation-filters="sRGB">
<feFlood flood-opacity="0" result="BackgroundImageFix"/>
<feColorMatrix in="SourceAlpha" type="matrix" values="0 0 0 0 0 0 0 0 0 0 0 0 0 0 0 0 0 0 127 0" result="hardAlpha"/>
<feOffset dy="-4"/>
<feComposite in2="hardAlpha" operator="out"/>
<feColorMatrix type="matrix" values="0 0 0 0 0 0 0 0 0 0 0 0 0 0 0 0 0 0 0.25 0"/>
<feBlend mode="normal" in2="BackgroundImageFix" result="effect1_dropShadow_6_112"/>
<feColorMatrix in="SourceAlpha" type="matrix" values="0 0 0 0 0 0 0 0 0 0 0 0 0 0 0 0 0 0 127 0" result="hardAlpha"/>
<feOffset dy="4"/>
<feComposite in2="hardAlpha" operator="out"/>
<feColorMatrix type="matrix" values="0 0 0 0 1 0 0 0 0 1 0 0 0 0 1 0 0 0 0.25 0"/>
<feBlend mode="normal" in2="effect1_dropShadow_6_112" result="effect2_dropShadow_6_112"/>
<feBlend mode="normal" in="SourceGraphic" in2="effect2_dropShadow_6_112" result="shape"/>
</filter>
<linearGradient id="paint0_linear_6_112" x1="17" y1="34" x2="197.768" y2="215.142" gradientUnits="userSpaceOnUse">
<stop stop-color="#05815D"/>
<stop offset="1" stop-color="#0C575F"/>
</linearGradient>
<linearGradient id="paint1_linear_6_112" x1="17" y1="62" x2="241" y2="210" gradientUnits="userSpaceOnUse">
<stop stop-color="#5F585E"/>
<stop offset="1" stop-color="#010101"/>
</linearGradient>
<linearGradient id="paint2_linear_6_112" x1="-10.7418" y1="129.15" x2="207.387" y2="129.15" gradientUnits="userSpaceOnUse">
<stop stop-color="#82E97A"/>
<stop offset="1" stop-color="#21DEBB"/>
</linearGradient>
<linearGradient id="paint3_linear_6_112" x1="-13.0548" y1="128.111" x2="207.461" y2="128.111" gradientUnits="userSpaceOnUse">
<stop stop-color="#82E97A"/>
<stop offset="1" stop-color="#21DEBB"/>
</linearGradient>
<linearGradient id="paint4_linear_6_112" x1="-4.62822" y1="128.111" x2="200.974" y2="128.111" gradientUnits="userSpaceOnUse">
<stop stop-color="#82E97A"/>
<stop offset="1" stop-color="#21DEBB"/>
</linearGradient>
<linearGradient id="paint5_linear_6_112" x1="-6.08906" y1="128.682" x2="203.521" y2="128.682" gradientUnits="userSpaceOnUse">
<stop stop-color="#82E97A"/>
<stop offset="1" stop-color="#21DEBB"/>
</linearGradient>
<linearGradient id="paint6_linear_6_112" x1="-5.66" y1="128.397" x2="204.1" y2="128.397" gradientUnits="userSpaceOnUse">
<stop stop-color="#82E97A"/>
<stop offset="1" stop-color="#21DEBB"/>
</linearGradient>
<linearGradient id="paint7_linear_6_112" x1="-13.5995" y1="128.726" x2="205" y2="128.726" gradientUnits="userSpaceOnUse">
<stop stop-color="#82E97A"/>
<stop offset="1" stop-color="#21DEBB"/>
</linearGradient>
</defs>
</svg>
