<svg width="256" height="256" viewBox="0 0 256 256" fill="none" xmlns="http://www.w3.org/2000/svg">
<mask id="mask0_509_1613" style="mask-type:luminance" maskUnits="userSpaceOnUse" x="0" y="0" width="256" height="256">
<path d="M256 0H0V256H256V0Z" fill="white"/>
</mask>
<g mask="url(#mask0_509_1613)">
<path fill-rule="evenodd" clip-rule="evenodd" d="M104.425 42.3784C100.056 37.0733 93.5437 34 86.6712 34H29C22.3726 34 17 39.3726 17 46V58.1371V68.2V160C17 166.627 22.3726 172 29 172H229C235.627 172 241 166.627 241 160V70.1371C241 63.5097 235.627 58.1371 229 58.1371H117.404L104.425 42.3784Z" fill="#E6E6E6" fill-opacity="0.33"/>
<mask id="mask1_509_1613" style="mask-type:alpha" maskUnits="userSpaceOnUse" x="17" y="34" width="224" height="138">
<path fill-rule="evenodd" clip-rule="evenodd" d="M104.425 42.3784C100.056 37.0733 93.5437 34 86.6712 34H29C22.3726 34 17 39.3726 17 46V58.1371V68.2V160C17 166.627 22.3726 172 29 172H229C235.627 172 241 166.627 241 160V70.1371C241 63.5097 235.627 58.1371 229 58.1371H117.404L104.425 42.3784Z" fill="url(#paint0_linear_509_1613)"/>
</mask>
<g mask="url(#mask1_509_1613)">
<g style="mix-blend-mode:multiply" filter="url(#filter0_f_509_1613)">
<path fill-rule="evenodd" clip-rule="evenodd" d="M92.789 74C97.7642 74 102.605 72.3868 106.586 69.4024L116.459 62H229C235.627 62 241 67.3726 241 74V108V160C241 166.627 235.627 172 229 172H29C22.3726 172 17 166.627 17 160V108V86C17 79.3726 22.3726 74 29 74H87H92.789Z" fill="black" fill-opacity="0.3"/>
</g>
</g>
<g filter="url(#filter1_dd_509_1613)">
<path fill-rule="evenodd" clip-rule="evenodd" d="M92.789 74C97.7642 74 102.605 72.3868 106.586 69.4024L116.459 62H229C235.627 62 241 67.3726 241 74V108V198C241 204.627 235.627 210 229 210H29C22.3726 210 17 204.627 17 198V108V86C17 79.3726 22.3726 74 29 74H87H92.789Z" fill="url(#paint1_linear_509_1613)"/>
<path d="M68.736 112.464C72.704 112.464 74.688 114.576 74.688 118.8V144H67.968V133.584H63.12V144H56.4V118.8C56.4 114.576 58.384 112.464 62.352 112.464H68.736ZM63.12 128.4H67.968V117.984C67.968 117.728 67.872 117.504 67.68 117.312C67.52 117.12 67.312 117.024 67.056 117.024H64.032C63.776 117.024 63.552 117.12 63.36 117.312C63.2 117.504 63.12 117.728 63.12 117.984V128.4ZM90.8329 144.48H89.8249C88.1929 144.48 86.8809 144.096 85.8889 143.328V151.632H79.4569V120.576H84.8809V122.304C85.8729 120.832 87.5209 120.096 89.8249 120.096H90.8329C94.8009 120.096 96.7849 122.208 96.7849 126.432V138.144C96.7849 142.368 94.8009 144.48 90.8329 144.48ZM85.8889 125.664V138.912C85.8889 139.168 85.9689 139.392 86.1289 139.584C86.3209 139.776 86.5449 139.872 86.8009 139.872H89.4409C89.6969 139.872 89.9049 139.776 90.0649 139.584C90.2569 139.392 90.3529 139.168 90.3529 138.912V125.664C90.3529 125.408 90.2569 125.184 90.0649 124.992C89.9049 124.8 89.6969 124.704 89.4409 124.704H86.8009C86.5449 124.704 86.3209 124.8 86.1289 124.992C85.9689 125.184 85.8889 125.408 85.8889 125.664ZM112.536 144.48H111.528C109.896 144.48 108.584 144.096 107.592 143.328V151.632H101.16V120.576H106.584V122.304C107.576 120.832 109.224 120.096 111.528 120.096H112.536C116.504 120.096 118.488 122.208 118.488 126.432V138.144C118.488 142.368 116.504 144.48 112.536 144.48ZM107.592 125.664V138.912C107.592 139.168 107.672 139.392 107.832 139.584C108.024 139.776 108.248 139.872 108.504 139.872H111.144C111.4 139.872 111.608 139.776 111.768 139.584C111.96 139.392 112.056 139.168 112.056 138.912V125.664C112.056 125.408 111.96 125.184 111.768 124.992C111.608 124.8 111.4 124.704 111.144 124.704H108.504C108.248 124.704 108.024 124.8 107.832 124.992C107.672 125.184 107.592 125.408 107.592 125.664ZM135.439 112.944C139.407 112.944 141.391 115.056 141.391 119.28V137.664C141.391 141.888 139.407 144 135.439 144H123.103V112.944H135.439ZM134.671 138.432V118.464C134.671 118.208 134.575 117.984 134.383 117.792C134.223 117.6 134.015 117.504 133.759 117.504H129.823V139.392H133.759C134.015 139.392 134.223 139.296 134.383 139.104C134.575 138.912 134.671 138.688 134.671 138.432ZM158.064 120.576H163.488V144H158.064V142.272C157.072 143.744 155.424 144.48 153.12 144.48H152.112C148.144 144.48 146.16 142.368 146.16 138.144V126.432C146.16 122.208 148.144 120.096 152.112 120.096H153.12C155.424 120.096 157.072 120.832 158.064 122.304V120.576ZM157.056 138.912V125.664C157.056 125.408 156.96 125.184 156.768 124.992C156.608 124.8 156.4 124.704 156.144 124.704H153.504C153.248 124.704 153.024 124.8 152.832 124.992C152.672 125.184 152.592 125.408 152.592 125.664V138.912C152.592 139.168 152.672 139.392 152.832 139.584C153.024 139.776 153.248 139.872 153.504 139.872H156.144C156.4 139.872 156.608 139.776 156.768 139.584C156.96 139.392 157.056 139.168 157.056 138.912ZM176.407 140.304H178.327V144.48H173.815C169.847 144.48 167.863 142.368 167.863 138.144V115.488H174.295V120.576H178.327V125.232H174.295V138C174.295 138.896 174.471 139.504 174.823 139.824C175.175 140.144 175.703 140.304 176.407 140.304ZM193.595 120.576H199.019V144H193.595V142.272C192.603 143.744 190.955 144.48 188.651 144.48H187.643C183.675 144.48 181.691 142.368 181.691 138.144V126.432C181.691 122.208 183.675 120.096 187.643 120.096H188.651C190.955 120.096 192.603 120.832 193.595 122.304V120.576ZM192.587 138.912V125.664C192.587 125.408 192.491 125.184 192.299 124.992C192.139 124.8 191.931 124.704 191.675 124.704H189.035C188.779 124.704 188.555 124.8 188.363 124.992C188.203 125.184 188.123 125.408 188.123 125.664V138.912C188.123 139.168 188.203 139.392 188.363 139.584C188.555 139.776 188.779 139.872 189.035 139.872H191.675C191.931 139.872 192.139 139.776 192.299 139.584C192.491 139.392 192.587 139.168 192.587 138.912Z" fill="white"/>
</g>
</g>
<defs>
<filter id="filter0_f_509_1613" x="-20" y="25" width="298" height="184" filterUnits="userSpaceOnUse" color-interpolation-filters="sRGB">
<feFlood flood-opacity="0" result="BackgroundImageFix"/>
<feBlend mode="normal" in="SourceGraphic" in2="BackgroundImageFix" result="shape"/>
<feGaussianBlur stdDeviation="18.5" result="effect1_foregroundBlur_509_1613"/>
</filter>
<filter id="filter1_dd_509_1613" x="17" y="58" width="224" height="156" filterUnits="userSpaceOnUse" color-interpolation-filters="sRGB">
<feFlood flood-opacity="0" result="BackgroundImageFix"/>
<feColorMatrix in="SourceAlpha" type="matrix" values="0 0 0 0 0 0 0 0 0 0 0 0 0 0 0 0 0 0 127 0" result="hardAlpha"/>
<feOffset dy="-4"/>
<feComposite in2="hardAlpha" operator="out"/>
<feColorMatrix type="matrix" values="0 0 0 0 0 0 0 0 0 0 0 0 0 0 0 0 0 0 0.25 0"/>
<feBlend mode="normal" in2="BackgroundImageFix" result="effect1_dropShadow_509_1613"/>
<feColorMatrix in="SourceAlpha" type="matrix" values="0 0 0 0 0 0 0 0 0 0 0 0 0 0 0 0 0 0 127 0" result="hardAlpha"/>
<feOffset dy="4"/>
<feComposite in2="hardAlpha" operator="out"/>
<feColorMatrix type="matrix" values="0 0 0 0 1 0 0 0 0 1 0 0 0 0 1 0 0 0 0.25 0"/>
<feBlend mode="normal" in2="effect1_dropShadow_509_1613" result="effect2_dropShadow_509_1613"/>
<feBlend mode="normal" in="SourceGraphic" in2="effect2_dropShadow_509_1613" result="shape"/>
</filter>
<linearGradient id="paint0_linear_509_1613" x1="17" y1="34" x2="197.768" y2="215.142" gradientUnits="userSpaceOnUse">
<stop stop-color="#05815D"/>
<stop offset="1" stop-color="#0C575F"/>
</linearGradient>
<linearGradient id="paint1_linear_509_1613" x1="17" y1="62" x2="241" y2="210" gradientUnits="userSpaceOnUse">
<stop stop-color="#978D95" stop-opacity="0.33"/>
<stop offset="1" stop-color="#524F4F" stop-opacity="0.33"/>
</linearGradient>
</defs>
</svg>
