<!-- created by svgstack.com | Attribution is required. --><svg width="128" height="128" viewBox="0 0 128 128" fill="none" xmlns="http://www.w3.org/2000/svg"><rect width="128" height="128" rx="32" fill="white"/><rect width="128" height="128" rx="32" fill="url(#paint0_radial_10019_922)"/><rect width="128" height="128" rx="32" fill="url(#paint1_radial_10019_922)"/><rect width="128" height="128" rx="32" fill="url(#paint2_radial_10019_922)"/><rect width="128" height="128" rx="32" fill="url(#paint3_radial_10019_922)"/><rect width="128" height="128" rx="32" fill="url(#paint4_radial_10019_922)"/><rect width="128" height="128" rx="32" fill="url(#paint5_radial_10019_922)"/><rect width="128" height="128" rx="32" fill="url(#paint6_radial_10019_922)"/><rect width="128" height="128" rx="32" fill="url(#paint7_radial_10019_922)" style="mix-blend-mode:soft-light"/><path fill-rule="evenodd" clip-rule="evenodd" d="M54.4577 27.6745C58.8996 19.4056 70.5214 19.4688 74.8774 27.7856L78.7121 35.1072L87.4295 34.167C96.2083 33.2201 102.771 42.2503 99.3673 50.5927L96.1536 58.4688L103.045 64.9845C109.085 70.6953 106.835 80.9608 98.9911 83.4788L89.986 86.3695L89.5043 95.9728C89.0832 104.366 79.9696 109.164 73.0611 104.63L64.0792 98.7359L54.8264 104.764C47.942 109.249 38.8877 104.5 38.4169 96.1568L37.8624 86.3316L29.0657 83.5635C21.0661 81.0462 18.8649 70.5157 25.1569 64.8642L31.9834 58.7326L28.7215 50.3193C25.5021 42.0156 32.0304 33.1746 40.7076 34.0872L50.4619 35.113L54.4577 27.6745ZM48.0285 39.6428L40.2329 38.8229C35.0266 38.2754 31.1096 43.58 33.0412 48.5623L35.6927 55.401L38.5673 52.819C41.6141 50.0824 44.1717 46.8225 46.1252 43.186L48.0285 39.6428ZM37.5135 60.0974L41.6317 56.3984C45.0848 53.2968 47.9834 49.6024 50.1973 45.4809L53.0499 40.1708L60.6578 40.9709C63.375 41.2566 66.1137 41.253 68.8301 40.96L76.0928 40.1767L78.9762 45.6819C81.054 49.649 83.7635 53.2332 86.9932 56.2867L90.6108 59.7071L88.7677 64.2242C87.0138 68.5227 85.9977 73.0992 85.7643 77.7519L85.5102 82.8173L79.3403 84.7979C76.0332 85.8595 72.8769 87.3623 69.9526 89.2674L64.0884 93.0878L58.4378 89.3795C55.4198 87.3989 52.1528 85.8482 48.7266 84.77L42.316 82.7528L42.0061 77.2603C41.7621 72.9381 40.8426 68.684 39.2826 64.6602L37.5135 60.0974ZM33.8043 63.429L28.2214 68.4436C24.665 71.6379 25.9092 77.5899 30.4307 79.0127L37.5762 81.2613L37.3659 77.535C37.1507 73.7213 36.3394 69.9677 34.9629 66.4173L33.8043 63.429ZM42.6022 87.8231L43.057 95.882C43.3231 100.598 48.4408 103.282 52.3319 100.747L59.7649 95.9045L55.9303 93.388C53.2674 91.6404 50.3847 90.2721 47.3616 89.3208L42.6022 87.8231ZM68.4027 95.9192L75.5685 100.622C79.4734 103.185 84.6245 100.472 84.8625 95.7285L85.2558 87.888L80.7303 89.3407C77.8123 90.2774 75.0273 91.6034 72.4471 93.2844L68.4027 95.9192ZM90.2404 81.2989L97.6011 78.936C102.035 77.5127 103.306 71.7105 99.8924 68.4827L94.2459 63.144L93.0561 66.06C91.5085 69.8528 90.612 73.8909 90.406 77.9962L90.2404 81.2989ZM92.5185 55.0319L95.0789 48.7569C97.1213 43.7515 93.1835 38.3334 87.9162 38.9015L81.0852 39.6382L83.0719 43.4313C84.9052 46.9317 87.296 50.0943 90.1457 52.7886L92.5185 55.0319ZM73.7196 35.6456L68.3433 36.2255C65.9465 36.484 63.53 36.4872 61.1325 36.2351L55.4832 35.641L58.5298 29.9695C61.195 25.0082 68.1681 25.0461 70.7817 30.0361L73.7196 35.6456Z" fill="url(#paint8_linear_10019_922)"/><path fill-rule="evenodd" clip-rule="evenodd" d="M54.4577 27.6745C58.8996 19.4056 70.5214 19.4688 74.8774 27.7856L78.7121 35.1072L87.4295 34.167C96.2083 33.2201 102.771 42.2503 99.3673 50.5927L96.1536 58.4688L103.045 64.9845C109.085 70.6953 106.835 80.9608 98.9911 83.4788L89.986 86.3695L89.5043 95.9728C89.0832 104.366 79.9696 109.164 73.0611 104.63L64.0792 98.7359L54.8264 104.764C47.942 109.249 38.8877 104.5 38.4169 96.1568L37.8624 86.3316L29.0657 83.5635C21.0661 81.0462 18.8649 70.5157 25.1569 64.8642L31.9834 58.7326L28.7215 50.3193C25.5021 42.0156 32.0304 33.1746 40.7076 34.0872L50.4619 35.113L54.4577 27.6745ZM48.0285 39.6428L40.2329 38.8229C35.0266 38.2754 31.1096 43.58 33.0412 48.5623L35.6927 55.401L38.5673 52.819C41.6141 50.0824 44.1717 46.8225 46.1252 43.186L48.0285 39.6428ZM37.5135 60.0974L41.6317 56.3984C45.0848 53.2968 47.9834 49.6024 50.1973 45.4809L53.0499 40.1708L60.6578 40.9709C63.375 41.2566 66.1137 41.253 68.8301 40.96L76.0928 40.1767L78.9762 45.6819C81.054 49.649 83.7635 53.2332 86.9932 56.2867L90.6108 59.7071L88.7677 64.2242C87.0138 68.5227 85.9977 73.0992 85.7643 77.7519L85.5102 82.8173L79.3403 84.7979C76.0332 85.8595 72.8769 87.3623 69.9526 89.2674L64.0884 93.0878L58.4378 89.3795C55.4198 87.3989 52.1528 85.8482 48.7266 84.77L42.316 82.7528L42.0061 77.2603C41.7621 72.9381 40.8426 68.684 39.2826 64.6602L37.5135 60.0974ZM33.8043 63.429L28.2214 68.4436C24.665 71.6379 25.9092 77.5899 30.4307 79.0127L37.5762 81.2613L37.3659 77.535C37.1507 73.7213 36.3394 69.9677 34.9629 66.4173L33.8043 63.429ZM42.6022 87.8231L43.057 95.882C43.3231 100.598 48.4408 103.282 52.3319 100.747L59.7649 95.9045L55.9303 93.388C53.2674 91.6404 50.3847 90.2721 47.3616 89.3208L42.6022 87.8231ZM68.4027 95.9192L75.5685 100.622C79.4734 103.185 84.6245 100.472 84.8625 95.7285L85.2558 87.888L80.7303 89.3407C77.8123 90.2774 75.0273 91.6034 72.4471 93.2844L68.4027 95.9192ZM90.2404 81.2989L97.6011 78.936C102.035 77.5127 103.306 71.7105 99.8924 68.4827L94.2459 63.144L93.0561 66.06C91.5085 69.8528 90.612 73.8909 90.406 77.9962L90.2404 81.2989ZM92.5185 55.0319L95.0789 48.7569C97.1213 43.7515 93.1835 38.3334 87.9162 38.9015L81.0852 39.6382L83.0719 43.4313C84.9052 46.9317 87.296 50.0943 90.1457 52.7886L92.5185 55.0319ZM73.7196 35.6456L68.3433 36.2255C65.9465 36.484 63.53 36.4872 61.1325 36.2351L55.4832 35.641L58.5298 29.9695C61.195 25.0082 68.1681 25.0461 70.7817 30.0361L73.7196 35.6456Z" fill="url(#paint9_linear_10019_922)"/><path fill-rule="evenodd" clip-rule="evenodd" d="M54.4577 27.6745C58.8996 19.4056 70.5214 19.4688 74.8774 27.7856L78.7121 35.1072L87.4295 34.167C96.2083 33.2201 102.771 42.2503 99.3673 50.5927L96.1536 58.4688L103.045 64.9845C109.085 70.6953 106.835 80.9608 98.9911 83.4788L89.986 86.3695L89.5043 95.9728C89.0832 104.366 79.9696 109.164 73.0611 104.63L64.0792 98.7359L54.8264 104.764C47.942 109.249 38.8877 104.5 38.4169 96.1568L37.8624 86.3316L29.0657 83.5635C21.0661 81.0462 18.8649 70.5157 25.1569 64.8642L31.9834 58.7326L28.7215 50.3193C25.5021 42.0156 32.0304 33.1746 40.7076 34.0872L50.4619 35.113L54.4577 27.6745ZM48.0285 39.6428L40.2329 38.8229C35.0266 38.2754 31.1096 43.58 33.0412 48.5623L35.6927 55.401L38.5673 52.819C41.6141 50.0824 44.1717 46.8225 46.1252 43.186L48.0285 39.6428ZM37.5135 60.0974L41.6317 56.3984C45.0848 53.2968 47.9834 49.6024 50.1973 45.4809L53.0499 40.1708L60.6578 40.9709C63.375 41.2566 66.1137 41.253 68.8301 40.96L76.0928 40.1767L78.9762 45.6819C81.054 49.649 83.7635 53.2332 86.9932 56.2867L90.6108 59.7071L88.7677 64.2242C87.0138 68.5227 85.9977 73.0992 85.7643 77.7519L85.5102 82.8173L79.3403 84.7979C76.0332 85.8595 72.8769 87.3623 69.9526 89.2674L64.0884 93.0878L58.4378 89.3795C55.4198 87.3989 52.1528 85.8482 48.7266 84.77L42.316 82.7528L42.0061 77.2603C41.7621 72.9381 40.8426 68.684 39.2826 64.6602L37.5135 60.0974ZM33.8043 63.429L28.2214 68.4436C24.665 71.6379 25.9092 77.5899 30.4307 79.0127L37.5762 81.2613L37.3659 77.535C37.1507 73.7213 36.3394 69.9677 34.9629 66.4173L33.8043 63.429ZM42.6022 87.8231L43.057 95.882C43.3231 100.598 48.4408 103.282 52.3319 100.747L59.7649 95.9045L55.9303 93.388C53.2674 91.6404 50.3847 90.2721 47.3616 89.3208L42.6022 87.8231ZM68.4027 95.9192L75.5685 100.622C79.4734 103.185 84.6245 100.472 84.8625 95.7285L85.2558 87.888L80.7303 89.3407C77.8123 90.2774 75.0273 91.6034 72.4471 93.2844L68.4027 95.9192ZM90.2404 81.2989L97.6011 78.936C102.035 77.5127 103.306 71.7105 99.8924 68.4827L94.2459 63.144L93.0561 66.06C91.5085 69.8528 90.612 73.8909 90.406 77.9962L90.2404 81.2989ZM92.5185 55.0319L95.0789 48.7569C97.1213 43.7515 93.1835 38.3334 87.9162 38.9015L81.0852 39.6382L83.0719 43.4313C84.9052 46.9317 87.296 50.0943 90.1457 52.7886L92.5185 55.0319ZM73.7196 35.6456L68.3433 36.2255C65.9465 36.484 63.53 36.4872 61.1325 36.2351L55.4832 35.641L58.5298 29.9695C61.195 25.0082 68.1681 25.0461 70.7817 30.0361L73.7196 35.6456Z" fill="white"/><defs><radialGradient id="paint0_radial_10019_922" cx="0" cy="0" r="1" gradientUnits="userSpaceOnUse" gradientTransform="translate(113.422 10.8444) rotate(137.811) scale(105.093)"><stop stop-color="#F7306E"/><stop offset="1" stop-color="#F7306E" stop-opacity="0"/></radialGradient><radialGradient id="paint1_radial_10019_922" cx="0" cy="0" r="1" gradientUnits="userSpaceOnUse" gradientTransform="translate(113.422 10.8444) rotate(137.811) scale(105.093)"><stop stop-color="#F7306E"/><stop offset="1" stop-color="#F7306E" stop-opacity="0"/></radialGradient><radialGradient id="paint2_radial_10019_922" cx="0" cy="0" r="1" gradientUnits="userSpaceOnUse" gradientTransform="translate(110.756 109.511) rotate(-130.284) scale(87.1592)"><stop stop-color="#EB78F9"/><stop offset="1" stop-color="#EB78F9" stop-opacity="0"/></radialGradient><radialGradient id="paint3_radial_10019_922" cx="0" cy="0" r="1" gradientUnits="userSpaceOnUse" gradientTransform="translate(110.756 109.511) rotate(-130.284) scale(87.1592)"><stop stop-color="#EB78F9"/><stop offset="1" stop-color="#EB78F9" stop-opacity="0"/></radialGradient><radialGradient id="paint4_radial_10019_922" cx="0" cy="0" r="1" gradientUnits="userSpaceOnUse" gradientTransform="translate(16.5333 117.867) rotate(-46.1691) scale(141.702 145.811)"><stop stop-color="#00AEFF"/><stop offset="1" stop-color="#3963F9" stop-opacity="0"/></radialGradient><radialGradient id="paint5_radial_10019_922" cx="0" cy="0" r="1" gradientUnits="userSpaceOnUse" gradientTransform="translate(13.3333 9.59999) rotate(42.3246) scale(80.7925)"><stop stop-color="#F1A455"/><stop offset="1" stop-color="#F1A455" stop-opacity="0"/></radialGradient><radialGradient id="paint6_radial_10019_922" cx="0" cy="0" r="1" gradientUnits="userSpaceOnUse" gradientTransform="translate(13.3333 9.59999) rotate(42.3246) scale(80.7925)"><stop stop-color="#F1A455"/><stop offset="1" stop-color="#F1A455" stop-opacity="0"/></radialGradient><radialGradient id="paint7_radial_10019_922" cx="0" cy="0" r="1" gradientUnits="userSpaceOnUse" gradientTransform="translate(-3.02222 79.2889) rotate(-16.3335) scale(133.383 137.25)"><stop stop-color="#FFF8E4"/><stop offset="1" stop-color="#FFF8E4" stop-opacity="0"/></radialGradient><linearGradient id="paint8_linear_10019_922" x1="86.6607" y1="28.7528" x2="44.3987" y2="103.755" gradientUnits="userSpaceOnUse"><stop stop-color="#FF1080"/><stop offset="0.963543" stop-color="#42C4FF"/></linearGradient><linearGradient id="paint9_linear_10019_922" x1="39.9223" y1="32.1326" x2="107.556" y2="81.6134" gradientUnits="userSpaceOnUse"><stop stop-color="#FF9124"/><stop offset="0.225429" stop-color="#FF9798" stop-opacity="0.519085"/><stop offset="0.375" stop-color="#EE988B" stop-opacity="0.2"/><stop offset="0.515" stop-color="#ED90A9" stop-opacity="0"/><stop offset="0.610586" stop-color="#EC88C5" stop-opacity="0.2"/><stop offset="1" stop-color="#EA7AFA"/></linearGradient></defs></svg> 