<!-- created by svgstack.com | Attribution is required. --><svg width="128" height="128" viewBox="0 0 128 128" fill="none" xmlns="http://www.w3.org/2000/svg"><path fill-rule="evenodd" clip-rule="evenodd" d="M63.6581 20.379C85.9722 20.379 104.627 39.0333 104.627 61.3474C104.627 65.7028 103.916 69.9187 102.606 73.8837C103.697 75.6563 104.671 77.5034 105.516 79.413C107.973 73.8482 109.342 67.7321 109.342 61.3474C109.342 36.7439 88.5033 15.6632 63.6581 15.6632C39.0545 15.6632 17.9739 36.502 17.9739 61.3474C17.9739 67.7277 19.3416 73.8397 21.795 79.4014C22.6409 77.4906 23.6155 75.644 24.7067 73.8732C23.3991 69.9113 22.6897 65.6989 22.6897 61.3474C22.6897 39.0333 41.3439 20.379 63.6581 20.379ZM58.0387 101.918C56.6815 103.336 55.131 104.725 53.4469 105.843C56.7388 106.62 60.1581 107.032 63.6581 107.032C67.1766 107.032 70.6134 106.616 73.9215 105.831C72.2437 104.7 70.6975 103.315 69.3417 101.909C67.4808 102.177 65.5831 102.316 63.6581 102.316C61.7552 102.316 59.879 102.18 58.0387 101.918Z" fill="black"/><path d="M76.9685 50.2063C78.4775 50.725 79.067 53.8139 80.5878 53.0122C81.6176 52.4654 82.4622 51.6256 83.0146 50.5988C83.5671 49.572 83.8027 48.4045 83.6915 47.2439C83.5804 46.0832 83.1275 44.9816 82.3903 44.0783C81.653 43.1751 80.6644 42.5107 79.5496 42.1693C78.4347 41.828 77.2436 41.8249 76.127 42.1604C75.0104 42.496 74.0184 43.1552 73.2764 44.0546C72.5345 44.954 72.0759 46.0533 71.9587 47.2133C71.8416 48.3734 72.071 49.5422 72.6181 50.5718C73.3373 51.9276 75.6245 49.7229 76.9802 50.1945L76.9685 50.2063ZM49.2043 50.2063C47.6952 50.725 47.0939 53.8139 45.5849 53.0122C44.5551 52.4654 43.7105 51.6256 43.1581 50.5988C42.6056 49.572 42.3701 48.4045 42.4812 47.2439C42.5923 46.0832 43.0452 44.9816 43.7824 44.0783C44.5197 43.1751 45.5083 42.5107 46.6231 42.1693C47.738 41.828 48.9291 41.8249 50.0457 42.1604C51.1623 42.496 52.1543 43.1552 52.8963 44.0546C53.6382 44.954 54.0968 46.0533 54.214 47.2133C54.3312 48.3734 54.1017 49.5422 53.5546 50.5718C52.8354 51.9276 50.5365 49.7229 49.1925 50.1945L49.2043 50.2063Z" fill="black"/><path opacity="0.5" d="M63.3634 78.4892C74.9524 78.4892 78.6897 68.1616 78.6897 62.8563C78.6897 60.0976 76.8387 60.97 73.8678 62.4319C71.1208 63.7877 67.4307 65.6622 63.3751 65.6622C54.8985 65.6622 48.0488 57.5511 48.0488 62.8563C48.0488 68.1616 51.7743 78.4892 63.3751 78.4892H63.3634Z" fill="black"/><path fill-rule="evenodd" clip-rule="evenodd" d="M54.486 75.7895C55.108 74.5253 55.9839 73.4028 57.059 72.4921C58.134 71.5813 59.3851 70.9019 60.7344 70.496C61.206 70.3545 61.6893 71.168 62.1963 72.005C62.6678 72.8067 63.163 73.6202 63.6582 73.6202C64.1887 73.6202 64.7192 72.8185 65.2262 72.0286C65.7567 71.2034 66.2754 70.4017 66.7824 70.5549C69.315 71.359 71.4314 73.124 72.6771 75.4712C77.0746 72.005 78.6897 66.3461 78.6897 62.8564C78.6897 60.0977 76.8388 60.9701 73.8678 62.432L73.7028 62.5145C70.9794 63.8703 67.3483 65.6623 63.3634 65.6623C59.3786 65.6623 55.7592 63.8703 53.0241 62.5145C49.9588 60.9937 48.0371 60.0387 48.0371 62.8564C48.0371 66.4522 49.7584 72.3587 54.486 75.7895Z" fill="black"/><path d="M91.3634 55.7474C92.3796 55.7474 93.3542 55.3437 94.0728 54.6251C94.7913 53.9066 95.195 52.932 95.195 51.9158C95.195 50.8996 94.7913 49.925 94.0728 49.2065C93.3542 48.4879 92.3796 48.0842 91.3634 48.0842C90.3472 48.0842 89.3727 48.4879 88.6541 49.2065C87.9355 49.925 87.5319 50.8996 87.5319 51.9158C87.5319 52.932 87.9355 53.9066 88.6541 54.6251C89.3727 55.3437 90.3472 55.7474 91.3634 55.7474ZM36.5424 55.7474C37.5586 55.7474 38.5332 55.3437 39.2517 54.6251C39.9703 53.9066 40.374 52.932 40.374 51.9158C40.374 50.8996 39.9703 49.925 39.2517 49.2065C38.5332 48.4879 37.5586 48.0842 36.5424 48.0842C35.5262 48.0842 34.5516 48.4879 33.8331 49.2065C33.1145 49.925 32.7108 50.8996 32.7108 51.9158C32.7108 52.932 33.1145 53.9066 33.8331 54.6251C34.5516 55.3437 35.5262 55.7474 36.5424 55.7474ZM28.6552 68.7158C26.7453 68.7158 25.0477 69.4939 23.8569 70.9204C22.8415 72.1746 22.288 73.7396 22.2889 75.3533C21.5466 75.1301 20.7768 75.011 20.0018 74.9996C18.1744 74.9996 16.5239 75.6952 15.3567 76.9567C14.3154 78.038 13.6589 79.4319 13.4884 80.9233C13.318 82.4148 13.6431 83.9209 14.4135 85.2093C13.3702 86.0611 12.63 87.2272 12.3032 88.5339C12.0203 89.595 11.7373 91.835 13.2464 94.1221C12.6807 94.9919 12.3441 95.9905 12.2678 97.0252C12.1915 98.06 12.3781 99.0972 12.8102 100.04C14.0127 102.776 17.019 104.921 22.8548 107.232C26.4742 108.67 29.7988 109.59 29.8224 109.602C34.0222 110.765 38.3511 111.399 42.7083 111.488C49.6169 111.488 54.5567 109.366 57.398 105.192C61.9723 98.4842 61.3239 92.3419 55.3938 86.4236C52.1281 83.1461 49.947 78.3242 49.499 77.2632C48.5794 74.1272 46.1508 70.6375 42.1306 70.6375C41.0611 70.6544 40.011 70.9264 39.0678 71.4308C38.1245 71.9352 37.3153 72.6576 36.7074 73.5377C35.5285 72.0522 34.3731 70.8851 33.3357 70.2131C31.9512 69.2758 30.3266 68.7561 28.6552 68.7158ZM28.6552 73.4316C29.2565 73.4316 29.9992 73.691 30.8009 74.1979C33.3239 75.8013 38.1693 84.1364 39.9495 87.3785C40.539 88.4632 41.5647 88.923 42.4725 88.923C44.2999 88.923 45.7146 87.1192 42.6493 84.8202C38.0279 81.3659 39.643 75.7188 41.8477 75.3769C41.942 75.3533 42.0481 75.3533 42.1306 75.3533C44.1348 75.3533 45.019 78.8076 45.019 78.8076C45.019 78.8076 47.6127 85.3154 52.0691 89.7718C56.5138 94.2164 56.7495 97.7887 53.5074 102.54C51.291 105.782 47.0586 106.76 42.7083 106.76C38.2165 106.76 33.595 105.699 31.0131 105.039C30.8834 105.004 15.1563 100.559 17.1487 96.7865C17.4788 96.1499 18.0329 95.8906 18.7285 95.8906C21.5344 95.8906 26.6274 100.064 28.8321 100.064C29.3154 100.064 29.6573 99.8636 29.8106 99.3567C30.742 95.9967 15.5925 94.5819 16.8658 89.7247C17.1015 88.864 17.7028 88.5221 18.5634 88.5221C22.2653 88.5221 30.5887 95.0417 32.3335 95.0417C32.4632 95.0417 32.5693 95.0063 32.6165 94.9238C33.4889 93.5091 33.0055 92.5188 26.8397 88.7933C20.6973 85.0678 16.3706 82.8278 18.8228 80.1516C19.1058 79.8451 19.5066 79.7036 20.0018 79.7036C23.739 79.7036 32.5693 87.744 32.5693 87.744C32.5693 87.744 34.9508 90.2198 36.4009 90.2198C36.731 90.2198 37.014 90.1019 37.2026 89.7718C38.2165 88.0505 27.7003 80.0809 27.1108 76.7916C26.71 74.5516 27.3938 73.4316 28.6552 73.4316Z" fill="black"/><path d="M99.2504 68.7158C101.16 68.7158 102.87 69.4939 104.049 70.9205C105.064 72.1746 105.618 73.7396 105.617 75.3533C106.363 75.129 107.137 75.0099 107.916 74.9996C109.743 74.9996 111.394 75.6952 112.561 76.9567C113.602 78.038 114.259 79.4319 114.429 80.9234C114.599 82.4148 114.274 83.9209 113.504 85.2093C114.543 86.0628 115.279 87.2288 115.602 88.5339C115.885 89.595 116.168 91.835 114.659 94.1221C115.225 94.9919 115.562 95.9905 115.638 97.0252C115.714 98.06 115.528 99.0972 115.095 100.04C113.893 102.776 110.887 104.921 105.063 107.232C101.431 108.67 98.1068 109.59 98.0833 109.602C93.8834 110.765 89.5545 111.399 85.1974 111.488C78.2887 111.488 73.3489 109.366 70.5077 105.192C65.9334 98.4842 66.5818 92.3419 72.5119 86.4236C75.7894 83.1461 77.9704 78.3242 78.4184 77.2632C79.338 74.1272 81.7548 70.6375 85.775 70.6375C86.8446 70.6544 87.8946 70.9264 88.8379 71.4308C89.7811 71.9353 90.5903 72.6576 91.1982 73.5377C92.3772 72.0522 93.5325 70.8851 94.5818 70.2131C95.9629 69.278 97.5831 68.7584 99.2504 68.7158ZM99.2504 73.4316C98.6492 73.4316 97.9182 73.691 97.1047 74.1979C94.5936 75.8013 89.7363 84.1365 87.9561 87.3786C87.7159 87.8412 87.354 88.2294 86.9094 88.5016C86.4648 88.7737 85.9544 88.9194 85.4332 88.923C83.6176 88.923 82.191 87.1192 85.2681 84.8202C89.8778 81.3659 88.2626 75.7188 86.058 75.3769C85.9644 75.3616 85.8698 75.3538 85.775 75.3533C83.7708 75.3533 82.8866 78.8076 82.8866 78.8076C82.8866 78.8076 80.2929 85.3154 75.8483 89.7718C71.3919 94.2165 71.1561 97.7887 74.41 102.54C76.6146 105.782 80.8588 106.76 85.1974 106.76C89.7009 106.76 94.3106 105.699 96.9043 105.039C97.0222 105.004 112.761 100.559 110.769 96.7866C110.427 96.1499 109.885 95.8906 109.189 95.8906C106.383 95.8906 101.278 100.064 99.0854 100.064C98.5902 100.064 98.2483 99.8636 98.1068 99.3567C97.1637 95.9967 112.313 94.5819 111.04 89.7247C110.816 88.864 110.215 88.5221 109.342 88.5221C105.64 88.5221 97.3169 95.0417 95.5721 95.0417C95.4542 95.0417 95.3481 95.0064 95.3009 94.9238C94.4285 93.5091 94.9001 92.5188 101.054 88.7933C107.22 85.0678 111.547 82.8278 109.071 80.1516C108.8 79.8451 108.399 79.7036 107.916 79.7036C104.167 79.7036 95.3363 87.744 95.3363 87.744C95.3363 87.744 92.9548 90.2198 91.5165 90.2198C91.3545 90.2271 91.1936 90.189 91.052 90.1098C90.9103 90.0307 90.7936 89.9137 90.7148 89.7718C89.6892 88.0506 100.205 80.0809 100.795 76.7916C101.196 74.5516 100.512 73.4316 99.2504 73.4316Z" fill="black"/></svg> 