<!-- created by svgstack.com | Attribution is required. --><svg width="128" height="128" viewBox="0 0 128 128" fill="none" xmlns="http://www.w3.org/2000/svg"><path d="M103.756 35.3386C103.127 34.7116 102.379 34.218 101.555 33.8872C100.73 33.5564 99.8484 33.3952 98.9609 33.4132H98.9242C93.6984 33.4132 89.5085 29.1683 89.5085 23.9515C89.5218 23.0816 89.363 22.2176 89.0413 21.4092C88.7195 20.6008 88.2412 19.864 87.6336 19.2412C87.0261 18.6183 86.3015 18.1217 85.5014 17.7799C84.7013 17.4381 83.8415 17.2579 82.9715 17.2495H29.8504C28.9811 17.2579 28.1221 17.4378 27.3226 17.7791C26.5231 18.1203 25.7989 18.6161 25.1915 19.238C24.5841 19.8598 24.1055 20.5955 23.7833 21.4028C23.4609 22.2102 23.3013 23.0732 23.3134 23.9424C23.3134 29.1683 19.0776 33.3949 13.8517 33.3949V33.4041C12.9717 33.3869 12.0972 33.546 11.2797 33.8717C10.4621 34.1976 9.71789 34.6835 9.09088 35.3012C8.46387 35.9187 7.9667 36.6555 7.6286 37.4681C7.2905 38.2807 7.1183 39.1527 7.12213 40.0327V57.0216C7.1195 57.9017 7.29289 58.7735 7.6321 59.5856C7.97132 60.3977 8.46951 61.1338 9.09737 61.7506C9.72524 62.3674 10.4701 62.8523 11.2881 63.177C12.1062 63.5017 12.9809 63.6594 13.8608 63.6411C16.3622 63.6411 18.7614 64.6335 20.5318 66.4005C22.3023 68.1675 23.2993 70.5647 23.3042 73.0661V90.3209C23.3042 92.5212 26.0822 93.5023 27.4574 91.7878L37.0383 79.814H82.9715C83.8407 79.8056 84.6997 79.6257 85.4992 79.2844C86.2987 78.9432 87.023 78.4474 87.6304 77.8256C88.2377 77.2037 88.7163 76.4679 89.0386 75.6607C89.3609 74.8533 89.5206 73.9903 89.5085 73.1211V73.112C89.5085 67.886 93.7259 63.6503 98.9517 63.6503H98.9609C99.8411 63.6699 100.717 63.5129 101.535 63.1887C102.354 62.8645 103.099 62.3795 103.728 61.7625C104.356 61.1456 104.853 60.4089 105.193 59.5962C105.531 58.7836 105.703 57.9112 105.7 57.0308V40.0327C105.7 38.3366 105.058 36.6405 103.756 35.3386ZM92.4607 57.205C92.4341 59.6928 91.4278 62.0699 89.6599 63.8205C87.8921 65.5712 85.5053 66.5543 83.0173 66.5566H29.7954C27.3074 66.5543 24.9206 65.5712 23.1527 63.8205C21.3848 62.0699 20.3785 59.6928 20.352 57.205V39.8494C20.3785 37.3616 21.3848 34.9844 23.1527 33.2337C24.9206 31.4831 27.3074 30.5 29.7954 30.4977V30.4794H29.8412V30.4885H82.999C88.1883 30.4885 92.3965 34.6693 92.4515 39.8402V57.205H92.4607Z" fill="black"/><path d="M41.7141 38.575C38.0468 38.575 35.0854 41.5455 35.0854 45.2128V51.8415C35.0522 52.7333 35.1993 53.6227 35.5177 54.4564C35.8361 55.2901 36.3194 56.0511 36.9386 56.6938C37.5578 57.3364 38.3003 57.8476 39.1217 58.1969C39.9429 58.546 40.8262 58.726 41.7187 58.726C42.6111 58.726 43.4945 58.546 44.3158 58.1969C45.1371 57.8476 45.8795 57.3364 46.4987 56.6938C47.118 56.0511 47.6012 55.2901 47.9196 54.4564C48.2381 53.6227 48.3851 52.7333 48.3519 51.8415V45.2128C48.3519 41.5455 45.3814 38.575 41.7141 38.575ZM71.0985 38.575C67.4312 38.575 64.4606 41.5455 64.4606 45.2128V51.8415C64.4606 53.602 65.16 55.2903 66.4049 56.5351C67.6496 57.78 69.3381 58.4793 71.0985 58.4793C72.859 58.4793 74.5473 57.78 75.7922 56.5351C77.037 55.2903 77.7363 53.602 77.7363 51.8415V45.2128C77.7363 41.5455 74.7658 38.575 71.0985 38.575Z" fill="black"/><path d="M41.1547 108.914L50.4513 97.2888H96.3845C97.2545 97.2817 98.1145 97.1026 98.915 96.7619C99.7154 96.4212 100.441 95.9256 101.049 95.3036C101.657 94.6816 102.137 93.9455 102.46 93.1376C102.783 92.3297 102.943 91.466 102.931 90.596C102.922 85.3884 107.13 81.1526 112.337 81.1343H112.383C113.263 81.1526 114.139 80.9946 114.958 80.6693C115.776 80.3441 116.522 79.8583 117.15 79.2406C117.778 78.6228 118.276 77.8856 118.615 77.0725C118.953 76.2592 119.126 75.3865 119.122 74.5056V57.7276C119.122 56.1323 118.59 54.5737 117.618 53.2993L115.757 50.8789V70.1323C115.76 71.0124 115.587 71.8842 115.247 72.6963C114.908 73.5085 114.409 74.2445 113.781 74.8612C113.154 75.4781 112.409 75.963 111.591 76.2877C110.773 76.6124 109.899 76.7702 109.019 76.7518H108.982C106.478 76.7616 104.08 77.7642 102.315 79.5398C100.55 81.3155 99.5614 83.7189 99.566 86.2227C99.5779 87.0919 99.4184 87.9549 99.0957 88.7622C98.7738 89.5695 98.2952 90.3052 97.6878 90.9271C97.0804 91.5489 96.3562 92.0448 95.5566 92.386C94.7571 92.7272 93.8981 92.9072 93.0289 92.9156H47.0957L36.9739 105.568C36.5302 106.122 36.3248 106.83 36.403 107.536C36.4812 108.242 36.8367 108.888 37.3911 109.331C37.9455 109.775 38.6535 109.981 39.3592 109.903C40.0651 109.824 40.7109 109.469 41.1547 108.914Z" fill="black"/><path d="M30.4738 96.5462L40.3755 84.169H86.3087C87.1779 84.1606 88.0369 83.9807 88.8364 83.6394C89.636 83.2982 90.3602 82.8025 90.9676 82.1806C91.575 81.5587 92.0535 80.823 92.3758 80.0157C92.6981 79.2084 92.8578 78.3453 92.8457 77.4761C92.8408 74.9747 93.8285 72.5737 95.5921 70.7998C97.3557 69.0259 99.7512 68.0242 102.252 68.0144H102.298C103.178 68.0341 104.054 67.8771 104.873 67.5529C105.691 67.2286 106.437 66.7437 107.065 66.1267C107.693 65.5098 108.191 64.7731 108.53 63.9604C108.868 63.1477 109.04 62.2754 109.037 61.3949V42.1232L111.466 45.2862C112.443 46.5596 112.971 48.1193 112.97 49.7237V66.4833C112.973 67.3627 112.799 68.2337 112.461 69.0451C112.122 69.8566 111.625 70.5923 110.998 71.209C110.371 71.8256 109.627 72.3108 108.81 72.636C107.993 72.9612 107.12 73.12 106.24 73.1029H106.195C103.691 73.115 101.294 74.12 99.5311 75.8973C97.7671 77.6746 96.7807 80.0791 96.7881 82.5829C96.8002 83.452 96.6404 84.3151 96.3182 85.1224C95.9958 85.9298 95.5172 86.6654 94.9099 87.2873C94.3025 87.9092 93.5783 88.4049 92.7788 88.7462C91.9793 89.0874 91.1203 89.2674 90.2511 89.2757H44.3179L35.3696 100.461C35.1125 100.782 34.7947 101.05 34.4342 101.249C34.0737 101.447 33.6776 101.573 33.2685 101.619C32.8594 101.664 32.4454 101.629 32.0501 101.514C31.6546 101.4 31.2857 101.209 30.9643 100.952C30.6427 100.694 30.3751 100.377 30.1764 100.016C29.9778 99.6556 29.8521 99.2596 29.8066 98.8505C29.7611 98.4414 29.7965 98.0273 29.911 97.632C30.0254 97.2367 30.2167 96.8676 30.4738 96.5462Z" fill="black"/></svg> 