<!-- created by svgstack.com | Attribution is required. --><svg width="657" height="132" viewBox="0 0 657 132" fill="none" xmlns="http://www.w3.org/2000/svg"><g clip-path="url(#clip0_10019_1814)"><path fill-rule="evenodd" clip-rule="evenodd" d="M109.008 33.2999L93.6576 70.0847L78.2928 33.2999H68.436L85.2768 73.5119C86.6736 76.8671 89.9496 79.0343 93.6 79.0343C97.2504 79.0343 100.519 76.8671 101.923 73.5263L118.865 33.2999H109.008ZM115.567 89.3447L143.647 60.9551L139.817 51.9191L109.145 82.9871C106.582 85.5863 105.847 89.4167 107.266 92.7719C108.677 96.0983 111.938 98.2511 115.574 98.2511L115.589 98.2655L159.43 98.1575L155.599 89.1215L115.574 89.3447H115.567ZM43.6824 60.9335L47.5128 51.8975L78.1848 82.9655C80.748 85.5575 81.4896 89.4023 80.064 92.7503C78.6528 96.0839 75.3768 98.2295 71.7552 98.2295L27.9144 98.1287L27.9 98.1431L31.7304 89.1071L71.7552 89.3303L43.6824 60.9335Z" fill="#4A1DBD"/><path d="M194.45 94.6581L194.458 94.6653H201.996V68.7021H226.346V61.9701H201.996V45.0789H228.78V38.3469H194.45V94.6581Z" fill="black"/><path d="M243.67 53.9856H236.599V94.6584H243.67V53.9856Z" fill="black"/><path d="M261.598 59.3782H261.605C261.446 59.767 261.295 60.0046 260.82 60.0046C260.424 60.0046 260.273 59.8534 260.273 59.4646V53.9854H253.202V94.6582H260.258V71.575C260.258 63.763 263.88 60.7102 270.713 60.7102H276.372V53.827H271.814C266.242 53.827 263.412 55.4686 261.598 59.3782Z" fill="black"/><path d="M299.887 89.7476C292.306 89.7476 286.646 85.442 286.171 76.298H319.212V72.3812C319.212 61.0412 312.3 52.826 299.722 52.826C287.143 52.826 279.13 61.0413 279.13 74.3324C279.13 87.6236 286.906 95.8388 299.873 95.8388C312.84 95.8388 318.168 87.9477 319.363 81.7701H311.99C310.846 86.3925 307.469 89.7476 299.887 89.7476ZM299.722 58.91C307.195 58.91 311.818 62.906 312.142 70.4156H286.366C287.539 62.7404 292.961 58.91 299.722 58.91Z" fill="black"/><path d="M369.389 87.0696C369.216 87.7752 369 88.0128 368.438 88.0128C367.877 88.0128 367.639 87.7752 367.488 87.0696L359.626 53.9856H347.443L339.581 87.0696C339.408 87.7752 339.192 88.0128 338.63 88.0128C338.069 88.0128 337.831 87.7752 337.68 87.0696L329.817 53.9856H322.906V55.5552H322.949L332.539 94.6584H344.678L352.778 60.552C352.93 59.9976 353.081 59.8464 353.556 59.8464C353.945 59.8464 354.182 60.012 354.334 60.552L362.434 94.6584H374.573L384.163 55.5552V53.9856H377.251L369.389 87.0696Z" fill="black"/><path d="M408.816 52.8191C396.943 52.8191 387.518 60.2423 387.518 74.3255C387.518 88.4087 396.936 95.8319 408.816 95.8319C420.696 95.8319 430.121 88.4087 430.121 74.3255C430.121 60.2423 420.689 52.8191 408.816 52.8191ZM408.83 89.5751C400.579 89.5751 394.682 84.1103 394.682 74.3255C394.682 64.5407 400.579 59.0759 408.83 59.0759C417.082 59.0759 422.978 64.5551 422.978 74.3255C422.978 84.0959 417.082 89.5751 408.83 89.5751Z" fill="black"/><path d="M445.99 59.3782C445.838 59.767 445.687 60.0046 445.212 60.0046C444.816 60.0046 444.665 59.8534 444.665 59.4646V53.9854H437.595V94.651H444.65V71.575C444.65 63.763 448.273 60.7102 455.105 60.7102H460.765V53.827H456.206C450.634 53.827 447.804 55.4686 445.99 59.3782Z" fill="black"/><path d="M473.285 72.9141V38.3469H466.215V94.6941H473.285V81.7053L480.953 75.1677L496.202 94.6797H503.935V93.1101L486.173 70.6965L503.935 55.5549V53.9853H494.849L473.285 72.9141Z" fill="black"/><path d="M528.437 71.3806L522.626 70.2862C517.054 69.2278 514.613 68.0614 514.613 64.6918C514.613 61.3222 517.37 58.8238 523.966 58.8238C530.561 58.8238 534.334 61.3366 534.881 66.8878H542.081C541.282 56.9734 533.585 52.8334 523.937 52.8334C514.289 52.8334 507.514 56.9806 507.514 64.7926C507.514 72.6046 513.058 75.3118 521.035 76.795L526.846 77.8894C532.505 78.9478 535.334 80.1646 535.334 83.6782C535.334 87.1918 532.498 89.8126 525.672 89.8126C518.846 89.8126 514.318 86.9974 513.77 81.5974H506.578C507.247 91.2958 515.146 95.8318 525.679 95.8318C536.213 95.8318 542.419 91.339 542.419 83.275C542.419 75.211 535.896 72.7846 528.437 71.3806Z" fill="black"/><path d="M628.841 38.3469H620.913V94.6941H628.841V38.3469Z" fill="black"/><path d="M582.466 38.8943L560.491 93.6645V94.6941H568.339L573.905 79.9845H600.358L605.923 94.6941H614.009V93.6789L591.876 38.3469H582.466V38.8943ZM576.518 73.1733L585.965 48.4269H585.958C586.116 48.0021 586.526 47.7213 586.98 47.7213H587.369C587.822 47.7213 588.233 48.0021 588.391 48.4269L597.766 73.1733H576.518Z" fill="black"/><path d="M243.67 38.3469H236.599V46.6413H243.67V38.3469Z" fill="black"/></g><defs><clipPath id="clip0_10019_1814"><rect width="601.2" height="65.52" fill="white" transform="translate(27.9 33.2999)"/></clipPath></defs></svg> 