<!-- created by svgstack.com | Attribution is required. --><svg width="128" height="128" viewBox="0 0 128 128" fill="none" xmlns="http://www.w3.org/2000/svg"><path d="M0 32C0 14.3269 14.3269 0 32 0H96C113.673 0 128 14.3269 128 32V96C128 113.673 113.673 128 96 128H32C14.3269 128 0 113.673 0 96V32Z" fill="black"/><path d="M38.7297 38.0454C49.7928 26.9998 66.0862 24.2142 79.6956 29.8101C82.7064 30.9275 85.3309 32.5181 87.3782 33.9966L76.0139 39.2397C65.4327 34.8043 53.3106 37.8219 45.9124 45.2144C36.0641 55.0464 33.9518 71.9829 45.0725 83.1851L45.6028 83.7231L13.592 112.295C15.6223 109.502 18.1435 106.863 20.6555 104.224C27.7441 96.78 34.7812 89.4046 30.4885 78.978C24.7419 65.027 28.0883 48.6784 38.7297 38.0454ZM113.659 16.7446C103.121 31.2457 97.9765 38.3371 102.106 56.0786L102.08 56.0532C104.928 68.13 101.882 81.5221 92.0491 91.3472C79.6526 103.742 59.8153 106.501 43.4788 95.3442L54.8684 90.0757C65.2947 94.1671 76.7015 92.3697 84.8997 84.1782C93.0982 75.9864 94.9392 64.0555 90.8186 54.1274C90.0354 52.2452 87.6873 51.7722 86.0442 52.9839L52.5198 77.7144L100.54 29.5181V29.561L114.407 15.7046C114.158 16.057 113.909 16.4008 113.659 16.7446Z" fill="white"/></svg> 