<!-- created by svgstack.com | Attribution is required. --><svg width="128" height="128" viewBox="0 0 128 128" fill="none" xmlns="http://www.w3.org/2000/svg"><rect width="128" height="128" rx="32" fill="white"/><path d="M63.7266 94.4526C72.419 94.4526 80.7554 90.9995 86.9019 84.8531C93.0483 78.7066 96.5014 70.3702 96.5014 61.6778C96.5014 52.9854 93.0483 44.649 86.9019 38.5026C80.7554 32.3561 72.419 28.9031 63.7266 28.9031C55.0342 28.9031 46.6979 32.3561 40.5514 38.5026C34.4049 44.649 30.9519 52.9854 30.9519 61.6778C30.9519 70.3702 34.4049 78.7066 40.5514 84.8531C46.6979 90.9995 55.0342 94.4526 63.7266 94.4526Z" fill="#FFD21E"/><path d="M96.5013 61.6777C96.5013 43.8264 81.5779 28.903 63.7266 28.903C45.8753 28.903 30.9518 43.8264 30.9518 61.6777C30.9518 79.5291 45.8752 94.4525 63.7266 94.4525C81.5779 94.4525 96.5013 79.5291 96.5013 61.6777ZM27.1792 61.6777C27.1792 41.8014 44.0437 25.1304 63.7266 25.1304C83.6027 25.1304 100.274 41.9949 100.274 61.6777C100.274 81.5839 83.6327 98.2251 63.7266 98.2251C43.8204 98.2251 27.1792 81.5839 27.1792 61.6777Z" fill="#FF9D0B"/><path d="M74.3747 52.7649C75.582 53.1799 76.0535 55.651 77.2702 55.0096C78.0941 54.5722 78.7697 53.9003 79.2117 53.0789C79.6536 52.2575 79.8421 51.3235 79.7532 50.3949C79.6643 49.4664 79.302 48.5851 78.7122 47.8625C78.1224 47.1399 77.3315 46.6084 76.4396 46.3353C75.5477 46.0622 74.5949 46.0597 73.7016 46.3282C72.8083 46.5967 72.0147 47.124 71.4211 47.8436C70.8275 48.5631 70.4607 49.4425 70.3669 50.3705C70.2732 51.2986 70.4568 52.2336 70.8945 53.0573C71.4698 54.1419 73.2995 52.3782 74.3841 52.7555L74.3747 52.7649ZM52.1634 52.7649C50.9561 53.1799 50.4751 55.651 49.2679 55.0096C48.444 54.5722 47.7684 53.9003 47.3264 53.0789C46.8844 52.2575 46.696 51.3235 46.7849 50.3949C46.8738 49.4664 47.2361 48.5851 47.8259 47.8625C48.4157 47.1399 49.2066 46.6084 50.0985 46.3353C50.9904 46.0622 51.9432 46.0597 52.8365 46.3282C53.7298 46.5967 54.5234 47.124 55.117 47.8436C55.7105 48.5631 56.0774 49.4425 56.1711 50.3705C56.2649 51.2986 56.0813 52.2336 55.6436 53.0573C55.0683 54.1419 53.2291 52.3782 52.1539 52.7555L52.1634 52.7649Z" fill="#3A3B45"/><path d="M63.4906 75.3911C72.7619 75.3911 75.7517 67.1291 75.7517 62.8849C75.7517 60.6779 74.2709 61.3758 71.8942 62.5453C69.6966 63.63 66.7445 65.1296 63.5001 65.1296C56.7188 65.1296 51.239 58.6406 51.239 62.8849C51.239 67.1291 54.2194 75.3911 63.5001 75.3911H63.4906Z" fill="#FF323D"/><path fill-rule="evenodd" clip-rule="evenodd" d="M56.3888 73.2316C56.8865 72.2202 57.5872 71.3223 58.4472 70.5937C59.3072 69.8651 60.3082 69.3215 61.3875 68.9968C61.7648 68.8836 62.1515 69.5344 62.5571 70.204C62.9343 70.8454 63.3305 71.4962 63.7266 71.4962C64.151 71.4962 64.5754 70.8548 64.981 70.2229C65.4054 69.5627 65.8204 68.9213 66.2259 69.044C68.2521 69.6872 69.9452 71.0992 70.9417 72.9769C74.4597 70.204 75.7518 65.6769 75.7518 62.8851C75.7518 60.6781 74.2711 61.3761 71.8943 62.5456L71.7623 62.6116C69.5836 63.6963 66.6787 65.1298 63.4908 65.1298C60.3029 65.1298 57.4074 63.6963 55.2193 62.6116C52.7671 61.3949 51.2297 60.631 51.2297 62.8851C51.2297 65.7618 52.6067 70.487 56.3888 73.2316Z" fill="#3A3B45"/><path d="M85.8907 57.1979C86.7037 57.1979 87.4833 56.875 88.0582 56.3001C88.633 55.7253 88.956 54.9456 88.956 54.1326C88.956 53.3197 88.633 52.54 88.0582 51.9652C87.4833 51.3903 86.7037 51.0674 85.8907 51.0674C85.0777 51.0674 84.2981 51.3903 83.7232 51.9652C83.1484 52.54 82.8254 53.3197 82.8254 54.1326C82.8254 54.9456 83.1484 55.7253 83.7232 56.3001C84.2981 56.875 85.0777 57.1979 85.8907 57.1979ZM42.0339 57.1979C42.8468 57.1979 43.6265 56.875 44.2013 56.3001C44.7762 55.7253 45.0991 54.9456 45.0991 54.1326C45.0991 53.3197 44.7762 52.54 44.2013 51.9652C43.6265 51.3903 42.8468 51.0674 42.0339 51.0674C41.2209 51.0674 40.4412 51.3903 39.8664 51.9652C39.2915 52.54 38.9686 53.3197 38.9686 54.1326C38.9686 54.9456 39.2915 55.7253 39.8664 56.3001C40.4412 56.875 41.2209 57.1979 42.0339 57.1979ZM35.7241 67.5726C34.1962 67.5726 32.8381 68.1951 31.8855 69.3364C31.0732 70.3397 30.6303 71.5917 30.6311 72.8826C30.0372 72.704 29.4214 72.6088 28.8014 72.5997C27.3395 72.5997 26.019 73.1561 25.0853 74.1653C24.2523 75.0304 23.7271 76.1455 23.5907 77.3387C23.4543 78.5318 23.7144 79.7367 24.3308 80.7674C23.4961 81.4489 22.9039 82.3818 22.6425 83.4271C22.4162 84.276 22.1898 86.068 23.3971 87.8977C22.9445 88.5935 22.6752 89.3924 22.6142 90.2202C22.5532 91.048 22.7024 91.8777 23.0481 92.6324C24.0101 94.8205 26.4152 96.537 31.0838 98.3856C33.9793 99.5363 36.639 100.272 36.6579 100.281C40.0177 101.212 43.4809 101.719 46.9666 101.79C52.4935 101.79 56.4453 100.093 58.7183 96.754C62.3778 91.3874 61.859 86.4735 57.115 81.7389C54.5024 79.1169 52.7576 75.2594 52.3992 74.4105C51.6635 71.9017 49.7206 69.11 46.5044 69.11C45.6488 69.1235 44.8088 69.3411 44.0542 69.7446C43.2996 70.1482 42.6522 70.726 42.1659 71.4302C41.2227 70.2418 40.2985 69.3081 39.4685 68.7705C38.3609 68.0207 37.0612 67.6049 35.7241 67.5726ZM35.7241 71.3453C36.2051 71.3453 36.7993 71.5528 37.4407 71.9583C39.459 73.241 43.3354 79.9092 44.7596 82.5028C45.2312 83.3705 46.0517 83.7384 46.7779 83.7384C48.2398 83.7384 49.3716 82.2953 46.9194 80.4562C43.2222 77.6927 44.5144 73.175 46.2781 72.9015C46.3535 72.8826 46.4384 72.8826 46.5044 72.8826C48.1078 72.8826 48.8152 75.6461 48.8152 75.6461C48.8152 75.6461 50.8901 80.8523 54.4553 84.4174C58.011 87.9732 58.1996 90.8309 55.6059 94.6319C53.8328 97.2255 50.4468 98.0084 46.9666 98.0084C43.3731 98.0084 39.676 97.1595 37.6105 96.6313C37.5067 96.603 24.925 93.0473 26.5189 90.0292C26.783 89.5199 27.2263 89.3124 27.7827 89.3124C30.0275 89.3124 34.1019 92.6512 35.8656 92.6512C36.2523 92.6512 36.5258 92.4909 36.6484 92.0853C37.3935 89.3973 25.2739 88.2655 26.2926 84.3797C26.4812 83.6912 26.9622 83.4177 27.6507 83.4177C30.6122 83.4177 37.2709 88.6334 38.6668 88.6334C38.7705 88.6334 38.8554 88.6051 38.8931 88.5391C39.5911 87.4073 39.2044 86.615 34.2717 83.6346C29.3578 80.6542 25.8964 78.8622 27.8582 76.7213C28.0846 76.4761 28.4052 76.3629 28.8014 76.3629C31.7912 76.3629 38.8554 82.7952 38.8554 82.7952C38.8554 82.7952 40.7606 84.7758 41.9207 84.7758C42.1848 84.7758 42.4111 84.6815 42.562 84.4174C43.3731 83.0404 34.9602 76.6647 34.4886 74.0333C34.1679 72.2413 34.715 71.3453 35.7241 71.3453Z" fill="#FF9D0B"/><path d="M55.6059 94.6318C58.1996 90.8214 58.0109 87.9636 54.4552 84.4079C50.8901 80.8522 48.8151 75.6366 48.8151 75.6366C48.8151 75.6366 48.0418 72.6185 46.278 72.9014C44.5143 73.1843 43.2222 77.6926 46.9194 80.4561C50.6071 83.2195 46.1837 85.0964 44.7596 82.5027C43.3448 79.9091 39.459 73.2409 37.4407 71.9582C35.4317 70.685 34.017 71.3923 34.4886 74.0332C34.9601 76.6646 43.3826 83.0403 42.562 84.4079C41.7415 85.7944 38.8554 82.7951 38.8554 82.7951C38.8554 82.7951 29.8294 74.5802 27.8582 76.7212C25.8964 78.8622 29.3578 80.6542 34.2716 83.6345C39.2044 86.6149 39.5911 87.4072 38.8931 88.539C38.1858 89.6707 27.3111 80.4938 26.2925 84.3891C25.2739 88.2654 37.3935 89.3878 36.6484 92.0758C35.8939 94.7638 28.1034 87.0016 26.5189 90.0197C24.9155 93.0473 37.5067 96.603 37.6104 96.6312C41.666 97.6876 51.9936 99.9229 55.6059 94.6318Z" fill="#FFD21E"/><path d="M92.2005 67.5725C93.7284 67.5725 95.096 68.195 96.0391 69.3362C96.8514 70.3396 97.2943 71.5916 97.2935 72.8825C97.8904 72.703 98.5095 72.6078 99.1327 72.5995C100.595 72.5995 101.915 73.156 102.849 74.1652C103.682 75.0302 104.207 76.1454 104.343 77.3385C104.48 78.5317 104.22 79.7366 103.603 80.7673C104.434 81.4501 105.023 82.3829 105.282 83.427C105.508 84.2758 105.735 86.0678 104.528 87.8976C104.98 88.5934 105.249 89.3923 105.31 90.2201C105.371 91.0478 105.222 91.8776 104.877 92.6322C103.914 94.8203 101.509 96.5369 96.8503 98.3855C93.9453 99.5361 91.2856 100.272 91.2668 100.281C87.9069 101.212 84.4438 101.719 80.958 101.79C75.4311 101.79 71.4793 100.093 69.2063 96.7538C65.5468 91.3873 66.0656 86.4734 70.8097 81.7387C73.4316 79.1168 75.1765 75.2592 75.5349 74.4104C76.2705 71.9016 78.204 69.1099 81.4202 69.1099C82.2758 69.1234 83.1158 69.341 83.8704 69.7445C84.625 70.1481 85.2724 70.7259 85.7587 71.43C86.7019 70.2416 87.6262 69.3079 88.4656 68.7703C89.5705 68.0222 90.8666 67.6066 92.2005 67.5725ZM92.2005 71.3451C91.7195 71.3451 91.1347 71.5526 90.4839 71.9582C88.475 73.2409 84.5892 79.909 83.165 82.5027C82.9728 82.8728 82.6833 83.1834 82.3277 83.4011C81.972 83.6188 81.5637 83.7354 81.1467 83.7382C79.6942 83.7382 78.553 82.2952 81.0146 80.456C84.7024 77.6926 83.4102 73.1749 81.6465 72.9014C81.5717 72.8892 81.496 72.8829 81.4202 72.8825C79.8168 72.8825 79.1094 75.6459 79.1094 75.6459C79.1094 75.6459 77.0345 80.8522 73.4788 84.4173C69.9137 87.973 69.725 90.8308 72.3281 94.6317C74.0918 97.2254 77.4872 98.0082 80.958 98.0082C84.5609 98.0082 88.2487 97.1594 90.3236 96.6312C90.4179 96.6029 103.009 93.0472 101.415 90.0291C101.142 89.5198 100.708 89.3123 100.151 89.3123C97.9066 89.3123 93.8227 92.6511 92.0684 92.6511C91.6723 92.6511 91.3988 92.4907 91.2856 92.0852C90.5311 89.3972 102.651 88.2654 101.632 84.3796C101.453 83.6911 100.972 83.4176 100.274 83.4176C97.3124 83.4176 90.6537 88.6332 89.2578 88.6332C89.1635 88.6332 89.0786 88.6049 89.0409 88.5389C88.343 87.4071 88.7202 86.6149 93.6435 83.6345C98.5762 80.6541 102.038 78.8621 100.057 76.7211C99.8401 76.4759 99.5194 76.3627 99.1327 76.3627C96.1334 76.3627 89.0692 82.7951 89.0692 82.7951C89.0692 82.7951 87.164 84.7757 86.0134 84.7757C85.8837 84.7815 85.755 84.751 85.6417 84.6877C85.5284 84.6244 85.435 84.5308 85.372 84.4173C84.5515 83.0403 92.9644 76.6646 93.436 74.0331C93.7567 72.2411 93.2097 71.3451 92.2005 71.3451Z" fill="#FF9D0B"/><path d="M72.3281 94.6318C69.7345 90.8214 69.9137 87.9636 73.4788 84.4079C77.0345 80.8522 79.1094 75.6366 79.1094 75.6366C79.1094 75.6366 79.8828 72.6185 81.656 72.9014C83.4103 73.1843 84.7024 77.6926 81.0146 80.4561C77.3174 83.2195 81.7503 85.0964 83.165 82.5027C84.5892 79.9091 88.475 73.2409 90.4839 71.9582C92.4929 70.685 93.917 71.3923 93.436 74.0332C92.9644 76.6646 84.5515 83.0403 85.372 84.4079C86.1831 85.7944 89.0692 82.7951 89.0692 82.7951C89.0692 82.7951 98.1046 74.5802 100.066 76.7212C102.028 78.8622 98.5762 80.6542 93.6529 83.6345C88.7202 86.6149 88.343 87.4072 89.0315 88.539C89.7388 89.6707 100.613 80.4938 101.632 84.3891C102.651 88.2654 90.5405 89.3878 91.2856 92.0758C92.0401 94.7638 99.8212 87.0016 101.415 90.0197C103.009 93.0473 90.4273 96.603 90.3236 96.6312C86.2586 97.6876 75.931 99.9229 72.3281 94.6318Z" fill="#FFD21E"/></svg> 