<!-- created by svgstack.com | Attribution is required. --><svg width="512" height="154" viewBox="0 0 512 154" fill="none" xmlns="http://www.w3.org/2000/svg"><path d="M343.484 57.7401C348.151 57.7401 352.31 58.7566 355.96 60.7909C359.669 62.825 362.571 65.6974 364.666 69.4071C366.758 73.1165 367.806 77.394 367.806 82.2401C367.806 87.0864 366.758 91.3945 364.666 95.1639C362.571 98.8734 359.669 101.746 355.96 103.78C352.31 105.814 348.151 106.831 343.484 106.831C337.023 106.831 331.908 104.678 328.139 100.37V123.614H316.92V58.2782H327.6V64.5604C329.454 62.2867 331.728 60.5818 334.42 59.4452C337.173 58.3084 340.195 57.7401 343.484 57.7401ZM204.296 85.0233C204.296 92.3825 202.501 97.9174 198.912 101.627C195.322 105.276 190.056 107.101 183.116 107.101C179.107 107.101 175.398 106.323 171.988 104.767C168.637 103.152 165.885 100.909 163.731 98.037L170.373 90.0487C173.843 94.8351 178.001 97.2294 182.847 97.2294C189.369 97.2293 192.629 93.3694 192.629 85.6512V43.3807H204.296V85.0233ZM234.526 57.7401C241.586 57.7401 246.971 59.445 250.681 62.8553C254.45 66.2058 256.334 71.2916 256.334 78.1122V106.203H245.745V100.37C244.368 102.464 242.394 104.079 239.822 105.216C237.309 106.293 234.257 106.831 230.667 106.831C227.078 106.831 223.936 106.233 221.244 105.036C218.551 103.78 216.457 102.075 214.961 99.9208C213.525 97.707 212.808 95.2238 212.808 92.4716C212.808 88.1641 214.393 84.7238 217.564 82.1512C220.795 79.5187 225.85 78.2021 232.731 78.202H245.117V77.4843C245.117 74.1338 244.099 71.5605 242.065 69.7655C240.091 67.9709 237.129 67.0731 233.18 67.0731C230.488 67.0731 227.825 67.4925 225.193 68.33C222.62 69.1677 220.436 70.3343 218.641 71.83L214.244 63.663C216.757 61.7483 219.778 60.2827 223.308 59.2655C226.838 58.2484 230.577 57.7401 234.526 57.7401ZM287.784 57.7401C291.073 57.7401 294.365 58.1286 297.655 58.9061C300.946 59.6242 303.639 60.6116 305.734 61.868L301.426 70.3944C297.357 68.0012 292.781 66.8046 287.695 66.8046C284.403 66.8046 281.891 67.313 280.155 68.33C278.479 69.2874 277.643 70.5738 277.643 72.1893C277.643 73.9839 278.539 75.2699 280.335 76.0477C282.19 76.7658 285.032 77.454 288.861 78.1122C292.69 78.7104 295.832 79.3988 298.284 80.1766C300.737 80.9545 302.832 82.2712 304.566 84.1259C306.36 85.9806 307.258 88.613 307.258 92.0233C307.258 96.5105 305.315 100.101 301.426 102.793C297.537 105.485 292.241 106.831 285.54 106.831C281.651 106.831 277.853 106.323 274.142 105.306C270.433 104.289 267.471 103.002 265.257 101.446L269.565 92.9208C271.719 94.3567 274.292 95.5233 277.285 96.4208C280.336 97.2583 283.327 97.6766 286.257 97.6766C292.959 97.6766 296.309 95.9118 296.309 92.3817C296.309 90.7066 295.441 89.5398 293.708 88.8817C292.031 88.2236 289.308 87.5951 285.54 86.9969C281.59 86.3986 278.361 85.7113 275.847 84.9335C273.396 84.1557 271.241 82.809 269.386 80.8944C267.591 78.92 266.693 76.1975 266.693 72.7274C266.693 68.1802 268.578 64.5605 272.348 61.868C276.177 59.1159 281.323 57.7402 287.784 57.7401ZM400.07 57.7401C404.736 57.7402 408.895 58.787 412.545 60.8807C416.254 62.9151 419.127 65.8174 421.16 69.5868C423.255 73.2962 424.302 77.6038 424.302 82.5096C424.302 83.2875 424.242 84.395 424.122 85.8309H386.519C387.177 89.3607 388.881 92.1725 391.633 94.2665C394.446 96.3009 397.917 97.3182 402.044 97.3182C407.311 97.3181 411.647 95.583 415.057 92.1132L421.071 99.0233C418.918 101.596 416.194 103.541 412.905 104.857C409.613 106.174 405.904 106.831 401.774 106.831C396.51 106.831 391.872 105.784 387.865 103.69C383.855 101.596 380.744 98.6946 378.531 94.9852C376.376 91.2158 375.299 86.9668 375.299 82.2401C375.299 77.5737 376.347 73.3859 378.44 69.6766C380.595 65.9072 383.557 62.9748 387.326 60.8807C391.094 58.7869 395.343 57.7401 400.07 57.7401ZM462.007 68.4198C461.049 68.2404 460.182 68.1503 459.405 68.1503C455.037 68.1503 451.626 69.437 449.172 72.0096C446.721 74.5227 445.493 78.1723 445.493 82.9589V106.203H434.276V58.2782H444.956V65.2782C448.185 60.2526 453.871 57.7402 462.007 57.7401V68.4198ZM233.54 85.6512C227.078 85.6512 223.846 87.7754 223.846 92.0233C223.846 94.0574 224.654 95.6725 226.269 96.869C227.885 98.0656 230.129 98.6639 233 98.6639C235.812 98.6639 238.296 98.0357 240.45 96.7792C242.663 95.4629 244.219 93.6087 245.117 91.2157V85.6512H233.54ZM342.229 67.2528C339.537 67.2529 337.112 67.8813 334.959 69.1376C332.807 70.3344 331.099 72.0692 329.844 74.3427C328.587 76.616 327.959 79.2489 327.958 82.2401C327.958 85.2317 328.587 87.8648 329.844 90.1385C331.099 92.4121 332.807 94.1769 334.959 95.4335C337.112 96.63 339.537 97.2283 342.229 97.2284C346.356 97.2284 349.738 95.8524 352.37 93.1005C355.062 90.3482 356.409 86.7276 356.409 82.2401C356.409 77.753 355.062 74.1339 352.37 71.3817C349.738 68.6295 346.357 67.2528 342.229 67.2528ZM400.07 66.7147C396.48 66.7147 393.428 67.7914 390.917 69.9452C388.463 72.0393 386.967 74.8517 386.427 78.3817H413.623C413.143 74.9114 411.677 72.099 409.225 69.9452C406.771 67.7912 403.72 66.7148 400.07 66.7147Z" fill="black"/><path d="M98.1665 34.4658C103.667 34.4658 108.668 34.9345 112.356 35.7158C116.294 36.5285 118.732 37.6853 118.732 38.9668V41.4043C122.826 43.5922 126.515 46.3744 129.703 49.6875C135.36 55.5323 139.393 62.9399 141.081 71.2227L144.924 73.3164C146.675 74.254 147.613 76.2233 147.269 78.1299L143.799 97.6963C143.424 99.7592 141.767 101.291 139.705 101.479L134.172 102.01C133.672 102.572 133.141 103.103 132.61 103.604C128.078 107.917 122.077 110.918 115.201 112.699C109.95 114.043 104.199 114.699 98.1665 114.699C97.3852 114.699 96.5719 114.699 95.7905 114.668C87.8828 114.449 80.5377 113.043 74.2866 110.386C69.6296 108.417 65.5978 105.729 62.4097 102.291L56.5327 101.572C54.5326 101.322 52.9077 99.8216 52.564 97.8213L49.063 78.1611C48.7193 76.2234 49.6566 74.254 51.4067 73.3164L55.2515 71.2227C57.2831 61.4395 62.5655 52.8439 69.9107 46.5928C72.2861 44.5925 74.8497 42.8421 77.6001 41.373V38.9355C77.6001 36.9039 83.9132 35.1534 92.5396 34.6221C94.3524 34.5283 96.2286 34.4658 98.1665 34.4658ZM98.1978 46.9678C79.9444 46.9678 65.0982 61.815 65.0982 80.0684C65.0982 87.9758 67.8171 93.758 73.4116 97.7275C79.1626 101.822 87.727 103.979 98.1665 103.979C108.606 103.979 117.17 101.822 122.984 97.7275C128.578 93.7268 131.297 87.9758 131.297 80.0684C131.297 61.815 116.451 46.9678 98.1978 46.9678ZM87.1567 84.583C87.6446 84.3506 88.2247 84.5584 88.4995 85.0234C90.5285 88.4574 94.1465 90.5703 98.1655 90.5703C102.182 90.5703 105.825 88.4863 107.834 85.0352C108.107 84.5653 108.691 84.353 109.182 84.5869L112.65 86.2383C113.142 86.4725 113.352 87.065 113.086 87.541C110.086 92.9163 104.337 96.3525 98.1655 96.3525C91.9939 96.3525 86.245 92.9163 83.2446 87.541C82.979 87.065 83.1882 86.4726 83.6802 86.2383L87.1567 84.583Z" fill="black"/></svg> 