<!-- created by svgstack.com | Attribution is required. --><svg width="60" height="60" viewBox="0 0 60 60" fill="none" xmlns="http://www.w3.org/2000/svg"><g clip-path="url(#clip0_13_101)"><path fill-rule="evenodd" clip-rule="evenodd" d="M7.10003 5C6.68193 5 6.26793 5.08235 5.88166 5.24235C5.49539 5.40235 5.14442 5.63686 4.84878 5.9325C4.55314 6.22814 4.31863 6.57911 4.15863 6.96538C3.99863 7.35165 3.91628 7.76565 3.91628 8.18375C3.91628 8.60185 3.99863 9.01585 4.15863 9.40212C4.31863 9.78839 4.55314 10.1394 4.84878 10.435C5.14442 10.7306 5.49539 10.9652 5.88166 11.1252C6.26793 11.2851 6.68193 11.3675 7.10003 11.3675H42.3675C43.2119 11.3675 44.0217 11.0321 44.6188 10.435C45.2158 9.83793 45.5513 9.02813 45.5513 8.18375C45.5513 7.33937 45.2158 6.52957 44.6188 5.9325C44.0217 5.33543 43.2119 5 42.3675 5H7.10003ZM19.8375 13.325C18.9928 13.325 18.1827 13.6606 17.5854 14.2579C16.9881 14.8552 16.6525 15.6653 16.6525 16.51C16.6525 17.3547 16.9881 18.1648 17.5854 18.7621C18.1827 19.3594 18.9928 19.695 19.8375 19.695H55.1C55.929 19.6718 56.7162 19.3262 57.2943 18.7316C57.8724 18.1371 58.1958 17.3405 58.1958 16.5112C58.1958 15.682 57.8724 14.8854 57.2943 14.2909C56.7162 13.6964 55.929 13.3507 55.1 13.3275L19.8375 13.325ZM9.06003 24.8375C9.06003 23.0775 10.485 21.6525 12.245 21.6525H47.51C48.339 21.6757 49.1262 22.0213 49.7043 22.6159C50.2824 23.2104 50.6058 24.007 50.6058 24.8363C50.6058 25.6655 50.2824 26.4621 49.7043 27.0566C49.1262 27.6511 48.339 27.9968 47.51 28.02H12.245C10.4875 28.02 9.06003 26.595 9.06003 24.8375ZM3.18253 30.47C2.33815 30.47 1.52835 30.8054 0.931278 31.4025C0.334209 31.9996 -0.0012207 32.8094 -0.0012207 33.6538C-0.0012207 34.4981 0.334209 35.3079 0.931278 35.905C1.52835 36.5021 2.33815 36.8375 3.18253 36.8375H38.45C39.279 36.8143 40.0662 36.4687 40.6443 35.8741C41.2224 35.2796 41.5458 34.483 41.5458 33.6538C41.5458 32.8245 41.2224 32.0279 40.6443 31.4334C40.0662 30.8389 39.279 30.4932 38.45 30.47H3.18253ZM9.06003 41.98C9.06003 40.22 10.485 38.795 12.245 38.795H47.51C48.3544 38.795 49.1642 39.1304 49.7613 39.7275C50.3583 40.3246 50.6938 41.1344 50.6938 41.9788C50.6938 42.8231 50.3583 43.6329 49.7613 44.23C49.1642 44.8271 48.3544 45.1625 47.51 45.1625H12.245C10.4875 45.1625 9.06003 43.7375 9.06003 41.98ZM32.5725 47.1225C31.7281 47.1225 30.9183 47.4579 30.3213 48.055C29.7242 48.6521 29.3888 49.4619 29.3888 50.3062C29.3888 51.1506 29.7242 51.9604 30.3213 52.5575C30.9183 53.1546 31.7281 53.49 32.5725 53.49H56.8175C57.6619 53.49 58.4717 53.1546 59.0688 52.5575C59.6658 51.9604 60.0013 51.1506 60.0013 50.3062C60.0013 49.4619 59.6658 48.6521 59.0688 48.055C58.4717 47.4579 57.6619 47.1225 56.8175 47.1225H32.5725Z" fill="black" fill-opacity="0.3"/><path fill-rule="evenodd" clip-rule="evenodd" d="M7.10003 5C6.68193 5 6.26793 5.08235 5.88166 5.24235C5.49539 5.40235 5.14442 5.63686 4.84878 5.9325C4.55314 6.22814 4.31863 6.57911 4.15863 6.96538C3.99863 7.35165 3.91628 7.76565 3.91628 8.18375C3.91628 8.60185 3.99863 9.01585 4.15863 9.40212C4.31863 9.78839 4.55314 10.1394 4.84878 10.435C5.14442 10.7306 5.49539 10.9652 5.88166 11.1252C6.26793 11.2851 6.68193 11.3675 7.10003 11.3675H32.8175C33.6465 11.3443 34.4337 10.9987 35.0118 10.4041C35.5899 9.80958 35.9133 9.01301 35.9133 8.18375C35.9133 7.35449 35.5899 6.55792 35.0118 5.96338C34.4337 5.36885 33.6465 5.02323 32.8175 5H7.10003ZM19.8375 13.325C18.9928 13.325 18.1827 13.6606 17.5854 14.2579C16.9881 14.8552 16.6525 15.6653 16.6525 16.51C16.6525 17.3547 16.9881 18.1648 17.5854 18.7621C18.1827 19.3594 18.9928 19.695 19.8375 19.695H45.55C46.379 19.6718 47.1662 19.3262 47.7443 18.7316C48.3224 18.1371 48.6458 17.3405 48.6458 16.5112C48.6458 15.682 48.3224 14.8854 47.7443 14.2909C47.1662 13.6964 46.379 13.3507 45.55 13.3275L19.8375 13.325ZM9.06003 24.8375C9.06003 23.0775 10.485 21.6525 12.245 21.6525H37.96C38.8044 21.6525 39.6142 21.9879 40.2113 22.585C40.8083 23.1821 41.1438 23.9919 41.1438 24.8363C41.1438 25.6806 40.8083 26.4904 40.2113 27.0875C39.6142 27.6846 38.8044 28.02 37.96 28.02H12.245C10.4875 28.02 9.06003 26.595 9.06003 24.8375ZM3.18253 30.47C2.33815 30.47 1.52835 30.8054 0.931278 31.4025C0.334209 31.9996 -0.0012207 32.8094 -0.0012207 33.6538C-0.0012207 34.4981 0.334209 35.3079 0.931278 35.905C1.52835 36.5021 2.33815 36.8375 3.18253 36.8375H28.9C29.729 36.8143 30.5162 36.4687 31.0943 35.8741C31.6724 35.2796 31.9958 34.483 31.9958 33.6538C31.9958 32.8245 31.6724 32.0279 31.0943 31.4334C30.5162 30.8389 29.729 30.4932 28.9 30.47H3.18253ZM9.06003 41.98C9.06003 40.22 10.485 38.795 12.245 38.795H37.96C38.8044 38.795 39.6142 39.1304 40.2113 39.7275C40.8083 40.3246 41.1438 41.1344 41.1438 41.9788C41.1438 42.8231 40.8083 43.6329 40.2113 44.23C39.6142 44.8271 38.8044 45.1625 37.96 45.1625H12.245C10.4875 45.1625 9.06003 43.7375 9.06003 41.98ZM32.5725 47.1225C31.7281 47.1225 30.9183 47.4579 30.3213 48.055C29.7242 48.6521 29.3888 49.4619 29.3888 50.3062C29.3888 51.1506 29.7242 51.9604 30.3213 52.5575C30.9183 53.1546 31.7281 53.49 32.5725 53.49H47.0225C47.8669 53.49 48.6767 53.1546 49.2738 52.5575C49.8708 51.9604 50.2063 51.1506 50.2063 50.3062C50.2063 49.4619 49.8708 48.6521 49.2738 48.055C48.6767 47.4579 47.8669 47.1225 47.0225 47.1225H32.5725Z" fill="black"/></g><defs><clipPath id="clip0_13_101"><rect width="60" height="60" fill="white"/></clipPath></defs></svg> 