<!-- created by svgstack.com | Attribution is required. --><svg width="514" height="204" viewBox="0 0 514 204" fill="none" xmlns="http://www.w3.org/2000/svg"><g clip-path="url(#clip0_10019_1779)"><path d="M225.502 58.7748H234.496L238.206 72.1929L239.479 77.4295H239.712L240.969 72.1929L244.697 58.7748H253.69V96.6395H246.438V84.9181L246.443 84.3064C246.506 79.8256 247.205 71.2351 247.587 67.3291H247.413L244.507 77.4915L241.558 86.6131H237.399L234.4 77.4915L231.689 67.3291H231.488L231.58 68.2346C232.016 72.6566 232.636 80.9452 232.636 84.9181V96.6395H225.502V58.7748ZM261.341 89.4544H270.188V65.96H261.341V58.7748H287.607V65.96H278.762V89.4544H287.608V96.6403H261.341V89.4544ZM294.845 91.869L299.766 85.9829C302.629 88.3275 306.163 89.9349 309.836 89.9349C313.474 89.9349 315.155 88.5263 315.155 86.6751C315.155 83.949 312.903 83.2898 309.318 81.7895L304.382 79.6839C300.186 78.0895 296.353 74.8724 296.353 69.3606C296.353 63.0898 302.004 58.077 310.237 58.077C314.793 58.077 319.397 59.7858 322.818 63.035L318.498 68.4366C315.83 66.521 313.469 65.4787 309.767 65.4787C306.944 65.4787 305.027 66.6498 305.027 68.8608C305.027 71.1386 307.566 71.9724 311.2 73.3335L315.835 75.2974C320.797 77.155 323.928 80.2482 323.928 85.5918C323.928 91.8859 318.645 97.3365 309.267 97.3365C304.148 97.3365 298.861 95.4644 294.844 91.869M339.947 65.96H328.589V58.7748H359.877V65.96H348.523V96.6403H339.948L339.947 65.96ZM374.299 65.576H378.48C382.983 65.576 385.4 66.8325 385.4 70.5719C385.4 74.2784 382.983 76.2165 378.48 76.2165H374.3L374.299 65.576ZM395.624 96.6395L387.056 81.4917C391.101 79.663 393.807 76.1352 393.807 70.5719C393.807 61.6531 387.335 58.8304 379.419 58.7748H365.709V96.6395H374.301V83.0178H378.801L386.034 96.6403L395.624 96.6395ZM409.856 80.9573L410.753 77.4681L413.692 65.2573H413.924C414.575 68.1106 415.349 71.1893 416.089 74.0933L417.839 80.9573H409.856ZM421.841 96.6387H430.931L419.131 58.774H408.855L397.055 96.6387H405.828L408.141 87.6337H419.543L421.841 96.6387ZM437.628 58.774H446.186V89.4536H463.049V96.6387H437.628V58.774ZM235.46 141.701L236.356 138.213L239.295 126.001H239.528C240.178 128.855 240.952 131.933 241.693 134.838L243.443 141.701H235.46ZM247.44 157.398H256.535L244.73 119.517H234.449L222.645 157.398H231.422L233.737 148.388H245.142L247.44 157.398ZM261.341 150.199H270.188V126.704H261.341V119.517H287.607V126.703H278.762V150.198H287.608V157.384H261.341V150.199ZM295.231 161.153H323.295V167.679H295.231V161.153ZM149.891 36H174.626V60.7347H149.891V36Z" fill="black"/><path d="M162.259 36H186.993V60.7347H162.259V36Z" fill="#F7D046"/><path d="M50.9514 36H75.6861V60.7347H50.9514V36ZM50.9514 60.7347H75.6861V85.4694H50.9514V60.7347ZM50.9514 85.4694H75.6861V110.205H50.9514V85.4694ZM50.9514 110.205H75.6861V134.94H50.9514V110.205Z" fill="black"/><path d="M50.9514 134.94H75.6861V159.674H50.9514V134.94Z" fill="black"/><path d="M63.3188 36H88.0536V60.7347H63.3188V36Z" fill="#F7D046"/><path d="M162.258 60.7346H186.993V85.4693H162.258V60.7346ZM63.3188 60.7346H88.0536V85.4693H63.3188V60.7346Z" fill="#F2A73B"/><path d="M125.156 60.7346H149.891V85.4693H125.156V60.7346Z" fill="black"/><path d="M137.524 60.7346H162.259V85.4693H137.524V60.7346ZM88.0537 60.7346H112.788V85.4693H88.0537V60.7346Z" fill="#F2A73B"/><path d="M112.788 85.4702H137.523V110.205H112.788V85.4702ZM137.523 85.4702H162.259V110.205H137.523V85.4702ZM88.0537 85.4702H112.788V110.205H88.0537V85.4702Z" fill="#EE792F"/><path d="M100.421 110.205H125.156V134.94H100.421V110.205Z" fill="black"/><path d="M112.789 110.205H137.523V134.94H112.789V110.205Z" fill="#EB5829"/><path d="M162.258 85.4702H186.993V110.205H162.258V85.4702ZM63.3188 85.4702H88.0536V110.205H63.3188V85.4702Z" fill="#EE792F"/><path d="M149.891 110.205H174.626V134.94H149.891V110.205Z" fill="black"/><path d="M162.259 110.205H186.993V134.94H162.259V110.205Z" fill="#EB5829"/><path d="M149.891 134.94H174.626V159.674H149.891V134.94Z" fill="black"/><path d="M63.3188 110.205H88.0536V134.94H63.3188V110.205Z" fill="#EB5829"/><path d="M162.258 134.94H186.993V159.674H162.258V134.94ZM63.3188 134.94H88.0536V159.674H63.3188V134.94Z" fill="#EA3326"/></g><defs><clipPath id="clip0_10019_1779"><rect width="412.098" height="132" fill="white" transform="translate(50.9514 36)"/></clipPath></defs></svg> 