<!-- created by svgstack.com | Attribution is required. --><svg width="128" height="128" viewBox="0 0 128 128" fill="none" xmlns="http://www.w3.org/2000/svg"><rect width="128" height="128" rx="32" fill="white"/><path d="M31.9205 29.0478L74.3455 25.9268C79.5547 25.4795 80.8966 25.7811 84.1709 28.1583L97.7127 37.6769C99.9467 39.3128 100.693 39.7601 100.693 41.5442V93.7485C100.693 97.0203 99.4994 98.9552 95.333 99.2517L46.0681 102.224C42.9396 102.373 41.452 101.928 39.8135 99.8447L29.8374 86.9035C28.0481 84.5238 27.3069 82.7423 27.3069 80.6565V34.2518C27.3069 31.5782 28.498 29.3443 31.9205 29.0503V29.0478Z" fill="white"/><path fill-rule="evenodd" clip-rule="evenodd" d="M74.3457 25.9246L31.9208 29.0507C28.4982 29.3446 27.3071 31.5786 27.3071 34.2522V80.6569C27.3071 82.7426 28.0484 84.5242 29.8376 86.9038L39.8112 99.845C41.4471 101.928 42.9372 102.375 46.0658 102.222L95.3333 99.2495C99.4996 98.953 100.693 97.018 100.693 93.7463V41.542C100.693 39.8499 100.024 39.3617 98.0504 37.9226C97.9378 37.8401 97.8253 37.7575 97.713 37.6747L84.1711 28.1561C80.8968 25.779 79.5524 25.4773 74.3457 25.9246ZM47.1828 40.6857C43.1596 40.9567 42.2471 41.018 39.962 39.1623L34.1522 34.5512C33.5592 33.9557 33.8582 33.2119 35.3458 33.0662L76.1324 30.091C79.5549 29.7919 81.3416 30.9856 82.6809 32.0233L89.6768 37.0817C89.9733 37.23 90.7171 38.122 89.825 38.122L47.7017 40.6525L47.1828 40.6857ZM42.4899 93.299V48.9775C42.4899 47.0451 43.0855 46.1531 44.8722 46.0023L93.2476 43.1778C94.8885 43.0296 95.6324 44.0725 95.6324 46.0023V90.0247C95.6324 91.9622 95.3333 93.5981 92.652 93.7463L46.3623 96.425C43.6785 96.5733 42.4899 95.6838 42.4899 93.299ZM88.1917 51.3546C88.4882 52.6965 88.1917 54.0359 86.8473 54.1867L84.6184 54.6314V87.3486C82.681 88.3914 80.8943 88.9844 79.4067 88.9844C77.0245 88.9844 76.4289 88.2432 74.6422 86.0118L60.055 63.1098V85.2705L64.6712 86.3108C64.6712 86.3108 64.6712 88.987 60.9445 88.987L50.6769 89.5826C50.3778 88.987 50.6769 87.4994 51.7198 87.2029L54.3985 86.4616V57.1568L50.6769 56.8577C50.3804 55.5184 51.1217 53.586 53.2074 53.4377L64.2239 52.6965L79.4067 75.8976V55.3727L75.5368 54.9279C75.2378 53.2895 76.4289 52.0984 77.9165 51.9527L88.1917 51.3546Z" fill="black"/></svg> 