<!-- created by svgstack.com | Attribution is required. --><svg width="128" height="128" viewBox="0 0 128 128" fill="none" xmlns="http://www.w3.org/2000/svg"><path d="M23.7434 20.1382L76.9826 16.2218C83.5196 15.6605 85.2036 16.039 89.3125 19.022L106.306 30.967C109.11 33.0198 110.046 33.5811 110.046 35.82V101.331C110.046 105.437 108.548 107.865 103.32 108.237L41.4973 111.968C37.5712 112.154 35.7044 111.596 33.6484 108.981L21.1292 92.7415C18.8839 89.7552 17.9537 87.5196 17.9537 84.9022V26.6688C17.9537 23.3137 19.4485 20.5103 23.7434 20.1414V20.1382Z" fill="white"/><path fill-rule="evenodd" clip-rule="evenodd" d="M76.9828 16.2191L23.7436 20.142C19.4487 20.5108 17.954 23.3142 17.954 26.6694V84.9027C17.954 87.5201 18.8842 89.7558 21.1295 92.742L33.6454 108.982C35.6982 111.596 37.5682 112.157 41.4943 111.965L103.32 108.235C108.548 107.862 110.046 105.434 110.046 101.329V35.8173C110.046 33.6939 109.206 33.0813 106.73 31.2754C106.589 31.1718 106.447 31.0681 106.306 30.9643L89.3127 19.0193C85.2038 16.0363 83.5166 15.6578 76.9828 16.2191ZM42.896 34.7428C37.8473 35.0828 36.7022 35.1598 33.8346 32.8311L26.5438 27.0446C25.7997 26.2973 26.175 25.3639 28.0418 25.181L79.2249 21.4474C83.5198 21.0721 85.7619 22.5701 87.4427 23.8724L96.2218 30.2201C96.5939 30.4062 97.5273 31.5256 96.4078 31.5256L43.5472 34.7011L42.896 34.7428ZM37.0069 100.767V45.1481C37.0069 42.7232 37.7543 41.6038 39.9964 41.4145L100.703 37.8702C102.762 37.6841 103.695 38.9928 103.695 41.4145V96.6585C103.695 99.0898 103.32 101.143 99.9554 101.329L41.8664 104.69C38.4984 104.876 37.0069 103.76 37.0069 100.767ZM94.3582 48.1312C94.7303 49.8152 94.3582 51.4959 92.671 51.6852L89.874 52.2433V93.3001C87.4427 94.6088 85.2006 95.353 83.3338 95.353C80.3443 95.353 79.597 94.4228 77.3549 91.6226L59.0493 62.8828V90.6924L64.8422 91.9979C64.8422 91.9979 64.8422 95.3562 60.1656 95.3562L47.2808 96.1035C46.9055 95.3562 47.2808 93.4894 48.5894 93.1173L51.951 92.1871V55.4124L47.2808 55.0371C46.9087 53.3563 47.8389 50.9314 50.4562 50.7453L64.2809 49.8151L83.3338 78.9302V53.1735L78.4775 52.6154C78.1023 50.5593 79.597 49.0646 81.4638 48.8817L94.3582 48.1312Z" fill="black"/></svg> 