<!-- created by svgstack.com | Attribution is required. --><svg width="568" height="164" viewBox="0 0 568 164" fill="none" xmlns="http://www.w3.org/2000/svg"><path d="M508.08 107.707V106.429H508.884C509.31 106.429 509.925 106.476 509.925 106.997C509.925 107.517 509.594 107.707 509.074 107.707H508.08ZM508.08 108.606H508.648L509.925 110.829H511.298L509.878 108.511C510.588 108.558 511.156 108.038 511.203 107.328V107.139C511.203 105.908 510.351 105.53 508.932 105.53H506.897V110.829H508.08V108.606ZM514.042 108.18C514.042 105.057 511.629 103.259 508.932 103.259C506.235 103.259 503.822 105.057 503.822 108.18C503.822 111.303 506.235 113.101 508.932 113.101C511.629 113.101 514.042 111.303 514.042 108.18ZM512.528 108.18C512.622 110.167 511.061 111.87 509.074 111.965H508.932C506.85 112.06 505.099 110.404 505.005 108.322C504.91 106.24 506.566 104.489 508.648 104.394C510.73 104.3 512.48 105.956 512.575 108.038C512.528 108.085 512.528 108.132 512.528 108.18Z" fill="black"/><path d="M326.433 55.6117V111.445H342.189V55.6117H326.433ZM202.464 55.5171V111.398H218.363V68.0086L230.759 68.0559C234.829 68.0559 237.668 69.0495 239.608 71.1315C242.115 73.7812 243.109 78.0869 243.109 85.8941V111.398H258.534V80.5474C258.534 58.498 244.481 55.5171 230.759 55.5171H202.464ZM351.842 55.6117V111.445H377.392C391.02 111.445 395.467 109.174 400.246 104.111C403.653 100.562 405.83 92.7077 405.83 84.1434C405.83 76.2889 403.984 69.2861 400.719 64.933C394.947 57.1258 386.525 55.6117 373.938 55.6117H351.842ZM367.456 67.7247H374.222C384.064 67.7247 390.404 72.1251 390.404 83.5756C390.404 95.0262 384.064 99.4739 374.222 99.4739H367.456V67.7247ZM303.721 55.6117L290.567 99.8524L277.981 55.6117H260.947L278.927 111.445H301.639L319.809 55.6117H303.721ZM413.211 111.445H428.967V55.6117H413.211V111.445ZM457.404 55.6117L435.402 111.398H450.922L454.423 101.508H480.447L483.759 111.35H500.651L478.46 55.6117H457.404ZM467.625 65.7847L477.182 91.9033H457.783L467.625 65.7847Z" fill="black"/><path d="M100.782 64.8849V57.2197C101.539 57.1724 102.296 57.1251 103.053 57.1251C124.062 56.4627 137.831 75.1999 137.831 75.1999C137.831 75.1999 122.973 95.8298 107.028 95.8298C104.898 95.8298 102.817 95.4986 100.829 94.8361V71.5565C109.015 72.5502 110.671 76.1462 115.545 84.3319L126.475 75.1526C126.475 75.1526 118.478 64.6957 105.04 64.6957C103.621 64.6484 102.201 64.743 100.782 64.8849ZM100.782 39.5234V50.974L103.053 50.832C132.247 49.8384 151.316 74.774 151.316 74.774C151.316 74.774 129.456 101.366 106.696 101.366C104.709 101.366 102.769 101.177 100.829 100.845V107.943C102.438 108.132 104.094 108.274 105.703 108.274C126.901 108.274 142.231 97.4385 157.088 84.6631C159.549 86.6504 169.627 91.4294 171.709 93.5113C157.609 105.34 124.724 114.851 106.081 114.851C104.283 114.851 102.58 114.756 100.877 114.567V124.551H181.409V39.5234H100.782ZM100.782 94.8361V100.893C81.193 97.3912 75.7517 76.9979 75.7517 76.9979C75.7517 76.9979 85.1676 66.5883 100.782 64.8849V71.5092H100.735C92.5489 70.5156 86.1139 78.1808 86.1139 78.1808C86.1139 78.1808 89.7573 91.0982 100.782 94.8361ZM66.0045 76.1462C66.0045 76.1462 77.597 59.0177 100.829 57.2197V50.974C75.0892 53.0559 52.8506 74.8214 52.8506 74.8214C52.8506 74.8214 65.4367 111.255 100.782 114.567V107.943C74.8526 104.725 66.0045 76.1462 66.0045 76.1462Z" fill="#76B900"/></svg> 