<!-- created by svgstack.com | Attribution is required. --><svg width="594" height="180" viewBox="0 0 594 180" fill="none" xmlns="http://www.w3.org/2000/svg"><path d="M292.017 67.3663H295.836V75.234H290.893C287.018 75.234 284.131 76.1666 282.219 78.0317C280.313 79.897 279.357 82.9577 279.357 87.2138V113.001H271.552V67.5416H279.357V74.7958C279.357 75.2027 279.562 75.4092 279.966 75.4092C280.194 75.4092 280.368 75.3528 280.487 75.234C280.604 75.1151 280.717 74.8835 280.834 74.533C282.337 69.7572 286.068 67.3663 292.023 67.3663H292.017ZM342.998 77.1117C345.047 80.7545 346.078 85.1421 346.078 90.2682C346.078 95.3945 345.053 99.7821 342.998 103.425C340.943 107.068 338.286 109.79 335.019 111.599C331.753 113.408 328.239 114.309 324.483 114.309C317.082 114.309 311.879 111.336 308.874 105.39C308.644 104.927 308.352 104.689 308.004 104.689C307.657 104.689 307.483 104.864 307.483 105.215V129.607H299.678V67.5416H307.483V75.3216C307.483 75.6721 307.657 75.8473 308.004 75.8473C308.352 75.8473 308.638 75.6157 308.874 75.1463C311.879 69.2002 317.082 66.2271 324.483 66.2271C328.239 66.2271 331.753 67.1285 335.019 68.9373C338.286 70.7462 340.943 73.4688 342.998 77.1117ZM338.273 90.2682C338.273 84.9042 336.846 80.7232 333.983 77.7251C331.121 74.727 327.352 73.2248 322.664 73.2248C317.976 73.2248 314.207 74.727 311.344 77.7251C308.483 80.7295 307.433 84.9105 307.433 90.2682C307.433 95.6261 308.483 99.8133 311.344 102.811C314.207 105.816 317.982 107.312 322.664 107.312C327.346 107.312 331.121 105.81 333.983 102.811C336.846 99.8133 338.273 95.6261 338.273 90.2682ZM214.038 77.1806C216.088 80.8233 217.118 85.211 217.118 90.3371C217.118 95.4633 216.094 99.851 214.038 103.494C211.983 107.136 209.326 109.859 206.061 111.668C202.794 113.477 199.279 114.378 195.523 114.378C188.123 114.378 182.919 111.405 179.914 105.459C179.684 104.996 179.393 104.758 179.046 104.758C178.697 104.758 178.523 104.933 178.523 105.284V129.675H170.725V67.6103H178.529V75.3905C178.529 75.741 178.703 75.9162 179.052 75.9162C179.399 75.9162 179.684 75.6846 179.921 75.2152C182.926 69.2691 188.128 66.296 195.529 66.296C199.286 66.296 202.801 67.1973 206.067 69.0062C209.332 70.8151 211.983 73.5377 214.038 77.1806ZM209.313 90.3371C209.313 84.9731 207.886 80.792 205.023 77.794C202.161 74.7958 198.392 73.2936 193.704 73.2936C189.017 73.2936 185.248 74.7958 182.386 77.794C179.523 80.7983 178.474 84.9793 178.474 90.3371C178.474 95.6948 179.523 99.8822 182.386 102.88C185.248 105.885 189.017 107.381 193.704 107.381C198.392 107.381 202.161 105.878 205.023 102.88C207.886 99.8822 209.313 95.6948 209.313 90.3371ZM257.184 98.5678H265.423C264.324 102.824 262.083 106.511 258.706 109.628C255.322 112.745 250.479 114.303 244.177 114.303C239.433 114.303 235.261 113.327 231.647 111.374C228.033 109.421 225.246 106.642 223.277 103.024C221.309 99.4128 220.328 95.1566 220.328 90.262C220.328 85.3675 221.284 81.1112 223.191 77.4997C225.097 73.8882 227.773 71.103 231.213 69.1501C234.652 67.1973 238.682 66.2208 243.308 66.2208C247.933 66.2208 251.764 67.1848 254.974 69.1063C258.184 71.0278 260.581 73.5816 262.171 76.755C263.759 79.9346 264.554 83.4146 264.554 87.2013V92.4465H228.568C228.853 96.9906 230.374 100.608 233.118 103.287C235.863 105.966 239.551 107.312 244.177 107.312C247.933 107.312 250.814 106.542 252.807 104.996C254.801 103.45 256.259 101.309 257.184 98.5678ZM228.654 85.8932H255.887C255.887 81.9312 254.874 78.8267 252.851 76.5797C250.827 74.339 247.648 73.2123 243.313 73.2123C239.266 73.2123 235.956 74.3076 233.386 76.4921C230.816 78.6765 229.238 81.8122 228.661 85.887L228.654 85.8932ZM352.256 112.995H360.061V50.0537H352.256V113.001V112.995ZM460.546 62.5781H469.661V52.7388H460.546V62.5781ZM492.702 106.223C491.286 106.367 490.429 106.442 490.143 106.442C489.739 106.442 489.417 106.323 489.187 106.091C488.958 105.86 488.839 105.54 488.839 105.127C488.839 104.839 488.914 103.976 489.057 102.549C489.199 101.121 489.274 98.9183 489.274 95.9515V74.2012H500.407L498.216 67.5416H489.281V55.2988H481.476V67.5353H472.988V74.195H481.476V98.1297C481.476 103.143 482.693 106.874 485.121 109.321C487.548 111.768 491.248 112.995 496.222 112.995H502.294V106.004H499.258C496.309 106.004 494.123 106.079 492.708 106.223H492.702ZM538.368 67.5353L525.448 105.678C525.273 106.148 525.001 106.761 524.113 106.761C523.224 106.761 522.952 106.148 522.778 105.678L509.857 67.5353H501.897L516.861 112.995H522.151C522.498 112.995 522.759 113.026 522.933 113.083C523.107 113.139 523.249 113.283 523.368 113.521C523.597 113.871 523.566 114.397 523.281 115.092L520.853 121.733C520.506 122.609 519.841 123.047 518.859 123.047C518.512 123.047 517.706 122.972 516.432 122.828C515.159 122.684 513.514 122.609 511.489 122.609H505.157V129.6H513.483C518.338 129.6 521.263 128.768 523.777 127.109C526.292 125.451 528.242 122.521 529.632 118.321L545.794 69.2753V67.5291H538.368V67.5353ZM435.052 84.4973L422.827 67.5353H414.239V69.2816L428.892 88.9538L411.029 111.249V112.995H419.791L434.014 94.7247L447.283 112.995H455.697V111.249L440.174 90.2682L457.001 69.3755V67.5416H448.239L435.058 84.5037L435.052 84.4973ZM461.378 112.995H469.182V67.5416H461.378V113.001V112.995ZM411.383 98.5678C410.284 102.824 408.043 106.511 404.666 109.628C401.282 112.745 396.438 114.303 390.137 114.303C385.393 114.303 381.221 113.327 377.607 111.374C373.993 109.421 371.206 106.642 369.237 103.024C367.269 99.4128 366.288 95.1566 366.288 90.262C366.288 85.3675 367.244 81.1112 369.151 77.4997C371.057 73.8882 373.732 71.103 377.172 69.1501C380.612 67.1973 384.642 66.2208 389.267 66.2208C393.893 66.2208 397.723 67.1848 400.933 69.1063C404.143 71.0278 406.541 73.5816 408.129 76.755C409.719 79.9346 410.514 83.4146 410.514 87.2013V92.4465H374.527C374.813 96.9906 376.334 100.608 379.078 103.287C381.823 105.966 385.511 107.312 390.137 107.312C393.893 107.312 396.773 106.542 398.767 104.996C400.759 103.45 402.219 101.309 403.144 98.5678H411.383ZM374.614 85.8932H401.847C401.847 81.9312 400.834 78.8267 398.811 76.5797C396.786 74.339 393.607 73.2123 389.273 73.2123C385.226 73.2123 381.916 74.3076 379.346 76.4921C376.774 78.6765 375.198 81.8122 374.621 85.887L374.614 85.8932Z" fill="black"/><path fill-rule="evenodd" clip-rule="evenodd" d="M129.331 34.1353V67.5018H142.784V115.551H129.331V145.535L97.0441 116.746V145.316H92.0443V116.746L59.7572 145.535V115.551H46.5015V67.5018H59.7571V34.1353L92.0443 64.2513V35.0027H97.0441V64.2513L129.331 34.1353ZM88.1989 67.5018L64.757 45.6361V67.5015L88.1989 67.5018ZM88.1311 72.5017H51.5013V110.551H59.75V98.5927L88.1311 72.5017ZM64.757 100.788V134.378L92.0443 110.047V75.6966L64.757 100.788ZM97.0441 110.047L124.331 134.378V100.788L97.0441 75.6966V110.047ZM129.331 110.551H137.784V72.5017H100.956L129.331 98.5928V110.551ZM100.889 67.5018L124.331 45.6362V67.5015L100.889 67.5018Z" fill="#21B8CD"/></svg> 