<!-- created by svgstack.com | Attribution is required. --><svg width="128" height="128" viewBox="0 0 128 128" fill="none" xmlns="http://www.w3.org/2000/svg"><rect width="128" height="128" rx="32" fill="black"/><path d="M95.6804 41.1603C95.1792 40.6607 94.5831 40.2674 93.9262 40.0038C93.2694 39.7402 92.5666 39.6117 91.8594 39.6261H91.8302C87.6658 39.6261 84.327 36.2434 84.327 32.0863C84.3376 31.393 84.211 30.7045 83.9547 30.0604C83.6982 29.4162 83.3171 28.8291 82.8329 28.3327C82.3488 27.8364 81.7714 27.4407 81.1338 27.1683C80.4962 26.8959 79.8111 26.7523 79.1178 26.7456H36.7869C36.0942 26.7523 35.4097 26.8957 34.7726 27.1676C34.1355 27.4395 33.5584 27.8346 33.0744 28.3302C32.5904 28.8257 32.209 29.412 31.9522 30.0553C31.6953 30.6986 31.5681 31.3863 31.5777 32.079C31.5777 36.2434 28.2024 39.6115 24.0379 39.6115V39.6188C23.3367 39.6051 22.6399 39.7319 21.9884 39.9914C21.3369 40.2511 20.7438 40.6383 20.2442 41.1305C19.7445 41.6226 19.3484 42.2098 19.0789 42.8573C18.8095 43.5048 18.6723 44.1997 18.6753 44.901V58.439C18.6732 59.1404 18.8114 59.835 19.0817 60.4822C19.352 61.1293 19.749 61.7159 20.2494 62.2074C20.7497 62.6989 21.3433 63.0853 21.9951 63.3441C22.647 63.6028 23.3441 63.7285 24.0452 63.7139C26.0385 63.7139 27.9504 64.5047 29.3612 65.9128C30.772 67.3209 31.5666 69.2312 31.5704 71.2245V84.9743C31.5704 86.7278 33.7842 87.5095 34.88 86.1433L42.5148 76.6017H79.1178C79.8105 76.595 80.495 76.4516 81.1321 76.1797C81.7692 75.9077 82.3463 75.5127 82.8303 75.0171C83.3143 74.5216 83.6957 73.9353 83.9526 73.292C84.2094 72.6486 84.3366 71.9609 84.327 71.2683V71.261C84.327 67.0966 87.6877 63.7212 91.8521 63.7212H91.8594C92.5608 63.7368 93.2585 63.6118 93.9109 63.3534C94.5633 63.095 95.1573 62.7086 95.6578 62.2169C96.1582 61.7253 96.5549 61.1383 96.8253 60.4907C97.0949 59.843 97.2322 59.1479 97.2293 58.4463V44.901C97.2293 43.5494 96.7179 42.1978 95.6804 41.1603ZM86.6795 58.5851C86.6583 60.5676 85.8564 62.4619 84.4477 63.8569C83.0389 65.252 81.137 66.0354 79.1543 66.0372H36.7431C34.7605 66.0354 32.8585 65.252 31.4497 63.8569C30.0409 62.4619 29.239 60.5676 29.2179 58.5851V44.7549C29.239 42.7724 30.0409 40.8781 31.4497 39.483C32.8585 38.088 34.7605 37.3046 36.7431 37.3028V37.2881H36.7796V37.2955H79.1397C83.2749 37.2955 86.6284 40.627 86.6722 44.7476V58.5851H86.6795Z" fill="white"/><path d="M46.241 43.7395C43.3186 43.7395 40.9587 46.1066 40.9587 49.029V54.3113C40.9323 55.0219 41.0495 55.7307 41.3032 56.395C41.557 57.0594 41.942 57.6658 42.4355 58.178C42.9289 58.69 43.5206 59.0974 44.1751 59.3757C44.8296 59.6539 45.5335 59.7973 46.2446 59.7973C46.9558 59.7973 47.6597 59.6539 48.3142 59.3757C48.9687 59.0974 49.5603 58.69 50.0537 58.178C50.5472 57.6658 50.9323 57.0594 51.186 56.395C51.4398 55.7307 51.5569 55.0219 51.5305 54.3113V49.029C51.5305 46.1066 49.1634 43.7395 46.241 43.7395ZM69.6567 43.7395C66.7343 43.7395 64.3671 46.1066 64.3671 49.029V54.3113C64.3671 55.7142 64.9244 57.0596 65.9164 58.0515C66.9084 59.0435 68.2538 59.6008 69.6567 59.6008C71.0596 59.6008 72.4049 59.0435 73.397 58.0515C74.3889 57.0596 74.9462 55.7142 74.9462 54.3113V49.029C74.9462 46.1066 72.5791 43.7395 69.6567 43.7395Z" fill="white"/><path d="M45.7951 99.7909L53.2033 90.5269H89.8063C90.4996 90.5212 91.1849 90.3785 91.8229 90.107C92.4607 89.8354 93.0386 89.4405 93.5237 88.9449C94.0081 88.4493 94.3902 87.8627 94.6474 87.2189C94.9053 86.575 95.0324 85.8868 95.0229 85.1935C95.0156 81.0437 98.369 77.6683 102.519 77.6537H102.555C103.257 77.6683 103.954 77.5424 104.607 77.2831C105.259 77.024 105.853 76.6369 106.354 76.1447C106.854 75.6524 107.251 75.0649 107.521 74.4169C107.791 73.7689 107.928 73.0734 107.925 72.3715V59.0015C107.925 57.7303 107.502 56.4883 106.727 55.4727L105.244 53.5439V68.8865C105.246 69.5878 105.108 70.2825 104.838 70.9297C104.567 71.5769 104.17 72.1634 103.67 72.6549C103.17 73.1464 102.576 73.5328 101.924 73.7916C101.272 74.0503 100.575 74.1761 99.8741 74.1614H99.8448C97.8496 74.1692 95.9391 74.9682 94.5319 76.3831C93.1255 77.7981 92.3379 79.7133 92.3416 81.7085C92.3511 82.4011 92.224 83.0889 91.9668 83.7322C91.7103 84.3755 91.3289 84.9618 90.8449 85.4574C90.3609 85.9529 89.7838 86.348 89.1466 86.6199C88.5095 86.8918 87.825 87.0353 87.1323 87.0419H50.5293L42.4635 97.1242C42.1099 97.566 41.9463 98.1301 42.0086 98.6925C42.0709 99.255 42.3542 99.7697 42.796 100.123C43.2378 100.477 43.8019 100.641 44.3643 100.578C44.9268 100.516 45.4415 100.233 45.7951 99.7909Z" fill="url(#paint0_linear_10019_931)"/><path d="M37.2838 89.9352L45.1743 80.0722H81.7773C82.4699 80.0655 83.1544 79.9221 83.7915 79.6502C84.4287 79.3782 85.0058 78.9832 85.4898 78.4876C85.9738 77.9921 86.3551 77.4058 86.612 76.7625C86.8688 76.1192 86.9961 75.4314 86.9864 74.7388C86.9826 72.7455 87.7696 70.8321 89.175 69.4186C90.5803 68.005 92.4892 67.2067 94.4823 67.199H94.5188C95.2202 67.2146 95.9179 67.0896 96.5704 66.8312C97.2228 66.5728 97.8168 66.1864 98.3172 65.6947C98.8177 65.2031 99.2144 64.616 99.4847 63.9684C99.7543 63.3208 99.8917 62.6257 99.8887 61.9241V46.5669L101.825 49.0875C102.603 50.1022 103.024 51.3451 103.023 52.6236V65.9789C103.025 66.6796 102.887 67.3737 102.618 68.0203C102.347 68.667 101.951 69.2532 101.451 69.7446C100.952 70.236 100.359 70.6227 99.7083 70.8818C99.0573 71.141 98.3611 71.2675 97.6604 71.2538H97.6239C95.6286 71.2635 93.7188 72.0644 92.3139 73.4807C90.9082 74.897 90.1222 76.813 90.128 78.8082C90.1377 79.5008 90.0104 80.1886 89.7536 80.8319C89.4967 81.4753 89.1153 82.0615 88.6314 82.5571C88.1474 83.0526 87.5703 83.4477 86.9331 83.7196C86.296 83.9915 85.6115 84.1349 84.9188 84.1416H48.3158L41.1852 93.0549C40.9803 93.311 40.727 93.5244 40.4398 93.6827C40.1525 93.841 39.8369 93.9411 39.5109 93.9774C39.1849 94.0137 38.8549 93.9854 38.5399 93.8942C38.2248 93.803 37.9308 93.6506 37.6747 93.4458C37.4184 93.2409 37.2052 92.9876 37.0469 92.7003C36.8886 92.4131 36.7884 92.0975 36.7521 91.7715C36.7159 91.4455 36.7441 91.1155 36.8353 90.8005C36.9265 90.4855 37.0789 90.1914 37.2838 89.9352Z" fill="url(#paint1_linear_10019_931)"/><defs><linearGradient id="paint0_linear_10019_931" x1="131.509" y1="20.7474" x2="9.06786" y2="96.6493" gradientUnits="userSpaceOnUse"><stop stop-color="#46A6F7"/><stop offset="1" stop-color="#8364FF"/></linearGradient><linearGradient id="paint1_linear_10019_931" x1="36.9477" y1="103.02" x2="109.189" y2="50.7824" gradientUnits="userSpaceOnUse"><stop stop-color="#FF44D3"/><stop offset="1" stop-color="#CF4BFF"/></linearGradient></defs></svg> 