<!-- created by svgstack.com | Attribution is required. --><svg width="384" height="158" viewBox="0 0 384 158" fill="none" xmlns="http://www.w3.org/2000/svg"><g clip-path="url(#clip0_10019_1829)"><mask id="mask0_10019_1829" style="mask-type:luminance" maskUnits="userSpaceOnUse" x="34" y="33" width="315" height="96"><path d="M348.65 33.25H34.2V128.25H348.65V33.25Z" fill="white"/></mask><g mask="url(#mask0_10019_1829)"><path d="M180.101 33.459H204.611C216.049 33.459 226.176 41.3155 228.475 52.155C228.855 53.9885 229.064 55.7935 229.083 57.532C229.254 70.0625 218.642 81.7 204.592 81.7C201.504 81.7475 192.242 81.719 192.242 81.719L192.318 107.132H180.101V33.459ZM192.251 70.1005H204.278C212.771 70.1005 216.961 62.9755 216.961 57.304C216.961 50.464 211.223 44.954 204.611 44.954H192.251V70.11V70.1005ZM260.081 54.1975C275.395 54.15 287.308 65.93 287.346 81.1585C287.365 96.4155 275.585 108.177 260.214 108.224C244.758 108.262 232.883 96.539 232.873 81.2155C232.864 65.9965 244.701 54.2355 260.081 54.1975ZM260.129 64.961C251.332 64.9515 244.606 71.915 244.549 81.073C244.492 90.4115 251.199 97.47 260.157 97.47C268.85 97.4795 275.585 90.383 275.576 81.206C275.576 72.029 268.869 64.98 260.129 64.961ZM336.822 88.7585C335.644 92.226 331.35 97.6885 322.154 97.6885C313.443 97.6885 306.859 90.2785 307.135 83.125C307.135 83.125 347.073 83.087 347.12 83.125C349.638 65.094 338.475 54.207 322.487 54.207C303.373 54.207 295.374 69.445 295.374 80.6645C295.374 100.501 310.764 108.215 322.107 108.215C334.514 108.215 344.08 102.315 348.536 91.086L336.822 88.7585ZM322.306 64.8565C331.379 64.8565 335.777 70.395 335.549 74.8505H308.208C308.208 71.326 313.747 64.8565 322.306 64.8565ZM133.266 51.794C132.623 51.148 131.854 50.639 131.009 50.2978C130.163 49.9565 129.257 49.7901 128.345 49.8085H128.317C127.046 49.8085 125.788 49.558 124.615 49.0712C123.441 48.5845 122.376 47.8712 121.478 46.972C120.581 46.0728 119.869 45.0055 119.385 43.8311C118.901 42.6567 118.653 41.3984 118.655 40.128C118.669 39.2361 118.506 38.3502 118.177 37.5213C117.847 36.6924 117.358 35.9367 116.735 35.2976C116.113 34.6585 115.371 34.1487 114.551 33.7973C113.731 33.4459 112.849 33.2599 111.958 33.25H57.5035C56.6117 33.2562 55.7299 33.4389 54.909 33.7877C54.0881 34.1364 53.3444 34.6443 52.7209 35.282C52.0974 35.9197 51.6062 36.6746 51.2759 37.503C50.9457 38.3315 50.7828 39.2172 50.7965 40.109C50.7965 42.6789 49.7757 45.1436 47.9584 46.9609C46.1412 48.7781 43.6765 49.799 41.1066 49.799V49.8085C40.2032 49.7894 39.3051 49.9516 38.4655 50.2854C37.6258 50.6191 36.8615 51.1178 36.2177 51.7518C35.5739 52.3859 35.0637 53.1424 34.7171 53.977C34.3706 54.8115 34.1948 55.707 34.2001 56.6105V74.0335C34.1961 74.9363 34.3728 75.8307 34.7199 76.6641C35.067 77.4975 35.5774 78.253 36.2211 78.886C36.8647 79.5191 37.6286 80.0168 38.4677 80.35C39.3067 80.6832 40.204 80.845 41.1066 80.826C43.6716 80.826 46.132 81.843 47.9484 83.6541C49.7648 85.4651 50.789 87.9225 50.7965 90.4875V108.158C50.7965 110.419 53.6465 111.416 55.0525 109.659L64.866 97.375H111.958C112.848 97.3664 113.728 97.1819 114.548 96.8321C115.367 96.4823 116.109 95.9742 116.731 95.3369C117.354 94.6996 117.844 93.9456 118.174 93.1183C118.504 92.291 118.668 91.4066 118.655 90.516V90.5065C118.655 85.1485 122.978 80.8165 128.345 80.8165C129.248 80.8382 130.148 80.6782 130.989 80.346C131.83 80.0138 132.594 79.5163 133.239 78.883C133.884 78.2495 134.395 77.493 134.743 76.6584C135.09 75.8238 135.267 74.9279 135.261 74.024V56.601C135.261 54.8625 134.596 53.124 133.266 51.794ZM121.695 74.214C121.67 76.7674 120.638 79.2078 118.824 81.0045C117.009 82.8012 114.559 83.8091 112.005 83.809H57.456C54.9025 83.8091 52.4521 82.8012 50.6376 81.0045C48.823 79.2078 47.7911 76.7674 47.766 74.214V56.4205C47.7911 53.8671 48.823 51.4267 50.6376 49.63C52.4521 47.8333 54.9025 46.8254 57.456 46.8255H111.996C114.549 46.8254 117 47.8333 118.814 49.63C120.629 51.4267 121.661 53.8671 121.686 56.4205V74.214H121.695Z" fill="black"/><path d="M69.6633 55.1094C67.8594 55.1094 66.1292 55.8261 64.8536 57.1016C63.578 58.3773 62.8613 60.1074 62.8613 61.9114V68.7134C62.8613 69.6067 63.0373 70.4911 63.3791 71.3164C63.721 72.1416 64.222 72.8915 64.8536 73.5231C65.4852 74.1548 66.2351 74.6558 67.0603 74.9976C67.8856 75.3394 68.7701 75.5154 69.6633 75.5154C70.5566 75.5154 71.4411 75.3394 72.2663 74.9976C73.0916 74.6558 73.8414 74.1548 74.4731 73.5231C75.1047 72.8915 75.6058 72.1416 75.9476 71.3164C76.2894 70.4911 76.4653 69.6067 76.4653 68.7134V61.9114C76.4653 58.1589 73.4253 55.1094 69.6633 55.1094ZM99.7878 55.1094C97.9839 55.1094 96.2537 55.8261 94.9781 57.1016C93.7025 58.3773 92.9858 60.1074 92.9858 61.9114V68.7134C92.9858 70.5174 93.7025 72.2475 94.9781 73.5231C96.2537 74.7988 97.9839 75.5154 99.7878 75.5154C101.592 75.5154 103.322 74.7988 104.598 73.5231C105.873 72.2475 106.59 70.5174 106.59 68.7134V61.9114C106.59 58.1589 103.55 55.1094 99.7878 55.1094Z" fill="black"/><path d="M69.0839 127.224L78.6219 115.302H125.713C126.604 115.293 127.484 115.108 128.304 114.759C129.123 114.409 129.865 113.901 130.487 113.263C131.109 112.626 131.6 111.872 131.93 111.045C132.26 110.218 132.423 109.333 132.411 108.443C132.408 105.878 133.423 103.416 135.232 101.598C137.041 99.7798 139.498 98.7532 142.063 98.7431H142.11C143.014 98.7634 143.912 98.6025 144.75 98.2698C145.59 97.937 146.355 97.4393 146.999 96.806C147.643 96.1728 148.153 95.4168 148.5 94.5828C148.847 93.7487 149.023 92.8538 149.017 91.9506V74.7556C149.017 73.1121 148.475 71.5066 147.468 70.2051L145.568 67.7256V87.4666C145.572 88.3694 145.395 89.2638 145.049 90.0972C144.702 90.9306 144.191 91.6861 143.548 92.3191C142.904 92.9522 142.14 93.4499 141.301 93.7831C140.462 94.1163 139.564 94.2781 138.662 94.2591H138.624C136.061 94.2692 133.606 95.2945 131.796 97.1106C129.987 98.9268 128.972 101.386 128.972 103.949C128.984 104.841 128.821 105.727 128.49 106.555C128.159 107.384 127.669 108.138 127.045 108.777C126.422 109.415 125.679 109.924 124.859 110.274C124.038 110.624 123.157 110.809 122.265 110.818H75.1734L64.7994 123.795C64.394 124.367 64.2227 125.072 64.3206 125.766C64.4187 126.46 64.7784 127.091 65.3264 127.528C65.8744 127.966 66.5688 128.177 67.2675 128.118C67.9662 128.06 68.6161 127.737 69.0839 127.215V127.224Z" fill="url(#paint0_linear_10019_1829)"/><path d="M58.1399 114.542L68.2859 101.859H115.377C116.27 101.852 117.152 101.668 117.973 101.318C118.794 100.968 119.537 100.459 120.161 99.8209C120.784 99.1824 121.275 98.427 121.605 97.5979C121.935 96.7689 122.098 95.8828 122.084 94.9905C122.084 89.6515 126.388 85.3195 131.717 85.3005H131.774C132.678 85.3209 133.577 85.1596 134.417 84.8263C135.257 84.493 136.022 83.9945 136.666 83.3602C137.31 82.7258 137.82 81.9687 138.167 81.1336C138.513 80.2985 138.688 79.4025 138.681 78.4985V58.7385L141.17 61.997C142.171 63.2995 142.716 64.8954 142.718 66.538V83.733C142.722 84.6358 142.546 85.5302 142.199 86.3637C141.851 87.197 141.341 87.9525 140.698 88.5855C140.054 89.2185 139.29 89.7163 138.451 90.0495C137.612 90.3827 136.714 90.5445 135.812 90.5255H135.764C133.202 90.5381 130.75 91.5645 128.943 93.3804C127.136 95.1963 126.122 97.6538 126.122 100.216C126.134 101.107 125.971 101.993 125.64 102.821C125.31 103.65 124.819 104.405 124.195 105.043C123.572 105.681 122.829 106.19 122.009 106.54C121.188 106.891 120.307 107.075 119.415 107.084H72.3234L63.1559 118.56C62.6196 119.21 61.8488 119.624 61.0103 119.711C60.1717 119.798 59.3326 119.552 58.674 119.025C58.0155 118.499 57.5904 117.735 57.4904 116.898C57.3905 116.06 57.6238 115.218 58.1399 114.551V114.542Z" fill="url(#paint1_linear_10019_1829)"/></g></g><defs><linearGradient id="paint0_linear_10019_1829" x1="196.906" y1="53.8366" x2="39.3964" y2="151.487" gradientUnits="userSpaceOnUse"><stop stop-color="#46A6F7"/><stop offset="1" stop-color="#8364FF"/></linearGradient><linearGradient id="paint1_linear_10019_1829" x1="57.7124" y1="131.376" x2="150.641" y2="64.1725" gradientUnits="userSpaceOnUse"><stop stop-color="#FF44D3"/><stop offset="1" stop-color="#CF4BFF"/></linearGradient><clipPath id="clip0_10019_1829"><rect width="314.45" height="95" fill="white" transform="translate(34.2 33.25)"/></clipPath></defs></svg> 