<!-- created by svgstack.com | Attribution is required. --><svg width="128" height="128" viewBox="0 0 128 128" fill="none" xmlns="http://www.w3.org/2000/svg"><path fill-rule="evenodd" clip-rule="evenodd" d="M63.6581 20.379C85.9722 20.379 104.627 39.0333 104.627 61.3474C104.627 65.7028 103.916 69.9187 102.606 73.8837C103.697 75.6563 104.671 77.5034 105.516 79.413C107.973 73.8482 109.342 67.7321 109.342 61.3474C109.342 36.7439 88.5033 15.6632 63.6581 15.6632C39.0545 15.6632 17.9739 36.502 17.9739 61.3474C17.9739 67.7277 19.3416 73.8397 21.795 79.4014C22.6409 77.4906 23.6155 75.644 24.7067 73.8732C23.3991 69.9113 22.6897 65.6989 22.6897 61.3474C22.6897 39.0333 41.3439 20.379 63.6581 20.379ZM58.0387 101.918C56.6815 103.336 55.131 104.725 53.4469 105.843C56.7388 106.62 60.1581 107.032 63.6581 107.032C67.1766 107.032 70.6134 106.616 73.9215 105.831C72.2437 104.7 70.6975 103.315 69.3417 101.909C67.4808 102.177 65.5831 102.316 63.6581 102.316C61.7552 102.316 59.879 102.18 58.0387 101.918Z" fill="white"/><path d="M76.9684 50.2063C78.4775 50.725 79.067 53.8139 80.5878 53.0122C81.6176 52.4654 82.4622 51.6256 83.0146 50.5988C83.5671 49.572 83.8026 48.4045 83.6915 47.2439C83.5804 46.0832 83.1275 44.9816 82.3902 44.0783C81.653 43.1751 80.6644 42.5107 79.5495 42.1693C78.4347 41.828 77.2436 41.8249 76.127 42.1604C75.0104 42.496 74.0184 43.1552 73.2764 44.0546C72.5344 44.954 72.0759 46.0533 71.9587 47.2133C71.8415 48.3734 72.071 49.5422 72.6181 50.5718C73.3373 51.9276 75.6244 49.7229 76.9802 50.1945L76.9684 50.2063ZM49.2042 50.2063C47.6952 50.725 47.0939 53.8139 45.5849 53.0122C44.555 52.4654 43.7105 51.6256 43.158 50.5988C42.6056 49.572 42.37 48.4045 42.4812 47.2439C42.5923 46.0832 43.0451 44.9816 43.7824 44.0783C44.5197 43.1751 45.5083 42.5107 46.6231 42.1693C47.738 41.828 48.929 41.8249 50.0457 42.1604C51.1623 42.496 52.1543 43.1552 52.8963 44.0546C53.6382 44.954 54.0968 46.0533 54.214 47.2133C54.3311 48.3734 54.1016 49.5422 53.5545 50.5718C52.8354 51.9276 50.5364 49.7229 49.1924 50.1945L49.2042 50.2063Z" fill="white"/><path opacity="0.5" d="M63.3634 78.4892C74.9524 78.4892 78.6897 68.1616 78.6897 62.8563C78.6897 60.0976 76.8388 60.97 73.8678 62.4319C71.1209 63.7877 67.4308 65.6622 63.3752 65.6622C54.8985 65.6622 48.0489 57.5511 48.0489 62.8563C48.0489 68.1616 51.7743 78.4892 63.3752 78.4892H63.3634Z" fill="white"/><path fill-rule="evenodd" clip-rule="evenodd" d="M54.4859 75.7895C55.108 74.5253 55.9838 73.4028 57.0589 72.4921C58.1339 71.5813 59.3851 70.9019 60.7343 70.496C61.2059 70.3545 61.6893 71.168 62.1962 72.005C62.6678 72.8067 63.1629 73.6202 63.6581 73.6202C64.1886 73.6202 64.7192 72.8185 65.2261 72.0286C65.7566 71.2034 66.2754 70.4017 66.7823 70.5549C69.315 71.359 71.4313 73.124 72.677 75.4712C77.0745 72.005 78.6897 66.3461 78.6897 62.8564C78.6897 60.0977 76.8387 60.9701 73.8678 62.432L73.7027 62.5145C70.9794 63.8703 67.3482 65.6623 63.3634 65.6623C59.3785 65.6623 55.7592 63.8703 53.024 62.5145C49.9587 60.9937 48.037 60.0387 48.037 62.8564C48.037 66.4522 49.7583 72.3587 54.4859 75.7895Z" fill="white"/><path d="M91.3633 55.7474C92.3795 55.7474 93.3541 55.3437 94.0727 54.6251C94.7912 53.9066 95.1949 52.932 95.1949 51.9158C95.1949 50.8996 94.7912 49.925 94.0727 49.2065C93.3541 48.4879 92.3795 48.0842 91.3633 48.0842C90.3472 48.0842 89.3726 48.4879 88.654 49.2065C87.9355 49.925 87.5318 50.8996 87.5318 51.9158C87.5318 52.932 87.9355 53.9066 88.654 54.6251C89.3726 55.3437 90.3472 55.7474 91.3633 55.7474ZM36.5423 55.7474C37.5585 55.7474 38.5331 55.3437 39.2516 54.6251C39.9702 53.9066 40.3739 52.932 40.3739 51.9158C40.3739 50.8996 39.9702 49.925 39.2516 49.2065C38.5331 48.4879 37.5585 48.0842 36.5423 48.0842C35.5261 48.0842 34.5515 48.4879 33.833 49.2065C33.1144 49.925 32.7107 50.8996 32.7107 51.9158C32.7107 52.932 33.1144 53.9066 33.833 54.6251C34.5515 55.3437 35.5261 55.7474 36.5423 55.7474ZM28.6551 68.7158C26.7452 68.7158 25.0476 69.4939 23.8568 70.9204C22.8415 72.1746 22.2879 73.7396 22.2888 75.3533C21.5465 75.1301 20.7768 75.011 20.0017 74.9996C18.1743 74.9996 16.5238 75.6952 15.3566 76.9567C14.3153 78.038 13.6588 79.4319 13.4884 80.9233C13.3179 82.4148 13.643 83.9209 14.4135 85.2093C13.3701 86.0611 12.6299 87.2272 12.3031 88.5339C12.0202 89.595 11.7372 91.835 13.2463 94.1221C12.6806 94.9919 12.344 95.9905 12.2677 97.0252C12.1914 98.06 12.378 99.0972 12.8101 100.04C14.0126 102.776 17.0189 104.921 22.8547 107.232C26.4741 108.67 29.7987 109.59 29.8223 109.602C34.0221 110.765 38.351 111.399 42.7082 111.488C49.6168 111.488 54.5566 109.366 57.3979 105.192C61.9722 98.4842 61.3238 92.3419 55.3937 86.4236C52.128 83.1461 49.9469 78.3242 49.4989 77.2632C48.5794 74.1272 46.1507 70.6375 42.1305 70.6375C41.061 70.6544 40.0109 70.9264 39.0677 71.4308C38.1244 71.9352 37.3152 72.6576 36.7074 73.5377C35.5284 72.0522 34.373 70.8851 33.3356 70.2131C31.9511 69.2758 30.3265 68.7561 28.6551 68.7158ZM28.6551 73.4316C29.2564 73.4316 29.9991 73.691 30.8008 74.1979C33.3238 75.8013 38.1692 84.1364 39.9495 87.3785C40.5389 88.4632 41.5646 88.923 42.4724 88.923C44.2998 88.923 45.7145 87.1192 42.6492 84.8202C38.0278 81.3659 39.6429 75.7188 41.8476 75.3769C41.9419 75.3533 42.048 75.3533 42.1305 75.3533C44.1347 75.3533 45.0189 78.8076 45.0189 78.8076C45.0189 78.8076 47.6126 85.3154 52.069 89.7718C56.5137 94.2164 56.7495 97.7887 53.5073 102.54C51.2909 105.782 47.0585 106.76 42.7082 106.76C38.2164 106.76 33.5949 105.699 31.013 105.039C30.8834 105.004 15.1562 100.559 17.1486 96.7865C17.4787 96.1499 18.0328 95.8906 18.7284 95.8906C21.5343 95.8906 26.6274 100.064 28.832 100.064C29.3154 100.064 29.6572 99.8636 29.8105 99.3567C30.7419 95.9967 15.5924 94.5819 16.8657 89.7247C17.1015 88.864 17.7027 88.5221 18.5634 88.5221C22.2652 88.5221 30.5886 95.0417 32.3335 95.0417C32.4631 95.0417 32.5692 95.0063 32.6164 94.9238C33.4888 93.5091 33.0055 92.5188 26.8396 88.7933C20.6972 85.0678 16.3705 82.8278 18.8227 80.1516C19.1057 79.8451 19.5065 79.7036 20.0017 79.7036C23.7389 79.7036 32.5692 87.744 32.5692 87.744C32.5692 87.744 34.9507 90.2198 36.4008 90.2198C36.7309 90.2198 37.0139 90.1019 37.2025 89.7718C38.2164 88.0505 27.7002 80.0809 27.1107 76.7916C26.7099 74.5516 27.3937 73.4316 28.6551 73.4316Z" fill="white"/><path d="M99.2505 68.7158C101.16 68.7158 102.87 69.4939 104.049 70.9205C105.064 72.1746 105.618 73.7396 105.617 75.3533C106.363 75.129 107.137 75.0099 107.916 74.9996C109.743 74.9996 111.394 75.6952 112.561 76.9567C113.602 78.038 114.259 79.4319 114.429 80.9234C114.6 82.4148 114.274 83.9209 113.504 85.2093C114.543 86.0628 115.279 87.2288 115.603 88.5339C115.885 89.595 116.168 91.835 114.659 94.1221C115.225 94.9919 115.562 95.9905 115.638 97.0252C115.714 98.06 115.528 99.0972 115.096 100.04C113.893 102.776 110.887 104.921 105.063 107.232C101.432 108.67 98.107 109.59 98.0834 109.602C93.8835 110.765 89.5546 111.399 85.1975 111.488C78.2889 111.488 73.3491 109.366 70.5078 105.192C65.9335 98.4842 66.5819 92.3419 72.512 86.4236C75.7895 83.1461 77.9705 78.3242 78.4185 77.2632C79.3381 74.1272 81.755 70.6375 85.7752 70.6375C86.8447 70.6544 87.8947 70.9264 88.838 71.4308C89.7812 71.9353 90.5904 72.6576 91.1983 73.5377C92.3773 72.0522 93.5326 70.8851 94.5819 70.2131C95.963 69.278 97.5832 68.7584 99.2505 68.7158ZM99.2505 73.4316C98.6493 73.4316 97.9183 73.691 97.1049 74.1979C94.5937 75.8013 89.7364 84.1365 87.9562 87.3786C87.716 87.8412 87.3541 88.2294 86.9095 88.5016C86.4649 88.7737 85.9545 88.9194 85.4333 88.923C83.6177 88.923 82.1912 87.1192 85.2682 84.8202C89.8779 81.3659 88.2627 75.7188 86.0581 75.3769C85.9646 75.3616 85.87 75.3538 85.7752 75.3533C83.771 75.3533 82.8867 78.8076 82.8867 78.8076C82.8867 78.8076 80.2931 85.3154 75.8484 89.7718C71.392 94.2165 71.1562 97.7887 74.4101 102.54C76.6148 105.782 80.859 106.76 85.1975 106.76C89.7011 106.76 94.3108 105.699 96.9044 105.039C97.0223 105.004 112.761 100.559 110.769 96.7866C110.427 96.1499 109.885 95.8906 109.189 95.8906C106.383 95.8906 101.278 100.064 99.0855 100.064C98.5903 100.064 98.2484 99.8636 98.107 99.3567C97.1638 95.9967 112.313 94.5819 111.04 89.7247C110.816 88.864 110.215 88.5221 109.342 88.5221C105.64 88.5221 97.3171 95.0417 95.5722 95.0417C95.4543 95.0417 95.3482 95.0064 95.3011 94.9238C94.4286 93.5091 94.9002 92.5188 101.054 88.7933C107.22 85.0678 111.547 82.8278 109.071 80.1516C108.8 79.8451 108.399 79.7036 107.916 79.7036C104.167 79.7036 95.3364 87.744 95.3364 87.744C95.3364 87.744 92.955 90.2198 91.5166 90.2198C91.3546 90.2271 91.1937 90.189 91.0521 90.1098C90.9105 90.0307 90.7937 89.9137 90.715 89.7718C89.6893 88.0506 100.205 80.0809 100.795 76.7916C101.196 74.5516 100.512 73.4316 99.2505 73.4316Z" fill="white"/></svg> 