<!-- created by svgstack.com | Attribution is required. --><svg width="128" height="128" viewBox="0 0 128 128" fill="none" xmlns="http://www.w3.org/2000/svg"><path d="M32.2884 31.429C46.1714 17.568 66.6183 14.0728 83.6966 21.095C87.4749 22.4973 90.7681 24.4926 93.3372 26.3479L79.0755 32.928C65.7972 27.3622 50.586 31.1483 41.3021 40.425C28.9431 52.7632 26.2921 74.0177 40.2474 88.0754L40.9134 88.7502L0.743469 124.606C3.29118 121.1 6.4545 117.788 9.60675 114.477C18.5022 105.135 27.3325 95.8805 21.9456 82.7961C14.7343 65.289 18.9344 44.7723 32.2884 31.429ZM126.318 4.69946C113.093 22.8968 106.637 31.7958 111.819 54.0598L111.786 54.0276C115.36 69.1829 111.538 85.9891 99.1985 98.3186C83.6421 113.873 58.748 117.335 38.2474 103.334L52.5403 96.7219C65.6244 101.856 79.9399 99.602 90.2278 89.3225C100.516 79.0427 102.826 64.0702 97.6556 51.6116C96.673 49.2491 93.7255 48.6553 91.6634 50.176L49.5931 81.2102L109.854 20.7288V20.7825L127.256 3.3938C126.943 3.83601 126.63 4.26804 126.318 4.69946Z" fill="white"/></svg> 