<svg width="256" height="256" viewBox="0 0 256 256" fill="none" xmlns="http://www.w3.org/2000/svg">
<path d="M86.6709 34C93.5434 34 100.057 37.0729 104.426 42.3779L117.403 58.1367H229C235.627 58.1367 241 63.5095 241 70.1367V160C241 166.627 235.627 172 229 172H29C22.3726 172 17 166.627 17 160V46C17 39.3726 22.3726 34 29 34H86.6709Z" fill="url(#paint0_linear_700_9505)"/>
<mask id="mask0_700_9505" style="mask-type:alpha" maskUnits="userSpaceOnUse" x="17" y="34" width="224" height="138">
<path d="M86.6709 34C93.5434 34 100.057 37.0729 104.426 42.3779L117.403 58.1367H229C235.627 58.1367 241 63.5095 241 70.1367V160C241 166.627 235.627 172 229 172H29C22.3726 172 17 166.627 17 160V46C17 39.3726 22.3726 34 29 34H86.6709Z" fill="url(#paint1_linear_700_9505)"/>
</mask>
<g mask="url(#mask0_700_9505)">
<g filter="url(#filter0_f_700_9505)">
<path d="M241 160C241 166.627 235.627 172 229 172H29C22.3726 172 17 166.627 17 160V86C17 79.3726 22.3726 74 29 74H92.79C97.7649 73.9999 102.605 72.3865 106.586 69.4023L116.46 62H229C235.627 62 241 67.3726 241 74V160Z" fill="black" fill-opacity="0.3"/>
</g>
</g>
<g filter="url(#filter1_ii_700_9505)">
<path d="M241 198C241 204.627 235.627 210 229 210H29C22.3726 210 17 204.627 17 198V86C17 79.3726 22.3726 74 29 74H92.79C97.7649 73.9999 102.605 72.3865 106.586 69.4023L116.46 62H229C235.627 62 241 67.3726 241 74V198Z" fill="url(#paint2_linear_700_9505)"/>
</g>
<path fill-rule="evenodd" clip-rule="evenodd" d="M128.901 104.901H175.55V136H160V151.55H144.451V167.1H128.901V104.901ZM144.451 120.451V136H160V120.451H144.451Z" fill="white"/>
<path d="M175.55 136H191.1V167.1H175.55V136Z" fill="white"/>
<defs>
<filter id="filter0_f_700_9505" x="-20" y="25" width="298" height="184" filterUnits="userSpaceOnUse" color-interpolation-filters="sRGB">
<feFlood flood-opacity="0" result="BackgroundImageFix"/>
<feBlend mode="normal" in="SourceGraphic" in2="BackgroundImageFix" result="shape"/>
<feGaussianBlur stdDeviation="18.5" result="effect1_foregroundBlur_700_9505"/>
</filter>
<filter id="filter1_ii_700_9505" x="17" y="62" width="224" height="148" filterUnits="userSpaceOnUse" color-interpolation-filters="sRGB">
<feFlood flood-opacity="0" result="BackgroundImageFix"/>
<feBlend mode="normal" in="SourceGraphic" in2="BackgroundImageFix" result="shape"/>
<feColorMatrix in="SourceAlpha" type="matrix" values="0 0 0 0 0 0 0 0 0 0 0 0 0 0 0 0 0 0 127 0" result="hardAlpha"/>
<feOffset dy="4"/>
<feComposite in2="hardAlpha" operator="arithmetic" k2="-1" k3="1"/>
<feColorMatrix type="matrix" values="0 0 0 0 1 0 0 0 0 1 0 0 0 0 1 0 0 0 0.25 0"/>
<feBlend mode="normal" in2="shape" result="effect1_innerShadow_700_9505"/>
<feColorMatrix in="SourceAlpha" type="matrix" values="0 0 0 0 0 0 0 0 0 0 0 0 0 0 0 0 0 0 127 0" result="hardAlpha"/>
<feOffset dy="-4"/>
<feComposite in2="hardAlpha" operator="arithmetic" k2="-1" k3="1"/>
<feColorMatrix type="matrix" values="0 0 0 0 0 0 0 0 0 0 0 0 0 0 0 0 0 0 0.9 0"/>
<feBlend mode="soft-light" in2="effect1_innerShadow_700_9505" result="effect2_innerShadow_700_9505"/>
</filter>
<linearGradient id="paint0_linear_700_9505" x1="17" y1="34" x2="197.768" y2="215.142" gradientUnits="userSpaceOnUse">
<stop stop-color="#2E343C"/>
<stop offset="1" stop-color="#2D4666"/>
</linearGradient>
<linearGradient id="paint1_linear_700_9505" x1="17" y1="34" x2="197.768" y2="215.142" gradientUnits="userSpaceOnUse">
<stop stop-color="#05815D"/>
<stop offset="1" stop-color="#0C575F"/>
</linearGradient>
<linearGradient id="paint2_linear_700_9505" x1="17" y1="62" x2="241" y2="210" gradientUnits="userSpaceOnUse">
<stop stop-color="#243241"/>
<stop offset="1" stop-color="#3F5268"/>
</linearGradient>
</defs>
</svg>
