<?xml version="1.0" encoding="utf-8" ?><!-- created by svgstack.com | Attribution is required. --><svg xmlns="http://www.w3.org/2000/svg" xmlns:xlink="http://www.w3.org/1999/xlink" width="1024" height="1024"><path fill="#061E49" d="M196.665 107.657C199.278 107.268 202.081 107.33 204.729 107.291C221.083 107.046 237.457 107.42 253.813 107.483L333.87 107.505L622.361 107.494L762.438 107.501L804.507 107.506C813.931 107.508 823.623 107.14 832.991 108.289C843.901 109.627 854.336 115.297 862.118 122.929C877.483 137.996 879.418 155.236 879.625 175.742L879.864 201.075L879.992 571.171L880.005 680.698L880.035 712.528C880.045 720.537 880.361 728.69 879.232 736.641C877.702 747.418 871.835 758.048 864.187 765.699Q862.786 767.078 861.286 768.35Q859.786 769.621 858.196 770.778Q856.606 771.935 854.935 772.971Q853.264 774.006 851.52 774.915Q849.777 775.824 847.971 776.602Q846.165 777.379 844.306 778.02Q842.447 778.661 840.546 779.163Q838.645 779.665 836.712 780.024C828.316 781.581 819.517 780.71 811.025 780.674L774.389 780.697L623.427 780.997C623.363 800.082 631.472 833.199 637.919 851.617Q640.51 858.479 643.921 864.972C659.936 865.423 672.637 868.454 685.438 878.553C693.04 884.55 699.851 891.685 700.886 901.737C701.262 905.394 701.09 910.155 698.508 913.062C696.329 915.516 692.696 915.803 689.615 916.003C683.83 916.38 677.894 916.029 672.09 916.018L638.016 915.975L531.984 915.933L401.415 915.972C379.907 915.982 356.418 916.893 335.12 915.906C331.924 915.758 328.731 915.094 326.339 912.819C324.165 910.753 323.223 908.065 323.222 905.101C323.216 895.92 330.032 886.429 336.101 880.097C348.671 866.985 363.318 864.812 380.653 864.485C392.923 838.449 396.67 809.343 401.083 781.208C354.946 781.663 308.737 781.022 262.593 780.986L221.913 781.019C211.639 781.072 201.162 781.652 190.974 780.13C182.362 778.843 174.741 775.328 167.706 770.231C155.214 761.181 146.855 748.051 144.562 732.746C142.925 721.817 143.434 710.474 143.463 699.455L143.522 656.582L143.527 502.297L143.505 273.481L143.457 202.843C143.432 189.339 142.76 175.449 143.782 161.988Q143.926 159.876 144.218 157.779Q144.51 155.683 144.948 153.612Q145.387 151.541 145.969 149.505Q146.551 147.47 147.275 145.481Q147.999 143.491 148.86 141.558Q149.721 139.624 150.716 137.755Q151.711 135.887 152.834 134.092Q153.958 132.298 155.204 130.587C165.42 116.784 180.044 110.184 196.665 107.657Z"/><path fill="#81C0BE" d="M397.597 876.241C419.842 876.805 442.142 876.509 464.394 876.514L576.209 876.511L611.397 876.467C626.122 876.325 647.969 874.389 661.778 878.863C671.769 882.1 684.452 890.738 688.839 900.635C689.401 901.902 689.411 902.555 688.97 903.834C685.683 905.184 637.463 904.231 628.75 904.233L335.416 903.684C337.435 897.944 340.416 892.633 344.635 888.219C358.951 873.237 378.78 876.705 397.597 876.241Z"/><path fill="#0C3463" d="M413.191 781.483L610.292 781.484C610.938 789.116 612.859 796.933 614.287 804.462C618.195 825.062 622.11 844.395 629.889 863.962L612.125 864.203L467.245 864.194C442.655 864.197 417.923 865.218 393.359 864.069C405.127 838.019 408.882 809.453 413.191 781.483Z"/><path fill="#81C0BE" d="M156.397 657.008L867.525 657.012Q867.364 686.928 867.769 716.841C867.925 731.78 866.932 745.399 855.864 756.526C848.874 763.554 840.513 766.988 830.748 768.118C822.273 769.098 813.471 768.759 804.945 768.772L766.646 768.816L637.518 768.904L206.12 769.179C192.205 769.248 179.428 765.42 169.386 755.345Q168.339 754.29 167.364 753.168Q166.39 752.045 165.493 750.859Q164.596 749.674 163.781 748.431Q162.966 747.188 162.236 745.893Q161.506 744.598 160.864 743.257Q160.222 741.917 159.672 740.536Q159.122 739.155 158.666 737.74Q158.209 736.325 157.849 734.883C154.598 722.115 156.189 708.25 156.337 695.195L156.397 657.008Z"/><path fill="#1B67A5" d="M508.757 683.585C514.784 683.166 520.983 684.368 526.232 687.418Q526.862 687.79 527.474 688.192Q528.085 688.595 528.675 689.028Q529.265 689.461 529.833 689.923Q530.401 690.384 530.946 690.874Q531.49 691.364 532.009 691.88Q532.528 692.396 533.02 692.937Q533.513 693.478 533.978 694.044Q534.443 694.609 534.879 695.197Q535.315 695.785 535.721 696.394Q536.128 697.002 536.503 697.631Q536.878 698.259 537.222 698.906Q537.565 699.552 537.876 700.215Q538.187 700.878 538.464 701.555Q538.741 702.232 538.984 702.923Q539.227 703.613 539.436 704.315Q539.644 705.017 539.817 705.728C541.665 713.335 540.332 721.891 536.12 728.489C531.654 735.484 524.153 739.87 516.125 741.51C509.207 741.664 502.961 741.135 496.831 737.579Q496.213 737.222 495.615 736.834Q495.016 736.447 494.438 736.029Q493.859 735.612 493.303 735.166Q492.747 734.72 492.213 734.246Q491.68 733.772 491.172 733.272Q490.663 732.772 490.181 732.247Q489.698 731.721 489.243 731.173Q488.788 730.624 488.361 730.052Q487.934 729.481 487.536 728.889Q487.139 728.297 486.771 727.685Q486.404 727.074 486.069 726.444Q485.733 725.815 485.43 725.169Q485.126 724.524 484.856 723.864Q484.586 723.204 484.349 722.531Q484.113 721.858 483.911 721.174Q483.708 720.49 483.541 719.797Q483.367 719.094 483.228 718.383Q483.09 717.672 482.986 716.954Q482.883 716.237 482.816 715.516Q482.748 714.795 482.717 714.071Q482.686 713.347 482.69 712.622Q482.695 711.898 482.735 711.175Q482.776 710.451 482.852 709.731Q482.929 709.01 483.041 708.295Q483.153 707.579 483.301 706.87Q483.449 706.16 483.631 705.459Q483.814 704.758 484.031 704.067Q484.249 703.376 484.5 702.696Q484.752 702.017 485.037 701.351Q485.321 700.685 485.639 700.034Q485.957 699.382 486.307 698.748Q486.656 698.113 487.037 697.497C492.15 689.131 499.654 685.739 508.757 683.585Z"/><path fill="#27809C" d="M156.397 657.008L156.176 310.771L156.251 208.563L156.305 179.144C156.326 172.577 156.047 165.752 156.987 159.241C158.474 148.953 163.157 140.003 170.484 132.69C181.054 122.14 192.932 119.141 207.493 119.243L642.873 119.262L765.637 119.265L803.131 119.212C811.095 119.202 819.359 118.833 827.278 119.723C837.793 120.905 847.34 124.796 854.835 132.437Q855.467 133.093 856.072 133.774Q856.677 134.454 857.254 135.159Q857.83 135.864 858.378 136.591Q858.926 137.318 859.445 138.067Q859.963 138.816 860.451 139.585Q860.938 140.355 861.394 141.143Q861.85 141.931 862.274 142.737Q862.698 143.543 863.09 144.365Q863.481 145.188 863.838 146.025Q864.196 146.863 864.52 147.714Q864.843 148.565 865.132 149.429Q865.421 150.293 865.675 151.167Q865.929 152.042 866.147 152.926Q866.366 153.81 866.548 154.702Q866.731 155.594 866.878 156.493Q867.024 157.392 867.134 158.296C867.889 164.559 867.561 171.167 867.553 177.477L867.505 208.724L867.487 310.662L867.525 657.012L156.397 657.008Z"/><path fill="#F3BE7D" d="M202.738 214.965C202.182 204.476 199.803 182.288 207.019 173.998C211.304 169.074 217.008 168.578 223.079 168.356C234.5 167.938 245.967 168.473 257.394 168.506L324.482 168.481L537.273 168.254L726.557 168.381C741.516 168.449 756.484 168.594 771.443 168.475C782.599 168.386 793.807 167.888 804.955 168.461C809.732 168.706 813.492 169.419 817.077 172.851C823.577 179.074 822.49 190.698 822.47 199.09L822.031 431.82C822.02 474.864 822.756 518.034 821.969 561.057C817.386 557.301 810.744 554.911 805.54 551.936L758.568 524.839L636.902 455.379C620.052 445.821 603.852 435.495 586.677 426.459C581.985 423.746 577.355 419.116 574.224 414.704Q573.672 413.922 573.159 413.114Q572.646 412.306 572.175 411.473Q571.703 410.641 571.273 409.785Q570.843 408.93 570.457 408.055Q570.07 407.179 569.727 406.286Q569.385 405.392 569.087 404.483Q568.789 403.573 568.537 402.65Q568.285 401.726 568.079 400.792Q567.873 399.857 567.714 398.913Q567.554 397.97 567.443 397.019Q567.331 396.069 567.266 395.114Q567.201 394.159 567.184 393.202Q567.167 392.245 567.198 391.288Q567.229 390.332 567.307 389.378Q567.385 388.424 567.511 387.475Q567.636 386.526 567.809 385.585C569.94 373.431 578.074 364.968 587.798 358.127C575.839 341.378 557.345 332.048 536.659 337.057C529.732 338.735 523.092 342.051 515.85 342.166C507.828 342.292 500.786 337.828 493.028 336.573C477.68 334.091 464.939 339.513 452.667 348.279C441.317 344.266 430.785 337.658 420.247 331.903L373.695 306.722L263.122 247.26C243.002 236.465 222.66 226.127 202.738 214.965Z"/><path fill="#6D0C23" d="M539.264 298.061C539.849 298.098 540.404 298.302 540.967 298.459C541.349 299.016 541.623 299.546 541.772 300.211C543.215 306.612 540.768 316.052 537.442 321.566C531.534 331.359 522.62 335.193 511.955 337.765C511.123 337.677 510.381 337.669 509.635 337.245C508.885 336.818 508.41 335.371 508.238 334.55C506.971 328.475 510.657 320.262 513.807 315.144C519.695 305.577 528.565 300.597 539.264 298.061Z"/><path fill="#F3AA6C" d="M202.738 214.965C222.66 226.127 243.002 236.465 263.122 247.26L373.695 306.722L420.247 331.903C430.785 337.658 441.317 344.266 452.667 348.279C464.939 339.513 477.68 334.091 493.028 336.573C500.786 337.828 507.828 342.292 515.85 342.166C523.092 342.051 529.732 338.735 536.659 337.057C557.345 332.048 575.839 341.378 587.798 358.127C578.074 364.968 569.94 373.431 567.809 385.585Q567.636 386.526 567.511 387.475Q567.385 388.424 567.307 389.378Q567.229 390.332 567.198 391.288Q567.167 392.245 567.184 393.202Q567.201 394.159 567.266 395.114Q567.331 396.069 567.443 397.019Q567.554 397.97 567.714 398.913Q567.873 399.857 568.079 400.792Q568.285 401.726 568.537 402.65Q568.789 403.573 569.087 404.482Q569.385 405.392 569.727 406.286Q570.07 407.179 570.457 408.055Q570.843 408.93 571.273 409.785Q571.703 410.641 572.175 411.473Q572.646 412.306 573.159 413.114Q573.672 413.922 574.224 414.704C577.355 419.116 581.985 423.746 586.677 426.459C603.852 435.495 620.052 445.821 636.902 455.379L758.568 524.839L805.54 551.936C810.744 554.911 817.386 557.301 821.969 561.057C821.996 571.74 825.097 597.119 818.093 605.188C814.336 609.517 809.248 609.832 803.905 610.045C793.141 610.474 782.293 609.985 771.519 609.977L699.351 609.794L493.896 609.766L308.47 609.778L249.487 609.992C239.048 610.03 228.427 610.45 218.01 609.919C213.639 609.696 210.101 608.829 206.856 605.688C204.132 603.052 202.956 600.009 202.621 596.274C201.396 582.656 202.462 568.589 202.49 554.913L202.504 475.081L202.738 214.965Z"/><path fill="#6D0C23" d="M452.667 348.279C464.939 339.513 477.68 334.091 493.028 336.573C500.786 337.828 507.828 342.292 515.85 342.166C523.092 342.051 529.732 338.735 536.659 337.057C557.345 332.048 575.839 341.378 587.798 358.127C578.074 364.968 569.94 373.431 567.809 385.585Q567.636 386.526 567.511 387.475Q567.385 388.424 567.307 389.378Q567.229 390.332 567.198 391.288Q567.167 392.245 567.184 393.202Q567.201 394.159 567.266 395.114Q567.331 396.069 567.443 397.019Q567.554 397.97 567.714 398.913Q567.873 399.857 568.079 400.792Q568.285 401.726 568.537 402.65Q568.789 403.573 569.087 404.482Q569.385 405.392 569.727 406.286Q570.07 407.179 570.457 408.055Q570.843 408.93 571.273 409.785Q571.703 410.641 572.175 411.473Q572.646 412.306 573.159 413.114Q573.672 413.922 574.224 414.704C577.355 419.116 581.985 423.746 586.677 426.459C585.241 429.311 584.231 432.565 583.02 435.539C579.217 444.882 574.881 453.954 568.251 461.67C546.815 486.616 535.695 467.31 512.571 468.323C501.953 468.788 493.226 474.041 483.751 474.524C476.766 474.88 470.588 471.258 465.577 466.714C447.109 449.967 437.623 418.419 436.447 394.118C435.546 375.505 440.192 362.107 452.667 348.279Z"/></svg> 