<?xml version="1.0" encoding="utf-8" ?><!-- created by svgstack.com | Attribution is required. --><svg xmlns="http://www.w3.org/2000/svg" xmlns:xlink="http://www.w3.org/1999/xlink" width="1024" height="1024"><path fill="#005968" d="M200.063 591.227C205.168 589.824 231.732 590.996 239.204 591.001L354.368 591.002L827.408 590.357L828.181 590.658C830.828 591.659 833.767 592.083 836.498 592.853C847.401 595.924 853.225 600.97 858.046 611.211C863.243 622.25 867.032 634.189 871.367 645.599Q881.665 672.671 892.608 699.489L922.94 774.063C926.317 782.445 933.071 796.359 934.71 804.716C936.378 813.225 933.578 824.201 930.64 832.161C927.82 839.803 923.167 847.57 915.555 851.175C911.438 853.125 907.409 853.119 902.96 853.195C883.975 853.516 864.947 853.026 845.956 853L728.027 852.978L344.589 852.923L178.893 852.972C164.965 852.978 151.03 852.896 137.102 853.081C129.323 853.185 121.531 853.72 113.754 853.526C111.464 853.468 109.424 853.397 107.261 852.56C99.513 849.56 94.6192 839.863 91.67 832.634C84.9084 816.057 86.5554 806.645 93.4098 790.502C112.115 746.452 129.679 701.918 147.895 657.659Q152.771 645.98 157.411 634.206C161.17 624.483 164.441 614.238 170.173 605.457C173.11 600.958 178.56 597.525 183.498 595.594C188.773 593.533 195.006 593.496 200.063 591.227Z"/><path fill="#BED0D6" d="M820.305 603.741C826.55 603.788 833.437 603.734 839.175 606.514C842.914 608.325 844.412 610.432 846.186 614.016C851.886 625.534 855.932 638.131 860.529 650.136L885.319 714.682Q894.324 738.089 903.819 761.301C910.357 777.021 917.383 792.66 922.744 808.83C922.082 810.957 921.354 812.921 919.79 814.566C917.449 817.028 914.377 817.908 911.079 818.165C904.753 818.657 897.988 817.991 891.604 817.986L845.94 818.06L686.954 818.256L204.25 818.003L148.904 818.016C137.452 818.033 115.25 819.721 105.467 816.662C103.412 814.643 101.924 812.732 100.382 810.319C103.515 798.757 108.484 787.688 112.957 776.591L133.873 725.078L161.741 656.123C167.322 642.315 172.557 628.196 178.909 614.728C179.754 612.936 180.742 611.438 182.103 609.986C185.445 606.422 189.833 604.829 194.621 604.41C203.109 603.666 211.714 604.256 220.217 604.421Q234.532 604.574 248.847 604.517L370.427 604.44L662.743 604.037C715.229 603.98 767.844 604.896 820.305 603.741Z"/><path fill="#0C191E" d="M235.721 633.244C243.575 633.252 281.629 632.131 287.079 633.897C284.36 640.198 281.803 646.672 279.657 653.192C267.866 652.688 255.555 652.536 243.775 653.093Q235.887 652.946 227.997 652.983C229.606 646.163 233.612 639.935 235.721 633.244Z"/><path fill="#0C191E" d="M739.538 634.053C745.327 632.125 782.205 633.247 791.57 633.261C794.619 639.155 797.508 646.102 799.185 652.508C797.412 652.477 794.738 652.074 793.166 652.91C777.274 653.204 761.339 652.978 745.442 652.985C743.867 646.633 741.521 640.301 739.538 634.053Z"/><path fill="#0C191E" d="M225.858 657.982Q247.616 658.053 269.372 657.843L277.951 657.945C275.748 665.132 273.12 672.111 270.63 679.196C257.07 678.581 243.347 679.018 229.771 679.093Q223.328 678.986 216.884 678.985C219.725 672.13 222.176 664.401 225.858 657.982Z"/><path fill="#0C191E" d="M800.026 657.457C801.316 657.821 801.389 657.792 802.065 659.017C805.357 664.982 807.955 672.58 809.852 679.126L772.908 679.106C767.194 679.103 760.527 678.425 754.951 679.4C752.806 672.054 749.659 664.997 747.503 657.622C764.948 657.959 782.596 658.351 800.026 657.457Z"/><path fill="#0C191E" d="M217.889 683.548C234.854 683.898 251.826 683.455 268.788 683.725C266.298 690.97 263.881 698.362 261.018 705.462C255.772 707.326 215.011 706.036 206.1 705.85C208.517 699.229 210.68 690.981 214.77 685.177C215.722 683.826 216.299 683.795 217.889 683.548Z"/><path fill="#0C191E" d="M756.907 683.731C763.815 684.34 770.909 684.056 777.843 684.045L812.024 683.957C815.226 691.09 817.817 698.628 820.529 705.965C813.186 706.071 766.617 707.699 763.595 704.858L763.465 704.569C761.153 697.715 758.479 690.792 756.907 683.731Z"/><path fill="#83A7B8" d="M418.058 723.77C440.208 722.708 462.709 723.504 484.904 723.505L609.827 723.512C611.167 724.278 612.493 725.07 613.702 726.037C614.882 726.982 615.308 727.689 615.766 729.09C617.041 732.994 617.527 737.338 618.278 741.386L622.751 765.454C624.343 773.796 627.085 782.292 627.714 790.761C627.866 792.805 628.036 794.881 626.492 796.436C622.539 800.418 608.973 798.602 603.388 798.495L461.525 798.23L419.416 798.522C412.259 798.559 404.676 799.1 397.586 798.217C396.006 797.211 395.233 795.781 394.24 794.228C394.595 786.692 397.037 779.03 398.619 771.673C401.804 756.855 404.825 741.985 408.553 727.291C411.834 724.497 413.729 723.825 418.058 723.77Z"/><path fill="#FEFEFE" d="M292.221 635.986C292.457 634.915 292.721 634.204 293.301 633.272C298.39 632.146 340.076 632.623 342.951 634.058C344.597 633.146 347.156 633.578 348.972 633.667C353.927 632.698 396.501 632.263 399.357 634.086C399.413 634.03 399.457 633.96 399.524 633.917C400.872 633.064 403.858 633.489 405.43 633.524C412.596 633 450.366 631.768 455.261 633.998C456.718 633.354 458.704 633.227 460.23 633.76C460.378 633.811 460.513 633.892 460.654 633.958C467.492 631.95 500.463 633.351 510.014 633.371C510 639.721 509.428 646.705 510.498 652.968C511.086 646.799 509.709 640.246 510.763 634.154C512.179 633.308 513.919 633.521 515.52 633.504C520.761 633.441 561.654 632.414 563.947 634.244L564.31 636.359C566.346 635.693 567.857 635.629 569.83 636.517C569.861 635.456 569.919 634.852 570.431 633.914C575.328 632.215 600.929 632.939 607.181 633.042C610.526 633.097 619.02 632.575 621.223 634.855L621.702 634.265C623.264 634.128 624.779 634.103 626.346 634.127C630.126 632.232 671.893 632.452 676.036 633.89C676.951 634.208 676.601 633.984 677.181 634.858L678.025 633.945C679.761 633.415 680.687 633.337 682.486 633.576L683.016 634.44L683.65 633.775C689.782 632.509 726.42 632.458 733.101 634.091C734.939 633.886 737.848 633.203 739.538 634.053C741.521 640.301 743.867 646.633 745.442 652.985C761.339 652.978 777.274 653.204 793.166 652.91C795.318 652.919 797.812 652.506 799.495 653.947C799.875 655.193 799.978 656.172 800.026 657.457C782.596 658.351 764.948 657.959 747.503 657.622C749.659 664.997 752.806 672.054 754.951 679.4C755.088 679.418 755.226 679.438 755.363 679.455C760.065 680.022 765.112 679.669 769.852 679.664L797.755 679.579C801.512 679.561 806.861 678.849 810.383 679.938C810.868 681.085 810.959 681.771 810.9 683.013C804.976 685.419 767.419 682.065 756.907 683.731C758.479 690.792 761.153 697.715 763.465 704.569C762.488 705.634 762.022 706.028 760.528 706.094C759.41 706.143 758.245 706.01 757.129 705.927C749.891 706.163 706.213 707.18 702.309 705.027C701.73 705.446 701.764 705.503 701.084 705.692C699.501 706.133 698.148 705.858 696.728 705.087C691.351 706.513 645.141 707.08 640.805 705.311C638.722 705.505 636.584 705.816 634.493 705.703C628.331 705.472 622.098 705.941 615.924 705.972L575.764 705.992L452.406 705.985Q432.693 706.256 412.978 706.228C405.639 706.237 397.069 707.066 389.961 705.355C387.903 705.88 386.317 705.684 384.228 705.403C376.611 706.32 368.687 706.035 361.009 706.125C349.877 706.256 337.926 706.823 326.882 705.418C324.781 706.162 323.049 706.19 320.972 705.427C315.158 706.621 272.403 707.048 267.596 705.518C265.349 705.746 263.259 705.651 261.018 705.462C263.881 698.362 266.298 690.97 268.788 683.725C251.826 683.455 234.854 683.898 217.889 683.548C217.206 682.374 217.106 682.287 217.23 680.95C220.107 678.534 225.624 679.742 229.314 679.17C229.467 679.147 229.619 679.119 229.771 679.093C243.347 679.018 257.07 678.581 270.63 679.196C273.12 672.111 275.748 665.132 277.951 657.945L269.372 657.843C266.586 656.123 236.37 658.308 228.931 657.136L228.512 656.49C232.137 652.084 238.413 654.06 243.328 653.181C243.477 653.154 243.626 653.122 243.775 653.093C255.555 652.536 267.866 652.688 279.657 653.192C281.803 646.672 284.36 640.198 287.079 633.897C289.248 634.262 290.491 634.566 292.221 635.986Z"/><path fill="#0C191E" d="M515.52 633.504C520.761 633.441 561.654 632.414 563.947 634.244L564.31 636.359L565.897 652.982L515.5 652.986L515.52 633.504Z"/><path fill="#0C191E" d="M460.654 633.958C467.492 631.95 500.463 633.351 510.014 633.371C510 639.721 509.428 646.705 510.498 652.968L458.308 652.978C459.247 646.69 460.257 640.303 460.654 633.958Z"/><path fill="#0C191E" d="M405.43 633.524C412.596 633 450.366 631.768 455.261 633.998C453.771 639.989 453.513 646.573 452.86 652.71L401.149 652.664C402.469 646.254 403.764 639.854 405.43 633.524Z"/><path fill="#0C191E" d="M683.016 634.44L683.65 633.775C689.782 632.509 726.42 632.458 733.101 634.091Q736.574 643.489 739.861 652.954L687.795 652.986C686.406 646.806 684.932 640.478 683.016 634.44Z"/><path fill="#0C191E" d="M626.346 634.127C630.126 632.232 671.893 632.452 676.036 633.89C676.951 634.208 676.601 633.984 677.181 634.858C679.098 640.795 680.594 646.938 682.267 652.953L630.059 652.998C628.881 646.736 628.057 640.264 626.346 634.127Z"/><path fill="#0C191E" d="M292.221 635.986C292.457 634.915 292.721 634.204 293.301 633.272C298.39 632.146 340.076 632.623 342.951 634.058L337.536 652.965L285.968 652.969C288.232 647.377 289.723 641.47 292.221 635.986Z"/><path fill="#0C191E" d="M348.972 633.667C353.927 632.698 396.501 632.263 399.357 634.086C397.717 640.304 397.007 646.748 395.314 652.971L343.083 652.958C345.331 646.66 347.05 640.077 348.972 633.667Z"/><path fill="#0C191E" d="M569.83 636.517C569.861 635.456 569.919 634.852 570.431 633.914C575.328 632.215 600.929 632.939 607.181 633.042C610.526 633.097 619.02 632.575 621.223 634.855C621.945 641.006 622.989 646.933 624.591 652.919L571.595 652.991C571.124 647.565 570.98 641.842 569.83 636.517Z"/><path fill="#0C191E" d="M515.55 657.543C532.612 657.75 549.697 657.544 566.762 657.521C567.513 664.823 568.354 672.134 568.586 679.475L515.847 679.46L515.55 657.543Z"/><path fill="#0C191E" d="M284.244 657.728Q310.171 657.178 336.097 657.761C333.9 664.962 331.925 672.756 328.535 679.485L276.114 679.454C279.541 672.701 281.777 664.897 284.244 657.728Z"/><path fill="#0C191E" d="M632.491 657.748L683.61 657.696C685.551 664.008 688.95 672.029 688.681 678.655L687.851 679.261L635.396 679.281C633.981 673.3 631.668 665.904 631.645 659.799C631.64 658.661 631.757 658.531 632.491 657.748Z"/><path fill="#0C191E" d="M400.215 657.685C417.692 657.954 435.192 657.696 452.674 657.81C452.066 662.621 451.862 675.499 449.473 679.095L448.517 679.272C430.855 679.151 413.183 679.473 395.523 679.161Q398.054 668.463 400.215 657.685Z"/><path fill="#0C191E" d="M690.622 657.728C707.537 657.929 724.496 657.626 741.424 657.735C743.125 662.466 748.71 674.351 748.159 678.768L747.125 679.22L695.086 679.27C693.581 674.252 689.485 664.155 689.759 659.199C689.817 658.166 689.913 658.346 690.622 657.728Z"/><path fill="#0C191E" d="M458.139 657.659C475.479 657.991 492.86 657.748 510.205 657.743C510.639 663.432 510.976 669.46 510.538 675.154C510.403 676.907 510.347 678.315 508.963 679.491L455.907 679.276Q456.836 668.448 458.139 657.659Z"/><path fill="#0C191E" d="M341.785 657.497L394.404 657.51Q393.259 664.042 391.97 670.548C391.389 673.362 390.91 677.62 388.387 679.265L335.008 679.234C337.365 672.213 340.248 664.726 341.785 657.497Z"/><path fill="#0C191E" d="M572.27 657.715L625.201 657.715C626.743 664.834 628.393 672.028 629.375 679.247C611.066 679.187 592.784 679.458 574.467 679.225Q573.169 668.49 572.27 657.715Z"/><path fill="#0C191E" d="M274.875 683.495Q301.167 683.41 327.456 683.812C325.436 691.045 323.488 698.349 320.972 705.427C315.158 706.621 272.403 707.048 267.596 705.518C269.853 698.124 272.675 690.883 274.875 683.495Z"/><path fill="#0C191E" d="M696.412 684.053L750.857 683.992C753.004 691.215 755.533 698.564 757.129 705.927C749.891 706.163 706.213 707.18 702.309 705.027L696.412 684.053Z"/><path fill="#0C191E" d="M636.323 684.015L690.911 684.001C692.554 691.091 694.724 698.09 696.728 705.087C691.351 706.513 645.141 707.08 640.805 705.311C638.578 698.608 637.651 690.968 636.323 684.015Z"/><path fill="#0C191E" d="M332.81 684.013L388.69 684.005C387.963 690.804 386.207 698.832 384.228 705.403C376.611 706.32 368.687 706.035 361.009 706.125C349.877 706.256 337.926 706.823 326.882 705.418C328.881 698.41 331.428 691.158 332.81 684.013Z"/><path fill="#0C191E" d="M394.038 684.011L630.816 684.029C631.672 691.281 633.193 698.515 634.493 705.703C628.331 705.472 622.098 705.941 615.924 705.972L575.764 705.992L452.406 705.985Q432.693 706.256 412.978 706.228C405.639 706.237 397.069 707.066 389.961 705.355Q391.72 694.63 394.038 684.011Z"/><path fill="#0C191E" d="M200.063 591.227C193.082 588.802 186.859 585.198 183.026 578.599C180.233 573.789 179.532 568.639 179.276 563.195C178.45 545.647 179.277 527.893 179.419 510.323L179.318 436.534L179.117 262.942Q179.139 246.229 178.941 229.518C178.802 218.613 177.573 197.252 180.358 187.235C182.366 180.014 187.059 173.891 193.675 170.317C197.605 168.194 201.073 167.594 205.446 167.492C251.836 166.412 298.398 167.725 344.805 167.705L641.957 167.604L772.012 167.74C784.651 167.788 817.323 165.838 827.627 169.102C834.113 171.156 839.308 176.258 842.185 182.359C844.938 188.194 845.171 195.135 845.354 201.476C845.548 208.239 845.126 215.049 845.026 221.818Q844.925 237.234 844.992 252.649L845.098 384.879L845.019 507.671C845.025 525.633 845.948 543.727 845.385 561.665C845.243 566.217 844.893 571.28 843.203 575.555C840.302 582.893 834.34 587.283 827.408 590.357L354.368 591.002L239.204 591.001C231.732 590.996 205.168 589.824 200.063 591.227Z"/><path fill="#EB5D2F" d="M803.051 210.96C802.351 226.854 802.657 242.71 802.681 258.61L802.616 322.505L802.533 561.503L452.639 561.47C459.128 556.479 464.654 549.068 470.483 543.229L519.159 494.593L718.74 294.903Q744.054 269.692 768.972 244.089C779.924 232.88 790.557 220.438 803.051 210.96Z"/><path fill="#EE7C25" d="M221.284 207.502L628.254 207.69L747.358 207.733Q761.41 207.802 775.46 207.555C782.636 207.405 790.34 206.703 797.46 207.623C799.985 207.95 801.477 209.03 803.051 210.96C790.557 220.438 779.924 232.88 768.972 244.089Q744.054 269.692 718.74 294.903L519.159 494.593L470.483 543.229C464.654 549.068 459.128 556.479 452.639 561.47C426.703 561.871 400.704 561.501 374.762 561.501L221.458 561.501L221.284 207.502Z"/></svg> 