<?xml version="1.0" encoding="utf-8" ?><!-- created by svgstack.com | Attribution is required. --><svg xmlns="http://www.w3.org/2000/svg" xmlns:xlink="http://www.w3.org/1999/xlink" width="1024" height="1024"><path fill="#969EA5" d="M128.288 772.553C137.246 782.302 143.861 783.823 156.721 784.394C172.303 785.085 188.111 784.455 203.72 784.452L294.762 784.452L574.395 784.463L779.863 784.461C796.595 784.461 813.345 784.297 830.075 784.533C846.011 784.757 862.081 785.552 877.996 784.292C884.111 783.807 888.099 781.126 892.545 777.172C891.239 783.12 889.502 788.488 885.622 793.309C880.009 800.284 872.163 803.616 863.394 804.507C848.148 806.056 832.158 805.169 816.826 804.989C799.094 804.782 781.342 804.945 763.607 804.95L552.943 804.968L293.254 804.973L209.672 804.97C194.802 804.967 179.458 805.721 164.633 804.663C155.366 804.002 146.707 800.969 139.485 794.988C132.582 789.271 129.084 781.361 128.288 772.553Z"/><path fill="#DBDADA" d="M219.017 652.732C228.826 651.463 239.38 651.755 249.267 651.718L300.947 652.01L436.982 652.067L716.616 652.062L778.73 652.055C784.39 652.04 798.522 650.967 803.347 652.198L803.84 653.282L805.718 653.983C812.069 654.335 820.408 655.034 825.03 659.921C832.765 668.099 842.565 686.452 849.131 696.751L871.642 732.328C878.369 742.759 885.56 753.078 891.357 764.064C892.665 766.541 893.633 768.758 893.507 771.632C893.429 773.425 893.015 775.442 892.545 777.172C888.099 781.126 884.111 783.807 877.996 784.292C862.081 785.552 846.011 784.757 830.075 784.533C813.345 784.297 796.595 784.461 779.863 784.461L574.395 784.463L294.762 784.452L203.72 784.452C188.111 784.455 172.303 785.085 156.721 784.394C143.861 783.823 137.246 782.302 128.288 772.553C128.384 767.874 130.199 764.707 132.426 760.722C139.992 747.183 149.947 734.676 158.482 721.709L182.896 684.843C188.357 676.624 193.597 667.949 199.98 660.411C204.282 655.329 209.957 653.992 216.313 653.473L219.017 652.732Z"/><path fill="#38405B" d="M443.376 668.577C449.708 668.495 456.307 668.114 462.597 668.928C460.384 669.11 458.342 669.122 456.131 668.907C455.611 671.448 455.216 674.058 454.221 676.461L452.401 676.532C452.462 674.01 452.653 671.494 452.816 668.977C449.656 669.013 446.496 669.162 443.376 668.577Z"/><path fill="#38405B" d="M542.009 668.498L565.708 668.53C564.031 669.027 562.424 669.295 561.245 670.684C560.773 672.302 561.227 673.42 561.987 674.855C562.23 675.315 562.502 675.759 562.768 676.206L559.584 675.868L555.84 668.959C551.233 668.957 546.623 668.907 542.021 669.138L542.009 668.498Z"/><path fill="#38405B" d="M674.38 668.58C682.969 668.229 699.711 667.148 707.885 668.433L707.262 668.491C702.478 668.895 689.097 666.709 686.047 670.372C685.494 671.036 685.13 671.8 685.169 672.689C685.216 673.759 685.547 674.909 685.785 675.954Q681.601 675.994 677.418 675.931C679.446 675.599 681.541 675.514 683.589 675.343C682.506 673.215 681.278 671.151 680.102 669.073C678.123 669.074 676.323 668.959 674.38 668.58Z"/><path fill="#1C1F38" d="M707.885 668.433L708.504 668.484C711.162 668.481 713.725 668.442 716.346 668.971C715.063 670.244 714.334 670.606 714.021 672.42L715.001 674.849L712.752 675.475C704.11 677.634 694.595 676.15 685.785 675.954C685.547 674.909 685.216 673.759 685.169 672.689C685.13 671.8 685.494 671.036 686.047 670.372C689.097 666.709 702.478 668.895 707.262 668.491L707.885 668.433Z"/><path fill="#38405B" d="M708.504 668.484C711.162 668.481 713.725 668.442 716.346 668.971C715.063 670.244 714.334 670.606 714.021 672.42L715.001 674.849L712.752 675.475C711.707 672.983 709.991 670.733 708.504 668.484Z"/><path fill="#1C1F38" d="M237.765 668.494L291.439 668.492C290.675 671.83 287.845 673.953 285.448 676.225C278.691 675.564 272.021 675.99 265.25 676.077Q249.402 676.32 233.554 676.081L237.765 668.494Z"/><path fill="#1C1F38" d="M565.708 668.53Q572.023 668.353 578.338 668.503L634.741 668.587C631.716 669.13 628.265 668.514 626.019 670.852C625.673 672.946 626.286 674.227 627.459 675.933L624.899 675.972C604.226 676.679 583.429 675.254 562.768 676.206C562.502 675.759 562.23 675.315 561.987 674.855C561.227 673.42 560.773 672.302 561.245 670.684C562.424 669.295 564.031 669.027 565.708 668.53Z"/><path fill="#38405B" d="M578.338 668.503L634.741 668.587C631.716 669.13 628.265 668.514 626.019 670.852C625.673 672.946 626.286 674.227 627.459 675.933L624.899 675.972C624.06 673.403 622.931 671.376 621.518 669.095L597.727 669.024C593.815 669.01 589.186 668.489 585.36 669.249C584.418 670.59 584.678 672.212 584.507 673.832C582.562 673.502 581.257 669.332 578.997 668.666C578.78 668.603 578.557 668.558 578.338 668.503Z"/><path fill="#969EA5" d="M219.017 652.732C228.826 651.463 239.38 651.755 249.267 651.718L300.947 652.01L436.982 652.067L716.616 652.062L778.73 652.055C784.39 652.04 798.522 650.967 803.347 652.198L803.84 653.282L805.718 653.983C799.543 655.46 791.742 654.578 785.356 654.539L756.308 654.449L621.195 654.458L355.713 654.449L281.87 654.467C259.996 654.612 238.142 655.324 216.313 653.473L219.017 652.732Z"/><path fill="#C7C7C7" d="M435.517 729.229L546.745 729.021C561.76 729.019 577.019 728.379 592.009 728.986C594.278 729.078 598.166 729.149 600.053 730.362C603.573 732.624 613.53 757.852 613.811 762.49C613.924 764.359 613.445 765.984 612.133 767.358C608.327 771.345 598.737 770.204 593.625 770.152C582.74 770.114 571.881 770.384 561 770.467C533.445 770.676 505.909 770.132 478.356 770.121C460.855 770.114 442.858 771.063 425.419 770.096C422.709 769.946 417.151 769.779 415.197 767.855C414.42 762.634 423.002 736.786 426.483 732.687C429.009 729.712 431.902 729.497 435.517 729.229Z"/><path fill="#55556B" d="M291.439 668.492C301.604 666.579 320.219 668.453 331.547 668.144C332.403 668.189 333.514 668.11 334.332 668.308Q345.497 668.303 356.661 668.427L359.465 668.468L381.009 668.513C382.914 668.449 384.842 668.316 386.747 668.335Q398.764 668.522 410.782 668.379C414.906 668.365 419.229 668.652 423.328 668.249L424.43 668.363C430.708 668.428 437.115 668.223 443.376 668.577C446.496 669.162 449.656 669.013 452.816 668.977C452.653 671.494 452.462 674.01 452.401 676.532L454.221 676.461C455.216 674.058 455.611 671.448 456.131 668.907C458.342 669.122 460.384 669.11 462.597 668.928C467.251 668.868 471.989 669.031 476.628 668.767L479.69 668.891C489.199 668.309 498.758 668.854 508.283 668.811C519.329 667.9 530.883 668.724 542.009 668.498L542.021 669.138C546.623 668.907 551.233 668.957 555.84 668.959L559.584 675.868L562.768 676.206C583.429 675.254 604.226 676.679 624.899 675.972L627.459 675.933C626.286 674.227 625.673 672.946 626.019 670.852C628.265 668.514 631.716 669.13 634.741 668.587C638.318 668.516 641.885 668.439 645.463 668.559C650.709 668.549 656.018 668.386 661.258 668.564C665.506 668.303 670.151 668.1 674.38 668.58C676.323 668.959 678.123 669.074 680.102 669.073C681.278 671.151 682.506 673.215 683.589 675.343C681.541 675.514 679.446 675.599 677.418 675.931Q681.601 675.994 685.785 675.954C694.595 676.15 704.11 677.634 712.752 675.475L715.001 674.849L714.021 672.42C714.334 670.606 715.063 670.244 716.346 668.971C721.027 668.174 725.996 668.476 730.731 668.582C746.399 668.327 762.085 668.633 777.757 668.604L781.641 668.269C787.44 669.995 792.266 679.507 795.017 684.51C795.237 684.909 795.437 685.319 795.631 685.731C801.552 696.159 810.642 705.603 815.175 716.689L815.799 718.006C814.99 719.028 814.142 718.974 812.905 719.135C803.515 720.354 793.935 719.101 784.534 718.988L740.186 718.984L737.156 718.989L702.257 718.984L698.312 718.975L661.612 718.99L658.291 718.977L487.606 718.983Q430.49 718.71 373.374 719.114C373.195 719.213 373.033 719.354 372.837 719.412C370.891 719.984 360.967 719.986 359.175 719.098C348.172 718.766 336.982 718.754 325.981 719.151L322.766 719.404C307.28 718.977 292.009 719.35 276.533 719.405L209.549 719.404C212.88 712.161 217.089 704.662 221.524 698.037L222.645 696.094C225.612 689.904 229.281 683.863 232.539 677.807L233.554 676.081Q249.402 676.32 265.25 676.077C272.021 675.99 278.691 675.564 285.448 676.225C287.845 673.953 290.675 671.83 291.439 668.492Z"/><path fill="#1C1F38" d="M542.021 669.138C546.623 668.907 551.233 668.957 555.84 668.959L559.584 675.868C555.005 676.383 542.479 677.19 539.073 673.935C538.159 673.061 538.166 672.608 538.314 671.491C539.624 669.777 539.975 669.645 542.021 669.138Z"/><path fill="#1C1F38" d="M517.485 705.059C517.423 703.145 516.972 700.126 518.275 698.585C520.74 695.671 531.971 697.915 536.404 697.031C536.578 696.996 536.752 696.957 536.926 696.919C537.486 699.309 537.98 701.672 538.371 704.096L538.024 704.582C535.214 705.787 521.676 704.956 517.485 705.059Z"/><path fill="#1C1F38" d="M462.597 668.928C467.251 668.868 471.989 669.031 476.628 668.767C476.406 671.277 476.228 673.799 475.881 676.296L454.221 676.461C455.216 674.058 455.611 671.448 456.131 668.907C458.342 669.122 460.384 669.11 462.597 668.928Z"/><path fill="#1C1F38" d="M512.983 669.109C519.48 669.095 528.159 668.185 534.386 669.333C535.306 670.483 535.129 671.263 535.222 672.709L535.694 673.044C537.165 672.261 535.909 670.481 537.117 669.234C538.027 669.984 537.904 671.293 538.076 672.44C537.533 672.997 536.978 673.54 536.433 674.093C536.226 674.303 536.04 674.534 535.817 674.727C532.857 677.294 517.513 675.998 512.821 676.026L512.983 669.109Z"/><path fill="#1C1F38" d="M586.796 697.482C591.725 697.56 607.598 695.972 610.918 699.044C612.561 700.565 612.506 702.146 612.498 704.208C605.22 706.4 595.26 704.937 587.598 705.009L586.796 697.482Z"/><path fill="#1C1F38" d="M375.494 694.962C376.731 694.972 377.981 694.884 379.166 695.283C380.801 696.288 382.997 696.391 384.882 696.555L385.19 697.435C387.137 699.794 386.456 702.171 386.728 705.035C380.163 704.982 371.835 704.074 365.445 705.465L364.635 705.308L364.204 704.528C364.733 701.892 366.393 699.386 367.644 697.021L367.556 696.292C370.29 696.187 373.116 696.464 375.494 694.962Z"/><path fill="#38405B" d="M375.494 694.962C376.731 694.972 377.981 694.884 379.166 695.283C380.801 696.288 382.997 696.391 384.882 696.555L385.19 697.435C379.379 697.65 373.428 697.606 367.644 697.021L367.556 696.292C370.29 696.187 373.116 696.464 375.494 694.962Z"/><path fill="#1C1F38" d="M558.437 697.308C566.362 697.867 574.485 697.507 582.434 697.486C583.414 699.702 585.028 702.39 584.106 704.791C575.598 705.649 566.781 704.095 558.313 705.371Q558.299 701.338 558.437 697.308Z"/><path fill="#1C1F38" d="M634.741 668.587C638.318 668.516 641.885 668.439 645.463 668.559C648.385 668.979 651.452 669.6 653.26 672.227C653.548 672.646 653.586 672.931 653.699 673.384C653.152 674.642 652.791 675.092 651.479 675.614C647.271 677.289 632.467 676.36 627.459 675.933C626.286 674.227 625.673 672.946 626.019 670.852C628.265 668.514 631.716 669.13 634.741 668.587Z"/><path fill="#1C1F38" d="M492.618 697.191C494.769 697.165 496.922 697.048 499.071 696.975C503.358 696.829 511.029 695.787 514.13 699.347C515.375 700.777 515.197 702.28 514.951 703.99C514.006 704.965 513.36 704.793 512.065 704.965C506.661 705.063 493.598 706.816 489.291 703.336C488.812 701.89 489.064 700.262 489.757 698.853C490.398 697.55 491.343 697.561 492.618 697.191Z"/><path fill="#1C1F38" d="M661.258 668.564C665.506 668.303 670.151 668.1 674.38 668.58C676.323 668.959 678.123 669.074 680.102 669.073C681.278 671.151 682.506 673.215 683.589 675.343C681.541 675.514 679.446 675.599 677.418 675.931C671.753 676.154 661.827 677.667 656.701 675.408C655.4 674.835 654.811 674.143 654.262 672.836C654.335 671.494 654.313 671.118 655.015 669.996C656.839 668.94 659.197 668.855 661.258 668.564Z"/><path fill="#1C1F38" d="M716.346 668.971C721.027 668.174 725.996 668.476 730.731 668.582C733.822 669.082 736.889 669.011 740.009 668.992C741.508 670.038 742.805 670.794 743.631 672.467C743.584 673.212 743.744 673.669 743.168 674.23C739.852 677.462 723.937 676.514 719.249 676.035C717.67 675.874 716.414 675.606 715.001 674.849L714.021 672.42C714.334 670.606 715.063 670.244 716.346 668.971Z"/><path fill="#1C1F38" d="M660.21 687.997L683.744 687.978C685.357 690.652 687.065 693.279 688.725 695.924C680.286 696.763 671.497 696.279 663.014 696.244C661.748 693.526 660.955 690.895 660.21 687.997Z"/><path fill="#1C1F38" d="M331.547 668.144C332.403 668.189 333.514 668.11 334.332 668.308Q345.497 668.303 356.661 668.427C355.059 670.93 353.887 673.378 352.757 676.121C346.568 676.441 333.706 677.911 328.369 675.608L326.142 674.334C327.614 672.61 329.672 670.769 330.396 668.614L331.547 668.144Z"/><path fill="#38405B" d="M331.547 668.144C332.403 668.189 333.514 668.11 334.332 668.308C332.403 670.794 330.317 673.143 328.369 675.608L326.142 674.334C327.614 672.61 329.672 670.769 330.396 668.614L331.547 668.144Z"/><path fill="#1C1F38" d="M630.826 688.242C639.282 687.885 647.747 687.98 656.208 688.009C657.277 690.456 658.192 692.968 659.14 695.464L658.82 696.156C650.2 695.636 641.489 696.134 632.847 696.016C632.058 693.659 631.073 691.353 630.26 688.998L630.826 688.242Z"/><path fill="#1C1F38" d="M382.895 687.887C390.936 687.566 399.287 686.57 407.104 688.931Q405.708 692.586 404.375 696.265Q394.624 696.117 384.882 696.555C382.997 696.391 380.801 696.288 379.166 695.283C380.302 692.746 381.395 690.238 382.895 687.887Z"/><path fill="#1C1F38" d="M390.38 697.476C394.583 697.459 415.463 696.515 417.511 698.464C418.052 700.395 417.514 702.183 417.124 704.096C416.947 704.61 417.065 704.632 416.584 704.837C415.703 705.214 394.29 705.36 392.359 705.178C390.858 705.037 389.52 704.62 388.133 704.052C388.883 701.865 389.691 699.683 390.38 697.476Z"/><path fill="#1C1F38" d="M687.217 688.006C696.604 687.957 706.079 687.646 715.451 688.192C716.045 690.665 718.087 693.704 717.918 696.146C709.593 696.491 701.015 695.636 692.777 696.449Q690.112 692.152 687.217 688.006Z"/><path fill="#1C1F38" d="M367.556 696.292C363.033 696.424 356.022 697.625 351.688 696.419C350.309 696.035 349.918 695.608 349.19 694.421C349.377 691.565 351.635 689.499 353.384 687.39C361.689 688.318 370.182 688.004 378.512 687.566C377.634 690.082 376.575 692.528 375.494 694.962C373.116 696.464 370.29 696.187 367.556 696.292Z"/><path fill="#1C1F38" d="M424.43 668.363C430.708 668.428 437.115 668.223 443.376 668.577C446.496 669.162 449.656 669.013 452.816 668.977C452.653 671.494 452.462 674.01 452.401 676.532C442.498 676.257 432.515 676.459 422.604 676.436C423.032 673.706 423.287 670.901 424.43 668.363Z"/><path fill="#1C1F38" d="M485.882 687.733C490.745 687.356 496.023 687.609 500.892 687.911L501.638 695.947C497.933 696.147 494.209 696.184 490.499 696.282C486.251 696.248 480.124 697.645 476.151 696.203C475.027 695.795 473.995 695.164 473.606 693.985C472.848 691.691 474.269 689.903 475.361 687.982L485.882 687.733Z"/><path fill="#1C1F38" d="M464.659 677.613C471.107 677.887 481.172 676.234 486.982 678.288C488.235 678.731 489.629 679.567 489.971 680.962C490.351 682.512 489.624 685.266 488.87 686.633C480.492 687.45 471.582 686.903 463.156 686.935C463.528 683.823 464.146 680.706 464.659 677.613Z"/><path fill="#1C1F38" d="M462.719 697.178C470.785 696.972 478.662 697.039 486.714 697.522L485.828 705.003L480.125 705.1Q467.48 705.144 454.836 704.995C455.48 703.348 456.183 700.791 457.333 699.457C458.938 697.594 460.399 697.442 462.719 697.178Z"/><path fill="#1C1F38" d="M372.985 677.586C379.39 677.705 386.767 676.535 393.014 677.61C394.856 677.928 396.155 678.597 397.202 680.196C397.64 682.384 396.943 684.388 395.781 686.259L394.624 686.465C385.954 686.872 377.369 686.699 368.698 686.474C369.959 683.439 371.509 680.521 372.985 677.586Z"/><path fill="#1C1F38" d="M479.69 668.891C489.199 668.309 498.758 668.854 508.283 668.811C508.356 668.948 508.436 669.082 508.502 669.222C509.325 670.979 509.986 672.891 509.17 674.768C508.789 675.645 508.419 675.717 507.511 675.982C503.02 677.289 484.027 677.601 480.411 675.553C479.358 674.957 478.573 674.083 478.376 672.852C478.146 671.408 478.999 670.077 479.69 668.891Z"/><path fill="#1C1F38" d="M583.01 677.515C590.552 677.347 598.123 677.468 605.668 677.451C606.883 679.655 608.494 682.293 609.131 684.747C609.435 685.916 609.534 686.029 608.909 687.104L586.091 687.018C584.757 685.5 582.972 683.63 582.332 681.682C581.775 679.986 582.235 679.036 583.01 677.515Z"/><path fill="#1C1F38" d="M525.701 677.584C533.724 677.354 541.773 677.52 549.799 677.566C550.367 680.772 550.79 683.867 550.16 687.095C541.777 687.16 533.382 687.007 524.998 686.979C524.97 683.772 524.924 680.72 525.701 677.584Z"/><path fill="#1C1F38" d="M411.347 687.682C420.445 688.492 429.595 687.2 438.755 688.185C437.834 690.788 437.609 693.699 436.404 696.171C431.022 696.099 414.477 698.002 410.541 695.577C409.344 694.839 409.143 694.223 408.753 692.924C409.004 690.833 410.193 689.37 411.347 687.682Z"/><path fill="#1C1F38" d="M599.981 688.211C608.91 687.6 617.946 687.916 626.892 687.986Q627.649 689.526 628.36 691.089C629.244 693.066 629.409 694.064 628.634 696.113C621.324 697.683 608.907 696.611 601.208 696.369C600.172 693.637 598.857 691.112 599.981 688.211Z"/><path fill="#1C1F38" d="M512.124 687.738C516.687 687.27 527.845 685.724 531.465 689.202C533.46 691.119 533.27 693.676 533.481 696.256L524.627 696.079C517.909 696.275 511.073 696.536 504.373 695.976C504.215 694.649 504.003 693.272 503.982 691.936C503.958 690.496 504.292 689.709 505.267 688.632C507.39 687.573 509.798 687.779 512.124 687.738Z"/><path fill="#1C1F38" d="M424.395 697.201C429.345 697.121 447.803 696.129 450.987 697.792C452.011 698.327 452.865 699.081 453.12 700.241C453.395 701.492 453.181 702.597 452.489 703.657C451.678 704.9 451.506 704.825 450.125 705.103L419.936 705.123C420.939 701.888 421.35 699.112 424.395 697.201Z"/><path fill="#1C1F38" d="M434.838 678.128C443.41 677.167 452.646 677.807 461.278 677.941C460.668 680.755 460.593 683.581 459.609 686.316L458.374 686.681C449.955 687.549 440.862 686.903 432.387 686.92C432.594 683.602 432.31 680.615 434.838 678.128Z"/><path fill="#1C1F38" d="M319.618 687.461C329.257 687.938 338.716 688.188 348.364 687.848C347.029 690.235 345.748 692.745 344.243 695.024C343.461 696.207 343.459 696.3 342.124 696.559C332.622 696.046 323.066 696.307 313.55 695.959L319.618 687.461Z"/><path fill="#1C1F38" d="M567.743 687.999Q581.306 687.771 594.87 687.981L599.204 696.025C588.721 696.562 578.542 696.698 568.062 696.047L567.743 687.999Z"/><path fill="#1C1F38" d="M554.103 677.525L578.07 677.482C579.533 680.532 581.297 683.676 581.348 687.114Q567.76 687.05 554.174 686.814C553.605 683.564 553.14 680.739 554.103 677.525Z"/><path fill="#1C1F38" d="M453.636 687.771C457.683 687.413 465.719 686.104 469.029 688.628C470.149 689.483 470.695 690.361 470.793 691.789C470.871 692.936 470.595 694.336 469.731 695.167C467.474 697.339 460.122 696.487 457.177 696.511C452.75 696.445 445.974 697.744 442.016 695.488C440.798 694.794 440.762 694.48 440.394 693.227C440.716 691.711 440.958 690.755 442.126 689.616C444.66 687.146 450.401 687.793 453.636 687.771Z"/><path fill="#1C1F38" d="M669.36 677.638C678.361 677.299 687.413 677.478 696.421 677.47C697.408 680.764 698.991 683.879 700.423 687C691.852 687.099 683.27 687.01 674.698 687.01C672.738 683.945 670.95 680.912 669.36 677.638Z"/><path fill="#1C1F38" d="M651.663 677.213C656.115 677.195 660.574 677.366 665.025 677.475C667.314 680.504 669.16 683.657 670.966 686.99L658.375 687.027L643.442 686.996C642.355 683.816 641.002 680.719 639.915 677.525C643.831 677.461 647.748 677.321 651.663 677.213Z"/><path fill="#1C1F38" d="M719.151 688.027L748.559 687.953C750.452 690.591 751.814 693.145 753.097 696.115C743.143 697.06 732.767 696.668 722.787 696.212C721.265 693.594 720.231 690.847 719.151 688.027Z"/><path fill="#1C1F38" d="M343.756 697.243C350.094 696.994 356.723 697.483 363.046 697.974L359.53 705.636C354.97 705.344 350.444 705.214 345.875 705.195Q336.104 705.244 326.336 704.97C327.462 702.468 328.751 700.056 330.027 697.628C334.607 697.569 339.184 697.541 343.756 697.243Z"/><path fill="#1C1F38" d="M609.548 677.496L636.493 677.485C638.034 680.598 639.421 683.457 640.406 686.801C631.504 687.296 622.531 687.065 613.616 687.038C612.341 683.828 610.925 680.665 609.548 677.496Z"/><path fill="#1C1F38" d="M297.865 668.53C308.679 668.249 319.571 668.611 330.396 668.614C329.672 670.769 327.614 672.61 326.142 674.334C325.993 674.476 325.852 674.625 325.697 674.759C321.762 678.165 296.087 676.095 289.979 675.947Q293.81 672.119 297.865 668.53Z"/><path fill="#1C1F38" d="M707.652 677.17C713.133 676.045 720.555 677.411 726.255 677.478C727.831 680.709 729.671 683.838 731.41 686.984L726.125 687.018L704.666 687.096C703.207 685.571 701.102 683.25 700.899 681.071C700.827 680.298 700.99 679.622 701.467 679.024C702.948 677.163 705.478 677.342 707.652 677.17Z"/><path fill="#1C1F38" d="M292.151 697.451L325.639 697.488C324.242 700.371 322.358 702.829 320.454 705.387C309.37 704.551 298.086 705.555 286.957 705.02C288.625 702.446 290.369 699.946 292.151 697.451Z"/><path fill="#1C1F38" d="M493.047 677.68Q505.526 677.75 518.001 677.441C519.014 677.976 520.163 678.517 520.944 679.375C522.637 681.232 522.07 684.72 522.014 687.052C512.354 686.413 502.462 686.856 492.758 686.487L493.047 677.68Z"/><path fill="#1C1F38" d="M405.397 677.685C409.468 677.782 425.738 677.013 427.967 677.665C428.897 677.937 429.744 678.506 430.11 679.418C430.791 681.111 430.174 684.411 429.11 685.863C428.327 686.931 426.465 686.52 425.25 686.526C416.375 686.922 407.46 686.882 398.577 686.896C399.398 684.533 399.741 680.78 401.44 678.937C402.595 677.684 403.828 677.851 405.397 677.685Z"/><path fill="#1C1F38" d="M309.586 677.59C318.014 677.134 326.784 677.391 335.195 678.03C334.242 680.226 333.095 683.968 331.301 685.559C329.948 686.76 328.96 686.484 327.252 686.528L299.827 686.499C300.799 684.862 301.751 683.163 302.843 681.604C304.729 678.916 306.4 678.131 309.586 677.59Z"/><path fill="#1C1F38" d="M342.418 677.69C351.16 677.557 359.876 677.413 368.616 677.797C368.089 679.972 367.607 684.092 365.914 685.628C364.639 686.784 363.22 686.487 361.625 686.519L333.247 686.482C334.903 684.292 336.075 681.788 337.794 679.643C339.217 677.869 340.293 677.92 342.418 677.69Z"/><path fill="#1C1F38" d="M753.02 688.585C760.656 687.317 786.915 687.309 794.89 688.138Q797.268 692.062 799.743 695.926C785.471 697.521 770.855 696.926 756.529 696.497C755.488 693.757 754.406 691.171 753.02 688.585Z"/><path fill="#1C1F38" d="M534.971 688.062C541.827 687.886 559.355 685.504 564.275 690.359C565.243 691.314 566.051 692.582 566.041 693.979C566.035 694.754 565.583 695.113 565.156 695.713C561.833 697.409 556.74 696.416 552.987 696.99C551.985 697.029 550.283 696.858 549.42 697.308L550.101 697.321C551.747 697.361 552.989 697.368 554.487 698.076C556.016 700.077 555.565 702.579 555.515 705.009L545.941 705.086L539.346 705.082L539.437 702.477C539.454 701.905 539.437 701.325 539.524 700.758C539.77 699.162 541.101 697.919 542.313 696.977C542.389 696.919 542.473 696.873 542.554 696.82L538.376 696.189C537.293 695.764 537.161 695.977 536.642 694.846C535.705 692.805 535.408 690.262 534.971 688.062Z"/><path fill="#1C1F38" d="M698.415 705.906C709.574 705.943 720.805 706.188 731.955 705.803C733.831 709.946 736.175 714.549 737.156 718.989L702.257 718.984C701.062 714.601 699.273 710.364 698.415 705.906Z"/><path fill="#1C1F38" d="M658.539 706.423C670.344 705.755 682.097 706.319 693.899 706.083C695.421 710.344 697.131 714.61 698.312 718.975L661.612 718.99C660.849 714.715 659.716 710.596 658.539 706.423Z"/><path fill="#1C1F38" d="M332.247 706.064C344.804 706.089 357.411 706.747 369.937 706.675C367.803 710.245 366.089 716.641 362.708 718.918C361.527 719.01 360.358 719.066 359.175 719.098C348.172 718.766 336.982 718.754 325.981 719.151C327.661 714.536 329.843 710.336 332.247 706.064Z"/><path fill="#1C1F38" d="M386.747 668.335Q398.764 668.522 410.782 668.379C414.906 668.365 419.229 668.652 423.328 668.249L420.317 676.497C408.272 676.548 396.229 676.016 384.203 676.059C375.33 676.091 365.258 677.421 356.589 675.831L356.265 674.817C356.789 672.388 358.294 670.614 359.465 668.468L381.009 668.513C382.914 668.449 384.842 668.316 386.747 668.335Z"/><path fill="#38405B" d="M381.009 668.513C382.914 668.449 384.842 668.316 386.747 668.335C386.073 669.436 385.156 670.558 384.278 671.502C383.401 672.445 382.946 672.897 381.617 672.946C380.683 671.424 380.982 670.274 381.009 668.513Z"/><path fill="#1C1F38" d="M688.393 697.258L689.115 697.365C690.86 699.7 692.095 702.421 693.437 705.003C668.762 705.322 644.054 705.047 619.375 705.028C617.731 704.987 617.022 705.207 615.688 704.194C614.825 702.262 615.061 700.324 615.68 698.359C618.317 696.365 679.402 698.125 688.393 697.258Z"/><path fill="#1C1F38" d="M781.641 668.269C787.44 669.995 792.266 679.507 795.017 684.51C795.237 684.909 795.437 685.319 795.631 685.731L794.89 688.138C786.915 687.309 760.656 687.317 753.02 688.585L752.352 687.462C746.433 687.427 740.475 687.04 734.535 687C733.35 684.955 731.436 682.321 731.123 679.962C730.927 678.488 731.174 678.21 732.029 677.133C735.887 675.717 743.263 677.005 747.503 677.124L747.399 676.005C746.87 673.812 744.703 672.245 744.509 670.035C751.182 667.029 768.891 670.51 777.349 668.701C777.486 668.672 777.621 668.637 777.757 668.604L781.641 668.269Z"/><path fill="#38405B" d="M781.641 668.269C787.44 669.995 792.266 679.507 795.017 684.51C795.237 684.909 795.437 685.319 795.631 685.731L794.89 688.138C786.915 687.309 760.656 687.317 753.02 688.585L752.352 687.462C757.09 686.662 762.19 686.976 766.993 686.986C775.906 687.004 784.787 687.21 793.669 686.337L787.434 677.445C774.568 677.389 760.162 678.854 747.503 677.124L747.399 676.005C760.289 676.424 773.275 676.073 786.176 676.007C784.644 673.418 782.851 671.038 781.641 668.269Z"/><path fill="#1C1F38" d="M777.757 668.604L781.641 668.269C782.851 671.038 784.644 673.418 786.176 676.007C773.275 676.073 760.289 676.424 747.399 676.005C746.87 673.812 744.703 672.245 744.509 670.035C751.182 667.029 768.891 670.51 777.349 668.701C777.486 668.672 777.621 668.637 777.757 668.604Z"/><path fill="#1C1F38" d="M232.539 677.807C243.354 677.256 254.281 677.501 265.11 677.465C277.897 677.422 290.761 677.161 303.542 677.455C301.274 680.765 298.599 683.616 295.843 686.521Q275.653 686.145 255.459 686.186C247.468 686.206 238.503 685.646 230.702 687.466C239.269 688.698 248.969 687.494 257.666 687.467Q286.254 687.341 314.836 687.984C312.852 690.647 311.187 693.516 309.473 696.355C288.88 695.683 268.03 696.157 247.421 696.346C240.466 696.41 230.874 697.553 224.358 696.808C223.568 696.718 223.193 696.622 222.645 696.094C225.612 689.904 229.281 683.863 232.539 677.807Z"/><path fill="#1C1F38" d="M697.575 705.066C696.29 703.035 694.437 700.433 694.535 697.958C694.793 697.726 694.971 697.346 695.307 697.263C697.503 696.718 707.905 697.746 711.171 697.724C740.819 697.527 770.448 697.879 800.092 697.454C802.177 699.9 804.01 702.463 805.843 705.101C809.106 708.501 810.882 714.681 815.175 716.689L815.799 718.006C814.99 719.028 814.142 718.974 812.905 719.135C803.515 720.354 793.935 719.101 784.534 718.988L740.186 718.984C739.569 715.362 736.924 711.603 736.925 708.09C736.925 706.969 736.793 707.427 737.631 706.556L740.453 706.504L740.074 705.573L697.575 705.066Z"/><path fill="#38405B" d="M805.843 705.101C809.106 708.501 810.882 714.681 815.175 716.689L815.799 718.006C814.99 719.028 814.142 718.974 812.905 719.135C803.515 720.354 793.935 719.101 784.534 718.988C784.5 718.863 784.467 718.737 784.43 718.613L784.245 717.992C782.859 713.237 780.466 710.22 776.643 707.17C764.561 705.715 752.57 706.155 740.453 706.504L740.074 705.573C749.011 704.472 758.103 705.29 767.082 705.439Q786.467 705.763 805.843 705.101Z"/><path fill="#1C1F38" d="M740.453 706.504C752.57 706.155 764.561 705.715 776.643 707.17C780.466 710.22 782.859 713.237 784.245 717.992L784.43 718.613C784.467 718.737 784.5 718.863 784.534 718.988L740.186 718.984C739.569 715.362 736.924 711.603 736.925 708.09C736.925 706.969 736.793 707.427 737.631 706.556L740.453 706.504Z"/><path fill="#1C1F38" d="M221.524 698.037C243.557 697.284 265.79 698.743 287.764 697.66C286.163 700.306 284.655 703.091 282.714 705.503C274.723 705.49 223.739 704.25 219.845 706.635C227.177 708.263 247.066 706.737 255.752 706.653L327.294 706.522C325.38 710.771 324.006 714.921 322.766 719.404C307.28 718.977 292.009 719.35 276.533 719.405L209.549 719.404C212.88 712.161 217.089 704.662 221.524 698.037Z"/><path fill="#1C1F38" d="M388.133 704.052C389.52 704.62 390.858 705.037 392.359 705.178C394.29 705.36 415.703 705.214 416.584 704.837C417.065 704.632 416.947 704.61 417.124 704.096C418.188 705.691 419.48 705.504 421.248 706.055C462.487 706.679 503.77 705.898 545.013 705.959C549.48 705.953 553.964 706.035 558.428 705.9Q606.581 706.388 654.735 705.983C655.976 710.26 657.473 714.601 658.291 718.977L487.606 718.983Q430.49 718.71 373.374 719.114C371.777 719.073 370.592 719.302 369.228 718.434C368.135 714.815 372.145 709.302 373.696 705.875C371.509 705.158 367.816 705.542 365.445 705.465C371.835 704.074 380.163 704.982 386.728 705.035L388.133 704.052Z"/><path fill="#38405B" d="M388.133 704.052C389.52 704.62 390.858 705.037 392.359 705.178C394.29 705.36 415.703 705.214 416.584 704.837C417.065 704.632 416.947 704.61 417.124 704.096C418.188 705.691 419.48 705.504 421.248 706.055C413.766 707.53 382.427 707.301 374.769 706.051L374.098 705.946C373.963 705.924 373.83 705.898 373.696 705.875C371.509 705.158 367.816 705.542 365.445 705.465C371.835 704.074 380.163 704.982 386.728 705.035L388.133 704.052Z"/><path fill="#C7C7C7" d="M219.017 652.732C214.927 651.124 211.136 647.533 208.959 643.779C206.308 639.208 206.262 633.966 206.136 628.835C205.364 597.166 206.314 565.317 206.385 533.628L206.506 354.051L206.515 280.075C206.479 268.072 204.815 248.032 207.617 236.951C209.501 229.499 214.031 223.755 220.735 220.036C225.62 217.326 232.35 217.072 237.81 216.951C252.084 216.634 266.442 217.018 280.724 217.027L368.991 217.028L642.987 217.032L748.331 217.018C759.386 217.01 791.251 215.508 799.99 218.108C806.453 220.03 811.586 224.705 814.795 230.528C817.275 235.03 817.532 239.097 817.715 244.104C818.579 267.776 817.809 291.692 817.778 315.393L817.8 443.9L817.686 571.609C817.686 581.935 818.962 631.552 816.675 638.486C814.568 644.874 809.088 649.195 803.347 652.198C798.522 650.967 784.39 652.04 778.73 652.055L716.616 652.062L436.982 652.067L300.947 652.01L249.267 651.718C239.38 651.755 228.826 651.463 219.017 652.732Z"/><path fill="#1C1F38" d="M510.772 230.393C512.618 230.452 514.215 230.787 515.498 232.251C516.404 233.284 516.661 234.482 516.491 235.811C516.205 238.041 514.996 239.068 513.339 240.39C511.609 240.387 509.994 240.115 508.671 238.88C507.661 237.937 507.319 236.718 507.426 235.378C507.622 232.91 508.99 231.886 510.772 230.393Z"/><defs><linearGradient id="gradient_0" gradientUnits="userSpaceOnUse" x1="634.73029" y1="686.25763" x2="388.15768" y2="183.5139"><stop offset="0" stop-color="#0D1F3A"/><stop offset="1" stop-color="#0A3556"/></linearGradient></defs><path fill="url(#gradient_0)" d="M255.4 251.241L588.019 251.506L703.372 251.401L746.354 251.236C754.395 251.223 762.536 250.963 770.563 251.38C775.309 251.627 779.684 251.793 783.211 255.453C786.344 258.705 786.476 266.879 786.544 271.169C786.921 294.996 786.556 318.887 786.542 342.72L786.505 479.945L786.584 550.278C786.752 568.378 787.516 586.79 786.38 604.857C786.17 608.194 785.976 611.731 783.427 614.194C779.901 617.602 774.704 617.696 770.125 617.772L414.99 617.757L307.306 617.744C287.74 617.748 267.948 618.656 248.43 617.396C245.295 617.194 242.447 616.631 240.041 614.462C238.086 612.7 237.778 607.79 237.619 605.2C236.443 586.007 237.487 566.304 237.522 547.054L237.607 434.987L237.543 324.2C237.507 305.787 236.411 285.759 237.541 267.556C237.817 263.102 238.436 258.947 241.635 255.551C245.395 251.56 250.299 251.354 255.4 251.241Z"/><path fill="#DBDADA" d="M519.872 404.881C521.328 405.048 522.028 405.169 523.276 406.025C523.694 407.097 523.873 407.41 523.567 408.57C522.335 413.232 516.736 417.212 512.857 419.565C511.577 419.485 510.818 419.231 509.67 418.663C509.028 417.563 508.879 417.373 509.198 416.052C510.348 411.296 516.021 407.407 519.872 404.881Z"/><path fill="#DBDADA" d="M500.001 420.623C504.281 420.795 507.505 422.826 511.094 424.91C515.421 423.155 519.997 421.015 524.744 420.924C529.4 420.836 532.889 422.813 536.09 426.035C535.992 426.119 535.894 426.203 535.797 426.288L535.314 426.718C534.414 427.511 533.481 428.296 532.676 429.189C530.278 431.846 528.876 435.672 529.031 439.245C529.291 445.219 533.011 449.196 537.165 452.985C534.492 458.725 531.657 463.997 527.988 469.163C527.187 469.63 526.407 470.103 525.511 470.367C520.938 471.711 516.683 469.138 512.744 467.157L501.154 471.821C494.254 466.525 490.215 459.158 487.804 450.9C485.787 443.988 484.465 434.435 488.222 427.945C490.977 423.188 494.997 421.841 500.001 420.623Z"/></svg> 