<?xml version="1.0" encoding="utf-8" ?><!-- created by svgstack.com | Attribution is required. --><svg xmlns="http://www.w3.org/2000/svg" xmlns:xlink="http://www.w3.org/1999/xlink" width="1024" height="1024"><path fill="#BEBEBD" d="M134.73 833.915C135.386 837.408 138.744 841.264 141.586 843.238C144.432 845.214 147.676 846.343 151.074 846.916C159.375 848.315 168.06 847.326 176.428 847.174Q190.795 847.047 205.163 847.101L343.64 847.097L743.765 847.099L833.864 847.12C846.752 847.156 861.251 849.587 873.866 846.736C880.034 845.343 883.99 841.323 887.938 836.724C886.76 847.66 890.814 862.952 882.008 871.533C877.814 875.62 872.903 876.059 867.345 876.396C855.411 877.118 843.17 876.898 831.2 876.996C812.403 877.148 793.588 877.436 774.791 877.312C768.729 877.272 762.679 876.861 756.618 876.803L630.116 876.748L160.768 876.85C153.231 876.838 146.24 876.339 140.722 870.571C132.458 861.931 134.377 844.914 134.73 833.915Z"/><path fill="#E4E3E2" d="M215.037 559.852C228.482 558.13 242.742 559.02 256.301 559.019L326.89 559.015L570.697 559.022L735.488 559.032L781.854 559.008C790.395 559.006 799.764 558.272 808.18 559.721C821.348 566.953 827.694 571.654 832.075 586.671C836.892 603.183 840.052 620.536 843.929 637.317L862.817 717.079L878.988 785.916C882.122 799.137 885.909 812.6 888.131 825.992C888.712 829.495 888.225 833.201 887.938 836.724C883.99 841.323 880.034 845.343 873.866 846.736C861.251 849.587 846.752 847.156 833.864 847.12L743.765 847.099L343.64 847.097L205.163 847.101Q190.795 847.047 176.428 847.174C168.06 847.326 159.375 848.315 151.074 846.916C147.676 846.343 144.432 845.214 141.586 843.238C138.744 841.264 135.386 837.408 134.73 833.915C134.786 829.215 135.699 824.607 136.632 820.015C140.649 800.238 145.687 780.672 150.256 761.02L175.83 651.696L185.364 611.436C187.961 600.294 189.829 586.883 195.071 576.665C199.206 568.605 206.475 562.679 215.037 559.852Z"/><path fill="#1D2733" d="M300.608 584.11C311.169 583.613 322.973 583.264 333.386 584.866C333.888 589.349 334.689 599.843 331.62 603.423C330.684 604.515 329.422 604.367 328.125 604.487C320.069 604.487 301.586 606.228 294.756 603.561C294.303 603.057 293.98 602.599 293.814 601.927C292.763 597.67 293.696 589.832 296.192 586.292C297.418 584.553 298.649 584.407 300.608 584.11Z"/><path fill="#1D2733" d="M388.91 584.202C395.718 583.356 414.379 582.53 420.115 585.387C420.822 586.539 421.133 587.506 421.27 588.86C421.596 592.091 421.265 601.37 419.347 603.708C417.849 604.523 416.77 604.506 415.125 604.493C410.337 604.47 385.906 605.762 382.947 603.584C381.377 602.429 381.089 598.339 381.018 596.549C380.875 592.899 381.084 587.938 383.896 585.26C385.165 584.052 387.269 584.25 388.91 584.202Z"/><path fill="#1D2733" d="M426.692 584.041C433.832 584.012 456.779 582.938 462.205 585.091C463.132 585.459 463.275 585.731 463.638 586.683C465.325 591.107 464.832 600.39 462.659 604.484C455.002 604.518 431.627 605.805 425.744 603.53C425.088 602.853 424.792 602.286 424.602 601.376C423.548 596.336 423.778 588.359 426.692 584.041Z"/><path fill="#1D2733" d="M660.535 584.246C667.903 583.847 676.231 583.85 683.496 585.218C684.586 587.457 685.224 589.695 685.673 592.138C686.209 595.056 687.633 601.363 685.65 603.815C684.488 605.251 674.786 604.71 672.625 604.725C668.136 604.753 650.387 605.63 647.81 603.429C645.773 601.688 645.274 596.186 645.067 593.572C644.841 590.711 644.726 587.006 646.685 584.701C650.951 583.73 656.141 584.26 660.535 584.246Z"/><path fill="#1D2733" d="M515.739 584.069C523.311 583.958 541.134 582.253 547.764 584.577C549.613 585.225 551.091 586.291 551.939 588.1C553.223 590.84 553.357 599.777 552.029 602.517C551.425 603.763 550.816 604.008 549.577 604.485C541.61 604.628 522.433 605.687 515.738 604.507C514.313 604.256 513.594 603.868 512.83 602.593C510.78 599.174 511.51 591.259 512.562 587.552C513.133 585.54 514.017 585.019 515.739 584.069Z"/><path fill="#1D2733" d="M561.998 584.179C570.8 583.267 587.759 582.743 595.704 585.875C596.474 588.924 596.826 592.089 597.189 595.212C597.537 598.206 597.626 601.372 595.653 603.858C594.225 604.859 592.543 604.582 590.876 604.553C583.899 604.842 563.803 605.944 558.117 603.821C556.874 602.496 556.513 601.032 556.304 599.264C555.893 595.788 555.041 588.007 557.515 585.315C558.685 584.042 560.411 584.21 561.998 584.179Z"/><path fill="#1D2733" d="M469.074 584.619C478.359 583.482 488.709 584.072 498.07 584.463C500.473 584.564 506.206 584.592 507.843 586.373C509.388 589.777 509.132 594.325 508.726 597.994C508.395 600.987 508.276 602.432 505.877 604.359C499.71 604.897 473.547 605.891 469.041 603.698C468.332 602.718 467.976 601.925 467.705 600.735C466.63 596.021 466.566 588.8 469.074 584.619Z"/><path fill="#1D2733" d="M340.059 584.103C346.972 583.939 372.532 582.507 376.807 586.142C378.653 589.612 378.115 594.552 377.676 598.346C377.368 601.001 376.743 602.8 374.639 604.477C368.602 604.478 340.857 606.101 337.514 603.266C336.789 602.65 336.653 601.233 336.593 600.342C336.245 595.183 336.53 588.129 340.059 584.103Z"/><path fill="#1D2733" d="M613.373 584.255C621.676 583.791 632.017 583.432 640.03 585.6C640.775 587.572 641.276 589.663 641.607 591.744C642.149 595.151 643.267 601.13 641.159 604.062C638.393 605.204 633.683 604.697 630.625 604.732C625.995 604.756 605.323 605.725 602.677 603.391C601.069 601.972 600.691 599.304 600.424 597.287C599.917 593.448 599.743 587.834 602.181 584.691C605.525 583.826 609.885 584.278 613.373 584.255Z"/><path fill="#1D2733" d="M255.944 584.19C264.113 583.634 272.717 583.66 280.9 583.901C283.817 583.987 288.17 583.79 290.251 586.015C291.477 589.933 291.177 594.526 289.827 598.371C289.332 599.783 288.891 602.156 287.877 603.26C286.421 604.847 283.36 604.616 281.375 604.659C276.107 604.742 253.784 606.011 250.23 603.958C248.7 603.074 247.912 601.344 247.675 599.653C247.123 595.719 248.738 588.892 251.423 585.791C252.723 584.289 254.107 584.303 255.944 584.19Z"/><path fill="#1D2733" d="M410.619 608.223C416.94 607.959 435.07 606.305 440.227 609.636C440.791 610.001 440.847 610.717 440.993 611.331C442.159 616.246 442.273 634.293 439.784 638.286C437.925 638.94 436.069 638.917 434.125 638.979C423.23 639.298 412.309 639.735 401.499 638.076C401.477 632.065 400.608 613.287 404.205 609.083C406.215 608.111 408.428 608.278 410.619 608.223Z"/><path fill="#1D2733" d="M502.18 608.238C511.703 607.67 521.556 607.765 531.031 608.87C532.186 615.409 533.672 631.141 531.16 637.304C528.553 639.518 524.601 639.005 521.375 639.037C511.979 639.713 502.128 639.356 492.745 638.597C491.94 635.49 491.703 632.285 491.537 629.09C491.309 624.697 490.051 612.319 493.192 609.347C494.823 607.804 500.006 608.263 502.18 608.238Z"/><path fill="#1D2733" d="M634.193 608.122C639.015 607.922 659.453 607.092 662.867 608.239C665.145 609.003 666.725 610.608 667.737 612.758C669.744 617.022 671.737 633.744 670.103 638.015C668.702 639.165 667.85 638.91 666.073 638.984C658.616 638.879 637.574 641.075 631.911 638.197C630.437 635.893 629.912 633.41 629.504 630.729C628.869 626.555 626.645 612.539 629.266 609.553C630.387 608.275 632.611 608.299 634.193 608.122Z"/><path fill="#1D2733" d="M453.083 608.102C461.81 607.945 477.637 606.431 485.325 609.255C486.231 610.19 486.44 610.588 486.722 611.908C487.746 616.714 487.979 634.277 485.592 638.095C484.055 639.05 483.4 638.928 481.625 638.979C469.91 639.26 458.044 639.899 446.431 638.063C446.042 631.802 444.63 614.392 448.041 609.405C449.572 608.261 451.23 608.287 453.083 608.102Z"/><path fill="#1D2733" d="M651.203 642.493C657.587 642.587 682.581 640.766 687.24 643.878C690.188 645.848 689.607 655.04 690.022 658.476C690.32 660.932 690.963 663.335 691.361 665.775C691.862 668.844 691.685 671.273 689.826 673.81C679.324 674.923 662.665 675.017 652.375 672.957C651.349 668.639 650.708 664.247 650.141 659.847C649.478 654.697 647.826 646.867 651.203 642.493Z"/><path fill="#1D2733" d="M589.283 608.194C589.42 608.173 589.555 608.142 589.692 608.131C595.039 607.719 617.808 606.888 621.353 609.647C625.173 616.119 624.536 630.428 624.455 638.18L619.147 638.94C607.38 639.117 595.726 639.537 583.993 638.348C582.947 631.939 580.531 614.425 583.586 609.198C585.187 608.148 587.419 608.303 589.283 608.194Z"/><path fill="#1D2733" d="M541.04 608.099C552.67 607.835 564.793 606.906 576.262 609.104C577.742 614.103 579.956 633.344 577.295 637.427C576.575 638.531 576.279 638.611 575.088 638.921C564.495 639.621 547.024 640.566 537.07 637.204C536.806 631.197 534.989 614.895 537.785 609.908C538.492 608.648 539.753 608.441 541.04 608.099Z"/><path fill="#1D2733" d="M680.803 608.227C691.471 607.467 702.63 607.641 713.243 608.836C714.72 614.772 715.616 620.803 716.401 626.863C716.739 629.477 718.187 636.316 716.559 638.422C714.568 639.206 712.482 639.019 710.375 639.01C699.568 639.465 687.9 639.961 677.224 638.24C675.246 631.205 674.115 623.557 673.586 616.256C673.416 613.92 673.127 610.998 674.745 609.123C676.636 608.014 678.675 608.238 680.803 608.227Z"/><path fill="#1D2733" d="M313.731 608.069C323.151 607.962 338.095 606.63 346.941 608.177C348.84 608.509 350.265 608.901 351.402 610.504C352.522 617.305 351.196 627.457 349.467 634.147C348.901 636.338 348.483 637.777 346.488 638.958C340.32 639.134 312.723 640.516 308.694 637.56C308.028 637.072 307.976 635.973 307.944 635.199C307.839 632.668 310.692 613.837 311.614 611.266C312.068 610 312.84 609.052 313.731 608.069Z"/><path fill="#1D2733" d="M560.124 642.487C568.08 642.458 589.058 640.826 595.654 643.588C596.96 644.134 597.687 644.79 598.092 646.163C598.398 647.201 599.594 668.364 599.446 670.065C599.323 671.48 598.689 672.719 598.048 673.963C589.781 674.02 565.713 675.984 559.629 672.354C559.199 671.686 558.93 671.088 558.767 670.306C557.747 665.417 557.048 651.062 558.179 646.296C558.518 644.871 559.316 643.685 560.124 642.487Z"/><path fill="#1D2733" d="M377.653 607.743Q382.797 607.74 387.937 607.926C390.765 608.024 395.101 607.935 397.121 610.102C397.881 616.762 397.56 632.009 395.099 638.154C392.418 640.17 379.412 639.413 375.243 639.495C368.509 639.503 361.772 639.503 355.111 638.39Q354.945 636.819 354.867 635.241C354.582 629.287 354.735 614.004 358.841 609.486C363.871 606.962 372.021 607.886 377.653 607.743Z"/><path fill="#1D2733" d="M421.173 642.486C428.226 642.646 453.12 640.567 458.093 644.193C460.026 648.943 458.975 659.819 458.819 665.179C458.709 668.953 458.268 671.576 455.473 674.242C448.802 674.421 424.056 675.854 419.399 672.837C418.226 672.078 417.899 671.217 417.663 669.89C416.931 665.777 417.85 650.173 419.087 646.117C419.491 644.792 420.382 643.605 421.173 642.486Z"/><path fill="#1D2733" d="M623.027 642.243C629.539 642.031 636.489 642.004 642.902 643.201C644.82 650.015 648.061 666.675 644.721 673.003C642.154 675.263 631.665 674.221 628.125 674.229C620.783 674.352 612.97 674.331 605.799 672.666C605.32 671.32 604.963 669.988 604.743 668.575C603.945 663.459 601.746 646.74 604.727 643.21C606.113 641.567 620.048 642.259 623.027 642.243Z"/><path fill="#1D2733" d="M328.348 642.486L349.321 642.47C353.652 642.449 358.261 642.11 362.551 642.739C364.19 642.98 365.468 643.144 366.473 644.507C367.444 650.363 366.212 662.466 364.741 668.33C364.064 671.027 363.563 672.407 361.154 673.871C348.693 674.34 334.58 675.629 322.446 672.516Q322.376 671.271 322.349 670.024C322.229 664.16 323.391 650.651 325.954 645.475C326.507 644.358 327.495 643.382 328.348 642.486Z"/><path fill="#1D2733" d="M482.628 642.245C490.08 641.833 497.88 642.256 505.317 642.896C505.921 649.034 507.567 668.294 503.712 673.093C499.606 675.13 492.467 674.251 487.884 674.226C481.437 674.251 474.49 674.612 468.125 673.592C466.176 673.28 464.79 673.031 463.577 671.411C462.315 663.622 463.289 651.273 464.583 643.4C470.493 642.222 476.626 642.365 482.628 642.245Z"/><path fill="#1D2733" d="M512.987 642.494C521.143 642.541 544.377 641.1 550.559 643.603C551.897 644.729 552.271 646.201 552.588 647.866C553.803 654.248 554.944 668.551 551.287 673.949C538.213 674.32 524.059 675.448 511.211 672.724Q511.013 671.599 510.876 670.465C510.007 663.525 508.858 647.859 512.987 642.494Z"/><path fill="#1D2733" d="M391.189 642.259C397.14 641.915 405.737 641.381 411.447 642.944C412.091 643.12 412.839 643.177 413.119 643.853C414.831 647.986 412.933 668.671 411.029 673.095C408.129 675.553 396.337 674.276 392.202 674.225C387.588 674.399 375.304 675.751 371.763 673.818C371.04 673.424 370.769 672.445 370.581 671.684C368.978 665.191 370.572 649.242 373.895 643.493C376.53 641.229 387.563 642.281 391.189 642.259Z"/><path fill="#1D2733" d="M666.456 677.746C670.886 677.755 676.704 677.113 680.815 678.649C682.733 680.616 683.411 683.22 683.989 685.843C685.23 691.475 687.523 704.412 684.285 709.534C681.008 711.484 663.214 710.676 658.629 710.74C653.181 710.781 647.719 710.874 642.357 709.789Q640.74 705.069 640.049 700.127C639.498 696.193 637.963 682.087 640.011 679.363C645.812 677.133 659.71 677.916 666.456 677.746Z"/><path fill="#1D2733" d="M311.376 677.74C317.823 677.783 326.709 676.755 332.816 678.808C334.125 680.005 334.163 681.196 334.269 682.927C334.681 689.662 333.704 704.485 329.077 709.785C324.291 711.834 312.535 710.723 306.875 710.69C301.308 710.3 290.278 712.269 285.545 709.627C284.694 709.152 284.511 708.499 284.314 707.583C283.101 701.937 286.217 683.794 289.318 679.109C293.292 676.859 306.159 677.847 311.376 677.74Z"/><path fill="#1D2733" d="M698.493 678.225C708.674 677.565 725.751 677.089 735.659 679.213C738.099 688.819 740.385 698.433 740.55 708.398C737.89 710.001 736.274 710.498 733.125 710.496C726.271 710.438 699.544 712.07 694.267 709.363C690.539 705.249 690.036 695.089 689.634 689.843C689.465 687.637 688.734 681.311 690.411 679.73C692.301 677.947 696.046 678.293 698.493 678.225Z"/><path fill="#1D2733" d="M360.863 677.747C369.117 677.765 378.98 676.658 386.948 678.826C388.162 679.968 388.325 681.303 388.507 682.932C389.19 689.036 388.773 704.496 384.883 709.424C380.242 711.802 371.544 710.553 366.25 710.491C360.94 710.463 342.245 711.84 338.696 709.301C337.941 708.761 337.688 707.004 337.6 706.114C337.017 700.263 338.536 683.526 342.593 679.035C344.643 676.765 357.589 677.761 360.863 677.747Z"/><path fill="#1D2733" d="M753.07 678.249C765.621 677.094 779.152 678.236 791.771 678.536C793.33 689.287 796.735 699.629 797.72 710.49L788.461 710.501C780.185 710.894 756.873 712.026 750.1 709.343C748.716 708.795 747.773 708.087 747.2 706.642C745.379 702.055 742.503 683.016 744.302 678.911C746.857 678.11 750.361 678.349 753.07 678.249Z"/><path fill="#1D2733" d="M239.352 678.219C246.969 677.995 273.836 676.508 279.398 679.087C280.59 680.611 280.878 681.936 280.945 683.865C281.091 688.072 278.872 706.576 275.726 709.29C273.805 710.948 271.252 710.539 268.875 710.513C255.263 710.836 240.485 711.782 227.015 709.822C226.981 702.707 228.903 684.48 233.071 678.954C234.886 678.104 237.364 678.296 239.352 678.219Z"/><path fill="#1D2733" d="M701.817 584.258C725.478 583.31 749.298 583.97 772.97 584.355C774.338 590.946 775.81 597.481 776.062 604.232C772.006 604.659 767.829 604.481 763.75 604.487C755.106 604.485 696.266 605.638 691.944 603.605C689.896 601.246 689.408 598.204 689.123 595.172C688.893 592.734 688.235 587.442 690.114 585.672C692.629 583.304 698.554 584.188 701.817 584.258Z"/><path fill="#1D2733" d="M721.72 608.069C740.172 607.618 758.726 608.013 777.19 608.004C778.759 615.339 780.598 622.647 782.007 630.01C782.447 632.31 783.694 636.928 782.345 638.935C763.306 639.137 743.745 640.386 724.804 638.311C723.915 631.914 722.349 625.542 721.256 619.165C720.632 615.524 719.453 611.278 721.72 608.069Z"/><path fill="#1D2733" d="M286.334 607.75C292.826 607.761 299.266 608.062 305.707 608.896C305.707 615.133 304.683 633.839 300.373 638.278C295.143 640.625 268.709 639.919 261.625 639.521C254.287 639.577 247.123 639.06 239.846 638.213C240.608 633.045 243.765 612.727 246.722 609.7C247.785 608.611 249.205 608.039 250.681 607.773C254.827 607.026 259.993 607.683 264.241 607.745Q275.288 607.846 286.334 607.75Z"/><path fill="#1D2733" d="M255.904 642.234C265.882 642.125 314.025 641.063 319.295 643.822C319.603 644.774 319.842 645.652 319.905 646.657C320.197 651.307 318.435 668.787 315.399 672.024C312.027 675.62 302.187 674.018 297.589 673.977C276.206 674.6 254.549 674.666 233.196 673.392C233.521 667.497 236.059 647.477 239.69 643.663C241.764 641.485 252.47 642.306 255.904 642.234Z"/><path fill="#1D2733" d="M695.239 642.509L784.292 642.494C785.364 648.546 787.044 654.564 788.332 660.583C788.985 663.639 791.125 671.545 789.41 674.197C773.61 674.426 757.787 674.134 741.983 674.238C727.746 674.332 711.96 676.109 698.032 673.198C695.956 666.091 692.771 649.432 695.239 642.509Z"/><path fill="#1D2733" d="M422.005 677.739Q496.077 678.355 570.151 678.025L603.936 677.983C612.628 677.905 622.107 677.037 630.639 678.688C632.324 680.124 633.017 681.676 633.495 683.832C634.419 688.002 636.563 705.463 633.989 708.623C633.068 709.753 631.62 710.273 630.222 710.48C624.724 711.293 613.028 710.488 606.75 710.491L470.25 710.231L420.822 710.516C412.455 710.516 403.425 711.183 395.17 709.802C394.213 709.161 393.742 708.298 393.389 707.223C391.275 700.779 393.677 683.99 396.717 678.072Q409.364 678.099 422.005 677.739Z"/><path fill="#BEBEBD" d="M423.83 728.099C431.992 727.777 440.267 728.005 448.442 727.92Q489.499 727.634 530.556 728.015L572.136 727.965C581.451 727.894 590.957 727.437 600.251 728.104C602.319 728.253 604.172 728.491 605.85 729.805C607.434 731.045 607.84 734.217 608.162 736.098C609.294 742.7 609.553 749.519 610.038 756.198Q611.031 769.828 612.174 783.447L614.212 808.989C614.542 813.12 615.262 817.535 615.161 821.667C615.118 823.451 614.804 825.422 613.574 826.807C610.619 830.136 604.158 829.259 600.125 829.189L475.911 829.182C461.664 829.19 421.154 831.268 409.665 827.783C408.777 826.959 408.599 826.655 408.327 825.421C407.278 820.667 415.493 744.146 416.953 734.703C417.163 733.345 417.351 731.65 418.266 730.549C419.553 729.002 421.986 728.523 423.83 728.099Z"/><path fill="#BEBEBD" d="M215.037 559.852C210.519 555.105 206.958 550.401 205.737 543.744C204.377 536.322 204.13 528.527 203.702 521.005Q202.845 503.864 201.791 486.733L193.53 363.709L184.54 227.249L182.264 189.699C181.806 182.346 180.986 174.895 181.169 167.529C181.36 159.802 183.704 153.455 189.425 148.076C192.937 144.772 197.042 142.778 201.89 142.491C212.313 141.875 222.96 142.507 233.405 142.585L291.875 142.839L474.148 142.755L709.133 142.596L783.38 142.596C794.986 142.583 806.846 141.927 818.426 142.447C825.581 142.768 831.518 144.655 836.529 150.055C843.238 157.284 843.811 166.443 843.29 175.755C842.135 196.405 840.018 217.035 838.533 237.668L826.221 409.333L820.091 501.923C819.156 516.016 819.444 530.541 817.378 544.512C816.602 549.758 814.975 553.84 810.947 557.49C810.062 558.292 809.153 559.03 808.18 559.721C799.764 558.272 790.395 559.006 781.854 559.008L735.488 559.032L570.697 559.022L326.89 559.015L256.301 559.019C242.742 559.02 228.482 558.13 215.037 559.852Z"/><path fill="#1D2733" d="M212.783 166.712C220.131 165.953 227.982 166.538 235.377 166.63Q252.03 166.826 268.684 166.745L398.284 166.742L809.429 166.303C813.319 166.304 818.899 166.501 821.662 169.645C823.625 171.879 823.438 178.793 823.363 181.733C822.999 195.835 821.435 209.971 820.409 224.041L815.045 300.413L800.557 526.376C800.455 530.576 800.112 534.793 799.874 538.988L223.53 539.01C222.14 508.506 219.685 477.968 217.747 447.487L205.699 257.829Q204.206 231.755 202.305 205.708C201.739 198.407 199.335 178.875 200.134 172.938C200.305 171.668 200.753 170.458 201.625 169.498C204.357 166.486 209.091 166.871 212.783 166.712Z"/><path fill="#E4E3E2" d="M510.738 174.85C512.883 175.265 515.346 175.887 516.696 177.762C517.501 178.88 517.601 180.132 517.338 181.444C516.882 183.72 514.907 184.964 513.169 186.226C512.583 186.221 512.087 186.236 511.497 186.128C509.875 185.829 508.018 184.824 507.132 183.393C506.407 182.224 506.332 180.704 506.63 179.389C507.167 177.025 508.837 176.089 510.738 174.85Z"/><path fill="#417E7D" d="M219.816 196.004L507.935 196.483C493.288 221.558 476.693 245.727 461.29 270.368L353.211 442.887L326.542 485.537C321.751 493.128 311.865 505.702 309.487 513.743Q275.247 513.204 241.013 514.027C239.714 500.241 239.227 486.329 238.328 472.51L233.182 396.465Q225.944 296.27 219.816 196.004Z"/><path fill="#115358" d="M705.872 196.503L770.119 196.775C782.34 196.751 794.87 195.91 807.05 196.699C802.49 250.605 799.541 304.746 795.998 358.732C792.614 410.298 788.59 461.909 785.951 513.512L509.555 513.498C516.863 501.268 524.751 489.384 532.403 477.368L564.516 426.425L659.453 275.727L696.657 216.63C698.967 212.965 707.367 201.105 708.485 197.681L708.068 196.921L705.872 196.503Z"/><path fill="#146F7D" d="M507.935 196.483L705.872 196.503L708.068 196.921L708.485 197.681C707.367 201.105 698.967 212.965 696.657 216.63L659.453 275.727L564.516 426.425L532.403 477.368C524.751 489.384 516.863 501.268 509.555 513.498L309.487 513.743C311.865 505.702 321.751 493.128 326.542 485.537L353.211 442.887L461.29 270.368C476.693 245.727 493.288 221.558 507.935 196.483Z"/></svg> 