<?xml version="1.0" encoding="utf-8" ?><!-- created by svgstack.com | Attribution is required. --><svg xmlns="http://www.w3.org/2000/svg" xmlns:xlink="http://www.w3.org/1999/xlink" width="1024" height="1024"><path fill="#282628" d="M215.362 152.714C215.789 152.685 216.217 152.67 216.645 152.663Q287.738 152.11 358.831 152.535L617.914 152.575L750.829 152.563L790.662 152.539C798.207 152.535 806.154 152.031 813.641 152.942C824.569 154.272 834.812 158.725 842.71 166.499C853.501 177.121 856.582 190.347 856.65 204.999L856.662 534.541L856.843 636.377L856.872 666.708C856.869 674.209 857.142 681.919 856.147 689.362Q856.023 690.274 855.862 691.181Q855.7 692.087 855.502 692.986Q855.304 693.885 855.07 694.776Q854.835 695.666 854.565 696.546Q854.294 697.426 853.987 698.294Q853.681 699.162 853.34 700.017Q852.998 700.872 852.622 701.713Q852.246 702.553 851.836 703.377Q851.426 704.202 850.983 705.009Q850.54 705.816 850.064 706.604Q849.588 707.392 849.081 708.16Q848.573 708.928 848.035 709.675Q847.496 710.422 846.928 711.146Q846.359 711.87 845.762 712.571Q845.165 713.271 844.539 713.947Q843.914 714.622 843.261 715.272C837.617 720.868 829.871 725.592 821.985 727.04C812.471 728.787 802.34 728.017 792.702 727.998L749.671 727.955L585.873 727.984L585.785 765.688C585.502 779.403 584.153 794.516 586.865 808.028C589.453 820.922 596.463 831.229 607.347 838.536C614.327 837.798 621.439 838.431 627.835 841.461C636.298 845.469 641.985 853.203 645.088 861.906C646.026 864.534 646.973 867.196 645.711 869.858C644.42 871.218 642.874 871.326 641.093 871.531C632.101 872.563 622.204 871.529 613.117 871.492L557.555 871.474L439.641 871.491C421.551 871.518 403.427 871.926 385.342 871.706C382.853 871.676 380.023 871.946 378.023 870.329C377.634 869.222 377.458 868.355 377.504 867.171C377.677 862.689 379.398 857.972 381.614 854.102C393.397 833.528 412.184 844.449 425.292 831.534C430.606 826.298 433.648 818.893 435.117 811.684C437.409 800.435 436.323 788.347 436.268 776.913L436.203 728.001L276.229 727.969L233.143 728.011C224.107 728.018 214.612 728.6 205.677 727.197Q204.095 726.938 202.535 726.568Q200.975 726.198 199.444 725.721Q197.914 725.243 196.42 724.66Q194.927 724.077 193.478 723.39Q192.029 722.704 190.632 721.918Q189.234 721.133 187.895 720.251Q186.556 719.37 185.281 718.397Q184.007 717.424 182.804 716.364C173.564 708.217 169.022 697.323 168.231 685.235C167.479 673.754 167.967 662.028 167.993 650.521L168.029 591.24L168.024 401.245L168.014 261.667L167.994 218.666C167.994 210.706 167.51 202.348 168.386 194.443Q168.569 192.665 168.887 190.907Q169.206 189.148 169.659 187.419Q170.112 185.69 170.697 184.001Q171.282 182.312 171.995 180.674Q172.707 179.035 173.544 177.455Q174.381 175.876 175.337 174.366Q176.292 172.856 177.361 171.423Q178.43 169.991 179.606 168.645C188.983 158.08 201.527 153.589 215.362 152.714Z"/><path fill="#2FA3B9" d="M637.457 860.992C638.003 862.29 638.452 863.293 638.431 864.737C637.54 865.619 635.777 865.43 634.516 865.474C623.917 865.842 613.189 865.516 602.579 865.509L542.489 865.499L394.015 865.714C390.998 865.697 387.967 865.716 384.991 865.161L384.573 864.607C384.838 863.361 385.064 862.218 385.641 861.068L531.216 861.082C566.612 861.086 602.068 861.519 637.457 860.992Z"/><path fill="#7FCED1" d="M385.641 861.068C388.726 855.308 392.929 850.029 398.914 847.101C402.857 845.173 406.389 844.915 410.711 844.693C422.586 844.084 434.632 844.49 446.529 844.49L511.673 844.494L577.172 844.487C589.327 844.469 601.456 844.029 613.611 844.588C616.52 844.722 619.166 844.992 621.931 845.984C629.176 848.582 634.21 854.23 637.457 860.992C602.068 861.519 566.612 861.086 531.216 861.082L385.641 861.068Z"/><path fill="#2FA3B9" d="M442.484 728.193L580.012 728.299C580.015 732.264 580.342 736.459 579.669 740.365C578.507 739.892 579.029 739.851 577.958 740.315C573.314 742.327 568.52 746.308 564.322 749.182Q554.353 756.132 543.901 762.333C512.972 780.416 476.483 797.531 442.39 808.38C442.949 797.174 442.588 785.856 442.525 774.644L442.484 728.193Z"/><path fill="#7FCED1" d="M442.39 808.38C476.483 797.531 512.972 780.416 543.901 762.333Q554.353 756.132 564.322 749.182C568.52 746.308 573.314 742.327 577.958 740.315C579.029 739.851 578.507 739.892 579.669 740.365C579.534 751.908 579.872 763.453 579.734 774.984C579.419 801.131 577.81 817.593 596.234 838.216L427.147 838.253C434.767 828.956 439.549 820.073 442.39 808.38Z"/><path fill="#E3E2E1" d="M174.999 607.505L174.938 316.524L174.931 236.529C174.882 222.193 173.389 207.425 175.388 193.192C176.635 184.311 180.862 176.778 187.182 170.485C193.7 163.995 201.405 160.721 210.525 159.784C219.499 158.861 228.648 159.208 237.661 159.221L278.47 159.271L411.405 159.38L806.388 159.002C818.861 159.094 829.863 163.039 838.703 172.149Q839.821 173.289 840.842 174.517Q841.862 175.745 842.779 177.053Q843.695 178.36 844.501 179.739Q845.307 181.117 845.997 182.557Q846.687 183.997 847.257 185.489Q847.826 186.981 848.271 188.514Q848.716 190.048 849.034 191.612Q849.352 193.177 849.54 194.763C851.225 208.778 849.861 223.548 849.778 237.655L849.576 319.584L849.56 607.535L839.819 607.568C832.053 607.228 824.264 607.467 816.494 607.598L816.509 338.881L816.463 251.808C816.467 237.336 817.249 222.695 816.455 208.25C816.225 204.067 816.097 197.951 812.993 194.868C810.17 192.063 805.994 191.492 802.195 191.276C793.741 190.795 785.214 191.163 776.751 191.252L744.061 191.319L621.42 191.3L229.083 191.008C224.435 190.993 212.815 189.874 209.656 193.806C208.114 195.727 207.696 198.529 207.56 200.905C206.592 217.837 207.307 234.929 207.358 251.881L207.421 337.388L207.311 607.949C198.99 606.852 190.13 607.339 181.747 607.562L174.999 607.505Z"/><path fill="#E3E2E1" d="M820.217 609.256C830.005 609.948 840.041 609.514 849.857 609.492L850.116 667.758C850.306 683.47 850.293 698.067 838.532 709.925C832.332 716.175 824.137 719.46 815.486 720.473C807.934 721.358 800.091 721.016 792.495 721.03L756.638 721.076L641.263 721.31L221.44 721.39C207.573 721.518 196.02 719.877 185.807 709.699C181.216 705.123 177.721 699.216 176.1 692.923C173.074 681.18 174.84 667.815 174.917 655.766L175 609.491Q182.572 609.519 190.144 609.434C208.725 610.371 227.459 609.965 246.061 609.916Q289.428 609.573 332.796 609.757L624.689 609.836L752.76 609.815Q776.841 610.033 800.921 609.696C807.041 609.633 814.22 610.29 820.217 609.256Z"/><path d="M510.999 635.676C514.761 635.603 519.58 637.222 522.808 639.012Q523.354 639.312 523.884 639.641Q524.414 639.969 524.926 640.324Q525.439 640.679 525.932 641.061Q526.425 641.442 526.898 641.848Q527.371 642.254 527.822 642.684Q528.273 643.114 528.702 643.567Q529.13 644.02 529.535 644.494Q529.939 644.969 530.318 645.463Q530.698 645.958 531.051 646.471Q531.405 646.985 531.731 647.516Q532.057 648.047 532.356 648.595Q532.654 649.142 532.924 649.704Q533.194 650.266 533.434 650.841Q533.674 651.416 533.885 652.003Q534.095 652.59 534.275 653.187Q534.454 653.784 534.603 654.389C536.174 660.646 535.258 667.043 531.849 672.536C527.343 679.795 520.73 682.562 512.822 684.471C507.567 684.383 502.184 683.104 497.764 680.192Q497.262 679.859 496.776 679.502Q496.291 679.145 495.824 678.763Q495.358 678.382 494.911 677.978Q494.464 677.574 494.037 677.148Q493.611 676.722 493.206 676.275Q492.802 675.829 492.42 675.362Q492.039 674.896 491.681 674.411Q491.323 673.926 490.99 673.424Q490.657 672.922 490.349 672.404Q490.041 671.886 489.76 671.353Q489.479 670.82 489.224 670.274Q488.97 669.727 488.743 669.169Q488.516 668.611 488.318 668.042Q488.119 667.473 487.95 666.894Q487.78 666.316 487.639 665.73Q487.498 665.144 487.387 664.552Q487.275 663.942 487.193 663.326Q487.112 662.711 487.062 662.092Q487.012 661.474 486.993 660.853Q486.974 660.233 486.987 659.613Q486.999 658.992 487.043 658.373Q487.087 657.754 487.162 657.138Q487.237 656.522 487.344 655.91Q487.45 655.299 487.587 654.693Q487.724 654.088 487.891 653.49Q488.058 652.893 488.255 652.304Q488.453 651.716 488.679 651.138Q488.906 650.56 489.162 649.995Q489.417 649.429 489.701 648.877Q489.985 648.325 490.296 647.789Q490.608 647.252 490.946 646.731Q491.284 646.211 491.648 645.708C496.493 639.065 503.271 636.855 510.999 635.676Z"/><path fill="#282628" d="M509.106 642.089C513.257 641.849 517.441 642.773 520.927 645.074Q521.304 645.32 521.668 645.585Q522.032 645.849 522.382 646.132Q522.732 646.415 523.068 646.715Q523.403 647.015 523.723 647.332Q524.043 647.648 524.347 647.98Q524.65 648.313 524.937 648.66Q525.223 649.007 525.491 649.369Q525.76 649.73 526.01 650.104Q526.26 650.478 526.49 650.865Q526.721 651.251 526.932 651.649Q527.143 652.047 527.334 652.454Q527.524 652.862 527.694 653.279Q527.864 653.696 528.012 654.121Q528.161 654.546 528.288 654.977Q528.414 655.409 528.519 655.847Q528.624 656.285 528.707 656.727C529.588 661.503 528.624 666.627 525.816 670.618C522.877 674.794 518.563 677.05 513.619 677.907C509.764 678.161 505.758 677.615 502.359 675.695Q501.58 675.248 500.849 674.725Q500.119 674.202 499.445 673.608Q498.77 673.015 498.159 672.356Q497.548 671.698 497.006 670.981Q496.464 670.265 495.997 669.497Q495.53 668.73 495.142 667.919Q494.755 667.109 494.45 666.264Q494.146 665.419 493.928 664.547C492.685 659.629 493.665 654.082 496.457 649.854C499.482 645.272 503.876 643.16 509.106 642.089Z"/><path d="M207.311 607.949L207.421 337.388L207.358 251.881C207.307 234.929 206.592 217.837 207.56 200.905C207.696 198.529 208.114 195.727 209.656 193.806C212.815 189.874 224.435 190.993 229.083 191.008L621.42 191.3L744.061 191.319L776.751 191.252C785.214 191.163 793.741 190.795 802.195 191.276C805.994 191.492 810.17 192.063 812.993 194.868C816.097 197.951 816.225 204.067 816.455 208.25C817.249 222.695 816.467 237.336 816.463 251.808L816.509 338.881L816.494 607.598C824.264 607.467 832.053 607.228 839.819 607.568C839.966 607.598 840.113 607.629 840.261 607.657C842.951 608.156 845.691 608.169 848.417 608.259L848.244 608.788C839.661 609.476 827.982 607.77 820.217 609.256C814.22 610.29 807.041 609.633 800.921 609.696Q776.841 610.033 752.76 609.815L624.689 609.836L332.796 609.757Q289.428 609.573 246.061 609.916C227.459 609.965 208.725 610.371 190.144 609.434C186.408 608.606 182.454 609.475 178.698 608.635L178.969 608.193L181.747 607.562C190.13 607.339 198.99 606.852 207.311 607.949Z"/><path fill="#2FA3B9" d="M219.496 202.692L649.413 203.079C649.249 203.763 649.054 204.306 648.582 204.847C640.708 213.877 631.32 222.124 622.81 230.593C614.826 238.539 607.352 246.964 599.448 254.978L329.625 524.896L284.016 570.5C278.594 575.881 272.695 580.778 267.32 586.179C263.613 589.905 260.216 593.998 256.78 597.973L219.5 598L219.496 202.692Z"/><path fill="#228CA1" d="M649.413 203.079L804.992 203.022L804.511 597.712L256.78 597.973C260.216 593.998 263.613 589.905 267.32 586.179C272.695 580.778 278.594 575.881 284.016 570.5L329.625 524.896L599.448 254.978C607.352 246.964 614.826 238.539 622.81 230.593C631.32 222.124 640.708 213.877 648.582 204.847C649.054 204.306 649.249 203.763 649.413 203.079Z"/></svg> 