<?xml version="1.0" encoding="utf-8" ?><!-- created by svgstack.com | Attribution is required. --><svg xmlns="http://www.w3.org/2000/svg" xmlns:xlink="http://www.w3.org/1999/xlink" width="1024" height="1024"><path fill="#2C969D" d="M81.289 836.988C79.9313 829.582 80.9457 820.587 81.1196 813.064C87.1713 820.206 89.4967 824.867 99.7166 825.684C110.187 826.521 120.688 825.602 131.168 825.636L195.289 825.999L409.72 825.104L767.229 825.996L873.642 825.997C889.843 825.989 906.221 826.507 922.402 826.049C928.175 825.885 933.682 824.352 938.135 820.522C940.409 818.565 942.092 816.206 943.627 813.653C943.713 819.342 943.892 825.051 943.828 830.739C944.085 843.602 940.96 853.792 931.886 863.233C922.474 873.025 911.357 876.719 897.992 876.929C883.802 877.152 869.629 876.563 855.441 876.558L742.717 876.623L390.466 876.644L206.12 876.644C191.959 876.645 177.776 876.473 163.618 876.728C149.185 876.987 134.226 877.795 119.84 876.492C109.945 875.596 101.602 871.759 94.5035 864.77C86.7816 857.168 82.5596 847.696 81.289 836.988Z"/><path fill="#B0CACC" d="M81.289 836.988C79.9313 829.582 80.9457 820.587 81.1196 813.064C87.1713 820.206 89.4967 824.867 99.7166 825.684C110.187 826.521 120.688 825.602 131.168 825.636L195.289 825.999L409.72 825.104L767.229 825.996L873.642 825.997C889.843 825.989 906.221 826.507 922.402 826.049C928.175 825.885 933.682 824.352 938.135 820.522C940.409 818.565 942.092 816.206 943.627 813.653C943.713 819.342 943.892 825.051 943.828 830.739Q943.593 833.469 943.427 836.205C939.129 842.655 934.36 847.451 926.401 848.995C918.113 850.602 908.215 849.528 899.734 849.494L846.991 849.235L627.13 849.218L263.917 849.227L154.276 849.242L122.67 849.276C114.62 849.301 106.77 849.612 98.7435 848.675C95.3239 848.276 92.6522 847.733 89.787 845.702C86.4723 843.353 83.8858 840.073 81.289 836.988Z"/><path fill="#DDE2E0" d="M81.1196 813.064Q81.2949 811.542 81.6402 810.049C84.371 798.386 96.2343 778.281 102.2 766.88Q111.267 749.292 120.049 731.559L146.383 678.671C151.518 668.205 156.216 657.131 162.169 647.111C164.357 643.428 167.132 640.412 170.797 638.16C176.914 641.495 267.484 640.004 282.48 640.004L686.725 639.994L802.182 639.994L834.888 640.039C840.172 640.037 846.167 640.491 851.384 639.706C855.502 641.238 859.192 643.422 861.711 647.132C866.015 653.469 869.217 661.309 872.665 668.187Q883.508 689.783 894.127 711.49L922.3 768.97C927.992 780.335 934.219 791.505 939.502 803.064C941.077 806.512 942.617 809.991 943.627 813.653C942.092 816.206 940.409 818.565 938.135 820.522C933.682 824.352 928.175 825.885 922.402 826.049C906.221 826.507 889.843 825.989 873.642 825.997L767.229 825.996L409.72 825.104L195.289 825.999L131.168 825.636C120.688 825.602 110.187 826.521 99.7166 825.684C89.4967 824.867 87.1713 820.206 81.1196 813.064Z"/><path fill="#29485E" d="M272.809 652.032Q292.78 651.748 312.752 652.002C312.43 655.425 311.725 659.319 310.566 662.555C309.54 665.418 308.638 666.963 305.882 668.269C300.517 668.229 270.031 669.621 267.128 667.218C266.658 666.829 266.608 666.257 266.55 665.685C266.14 661.599 270.348 654.992 272.809 652.032Z"/><path fill="#29485E" d="M520.115 651.752C531.349 651.935 545.976 649.943 556.593 652.528C557.631 656.329 558.97 661.766 557.431 665.534C556.701 667.321 555.778 667.811 554.123 668.524C548.377 668.96 542.49 668.411 536.721 668.45C530.622 668.492 523.852 669.671 517.887 668.27C516.811 667.539 516.168 666.935 515.61 665.736C513.866 661.985 513.807 656.383 515.293 652.558C516.615 651.767 518.572 651.868 520.115 651.752Z"/><path fill="#29485E" d="M438.58 651.742C446.047 651.724 453.531 651.977 461.002 652.011C461.015 656.207 461.85 663.544 458.827 666.795C455.731 670.125 443.318 668.722 438.758 668.722C431.324 668.321 423.699 669.357 416.496 667.155C416.38 662.03 417.395 657.042 418.249 652.013Q428.417 652.075 438.58 651.742Z"/><path fill="#29485E" d="M332.546 651.755C340.472 651.512 353.674 650.247 360.979 652.849C361.459 653.623 361.581 654.064 361.637 654.998C361.852 658.609 359.981 664.534 357.395 667.132C354.85 669.69 348.928 668.546 345.529 668.508C337.545 668.881 326.316 669.369 318.575 667.982C317.095 667.716 316.467 667.583 315.579 666.363C315.192 661.649 317.537 656.156 319.779 652.076Q326.159 651.794 332.546 651.755Z"/><path fill="#29485E" d="M681.674 651.751Q692.712 651.982 703.753 652.024C705.221 657.698 706.749 662.15 706.442 668.136C699.779 668.961 692.809 668.707 686.101 668.727C678.611 668.708 671.27 668.618 663.865 667.305C661.535 662.191 660.902 657.607 660.383 652.031L681.674 651.751Z"/><path fill="#29485E" d="M611.517 652.021Q633.058 651.571 654.6 652.003C655.749 657.472 657.267 662.496 656.609 668.147C648.041 668.594 621.028 670.254 614.196 667.04C610.723 663.048 611.49 656.985 611.517 652.021Z"/><path fill="#29485E" d="M467.288 651.746L509.458 651.754C509.674 656.334 510.963 664.695 507.786 668.265C499.746 668.224 472.041 670.068 466.439 667.138C465.694 666.155 465.352 665.321 465.271 664.099C465.088 661.349 465.364 653.839 467.288 651.746Z"/><path fill="#29485E" d="M571.475 651.74Q588.893 651.66 606.307 652.014C606.928 655.884 609.276 663.96 606.5 667.143C604.856 669.028 601.809 668.53 599.552 668.508C592.166 668.8 571.055 670.026 565.061 667.155C561.853 663.835 562.75 656.434 562.799 652.047L571.475 651.74Z"/><path fill="#29485E" d="M368.246 651.992L412.423 652.01C412.119 657.07 411.893 663.321 409.332 667.792C399.124 669.688 375.153 669.445 365.218 667.211C365.393 661.848 366.821 657.11 368.246 651.992Z"/><path fill="#29485E" d="M722.581 651.757C730.396 651.574 744.39 650.424 751.55 652.398C752.921 652.776 753.417 653.36 754.032 654.607C755.317 657.21 757.603 664.437 756.808 667.004C754.04 669.356 746.986 668.331 743.375 668.472C733.796 668.533 723.05 669.51 713.65 667.896C710.32 662.608 709.334 658.193 708.794 652.043Q715.685 651.8 722.581 651.757Z"/><path fill="#29485E" d="M528.891 672.249C534.114 672.037 553.617 670.989 557.172 673.445C558.452 674.329 558.959 677.479 559.166 678.906C559.592 681.846 560.347 689.249 558.316 691.491C557.106 692.828 546.952 692.391 544.875 692.46C538.584 692.516 524.017 693.78 518.484 691.735C516.841 691.127 515.614 690.079 514.897 688.468C512.93 684.052 514.669 676.863 516.307 672.523L528.891 672.249Z"/><path fill="#29485E" d="M267.669 672.3C272.897 672.034 301.211 670.97 304.014 672.856C304.593 673.681 305.01 674.363 305.122 675.374C305.586 679.569 302.521 687.998 299.632 691.11C298.36 692.481 296.86 692.305 295.125 692.482C286.968 692.432 264.544 694.449 258.004 690.939C257.799 690.453 257.722 690.348 257.663 689.746C257.302 686.043 260.839 677.004 263.237 674.285C264.651 672.682 265.666 672.465 267.669 672.3Z"/><path fill="#29485E" d="M624.893 672.233C630.593 671.98 654.361 670.803 658.037 674.262C660.61 676.684 661.76 685.8 661.512 689.275C661.452 690.107 661.334 690.612 660.697 691.149C658.498 693.005 653.225 692.272 650.385 692.238C639.399 692.638 628.549 692.659 617.614 691.374C615.729 687.748 614.642 683.259 614.337 679.177C614.158 676.791 614.024 674.762 615.634 672.851C618.231 671.961 622.096 672.295 624.893 672.233Z"/><path fill="#29485E" d="M678.805 672.264C685.851 671.845 701.659 670.929 707.978 673.381C710.14 676.018 711.084 679.201 711.966 682.443C712.691 685.108 713.986 689.38 712.568 691.844C708.348 692.674 703.557 692.242 699.25 692.23C692.532 692.212 674.008 693.596 668.888 690.912C666.589 687.88 665.647 683.308 665.148 679.571C664.87 677.488 664.421 674.486 665.777 672.703C669.855 671.812 674.623 672.265 678.805 672.264Z"/><path fill="#29485E" d="M474.81 672.234C484.847 671.725 499.881 670.661 509.393 673.818C509.594 677.581 510.021 681.381 510.103 685.141C510.146 687.148 509.886 689.104 508.366 690.57C506.222 692.64 502.777 692.18 500.007 692.226Q481.759 692.386 463.514 691.982C463.351 686.877 462.499 676.968 465.911 672.911C468.59 671.97 471.981 672.292 474.81 672.234Z"/><path fill="#29485E" d="M594.863 672.257C598.403 672.089 603.695 671.19 606.962 672.737C609.855 675.905 610.682 681.267 610.767 685.473C610.796 686.894 610.762 689.933 609.501 690.915C606.283 693.422 584.237 692.246 579.104 692.232C574.91 692.265 570.778 692.316 566.604 691.816C565.013 689.411 564.127 687.003 563.719 684.141C563.248 680.848 562.846 676.077 564.87 673.308C568.4 671.154 589.278 672.236 594.863 672.257Z"/><path fill="#29485E" d="M424.853 672.248C433.969 671.735 446.894 671.021 455.854 672.581C456.64 672.718 458.12 673.138 458.51 673.877C460.213 677.107 458.714 687.341 457.386 690.728C455.11 692.937 451.079 692.318 448.125 692.308C436.269 692.86 424.056 692.966 412.301 691.276C412.434 684.534 412.945 678.912 415.479 672.619C418.564 672.336 421.753 672.368 424.853 672.248Z"/><path fill="#29485E" d="M725.465 672.253Q741.917 671.415 758.329 672.826L758.859 673.557C762.451 678.42 764.296 686.244 764.623 692.214L753.875 692.36C747.269 692.77 726.59 693.488 721.193 691.34C718.155 687.935 716.217 682.048 715.309 677.61C714.964 675.926 714.586 674.278 715.563 672.747C718.386 671.762 722.457 672.24 725.465 672.253Z"/><path fill="#29485E" d="M318.003 672.209C322.99 671.377 351 671.383 354.609 672.905C355.538 673.297 355.834 673.453 356.128 674.393C357.492 678.755 353.98 687.934 351.77 691.753C349.911 692.182 348.026 692.312 346.131 692.483C337.551 692.516 315.406 693.645 308.449 691.897C307.559 691.062 307.276 690.833 307.225 689.506C307.034 684.499 309.225 677.209 312.746 673.633C314.296 672.059 315.948 672.235 318.003 672.209Z"/><path fill="#29485E" d="M269.584 695.762Q278.692 695.354 287.798 695.788C290.529 695.922 295.347 695.769 297.264 697.873C297.664 703.028 292.683 713.044 289.487 717.197C285.242 717.464 280.978 717.566 276.728 717.735C268.879 717.805 256.987 718.711 249.69 716.433C248.886 715.573 249.004 715.99 248.919 714.94C248.605 711.023 252.785 699.116 255.925 696.65C258.158 694.895 266.621 695.749 269.584 695.762Z"/><path fill="#29485E" d="M387.58 671.745C391.396 671.767 404.567 671.096 407.055 673.044C408.18 673.925 408.453 676.269 408.532 677.582C408.769 681.49 407.841 688.38 404.934 691.211C402.84 693.249 385.477 692.258 381.625 692.239C376.824 692.136 365.262 693.712 361.484 691.36C360.484 690.738 359.885 689.839 359.617 688.7C358.623 684.466 361.832 676.196 364.087 672.525C371.646 671.369 379.909 671.946 387.58 671.745Z"/><path fill="#29485E" d="M732.784 695.754Q749.785 695.146 766.742 696.517C770.105 702.751 771.683 709.606 772.867 716.539C769.081 717.051 765.192 716.997 761.375 717.083C755.239 717.898 732.542 717.993 728.134 714.898C723.449 711.61 722.78 701.459 721.784 696.093C725.438 695.768 729.118 695.793 732.784 695.754Z"/><path fill="#29485E" d="M759.309 652.008L818.166 652.006C819.806 657.545 822.306 662.413 823.398 668.179C818.586 669.078 812.918 668.654 808.013 668.713Q786.285 669.006 764.58 667.944C761.626 662.582 760.48 658.026 759.309 652.008Z"/><path fill="#29485E" d="M206.941 651.699C226.07 652.019 245.179 650.983 264.281 652.614C263.252 658.663 261.963 662.991 258.82 668.234C249.325 669.454 238.882 668.766 229.295 668.761C220.541 668.756 210.932 669.409 202.283 668.278C202.013 667.934 201.827 667.744 201.677 667.294C200.25 663.033 204.987 655.507 206.941 651.699Z"/><path fill="#29485E" d="M520.107 695.752C533.279 695.492 546.696 694.839 559.775 696.731C561.312 701.819 562.85 710.877 560.776 715.879C559.524 716.999 558.965 716.947 557.345 717.225C548.278 717.425 524.113 718.826 516.387 716.291C515.469 715.386 515.072 714.667 514.797 713.428C513.998 709.84 513.304 700.047 515.757 697.153C517.018 695.666 518.295 695.934 520.107 695.752Z"/><path fill="#29485E" d="M620.481 695.768C627.608 695.529 656.806 694.106 661.81 696.889C664.137 698.183 664.679 701.468 665.309 703.83C666.143 706.954 668.058 713.677 666.09 716.439C665.641 717.069 664.357 716.908 663.623 716.959C650.227 717.788 634.765 717.878 621.368 716.888C620.256 714.521 619.54 712.106 618.931 709.568C618.202 706.528 616.428 698.996 618.423 696.354C618.867 695.768 619.802 695.867 620.481 695.768Z"/><path fill="#29485E" d="M671.51 695.74Q682.478 695.795 693.445 695.691C700.442 695.604 707.495 695.198 714.444 696.177C716.958 700.55 721.306 710.372 720.338 715.463C720.181 716.292 719.534 716.48 718.894 716.943C710.975 717.158 683.351 718.728 677.711 716.912C675.312 716.139 673.637 714.523 672.495 712.307C670.803 709.028 668.801 700.528 670.06 696.977C670.376 696.087 670.717 696.15 671.51 695.74Z"/><path fill="#29485E" d="M471.477 695.75C478.941 695.457 502.86 694.072 508.602 696.883C509.483 698.489 509.67 700.191 509.766 702.001C509.951 705.493 510.914 713.784 508.233 716.168C506.377 717.817 503.044 717.292 500.741 717.238C488.341 717.577 474.301 718.704 462.106 716.246C461.784 709.358 462.271 702.774 463.829 696.059L471.477 695.75Z"/><path fill="#29485E" d="M568.947 695.776C582.53 695.171 597.401 694.392 610.858 696.609C610.914 696.726 610.97 696.842 611.024 696.959C611.114 697.154 611.199 697.352 611.29 697.547C611.37 697.716 611.457 697.881 611.537 698.05C613.559 702.326 615.341 711.447 613.772 715.961C612.696 717.08 612.672 717.052 611.125 717.251C603.056 717.193 575.325 718.431 569.52 716.634C568.382 716.282 567.777 715.681 567.249 714.592C565.288 710.542 564.488 701.061 565.958 696.743C567.107 695.877 567.492 695.922 568.947 695.776Z"/><path fill="#29485E" d="M414.475 695.771C425.805 695.175 446.754 694.303 457.288 696.808C457.638 701.284 458.666 712.737 455.571 715.988C454.312 717.31 453.217 717.108 451.522 717.268C444.061 717.236 414.631 718.426 410.055 716.823C409.427 716.132 409.047 715.637 408.78 714.719C407.747 711.161 408.982 700.114 411.32 697.253C412.319 696.03 412.998 696.068 414.475 695.771Z"/><path fill="#29485E" d="M316.955 695.745C328.308 695.401 339.475 695.274 350.751 696.933C350.836 701.673 349.098 712.497 345.864 715.972C343.803 718.188 337.095 717.476 334.125 717.489C327.134 717.422 305.599 718.905 300.287 716.566C299.331 716.145 298.938 715.664 298.715 714.61C297.653 709.592 302.803 700.154 305.763 696.104Q311.357 695.857 316.955 695.745Z"/><path fill="#29485E" d="M363.215 695.765C376.967 695.558 391.436 694.552 405.073 696.674C404.711 703.74 403.906 710.544 401.405 717.206L394.761 717.236C383.078 717.185 371.055 718.075 359.421 717.434C357.496 717.328 354.46 717.393 353.148 715.93C351.894 710.104 355.176 701.349 357.618 696.09L363.215 695.765Z"/><path fill="#29485E" d="M267.58 720.749C273.296 720.688 279.601 720.569 285.242 721.475C286.791 721.723 287.9 721.94 288.813 723.249C288.765 729.496 284.446 740.284 281.022 745.568C274.428 745.904 267.851 745.961 261.25 745.987C256.765 745.92 245.096 747.399 241.545 745.145C240.365 744.396 239.815 743.626 239.476 742.271C238.358 737.803 244.081 725.176 246.329 721.08Q256.953 720.822 267.58 720.749Z"/><path fill="#29485E" d="M200.407 672.249L231.881 672.247C239.158 672.178 247.245 671.267 254.401 672.645C255.535 673.66 256.057 674.431 256.09 676.004C256.204 681.441 252.569 688.678 248.877 692.478L214.991 692.529C208.533 692.575 201.594 693.152 195.198 692.329C194.211 691.452 193.701 690.617 193.52 689.302C192.834 684.312 197.279 676.045 200.407 672.249Z"/><path fill="#29485E" d="M752.64 720.241C760.165 720.174 768.17 719.966 775.51 721.748C778.892 729.294 780.716 737.559 782.833 745.525C775.436 746.508 767.7 746.241 760.25 746.24C754.253 746.255 747.962 746.635 742.002 746.092C739.476 745.861 737.429 744.781 735.906 742.728C732.499 738.133 729.869 727.089 730.729 721.4C734.477 719.396 747.713 720.375 752.64 720.241Z"/><path fill="#29485E" d="M771.629 672.078C776.229 672.128 780.835 672.356 785.435 672.294C793.76 672.183 816.1 670.708 822.931 672.731C825.065 673.362 826.405 675.457 827.369 677.371C828.711 680.034 832.539 688.569 831.654 691.137C830.335 692.119 829.728 692.058 828.125 692.24C819.895 692.144 778.198 693.983 773.613 691.433C770.243 689.558 768.745 683.558 767.514 680.125C766.725 677.924 766.274 676.37 767.328 674.137C768.623 672.814 769.873 672.548 771.629 672.078Z"/><path fill="#29485E" d="M699.389 720.75C707.298 720.693 715.146 720.86 723 721.891C725.309 726.7 730.127 740.015 728.739 745.069C725.666 746.895 710.224 746.186 705.785 746.261C700.133 746.107 687.288 747.085 682.664 745.269C680.705 744.5 679.482 743.04 678.639 741.151C677.005 737.494 674.524 725.234 676.007 721.619C678.98 719.757 695.017 720.748 699.389 720.75Z"/><path fill="#29485E" d="M235.489 695.73C239.625 695.722 243.772 696.271 247.884 696.686L247.818 697.275C247.283 702.404 245.23 711.363 241.618 715.243C240.56 716.379 239.77 716.651 238.279 716.899C233.204 717.744 227.512 717.267 222.364 717.256Q209.216 717.141 196.073 717.495C192.791 717.526 186.802 718.131 184.048 716.262C183.503 715.892 183.48 715.923 183.419 715.32C182.983 711.017 187.527 701.113 190.431 697.911C191.574 696.65 192.452 696.423 194.091 696.184C199.08 695.459 204.701 695.963 209.764 695.999C218.353 696.06 226.904 696.058 235.489 695.73Z"/><path fill="#29485E" d="M775.904 695.736Q790.483 695.819 805.061 695.708C814.532 695.577 824.145 694.878 833.537 696.332C836.345 700.639 840.77 708.595 841.214 713.791C841.331 715.161 840.822 715.702 839.993 716.704Q823.711 716.852 807.428 716.744C798.62 716.771 789.774 717.202 780.988 716.467C779.836 714.681 778.837 712.744 777.985 710.797C776.437 707.262 773.346 699.957 774.778 696.224L775.904 695.736Z"/><path fill="#29485E" d="M206.32 720.746C216.019 720.725 228.041 719.696 237.409 721.696C238.232 722.513 238.213 722.598 238.281 723.716C238.599 728.967 234.509 739.67 230.968 743.442C229.998 744.475 228.544 745.516 227.124 745.761C222.872 746.496 210.187 745.888 205.073 745.988C193.989 746.081 182.92 745.639 171.832 745.825C174.368 737.637 176.915 728.783 181.451 721.473C189.478 720.316 198.177 720.975 206.32 720.746Z"/><path fill="#29485E" d="M812.219 720.255C818.133 720.04 837.797 719.15 842.128 721.406C847.882 724.402 851.808 739.305 853.482 745.482L824.25 745.495L789.633 745.504C788.4 741.092 782.037 724.817 783.439 721.59C784.166 720.953 784.643 720.657 785.605 720.423C789.531 719.469 806.921 720.261 812.219 720.255Z"/><path fill="#29485E" d="M649.964 720.745C656.254 720.715 662.399 720.86 668.614 721.897C669.368 723.528 669.875 725.206 670.333 726.94C671.353 730.796 674.415 741.415 672.285 745.045C666.451 747.068 589.264 745.999 577.119 745.999L313.25 745.986C308.456 746.026 295.89 747.109 292.051 745.263C290.793 744.659 290.168 743.958 289.793 742.611C288.571 738.222 294.673 725.092 296.678 721.03L542.955 721.017L609.039 721.018C622.665 721.02 636.349 721.272 649.964 720.745Z"/><path fill="#B0CACC" d="M443.47 756.226L554.551 756.213C574.499 756.212 594.749 755.441 614.654 756.476C617.609 756.63 621.237 756.796 624.006 757.894C625.866 758.631 627.161 760.454 627.931 762.234C629.764 766.471 633.575 801.748 633.62 808.005C633.634 809.899 633.473 811.458 632.781 813.22C631.193 814.679 629.089 815.046 627.013 815.336C620.638 816.227 613.7 815.677 607.268 815.594L580.25 815.498L460.928 815.185C450.66 815.182 398.437 816.528 392.673 814.543C391.376 814.097 390.781 813.438 390.292 812.175C389.67 810.57 389.713 808.544 389.799 806.856C390.119 800.648 394.594 763.924 396.455 759.502C402.123 754.733 434.741 756.493 443.47 756.226Z"/><path fill="#B0CACC" d="M170.797 638.16C170.768 638.011 170.753 637.858 170.709 637.712C169.275 632.96 164.305 630.545 163.937 623.405C163.596 616.798 163.995 609.981 164.024 603.359L164.045 564.618L164.043 438.107L164.007 260.902L164.008 196.902C164.013 187.66 163.718 178.369 163.93 169.134C164.02 165.252 164.224 161.772 165.814 158.156Q166.013 157.701 166.235 157.256Q166.457 156.811 166.701 156.377Q166.945 155.944 167.21 155.524Q167.476 155.103 167.762 154.696Q168.048 154.29 168.354 153.898Q168.66 153.506 168.985 153.13Q169.31 152.754 169.654 152.394Q169.997 152.035 170.359 151.693Q170.72 151.351 171.098 151.028Q171.475 150.705 171.869 150.401Q172.262 150.097 172.671 149.813Q173.079 149.529 173.501 149.266Q173.923 149.003 174.357 148.762Q174.792 148.52 175.238 148.3Q175.684 148.081 176.141 147.884Q176.597 147.687 177.063 147.513C180.115 146.34 183.313 145.918 186.558 145.814C195.521 145.525 204.584 145.996 213.559 145.988L281.394 145.965L480.713 146.02L717.142 146.037L789.322 146.014C804.412 145.981 819.554 145.68 834.638 146.04C838.98 146.144 843.24 146.388 847.217 148.343C852.445 150.913 856.457 155.785 858.223 161.302C861.159 170.468 859.731 200.84 859.665 212.066L859.542 257.843L859.515 456.669L859.643 565.494C859.706 585.192 860.934 605.488 859.46 625.121C859.307 627.163 858.765 628.917 857.749 630.699C856.227 633.368 852.042 637.081 851.384 639.706C846.167 640.491 840.172 640.037 834.888 640.039L802.182 639.994L686.725 639.994L282.48 640.004C267.484 640.004 176.914 641.495 170.797 638.16Z"/><path fill="#29485E" d="M213.143 169.2C225.402 168.472 237.964 168.991 250.247 168.992L320.391 169.124L517.221 169.244L716.918 169.233L779.267 169.226C789.927 169.196 800.826 168.51 811.459 169.17C817.542 169.547 823.034 171.146 827.622 175.341C833.854 181.039 835.342 188.169 835.558 196.232C836.505 231.497 835.909 266.861 835.782 302.136L835.819 432.689L835.524 540.347L835.533 578.461C835.533 585.503 835.833 592.698 835.382 599.724C835.104 604.06 834.667 608.206 831.427 611.419C826.647 616.159 819.365 615.951 813.125 615.99L403.615 615.99L268.132 615.976L227.369 615.98C219.538 616.006 211.591 616.339 203.77 615.994C199.925 615.824 196.441 615.557 193.25 613.166C189.966 610.705 188.951 607.086 188.565 603.145C187.969 597.072 188.599 590.628 188.64 584.522L188.637 546.999L188.52 416.388L188.449 268.446L188.135 223.602C188.018 213.781 187.511 203.772 188.187 193.975C188.608 187.872 190.211 182.361 194.282 177.625C199.242 171.856 205.816 169.747 213.143 169.2Z"/><path fill="#DDE2E0" d="M508.665 181.981C511.245 181.924 513.537 181.987 515.624 183.697C516.888 184.731 517.44 186.061 517.518 187.688C517.659 190.639 515.646 192.46 513.699 194.328C511.272 194.39 509.442 194.271 507.441 192.766C506.146 191.791 505.379 190.405 505.28 188.784C505.099 185.817 506.768 184.026 508.665 181.981Z"/><path fill="#C54937" d="M696.399 207.993L763.742 207.959C776.167 207.924 788.655 207.33 801.066 208.016L801.219 447.434C801.255 487.676 801.768 527.967 801.278 568.201C771.723 568.922 742.09 568.511 712.524 568.498L565.201 568.323L422.71 568.228C394.302 568.235 365.913 568.533 337.51 568.009C340.993 561.831 360.299 544.395 366.424 538.313L422.875 481.918L696.399 207.993Z"/><path fill="#D45A40" d="M221.536 207.993L696.399 207.993L422.875 481.918L366.424 538.313C360.299 544.395 340.993 561.831 337.51 568.009C322.346 568.626 307.281 568.285 292.117 568.259L221.988 568.233L221.536 207.993Z"/></svg> 