<?xml version="1.0" encoding="utf-8" ?><!-- created by svgstack.com | Attribution is required. --><svg xmlns="http://www.w3.org/2000/svg" xmlns:xlink="http://www.w3.org/1999/xlink" width="1024" height="1024"><defs><linearGradient id="gradient_0" gradientUnits="userSpaceOnUse" x1="844.4054" y1="375.40967" x2="829.90216" y2="375.54895"><stop offset="0" stop-color="#7D5D52"/><stop offset="1" stop-color="#583E3C"/></linearGradient></defs><path fill="url(#gradient_0)" d="M820.935 148.681Q821.704 148.931 822.459 149.218Q823.215 149.505 823.955 149.828Q824.696 150.152 825.419 150.512Q826.143 150.871 826.848 151.266Q827.554 151.661 828.239 152.09Q828.924 152.519 829.587 152.98Q830.25 153.442 830.89 153.936Q831.529 154.43 832.144 154.955Q832.759 155.48 833.347 156.034Q833.935 156.588 834.495 157.171Q835.056 157.753 835.587 158.362Q836.118 158.972 836.618 159.606Q837.119 160.241 837.587 160.899Q838.056 161.558 838.492 162.238Q838.928 162.919 839.33 163.62Q839.732 164.321 840.099 165.041C842.545 169.757 843.44 174.664 843.639 179.919C844.476 202.037 843.581 224.42 843.567 246.57L843.521 383.127L843.584 525.561C843.59 535.043 843.543 544.529 843.672 554.01C843.811 564.222 845.947 584.421 842.77 593.376C842.217 594.936 841.402 596.379 840.434 597.715C836.32 595.091 828.053 594.922 823.286 594.586C827.485 594.396 830.755 593.398 834.063 590.635C838.953 586.55 839.939 580.713 840.314 574.714C841.112 561.93 840.945 549.081 840.954 536.279L841 486.481L841.051 328.986L841.033 229.141C841.037 212.514 842.311 190.394 839.978 174.308C838.867 166.655 834.279 161.571 829.362 155.984C829.387 155.558 829.434 155.155 829.351 154.727C828.862 152.2 823.676 150.658 821.72 149.259C821.456 149.07 821.196 148.874 820.935 148.681Z"/><defs><linearGradient id="gradient_1" gradientUnits="userSpaceOnUse" x1="174.85872" y1="372.21158" x2="200.08859" y2="372.87775"><stop offset="0" stop-color="#895941"/><stop offset="1" stop-color="#70514B"/></linearGradient></defs><path fill="url(#gradient_1)" d="M183.745 598.172C181.06 592.118 179.625 585.837 179.227 579.238C178.216 562.461 179.1 545.198 179.124 528.371L179.095 433.729L179.147 262.639C179.171 236.942 178.694 211.153 179.103 185.468C179.281 174.297 180.231 163.531 188.89 155.393C193.285 151.263 199.167 148.399 205.08 147.279C215.548 145.296 237.013 146.502 248.62 146.517C273.775 146.549 299.025 146.051 324.166 146.648C319.82 149.546 211.314 146.244 208.573 149.024L209.316 149.633C209.155 149.696 208.996 149.763 208.833 149.821C199.458 153.161 191.351 154.498 186.23 164.449C183.811 169.151 182.808 174.762 182.617 180.011C182.208 191.258 182.48 202.595 182.477 213.855Q182.34 247.078 182.694 280.298L183.003 426.004L182.673 525.809C182.677 538.681 181.26 574.711 184.624 584.607C186.189 589.21 189.134 592.214 192.253 595.78C189.466 596.529 186.424 597.131 183.745 598.172Z"/><path fill="#CABDB4" d="M931.555 822.863C933.183 835.427 933.976 854.468 925.993 865.209C921.437 871.339 914.759 874.407 907.348 875.322C896.107 876.709 884.288 875.731 872.975 875.61C856.328 875.433 839.665 875.612 823.016 875.639L628.902 875.703L299.742 875.692L183.192 875.611C162.253 875.584 141.138 876.165 120.223 875.346C113.202 875.071 106.718 873.976 101.041 869.583C94.1924 864.283 90.8738 856.365 89.9938 847.961C89.3327 841.647 88.7178 833.048 89.9401 826.772C90.1191 828.819 90.1185 830.898 90.1845 832.952C91.396 834.987 92.5909 837.047 94.2181 838.786C99.7413 844.686 107.322 846.761 115.127 847.077C129.857 847.674 144.882 847.015 159.641 847.016L252.87 847.018L537.741 847.019L783.164 847.018L863.454 847.014C877.33 847.01 891.49 847.609 905.328 846.863C912.471 846.477 920.059 845.056 925.393 839.885C928.642 836.734 931.236 831.841 931.367 827.26C931.409 825.794 931.491 824.329 931.555 822.863Z"/><path fill="#E9DAC7" d="M192.253 595.78C200.386 593.999 209.794 594.517 218.115 594.511L249.555 594.537L371.573 594.728L823.286 594.586C828.053 594.922 836.32 595.091 840.434 597.715C851.464 602.131 857.178 604.451 862.121 616.084C868.297 630.618 872.309 646.386 877.498 661.336L915.021 768.818L925.563 800.424C927.453 806.165 929.642 811.95 931.095 817.813C931.511 819.49 931.647 821.141 931.555 822.863C931.491 824.329 931.409 825.794 931.367 827.26C931.236 831.841 928.642 836.734 925.393 839.885C920.059 845.056 912.471 846.477 905.328 846.863C891.49 847.609 877.33 847.01 863.454 847.014L783.164 847.018L537.741 847.019L252.87 847.018L159.641 847.016C144.882 847.015 129.857 847.674 115.127 847.077C107.322 846.761 99.7413 844.686 94.2181 838.786C92.5909 837.047 91.396 834.987 90.1845 832.952C90.1185 830.898 90.1191 828.819 89.9401 826.772C90.2124 819.097 101.647 790.228 104.855 781.022L141.572 676.465L155.094 637.882C158.015 629.516 160.718 620.786 164.541 612.782C168.451 604.596 175.669 601.097 183.745 598.172C186.424 597.131 189.466 596.529 192.253 595.78Z"/><path fill="#324F54" d="M222.055 624.499C233.012 624.329 243.91 624.299 254.866 624.506C254.273 628.926 253.665 634.377 250.882 637.982L216.933 637.983C218.123 633.253 219.043 628.455 222.055 624.499Z"/><path fill="#324F54" d="M453.538 624.252C458.482 624.156 464.511 623.439 469.338 624.167C470.726 624.376 471.875 624.937 472.676 626.128C474.554 628.92 473.1 634.43 472.677 637.487L456.75 637.491L435.96 637.5C435.974 633.158 436.511 628.826 437.249 624.554C442.667 624.208 448.111 624.276 453.538 624.252Z"/><path fill="#324F54" d="M711.624 624.23C721.636 623.958 731.609 624.138 741.623 624.293C742.762 627.739 745.305 633.147 743.794 636.625C742.553 637.595 742.159 637.445 740.625 637.5L707.955 637.497C707.171 634.879 706.281 632.233 705.643 629.578C705.226 627.842 705.363 626.692 706.305 625.135C708.097 624.083 709.6 624.292 711.624 624.23Z"/><path fill="#324F54" d="M614.825 624.494L652.205 624.491C653.19 628.851 653.841 632.701 653.4 637.182C640.81 637.428 628.175 637.208 615.58 637.205C614.62 632.752 614.205 629.04 614.825 624.494Z"/><path fill="#324F54" d="M569.516 624.491L607.39 624.493C607.76 628.826 607.978 633.094 607.982 637.443C595.21 637.836 582.326 637.491 569.542 637.491C569.335 633.169 569.475 628.818 569.516 624.491Z"/><path fill="#324F54" d="M335.004 624.25C335.832 624.23 336.696 624.183 337.522 624.257C338.794 624.371 339.758 624.694 340.536 625.775C342.4 628.365 340.339 634.706 339.72 637.703Q324.372 638.025 309.024 637.738L302.182 637.746C302.768 633.165 304.112 628.881 305.615 624.529C315.39 624.083 325.219 624.26 335.004 624.25Z"/><path fill="#324F54" d="M524.607 624.489L562.394 624.49C562.577 628.686 562.913 633.381 562.123 637.499C551.507 637.419 534.6 639.189 524.625 636.818C523.059 633.975 524.321 627.776 524.607 624.489Z"/><path fill="#324F54" d="M486.363 624.221C492.205 623.868 512.239 622.956 516.527 625.275C518.553 628.575 517.615 633.675 517.425 637.437L511.75 637.5L479.268 637.498C479.25 634.038 478.426 627.799 480.903 625.209C482.144 623.911 484.666 624.218 486.363 624.221Z"/><path fill="#324F54" d="M393.267 624.496C400.767 624.454 421.791 623.011 427.694 624.638C429.046 625.011 429.408 625.254 429.989 626.548C431.321 629.513 429.823 634.977 428.41 637.703C416.074 637.751 403.78 637.864 391.442 637.683C391.422 633.194 392.273 628.852 393.267 624.496Z"/><path fill="#324F54" d="M262.03 624.469C268.615 624.658 293.344 622.966 297.665 625.199C298.173 625.462 298.148 625.459 298.207 626.034C298.486 628.768 296.844 635.612 294.984 637.713C282.693 637.788 270.477 638.193 258.187 637.614C258.987 632.94 259.825 628.709 262.03 624.469Z"/><path fill="#324F54" d="M348.462 624.492C349.244 624.494 350.029 624.462 350.812 624.445C355.907 624.335 382.058 623.114 384.872 625.808C385.793 628.87 385.225 632.439 384.346 635.478C383.98 636.744 383.602 637.074 382.474 637.679C370.19 638.182 357.89 638.64 345.636 637.339C346.065 632.76 346.417 628.689 348.462 624.492Z"/><path fill="#324F54" d="M660.041 624.524C673.059 624.421 686.02 624.156 699.041 624.518C699.748 628.04 700.833 632.138 700.496 635.736C700.38 636.969 700.618 636.538 699.758 637.229C694.458 637.331 664.393 638.881 662.076 636.406C659.47 633.622 660.031 628.064 660.041 624.524Z"/><path fill="#324F54" d="M748.267 624.455L799.538 624.496L803.505 637.507L751.16 637.475C749.715 633.208 748.694 628.941 748.267 624.455Z"/><path fill="#324F54" d="M284.59 641.131C295.947 639.848 308.385 640.712 319.83 640.86C318.856 646.136 317.454 660.13 314.649 664.052L313.375 664.194C301.869 664.888 290.125 664.543 278.601 664.424C279.225 656.635 281.683 648.356 284.59 641.131Z"/><path fill="#324F54" d="M295.915 694.483L330.465 694.509C329.671 700.409 328.385 714.2 324.586 718.485C313.078 718.45 300.83 719.865 289.48 717.65C291.319 709.74 293.007 702.111 295.915 694.483Z"/><path fill="#324F54" d="M322.723 667.503L358.872 667.506C358.278 675.501 357.336 683.375 354.703 690.986L317.822 690.976C319.164 683.048 321.242 675.371 322.723 667.503Z"/><path fill="#324F54" d="M337.328 640.752C345.791 640.256 354.353 640.687 362.826 640.873C361.849 645.255 360.546 661.358 357.506 663.721C355.581 665.216 350.001 664.54 347.625 664.51C339.508 665.011 329.501 665.483 321.567 663.605C322.32 659.449 324.437 643.687 326.843 641.473C328.268 640.162 335.216 640.73 337.328 640.752Z"/><path fill="#324F54" d="M562.117 694.516L598.139 694.508C598.927 702.483 600.141 710.47 599.436 718.492L563.103 718.496Q562.156 712.55 561.908 706.535Q561.661 700.519 562.117 694.516Z"/><path fill="#324F54" d="M279.445 667.504L315.87 667.505C314.891 675.273 312.571 683.335 310.551 690.915C298.584 691.468 286.191 692.24 274.271 690.834Q274.286 687.821 274.622 684.827Q274.958 681.833 275.61 678.892Q276.263 675.951 277.224 673.096Q278.185 670.241 279.445 667.504Z"/><path fill="#324F54" d="M243.407 721.676C253.769 722.164 264.446 721.645 274.853 721.776C273.567 728.521 270.955 743.807 266.283 748.66C255.773 748.994 245.184 748.76 234.666 748.765C236.98 739.524 239.343 730.337 243.407 721.676Z"/><path fill="#324F54" d="M684.709 667.247C693.174 666.881 701.549 667.045 710.004 667.54Q710.983 670.421 711.761 673.362Q712.538 676.304 713.11 679.292Q713.682 682.281 714.046 685.302Q714.409 688.322 714.563 691.361C711.332 691.605 707.995 691.474 704.75 691.498L679.032 691.497Q678.018 688.608 677.206 685.657Q676.395 682.705 675.789 679.704Q675.184 676.703 674.788 673.667Q674.391 670.632 674.206 667.576C677.687 667.26 681.215 667.299 684.709 667.247Z"/><path fill="#324F54" d="M716.147 667.494L752.719 667.493C755.136 675.421 757.174 683.292 758.432 691.497L722.039 691.493C719.178 683.554 717.224 675.871 716.147 667.494Z"/><path fill="#324F54" d="M454.838 641.036Q473.665 640.609 492.495 640.81C492.512 644.997 493.432 661.414 491.86 663.953C479.092 664.455 466.274 664.223 453.499 664.179C453.505 656.476 454.29 648.719 454.838 641.036Z"/><path fill="#324F54" d="M411.655 641.042C424.115 640.91 436.59 641.029 449.051 641.024C448.941 648.152 449.748 657.582 446.715 664.168C434.901 665.076 420.791 665.914 409.262 663.179C409.304 655.64 410.911 648.493 411.655 641.042Z"/><path fill="#324F54" d="M368.632 640.711C381.047 640.959 393.502 640.776 405.922 640.786C405.431 648.612 404.936 656.951 402.654 664.49L364.829 664.507C365.983 656.537 367.29 648.652 368.632 640.711Z"/><path fill="#324F54" d="M468.095 667.264C472.554 667.096 488.205 665.974 491.145 668.89C494.505 672.222 491.908 686.232 491.328 690.969L477.75 690.981L453.33 690.978C453.689 683.127 454.011 675.339 454.605 667.497C459.098 667.559 463.604 667.371 468.095 667.264Z"/><path fill="#324F54" d="M631.834 667.504L668.825 667.496C670.116 674.371 672.976 683.977 671.428 690.891C659.267 692.022 646.928 691.393 634.733 691.194C632.738 683.309 631.696 675.648 631.834 667.504Z"/><path fill="#324F54" d="M542.524 667.492L580.33 667.498C580.989 675.373 581.531 683.045 581.488 690.948C569.116 691.29 555.77 692.376 543.561 690.211C542.181 682.679 542.482 675.116 542.524 667.492Z"/><path fill="#324F54" d="M410.707 667.504L447.998 667.507C447.975 675.058 448.409 683.795 445.937 690.973C433.583 691.237 420.872 691.962 408.602 690.337C407.888 682.589 409.13 675.08 410.707 667.504Z"/><path fill="#324F54" d="M543.635 640.721C555.878 640.924 568.151 640.529 580.4 640.494C580.787 648.322 582.789 656.308 581.358 664.124C569.254 664.688 555.731 665.844 543.756 663.65C542.495 656.191 542.181 648.171 543.635 640.721Z"/><path fill="#324F54" d="M676.833 640.238Q694.859 640.066 712.881 640.515C714.749 647.446 717.692 656.521 717.938 663.55L717.069 663.976L679.325 663.973C677.512 656.778 675.803 648.254 675.87 640.795L676.833 640.238Z"/><path fill="#324F54" d="M338.764 694.24Q356.648 694.256 374.531 694.499C374.557 700.523 373.805 711.916 371.572 717.396C371.11 718.531 371.132 718.289 370.125 718.734C362.428 718.686 340.05 720.381 334.214 717.439C332.631 711.112 337.23 700.653 338.764 694.24Z"/><path fill="#324F54" d="M366.03 667.481L403.783 667.5C403.511 675.572 402.959 683.188 400.658 690.969L362.48 690.989C362.318 683.002 363.986 675.159 366.03 667.481Z"/><path fill="#324F54" d="M693.754 694.515L730.72 694.677C733.345 701.992 735.068 710.564 734.855 718.365C722.747 719.814 710.476 719.091 698.327 718.66C696.265 710.634 694.779 702.737 693.754 694.515Z"/><path fill="#324F54" d="M605.838 694.748Q624.049 694.817 642.258 694.49C643.522 702.115 645.714 710.796 644.302 718.492L606.286 718.499C605.365 711.787 603.519 703.607 604.5 696.948C604.701 695.586 604.765 695.49 605.838 694.748Z"/><path fill="#324F54" d="M504.354 667.221C514.592 667.188 526.138 666.007 536.187 668.162C537.474 673.161 538.27 685.757 536.425 690.542C534.764 691.243 532.672 690.991 530.875 691.007C523.534 691.373 516.06 691.387 508.711 691.227C506.598 691.181 500.225 691.253 498.916 689.473C496.561 686.27 498.198 671.93 498.392 667.591L504.354 667.221Z"/><path fill="#324F54" d="M586.51 640.492L624.906 640.502C625.809 648.4 626.764 656.285 626.923 664.242C613.999 664.027 601.066 664.513 588.119 664.23C587.314 656.335 586.614 648.431 586.51 640.492Z"/><path fill="#324F54" d="M426.174 694.488L464.035 694.544C464.009 701.742 464.63 711.858 461.881 718.52Q442.632 718.628 423.383 718.474Q424.501 706.449 426.174 694.488Z"/><path fill="#324F54" d="M603.135 667.232C610.447 667.045 617.835 667.461 625.158 667.501C626.128 675.338 627.169 683.069 627.574 690.963C622.361 691.401 617.21 691.483 611.984 691.496C604.247 691.544 596.601 691.771 588.94 690.497C586.589 683.264 587.091 675.043 587.039 667.492Q595.091 667.608 603.135 667.232Z"/><path fill="#324F54" d="M498.526 640.489L537.007 640.495C537.55 645.353 539.022 660.499 536.374 664.213C523.779 664.803 510.892 665.21 498.323 664.099C497.988 656.225 498.27 648.361 498.526 640.489Z"/><path fill="#324F54" d="M381.259 694.501L419.575 694.504C419.548 702.576 418.281 710.496 417.305 718.485L378.21 718.492C378.874 710.329 379.66 702.55 381.259 694.501Z"/><path fill="#324F54" d="M644.348 640.244L670.072 640.259C671.06 648.281 672.341 656.283 673.502 664.282L662.294 664.223C652.9 664.235 643.158 664.822 633.823 663.902C632.508 656.091 631.577 648.396 630.901 640.501C635.379 640.559 639.871 640.359 644.348 640.244Z"/><path fill="#324F54" d="M648.964 694.492L687.597 694.496C689.364 702.204 691.541 710.714 690.517 718.648C681.782 719.022 660.703 720.659 653.176 717.699C649.374 713.01 649.682 700.569 648.964 694.492Z"/><path fill="#324F54" d="M517.137 694.486L555.888 694.5C557.057 702.503 556.988 710.495 556.35 718.529L516.682 718.499C516.291 710.45 515.955 702.49 517.137 694.486Z"/><path fill="#324F54" d="M470.537 694.493L510.51 694.507C510.833 702.094 511.802 711.129 509.801 718.505L469.506 718.485C469.407 710.454 470.229 702.508 470.537 694.493Z"/><path fill="#324F54" d="M719.637 640.492L760.051 640.327C762.175 647.269 766.13 656.757 765.405 664.003Q744.913 664.639 724.422 663.965C722.182 656.104 720.594 648.596 719.637 640.492Z"/><path fill="#324F54" d="M767.129 640.246L804.596 640C805.661 644.25 813.271 660.706 811.873 663.872L810.125 664.232L770.882 664.231C769.538 659.34 767.655 654.59 766.308 649.686C765.636 647.24 764.271 642.966 765.575 640.661L767.129 640.246Z"/><path fill="#324F54" d="M699.217 722.513C707.406 722.279 725.706 721.148 733.138 722.775C734.645 723.106 735.54 723.518 736.319 724.896C738.347 728.484 741.203 744.585 740.135 748.428C727.61 748.868 714.944 748.502 702.404 748.511C700.811 741.507 696.767 729.381 699.217 722.513Z"/><path fill="#324F54" d="M282.811 722.014C295.143 722.077 307.454 721.878 319.794 722.042C318.297 729.642 316.828 742.075 312.883 748.499L274.953 748.483C277.311 739.514 280.002 730.841 282.811 722.014Z"/><path fill="#324F54" d="M677.099 721.744C680.595 721.772 687.796 721.388 690.565 723.447C693.228 725.427 695.26 744.493 695.639 748.477C687.68 748.546 679.715 748.795 671.758 748.982C668.202 748.875 661.006 749.552 657.887 748.059C656.561 747.424 656.221 746.094 655.803 744.776C654.238 739.837 651.635 727.47 654.158 722.721C658.106 720.959 672.073 721.776 677.099 721.744Z"/><path fill="#324F54" d="M743.444 722.505L783.585 722.501C785.579 731.191 789.562 739.173 791.309 748.07C780.911 749.604 759.245 749.37 748.752 747.836Q746.705 741.676 745.374 735.322Q744.043 728.969 743.444 722.505Z"/><path fill="#324F54" d="M790.102 722.494L833.884 722.491C836.547 731.249 840.357 739.898 843.596 748.471C831.182 748.445 809.527 750.225 797.923 747.745C793.268 740.688 791.518 730.678 790.102 722.494Z"/><path fill="#324F54" d="M196.864 721.757C209.826 721.21 222.847 721.685 235.817 721.838C234.049 727.005 232.569 732.288 230.861 737.479C229.658 741.132 228.147 744.698 227.221 748.434L218.941 748.723L179.702 748.767C182.445 739.614 185.036 730.579 188.773 721.764L196.864 721.757Z"/><path fill="#324F54" d="M765.539 667.25C781.653 666.443 798.008 666.998 814.15 667.003C816.664 675.233 820.058 683.163 822.463 691.474L813.75 691.499L762.597 691.496C761.421 685.782 755.471 672.766 757.102 667.607C759.19 666.687 763.187 667.213 765.539 667.25Z"/><path fill="#324F54" d="M216.308 640.702C236.796 641.016 257.32 640.768 277.812 640.77C277.043 646.844 275.46 653.273 273.717 659.144C273.089 661.259 272.669 663.092 270.585 664.23L208.228 664.188C210.824 656.316 213.271 648.419 216.308 640.702Z"/><path fill="#324F54" d="M219.772 667.247Q246.076 667.042 272.377 667.516C270.496 675.716 268.12 683.542 265.402 691.493L252.25 691.497L199.619 691.501C201.72 683.403 204.79 675.588 206.826 667.505C211.138 667.558 215.461 667.368 219.772 667.247Z"/><path fill="#324F54" d="M738.197 694.519L823.905 694.482C826.815 702.718 830.425 710.36 832.344 718.948L780.397 718.996C767.971 719.001 755.35 719.486 742.972 718.379Q740.975 712.603 739.776 706.611Q738.576 700.618 738.197 694.519Z"/><path fill="#324F54" d="M198.343 694.508L288.365 694.513C287.052 701.482 285.911 713.463 280.584 718.486C250.489 718.497 220.032 719.484 189.977 718.138C193.031 710.472 195.539 702.3 198.343 694.508Z"/><path fill="#324F54" d="M326.72 722.011L645.031 722.009C647.308 730.797 648.21 739.498 649.148 748.502L643.317 748.495L320.059 748.509C322.325 739.699 324.652 730.867 326.72 722.011Z"/><path fill="#CABDB4" d="M433.359 766.148C441.835 765.665 450.502 766.053 458.999 766.011L516.033 766.027L561.596 765.989C570.079 765.976 578.684 765.587 587.147 766.15C589.58 766.312 592.135 766.431 594.122 768.013C599.161 772.024 603.274 816.136 603.885 824.317C602.427 825.934 600.975 827.204 599.205 828.471L589.625 828.491C570.152 828.496 427.206 829.416 422.395 827.482C420.934 826.895 419.777 825.922 419.21 824.416C417.481 819.824 425.373 773.442 428.489 768.675C429.541 767.065 431.617 766.548 433.359 766.148Z"/><path fill="#162934" d="M324.355 146.643L655.926 146.602L758.343 146.682Q770.425 146.754 782.507 146.66C794.627 146.507 809.383 144.712 820.935 148.681C821.196 148.874 821.456 149.07 821.72 149.259C823.676 150.658 828.862 152.2 829.351 154.727C829.434 155.155 829.387 155.558 829.362 155.984C834.279 161.571 838.867 166.655 839.978 174.308C842.311 190.394 841.037 212.514 841.033 229.141L841.051 328.986L841 486.481L840.954 536.279C840.945 549.081 841.112 561.93 840.314 574.714C839.939 580.713 838.953 586.55 834.063 590.635C830.755 593.398 827.485 594.396 823.286 594.586L371.573 594.728L249.555 594.537L218.115 594.511C209.794 594.517 200.386 593.999 192.253 595.78C189.134 592.214 186.189 589.21 184.624 584.607C181.26 574.711 182.677 538.681 182.673 525.809L183.003 426.004L182.694 280.298Q182.339 247.077 182.477 213.855C182.48 202.595 182.208 191.258 182.617 180.011C182.808 174.762 183.811 169.151 186.23 164.449C191.351 154.498 199.458 153.161 208.833 149.821C208.996 149.763 209.155 149.696 209.316 149.633L208.573 149.024C211.314 146.244 319.82 149.546 324.166 146.648L324.355 146.643Z"/><path fill="#E9DAC7" d="M511.784 157.41C512.799 157.515 513.901 157.781 514.853 158.143C516.749 158.864 518.3 160.117 519.082 162.029C519.798 163.783 519.644 165.789 518.851 167.488C517.704 169.947 515.715 170.738 513.313 171.678C513.036 171.634 512.757 171.596 512.481 171.546C510.117 171.121 507.482 169.747 506.228 167.628C505.316 166.087 505.203 164.245 505.769 162.567C506.787 159.552 509.108 158.621 511.784 157.41Z"/><path fill="#AA7C57" d="M324.355 146.643L655.926 146.602L758.343 146.682Q770.425 146.754 782.507 146.66C794.627 146.507 809.383 144.712 820.935 148.681C821.196 148.874 821.456 149.07 821.72 149.259C823.676 150.658 828.862 152.2 829.351 154.727C829.434 155.155 829.387 155.558 829.362 155.984C825.022 151.979 819.488 150.294 813.722 149.724C800.822 148.449 787.392 149.507 774.406 149.502L695.174 149.473L425.713 149.421C414.767 150.06 403.659 149.68 392.696 149.551Q374.022 149.405 355.347 149.459L209.316 149.633L208.573 149.024C211.314 146.244 319.82 149.546 324.166 146.648L324.355 146.643Z"/><path fill="#66A79A" d="M735.976 180.747Q772.236 180.54 808.494 181.016C809.267 197.443 808.87 213.871 808.869 230.309L808.886 309.762L808.623 561.996C785.661 562.537 762.69 562.089 739.725 562.034L621.448 561.787L288.582 561.533L215.293 561.501L215.472 181.004L598.193 180.987Q667.085 181.221 735.976 180.747Z"/></svg> 