<?xml version="1.0" encoding="utf-8" ?><!-- created by svgstack.com | Attribution is required. --><svg xmlns="http://www.w3.org/2000/svg" xmlns:xlink="http://www.w3.org/1999/xlink" width="1024" height="1024"><path fill="#A5B1AF" d="M157.586 788.416C162.956 793.179 168.159 796.224 175.5 796.944C201.194 799.462 227.262 797.447 253.043 797.541Q332.166 798.189 411.291 798.012L695.664 798C742.581 797.997 789.611 798.763 836.51 798.003C849.588 797.791 855.273 795.744 864.549 786.156C863.127 797.263 859.33 806.074 850.329 813.117C842.626 819.144 834.906 820.968 825.28 821.504C811.395 822.276 797.204 821.483 783.278 821.489L695.843 821.532L425.071 821.558L257.468 821.525L213.152 821.559C202.249 821.625 190.835 822.277 180.02 820.809C174.319 820.035 168.355 814.458 165.061 809.988C160.262 803.475 158.375 796.354 157.586 788.416Z"/><path fill="#C1D1C5" d="M244.003 619.228C239.074 616.8 233.831 614.21 229.88 610.309C224.305 604.803 223.524 597.885 223.388 590.456Q222.973 543.897 223.028 497.341L223.023 349.32L223.052 271.17C223.034 256.597 222.017 241.238 223.704 226.762C224.346 221.263 226.899 216.311 230.749 212.368C235.118 207.893 240.606 205.368 246.811 204.74C253.454 204.067 260.342 204.434 267.02 204.436L301.297 204.409L413.539 204.385L766.51 204.256C775.528 204.247 784.709 205.621 791.27 212.457C795.93 217.313 798.305 224.135 799.044 230.724C800.561 244.276 799.267 258.303 799.041 271.924C798.785 287.381 799.048 302.878 799.043 318.338C799.026 380.486 799.667 442.72 798.834 504.858C798.87 520.567 799.664 536.703 798.842 552.365C798.922 566.661 800.185 586.853 798.214 600.445C796.448 607.439 793.084 612.494 786.81 616.277Q784.443 617.687 782.034 619.025C789.346 620.542 798.3 622.206 802.666 629.046C806.672 635.323 809.038 643.925 811.786 650.904Q818.716 668.256 825.833 685.533Q837.857 715.031 850.237 744.383C854.311 754.062 859.057 763.752 862.597 773.621C864.084 777.765 864.6 781.754 864.549 786.156C855.273 795.744 849.588 797.791 836.51 798.003C789.611 798.763 742.581 797.997 695.664 798L411.291 798.012Q332.166 798.189 253.043 797.541C227.262 797.447 201.194 799.462 175.5 796.944C168.159 796.224 162.956 793.179 157.586 788.416C157.481 786.934 157.142 785.468 156.958 783.99C156.608 781.186 157.785 778.591 158.735 776.012C162.776 765.044 167.573 754.282 172.075 743.494L195.318 687.789Q200.324 675.844 205.186 663.839C208.957 654.372 215.185 634.706 221.197 627.557C226.372 621.403 236.425 619.756 244.003 619.228Z"/><path fill="#A5B1AF" d="M796.876 581.781C795.455 576.049 796.307 568.349 796.313 562.376C796.329 548.01 796.232 533.607 796.527 519.246C796.623 514.565 797.338 509.921 797.404 505.245C797.548 494.945 796.076 480.516 797.085 470.868C798.065 472.691 797.259 476.693 797.721 478.957C798.48 476.149 797.582 473.09 798.262 470.278C798.698 481.513 798.282 492.791 798.33 504.034L798.834 504.858C798.87 520.567 799.664 536.703 798.842 552.365C798.922 566.661 800.185 586.853 798.214 600.445L797.655 600.054C796.081 597.532 796.879 585.284 796.876 581.781Z"/><path fill="#EDECEB" d="M796.876 581.781C797.103 574.989 795.878 531.907 798.014 529.587C799.825 533.934 796.67 547.946 798.589 551.98C798.655 552.118 798.757 552.237 798.842 552.365C798.922 566.661 800.185 586.853 798.214 600.445L797.655 600.054C796.081 597.532 796.879 585.284 796.876 581.781Z"/><path d="M277.756 655.671C286.159 655.528 294.997 654.993 303.334 656.088C302.653 659.562 302.243 663.836 300.225 666.838C299.075 668.547 297.838 669.216 295.877 669.662C291.421 669.987 275.127 670.933 272.03 669.48C270.945 668.971 270.194 668.219 269.973 666.998C269.585 664.861 272.231 658.445 273.62 656.742C274.47 655.701 276.51 655.832 277.756 655.671Z"/><path d="M516.54 640.417C522.412 640.572 544.098 639.047 547.412 641.388C549.173 643.872 549.571 646.506 549.059 649.498C548.811 650.948 548.555 651.933 547.516 653.035C546.432 653.454 545.496 653.664 544.345 653.817C537.252 654.406 524.299 655.383 517.6 653.168C515.544 650.446 516.446 643.825 516.54 640.417Z"/><path d="M480.554 640.509C486.513 640.511 509.159 639.034 512.795 640.967C513.141 643.983 514.316 650.314 512.129 652.73C510.285 654.766 488.047 654.191 484.028 653.917C482.806 653.834 481.622 653.577 480.429 653.313C479.452 649.587 480.438 644.409 480.554 640.509Z"/><path d="M329.776 640.484C340.943 640.472 352.166 640.227 363.322 640.753C362.457 644.883 362.031 649.494 359.118 652.746C351.842 655.323 335.116 653.904 326.667 653.833C327.544 649.348 328.685 644.921 329.776 640.484Z"/><path d="M628.342 640.388C635.995 639.793 652.442 638.292 659.166 640.721C661.351 642.612 662.028 646.569 662.199 649.324C662.277 650.576 662.206 651.517 661.666 652.673C659.724 653.712 657.412 653.706 655.253 653.923C647.094 653.407 639.171 654.288 630.946 653.218C629.444 648.994 628.684 644.851 628.342 640.388Z"/><path d="M405.786 640.5L438.771 640.511C438.594 644.047 439.046 649.954 436.203 652.504C435.208 653.396 434.161 653.6 432.907 653.867C424.218 654.43 415.022 653.067 406.449 654.317C405.167 653.41 404.342 653.13 403.933 651.494C403.202 648.569 405.079 643.479 405.786 640.5Z"/><path d="M664.455 640.523C670.504 639.584 690.902 638.184 695.993 641.27C698.767 642.951 699.227 650.03 699.695 652.934C696.069 653.413 692.416 653.481 688.805 653.936C681.738 653.275 674.579 654.091 667.435 653.36C665.783 649.101 664.894 645.067 664.455 640.523Z"/><path d="M613.362 654.124C608.792 654.001 595.582 655.663 592.616 652.557C590.67 650.519 590.446 645.776 590.689 643.071C590.76 642.292 591.014 641.705 591.393 641.032C596.791 638.546 617.7 639.866 623.841 640.715C624.409 643.525 625.933 648.306 625.196 651.018C623.617 652.887 621.882 653.347 619.538 653.64C618.883 653.721 619.148 653.626 618.662 653.902L613.362 654.124Z"/><path d="M443.211 640.495C454.343 640.292 465.423 640.528 476.547 640.499C476.474 644.936 476.134 649.166 475.145 653.5C473.252 653.564 471.229 653.486 469.387 653.949C461.178 654.343 452.876 654.091 444.655 654.148C443.256 653.584 442.179 653.534 441.65 651.961C440.652 648.992 442.555 643.499 443.211 640.495Z"/><path d="M552.26 640.704C563.493 639.867 574.469 639.87 585.712 640.589C586.266 643.579 588.426 649.418 586.851 652.007C586.053 653.318 583.876 653.606 582.478 653.866C573.872 654.203 565.349 654.321 556.748 653.774C555.163 653.371 554.304 653.373 553.459 651.798C551.893 648.878 552.503 644.004 552.26 640.704Z"/><path d="M342.927 669.507C343.395 665.551 343.618 660.403 346.489 657.365C349.84 653.819 364.302 655.319 369.366 655.326C372.411 655.399 376.182 654.792 378.409 657.125C379.273 660.412 377.758 664.911 376.023 667.796C375.492 668.681 374.678 669.301 373.855 669.897C363.799 668.759 353.056 669.477 342.927 669.507Z"/><path d="M319.301 655.242C326.691 655.151 334.345 654.8 341.636 656.175C341.099 660.971 339.994 664.872 337.641 669.112C334.619 669.603 331.68 669.785 328.625 669.868Q316.294 670.07 303.962 669.947C305.004 664.699 306.109 660.147 309.062 655.613Q314.185 655.524 319.301 655.242Z"/><path d="M335.873 671.237C341.062 671.113 348.055 670.065 353.048 671.344C354.266 671.656 355.422 672.196 355.953 673.419C357.533 677.059 353.701 683.6 352.025 686.796C348.634 687.077 345.231 687.025 341.831 687.031C337.435 687.063 325.731 688.083 322.324 686.068C321.259 685.438 320.583 684.65 320.388 683.395C319.827 679.78 322.918 674.467 324.792 671.453C328.499 671.483 332.171 671.433 335.873 671.237Z"/><path d="M732.898 688.668C741.841 688.121 750.943 688.508 759.898 688.627C762.172 693.504 763.933 698.569 765.76 703.624L759.875 703.849C750.614 704.259 741.269 704.014 731.998 704.015C730.595 701.401 729.258 698.544 728.287 695.74C727.586 693.714 727.5 692.056 728.423 690.092C729.617 688.838 731.271 688.88 732.898 688.668Z"/><path d="M361.253 670.688C368.907 672.314 377.91 670.716 385.798 671.119C387.476 671.358 389.35 671.174 390.977 671.674C392.201 672.049 393.283 672.711 393.802 673.943C394.974 676.725 391.916 683.907 391.095 686.792C384.882 686.623 362.895 687.99 358.402 685.786C357.333 681.083 360.228 675.34 361.253 670.688Z"/><path d="M652.246 688.703C662.458 688.495 672.709 688.626 682.925 688.598Q683.905 690.538 684.655 692.578C685.861 695.766 687.693 700.327 686.204 703.594L685.104 703.99L653.433 704.013C651.611 700.529 649.274 695.448 649.981 691.444C650.262 689.85 650.955 689.567 652.246 688.703Z"/><path d="M690.062 688.66Q705.962 688.32 721.863 688.624C723.139 691.103 724.371 693.682 725.339 696.299C726.153 698.5 727.356 701.393 726.303 703.653L725.125 704.011C715.172 703.952 705.051 704.742 695.138 704.174C691.879 701.514 689.36 698.191 688.802 693.91C688.51 691.667 688.634 690.431 690.062 688.66Z"/><path d="M266.444 688.679C275.872 688.243 287.926 687.033 297.066 689.426C295.802 693.457 295.078 698.317 292.668 701.856C291.573 703.464 290.37 703.607 288.587 703.905C283.118 704.471 261.539 705.44 257.602 702.763C257.079 698.734 259.979 693.559 261.109 689.621C262.868 689.212 264.661 688.967 266.444 688.679Z"/><path d="M613.879 688.728Q627.025 688.255 640.173 688.674C640.571 688.682 640.91 688.677 641.314 688.746C642.823 689.005 643.526 689.26 644.389 690.529C646.309 693.351 647.815 698.723 647.302 702.153C646.839 702.524 646.435 702.842 645.885 703.078C641.143 705.114 617.752 705.155 613.185 703.206C611.974 702.69 611.256 701.531 610.815 700.333C609.858 697.734 608.362 692.751 609.631 690.24C611.001 689.211 612.215 689.025 613.879 688.728Z"/><path d="M316.674 688.244C321.317 688.131 331.274 687.066 335.113 689.609C336.264 690.371 336.697 691.442 336.857 692.765C337.269 696.183 334.222 701.289 332.317 703.964Q324.788 704.319 317.25 704.317C312.205 704.315 305.99 705.146 301.119 704.079C299.74 703.777 298.441 703.119 297.873 701.744C296.486 698.387 300.809 691.436 302.524 688.58Q309.603 688.588 316.674 688.244Z"/><path d="M706.608 639.731C718.476 639.303 730.831 639.153 742.67 640.059C743.523 643.794 747.393 649.854 746.212 653.28L744.125 653.482C737.623 653.495 709.878 654.689 705.953 652.654C704.663 651.985 704.23 650.585 703.742 649.315L703.438 648.502C702.385 645.744 701.702 644.03 702.855 641.207C704.218 639.964 704.828 640.033 706.608 639.731Z"/><path d="M360.833 688.229C365.172 688.233 373.446 687.231 377.272 689.004C378.429 689.54 379.161 690.24 379.52 691.462C380.616 695.193 377.433 700.748 375.771 704.02L359.125 704.376C354.348 704.518 347.799 705.449 343.242 704.168C341.784 703.758 340.417 702.997 339.799 701.535C338.149 697.629 341.799 691.855 343.536 688.481C349.298 688.501 355.083 688.642 360.833 688.229Z"/><path d="M367.853 640.5C378.82 640.223 389.815 639.965 400.772 640.663C400.861 645.865 399.419 648.92 397.769 653.766L397.68 654.682C396.336 654.855 395.014 654.985 393.702 655.337C390.809 655.436 387.931 655.509 385.036 655.48C383.661 658.152 380.302 663.979 381.435 666.907C381.943 668.22 383.334 669.177 384.669 669.482C386.557 669.914 388.71 669.888 390.645 669.991C389.039 670.933 387.629 670.982 385.798 671.119C377.91 670.716 368.907 672.314 361.253 670.688L361.267 670.371C364.261 669.042 370.34 670.359 373.855 669.897C374.678 669.301 375.492 668.681 376.023 667.796C377.758 664.911 379.273 660.412 378.409 657.125C376.182 654.792 372.411 655.399 369.366 655.326C368.201 654.57 366.562 654.816 365.178 654.768L364.696 654.201L365.488 653.056C365.535 648.445 366.371 644.84 367.853 640.5Z"/><path fill="#EDECEB" d="M365.488 653.056C373.184 654.822 381.373 654.186 389.214 653.845C392.025 653.722 394.982 653.366 397.769 653.766L397.68 654.682C396.336 654.855 395.014 654.985 393.702 655.337C390.809 655.436 387.931 655.509 385.036 655.48C383.661 658.152 380.302 663.979 381.435 666.907C381.943 668.22 383.334 669.177 384.669 669.482C386.557 669.914 388.71 669.888 390.645 669.991C389.039 670.933 387.629 670.982 385.798 671.119C377.91 670.716 368.907 672.314 361.253 670.688L361.267 670.371C364.261 669.042 370.34 670.359 373.855 669.897C374.678 669.301 375.492 668.681 376.023 667.796C377.758 664.911 379.273 660.412 378.409 657.125C376.182 654.792 372.411 655.399 369.366 655.326C368.201 654.57 366.562 654.816 365.178 654.768L364.696 654.201L365.488 653.056Z"/><path d="M281.167 640.456C290.345 640.47 299.563 640.72 308.735 640.577C312.737 640.515 317.315 639.609 321.249 640.233C322.408 640.417 323.68 640.865 324.335 641.898C325.358 643.511 325.04 645.472 324.497 647.204C323.556 650.204 322.809 652.27 319.876 653.768C313.528 654.072 278.859 655.471 275.556 652.648C275.571 648.764 278.77 643.468 281.167 640.456Z"/><path d="M406.449 654.317C415.022 653.067 424.218 654.43 432.907 653.867L433.083 654.535C430.861 655.585 427.423 655.298 424.964 655.404C424.141 655.531 423.467 655.364 422.976 656.111C420.771 659.465 420.637 665.226 420.583 669.148C423.088 669.52 425.585 669.919 428.11 670.123L428.245 670.729L423.908 671.051C415.671 671.091 407.32 671.044 399.104 671.606L397.907 669.921C396.005 669.346 392.609 669.615 390.645 669.991C388.71 669.888 386.557 669.914 384.669 669.482C383.334 669.177 381.943 668.22 381.435 666.907C380.302 663.979 383.661 658.152 385.036 655.48C387.931 655.509 390.809 655.436 393.702 655.337Q402.03 655.251 410.358 655.306C409.003 654.33 407.643 655.362 406.449 654.317Z"/><path fill="#EDECEB" d="M406.449 654.317C415.022 653.067 424.218 654.43 432.907 653.867L433.083 654.535C430.861 655.585 427.423 655.298 424.964 655.404C424.141 655.531 423.467 655.364 422.976 656.111C420.771 659.465 420.637 665.226 420.583 669.148C423.088 669.52 425.585 669.919 428.11 670.123L428.245 670.729L423.908 671.051C415.671 671.091 407.32 671.044 399.104 671.606L397.907 669.921Q406.575 669.937 415.227 669.402C417.401 664.975 417.628 660.53 417.31 655.704C415.017 655.456 412.664 655.428 410.358 655.306C409.003 654.33 407.643 655.362 406.449 654.317Z"/><path d="M278.574 671.776C285.792 671.41 313.426 670.366 318.763 672.634C319.738 676.591 316.307 683.157 314.88 686.988C310.882 687.07 306.874 687.018 302.875 687.024C289.922 687.074 275.676 688.33 262.908 686.184C264.047 681.352 266.26 676.733 267.778 671.999Q273.177 671.936 278.574 671.776Z"/><path d="M684.501 655.382C695.872 655.78 707.228 655.315 718.598 655.255C728.474 655.203 738.355 655.554 748.237 655.523C749.728 659.303 753.094 664.776 751.871 668.795C750.543 669.741 749.577 669.628 747.974 669.781C727.919 670.694 707.52 670.328 687.452 669.786C685.695 664.882 684.528 660.616 684.501 655.382Z"/><path d="M444.655 654.148C452.876 654.091 461.178 654.343 469.387 653.949C471.732 654.011 474.135 653.76 476.177 655.045C478.222 655.453 480.289 655.345 482.365 655.331C485.014 655.352 488.54 654.911 490.702 656.712C491.911 657.719 492.471 659.223 492.471 660.772C492.471 663.569 491.775 666.691 491.14 669.4Q483.266 669.891 475.378 670.024L469.482 670.074C467.369 671.449 463.329 670.984 460.761 671.053C453.762 670.939 446.789 670.952 439.821 671.687L439.33 671.352L439.471 670.781C441.07 670.608 442.643 670.388 444.229 670.125C438.902 669.854 433.437 669.896 428.11 670.123C425.585 669.919 423.088 669.52 420.583 669.148C420.637 665.226 420.771 659.465 422.976 656.111C423.467 655.364 424.141 655.531 424.964 655.404C433.399 655.646 442.128 655.855 450.557 655.427Q447.782 655.083 444.996 654.842L444.655 654.148Z"/><path fill="#EDECEB" d="M444.655 654.148C452.876 654.091 461.178 654.343 469.387 653.949C471.732 654.011 474.135 653.76 476.177 655.045C472.482 655.114 462.284 654.127 459.892 656.612C457.356 659.247 457.985 666.214 458.029 669.685C461.829 669.807 465.693 669.79 469.482 670.074C467.369 671.449 463.329 670.984 460.761 671.053C453.762 670.939 446.789 670.952 439.821 671.687L439.33 671.352L439.471 670.781C441.07 670.608 442.643 670.388 444.229 670.125C447.224 669.548 450.412 670.433 453.32 669.356C453.761 668.585 454.037 667.939 454.229 667.063C454.834 664.31 455.718 657.893 454.231 655.514L450.557 655.427Q447.782 655.083 444.996 654.842L444.655 654.148Z"/><path d="M424.964 655.404C433.399 655.646 442.128 655.855 450.557 655.427L454.231 655.514C455.718 657.893 454.834 664.31 454.229 667.063C454.037 667.939 453.761 668.585 453.32 669.356C450.412 670.433 447.224 669.548 444.229 670.125C438.902 669.854 433.437 669.896 428.11 670.123C425.585 669.919 423.088 669.52 420.583 669.148C420.637 665.226 420.771 659.465 422.976 656.111C423.467 655.364 424.141 655.531 424.964 655.404Z"/><path d="M630.946 653.218C639.171 654.288 647.094 653.407 655.253 653.923L655.933 655.354C652.842 655.424 649.745 655.536 646.653 655.519C646.217 660.738 646.638 664.498 649.082 669.243C651.906 669.786 654.627 670.22 657.499 670.404L657.111 671.469C658.649 671.618 659.346 671.387 660.325 672.789C662.581 676.015 662.994 682.5 663.163 686.388Q650.889 686.991 638.6 687.101L640.173 688.674Q627.025 688.255 613.879 688.728L612.93 688.279L612.735 687.055L613.925 686.988C616.361 686.848 620.323 687.185 621.979 685.327C622.298 684.16 622.392 683.222 622.278 682.008C621.94 678.429 620.785 673.838 617.987 671.462C617.338 670.931 616.582 670.524 615.867 670.086C613.972 670.112 612.159 669.906 610.278 669.679C609.357 666.798 608.37 663.649 607.875 660.669C607.641 659.261 607.738 658.032 608.71 656.896C610.474 654.833 613.673 655.329 616.127 655.315L630.686 655.308L630.946 653.218Z"/><path fill="#A5B1AF" d="M630.946 653.218C639.171 654.288 647.094 653.407 655.253 653.923L655.933 655.354C652.842 655.424 649.745 655.536 646.653 655.519C646.217 660.738 646.638 664.498 649.082 669.243C651.906 669.786 654.627 670.22 657.499 670.404L657.111 671.469C652.377 671.633 628.152 670.77 625.645 672.476C624.339 674.911 624.779 677.456 625.541 680.022C626.149 682.071 626.844 684.137 627.651 686.117C631.325 686.663 634.887 686.995 638.6 687.101L640.173 688.674Q627.025 688.255 613.879 688.728L612.93 688.279L612.735 687.055L613.925 686.988C616.361 686.848 620.323 687.185 621.979 685.327C622.298 684.16 622.392 683.222 622.278 682.008C621.94 678.429 620.785 673.838 617.987 671.462C617.338 670.931 616.582 670.524 615.867 670.086C625.246 670.282 634.522 670.423 643.879 669.628C643.735 666.179 643.915 660.234 641.397 657.596C638.8 654.876 634.114 655.39 630.686 655.308L630.946 653.218Z"/><path d="M616.127 655.315L630.686 655.308C634.114 655.39 638.8 654.876 641.397 657.596C643.915 660.234 643.735 666.179 643.879 669.628C634.522 670.423 625.246 670.282 615.867 670.086C613.972 670.112 612.159 669.906 610.278 669.679C609.357 666.798 608.37 663.649 607.875 660.669C607.641 659.261 607.738 658.032 608.71 656.896C610.474 654.833 613.673 655.329 616.127 655.315Z"/><path d="M667.435 653.36C674.579 654.091 681.738 653.275 688.805 653.936Q692.049 654.1 695.283 654.408C691.643 655.101 688.163 655.073 684.501 655.382C684.528 660.616 685.695 664.882 687.452 669.786C707.52 670.328 727.919 670.694 747.974 669.781L750.312 670.314L750.576 671.426C751.493 671.456 752.073 671.419 752.891 671.863C756.397 673.768 758.18 682.857 759.307 686.481C742.296 686.66 725.273 686.307 708.264 686.571C697.294 686.741 678.471 688.097 668.336 686.472C666.881 682.332 664.04 677.433 665.572 673.081C667.069 671.72 668.159 671.86 670.13 671.57Q668.321 671.389 666.51 671.237L666.154 670.439C663.579 669.828 660.139 670.205 657.499 670.404C654.627 670.22 651.906 669.786 649.082 669.243C646.638 664.498 646.217 660.738 646.653 655.519C649.745 655.536 652.842 655.424 655.933 655.354L666.917 654.963C666.977 654.408 667.24 653.881 667.435 653.36Z"/><path fill="#EDECEB" d="M667.435 653.36C674.579 654.091 681.738 653.275 688.805 653.936Q692.049 654.1 695.283 654.408C691.643 655.101 688.163 655.073 684.501 655.382C684.528 660.616 685.695 664.882 687.452 669.786C707.52 670.328 727.919 670.694 747.974 669.781L750.312 670.314L750.576 671.426C723.935 673.119 696.854 671.059 670.13 671.57Q668.321 671.389 666.51 671.237L666.154 670.439C670.996 670.283 676.542 670.762 681.245 669.617C682.015 668.759 682.129 668.51 682.218 667.305C682.416 664.622 681.16 658.049 678.997 656.25C677.031 654.616 669.645 655.06 666.917 654.963C666.977 654.408 667.24 653.881 667.435 653.36Z"/><path d="M666.917 654.963C669.645 655.06 677.031 654.616 678.997 656.25C681.16 658.049 682.416 664.622 682.218 667.305C682.129 668.51 682.015 668.759 681.245 669.617C676.542 670.762 670.996 670.283 666.154 670.439C663.579 669.828 660.139 670.205 657.499 670.404C654.627 670.22 651.906 669.786 649.082 669.243C646.638 664.498 646.217 660.738 646.653 655.519C649.745 655.536 652.842 655.424 655.933 655.354L666.917 654.963Z"/><path fill="#EDECEB" d="M678.083 613.715C681.794 613.773 685.497 614.28 689.182 614.697C690.349 615.542 691.175 615.884 691.729 617.235L691.079 618.343C688.626 619.771 685.644 619.88 682.865 619.98C668.264 620.504 653.472 620.008 638.855 620.008L551.55 620.009L286.25 620.007C282.982 620.037 277.018 620.744 273.976 619.583C272.821 619.142 272.1 618.42 271.658 617.269C271.346 616.455 271.461 616.718 271.845 615.763C273.107 614.768 274.692 614.544 276.261 614.455C289.094 613.727 301.805 614.378 314.63 614.476L369.046 614.502Q467.284 614.853 565.518 613.995L618.306 614.035C638.323 614.237 658.067 614.646 678.083 613.715Z"/><path fill="#EDECEB" d="M512.795 640.967C513.924 640.239 515.246 640.418 516.54 640.417C516.446 643.825 515.544 650.446 517.6 653.168C524.299 655.383 537.252 654.406 544.345 653.817L546.716 654.109C546.71 655.03 546.823 654.616 546.432 655.363Q550.565 655.265 554.694 655.06C554.72 654.377 554.668 654.805 555.009 653.805L556.748 653.774C565.349 654.321 573.872 654.203 582.478 653.866L582.156 655.301C587.32 655.298 592.873 655.744 597.99 655.32L597.767 654.969C601.939 652.981 609.321 656.289 613.362 654.124L618.662 653.902C619.937 654.01 621.174 654.166 622.437 654.368C620.95 655.472 617.905 654.231 616.127 655.315C613.673 655.329 610.474 654.833 608.71 656.896C607.738 658.032 607.641 659.261 607.875 660.669C608.37 663.649 609.357 666.798 610.278 669.679C612.159 669.906 613.972 670.112 615.867 670.086C616.582 670.524 617.338 670.931 617.987 671.462C620.785 673.838 621.94 678.429 622.278 682.008C622.392 683.222 622.298 684.16 621.979 685.327C620.323 687.185 616.361 686.848 613.925 686.988L612.735 687.055C608.636 686.719 604.294 687.006 600.168 687.001L599.608 688.496C597.115 688.656 594.574 688.56 592.075 688.563C587.054 687.889 581.423 688.346 576.337 688.349L546.424 688.373L497.601 688.357C490.645 688.344 483.524 687.902 476.599 688.171C475.828 688.201 475.516 688.195 474.732 688.021L475.519 687.319C476.24 687.336 476.954 687.356 477.673 687.412C478.561 687.481 479.31 686.903 480.102 686.508C478.049 686.531 476.597 686.794 474.734 685.801C472.173 682.021 474.184 676.058 474.6 671.671L475.378 670.024Q483.266 669.891 491.14 669.4C491.775 666.691 492.471 663.569 492.471 660.772C492.471 659.223 491.911 657.719 490.702 656.712C488.54 654.911 485.014 655.352 482.365 655.331C481.318 654.543 480.21 655.141 479.036 654.52L480.429 653.313C481.622 653.577 482.806 653.834 484.028 653.917C488.047 654.191 510.285 654.766 512.129 652.73C514.316 650.314 513.141 643.983 512.795 640.967Z"/><path d="M504.832 655.227C509.697 655.199 523.621 653.221 526.973 657.141C529.66 660.283 528.524 665.685 528.216 669.414L519.376 669.898C513.583 669.975 506.378 671.119 500.732 670.156C498.862 669.837 497.358 669.159 496.287 667.513C494.323 664.494 495.539 658.846 496.219 655.52C499.091 655.51 501.963 655.348 504.832 655.227Z"/><path d="M550.911 671.296C558.807 671.871 566.696 670.968 574.571 671.378L582.257 671.638C583.035 676.629 583.533 681.43 583.734 686.487C576.594 686.515 559.77 687.5 553.564 686.191C552.33 685.93 551.825 685.584 551.215 684.451C549.301 680.901 549.939 675.064 550.911 671.296Z"/><path d="M554.694 655.06C556.891 655.156 562.96 654.809 564.419 656.304C566.577 658.518 566.951 662.595 566.713 665.504C566.602 666.856 566.507 668.061 565.772 669.231L564.17 669.839C553.85 670.334 543.326 671.123 533.118 669.196C532.087 664.348 532.205 660.37 532.786 655.471Q539.61 655.521 546.432 655.363Q550.565 655.265 554.694 655.06Z"/><path d="M521.823 671.211C529.986 671.074 538.148 671.395 546.311 671.468Q546.727 678.979 546.257 686.487C543.134 686.47 540.013 686.642 536.894 686.772C531.274 686.931 524.02 687.934 518.585 686.896C516.643 686.526 514.842 685.8 513.758 684.055C511.5 680.417 512.973 675.375 513.803 671.498C516.485 671.531 519.147 671.366 521.823 671.211Z"/><path d="M474.6 671.671C486.151 670.92 497.469 671.035 509.028 671.511C508.989 676.54 508.699 681.491 508.305 686.5C499.142 686.477 489.164 685.435 480.102 686.508C478.049 686.531 476.597 686.794 474.734 685.801C472.173 682.021 474.184 676.058 474.6 671.671Z"/><path d="M586.6 671.519C597.082 671.327 607.506 671.332 617.987 671.462C620.785 673.838 621.94 678.429 622.278 682.008C622.392 683.222 622.298 684.16 621.979 685.327C620.323 687.185 616.361 686.848 613.925 686.988L612.735 687.055C608.636 686.719 604.294 687.006 600.168 687.001Q594.157 686.765 588.148 686.464C586.888 681.288 586.403 676.854 586.6 671.519Z"/><path d="M554.694 655.06C554.72 654.377 554.668 654.805 555.009 653.805L556.748 653.774C565.349 654.321 573.872 654.203 582.478 653.866L582.156 655.301C587.32 655.298 592.873 655.744 597.99 655.32C600.095 655.529 601.862 655.548 603.341 657.279C604.999 659.221 605.908 665.267 605.341 667.705C605.154 668.509 605.064 669.1 604.283 669.443C599.706 671.454 579.556 670.419 574.087 669.716L572.045 670.086L572.052 670.546L574.571 671.378C566.696 670.968 558.807 671.871 550.911 671.296C555.291 670.597 560.105 671.899 564.399 670.639L564.17 669.839L565.772 669.231C566.507 668.061 566.602 666.856 566.713 665.504C566.951 662.595 566.577 658.518 564.419 656.304C562.96 654.809 556.891 655.156 554.694 655.06Z"/><path fill="#A5B1AF" d="M554.694 655.06C554.72 654.377 554.668 654.805 555.009 653.805L556.748 653.774C565.349 654.321 573.872 654.203 582.478 653.866L582.156 655.301L570.139 655.608C570.039 660.14 569.385 665.425 572.39 669.173L574.087 669.716L572.045 670.086L572.052 670.546L574.571 671.378C566.696 670.968 558.807 671.871 550.911 671.296C555.291 670.597 560.105 671.899 564.399 670.639L564.17 669.839L565.772 669.231C566.507 668.061 566.602 666.856 566.713 665.504C566.951 662.595 566.577 658.518 564.419 656.304C562.96 654.809 556.891 655.156 554.694 655.06Z"/><path d="M469.482 670.074L475.378 670.024L474.6 671.671C474.184 676.058 472.173 682.021 474.734 685.801C476.597 686.794 478.049 686.531 480.102 686.508C479.31 686.903 478.561 687.481 477.673 687.412C476.954 687.356 476.24 687.336 475.519 687.319L474.732 688.021C475.516 688.195 475.828 688.201 476.599 688.171C483.524 687.902 490.645 688.344 497.601 688.357L546.424 688.373L576.337 688.349C581.423 688.346 587.054 687.889 592.075 688.563C594.574 688.56 597.115 688.656 599.608 688.496C601.549 688.916 602.614 689.042 603.746 690.848C605.982 694.414 606.405 699.521 606.66 703.651C595.341 705.164 583.532 704.009 572.118 703.991L503.781 704.005L434.962 704.034C422.001 704.162 393.632 705.847 382.149 703.266C382.331 699.093 382.229 693.257 385.672 690.309C389.164 687.319 407.15 689.01 412.775 688.886C410.717 688.486 408.513 688.421 406.422 688.214L406.506 687.901C407.54 687.923 408.535 687.889 409.565 687.809C407.806 687.719 406.482 688.009 405.099 686.87C401.869 686.027 399.473 687.005 396.614 684.513C395.863 681.577 398.4 674.831 399.104 671.606C407.32 671.044 415.671 671.091 423.908 671.051L428.245 670.729L428.11 670.123C433.437 669.896 438.902 669.854 444.229 670.125C442.643 670.388 441.07 670.608 439.471 670.781L439.33 671.352L439.821 671.687C446.789 670.952 453.762 670.939 460.761 671.053C463.329 670.984 467.369 671.449 469.482 670.074Z"/><path fill="#A5B1AF" d="M469.482 670.074L475.378 670.024L474.6 671.671C474.184 676.058 472.173 682.021 474.734 685.801C476.597 686.794 478.049 686.531 480.102 686.508C479.31 686.903 478.561 687.481 477.673 687.412C476.954 687.356 476.24 687.336 475.519 687.319L474.732 688.021C475.516 688.195 475.828 688.201 476.599 688.171C483.524 687.902 490.645 688.344 497.601 688.357L546.424 688.373L576.337 688.349C581.423 688.346 587.054 687.889 592.075 688.563C584.924 689.476 577.301 688.969 570.082 688.963L530.963 688.927C491.584 688.894 452.148 689.451 412.775 688.886C410.717 688.486 408.513 688.421 406.422 688.214L406.506 687.901C407.54 687.923 408.535 687.889 409.565 687.809C407.806 687.719 406.482 688.009 405.099 686.87C413.398 687.113 421.758 686.691 430.055 686.424C430.988 683.519 432.052 680.571 432.789 677.612C433.163 676.111 433.226 674.613 432.178 673.337C430.292 671.042 426.588 671.387 423.908 671.051L428.245 670.729L428.11 670.123C433.437 669.896 438.902 669.854 444.229 670.125C442.643 670.388 441.07 670.608 439.471 670.781L439.33 671.352L439.821 671.687L437.869 672.679C435.128 676.497 435.497 681.493 435.623 685.97C446.302 687.752 457.706 686.442 468.53 686.516C470.146 681.558 470.087 676.622 469.395 671.524C466.46 671.532 463.671 671.499 460.761 671.053C463.329 670.984 467.369 671.449 469.482 670.074Z"/><path d="M439.821 671.687C446.789 670.952 453.762 670.939 460.761 671.053C463.671 671.499 466.46 671.532 469.395 671.524C470.087 676.622 470.146 681.558 468.53 686.516C457.706 686.442 446.302 687.752 435.623 685.97C435.497 681.493 435.128 676.497 437.869 672.679L439.821 671.687Z"/><path d="M399.104 671.606C407.32 671.044 415.671 671.091 423.908 671.051C426.588 671.387 430.292 671.042 432.178 673.337C433.226 674.613 433.163 676.111 432.789 677.612C432.052 680.571 430.988 683.519 430.055 686.424C421.758 686.691 413.398 687.113 405.099 686.87C401.869 686.027 399.473 687.005 396.614 684.513C395.863 681.577 398.4 674.831 399.104 671.606Z"/><path fill="#A5B1AF" d="M415.368 719.636C423.729 720.498 432.604 719.702 441 719.583C453.769 719.402 466.552 719.506 479.322 719.5L558.301 719.505C573.489 719.519 588.608 719.791 603.799 719.458C610.193 740.403 614.931 761.897 620.4 783.094Q612.868 783.148 605.342 783.467L398.68 783.511C401.918 774.661 404.001 765.343 406.325 756.221C409.427 744.039 412.56 731.891 415.368 719.636Z"/><path fill="#153846" d="M730.966 219.245C740.188 219.211 759.63 218.21 767.771 220.14C771.186 220.95 774.44 222.597 776.98 225.039C783.968 231.757 783.832 240.736 784.002 249.692C784.46 273.864 783.971 298.1 783.971 322.279L783.993 470.127L784.058 543.828C784.162 559.102 785.224 575.18 783.641 590.347C783.064 595.871 781.243 600.637 777.255 604.622C773.94 607.934 768.693 611.058 763.988 611.556C757.643 612.227 751.298 611.872 744.932 611.819L718.138 611.738L621.322 611.98L293.038 612.072Q292.28 612.109 291.521 612.134C278.78 612.581 255.432 612.597 245.967 603.206C240.219 597.502 240.185 590.274 240.06 582.722C239.945 575.832 240.344 568.896 240.416 562.001L240.596 519.076L240.629 367.84L240.583 283.074C240.565 268.877 239.52 254.006 240.72 239.89C241.182 234.449 242.541 229.464 246.557 225.514C249.521 222.6 254.119 220.117 258.29 219.694C263.59 219.156 269.161 219.448 274.492 219.458L303.49 219.51L398.993 219.514L605.554 219.506Q668.261 219.721 730.966 219.245Z"/><path d="M508.67 225.487C509.479 225.461 510.292 225.437 511.102 225.475C513.342 225.582 515.523 226.724 516.965 228.44C518.28 230.003 518.903 231.847 518.708 233.888C518.412 236.995 516.639 238.695 514.302 240.522C513.113 240.549 511.906 240.594 510.719 240.509C508.867 240.377 506.98 239.088 505.801 237.701C504.512 236.184 503.917 234.306 504.158 232.325C504.541 229.16 506.309 227.426 508.67 225.487Z"/><path fill="#A75039" d="M262.568 248.767C282.886 247.879 303.398 248.275 323.734 248.277L432.321 248.499L762.025 248.498Q762.401 283.719 762.03 318.941L762.01 445.806L762.019 531.445C762.026 546.458 762.618 561.469 761.913 576.47L408.48 576.499L319.59 576.5Q290.83 576.274 262.075 576.82Q263.106 462.157 262.474 347.492C262.465 314.644 261.669 281.594 262.568 248.767Z"/><path fill="#EDECEB" d="M526.061 372.876C526.284 372.937 526.518 372.969 526.73 373.061C527.705 373.485 528.222 374.743 528.682 375.615C528.773 377.848 527.97 379.744 526.76 381.602C523.175 387.109 518.713 389.908 512.416 391.323C511.502 390.867 510.403 389.803 509.914 388.888C509.332 387.797 509.532 386.72 509.979 385.624C512.638 379.116 520.041 375.549 526.061 372.876Z"/><path fill="#EDECEB" d="M493.827 390.524C500.838 390.319 506.132 392.341 512.522 394.903C517.825 393.142 523.796 390.627 529.428 390.662C536.474 390.706 541.146 395.085 545.856 399.703C543.228 401.882 540.788 403.943 538.984 406.905C536.644 410.746 535.645 415.309 536.749 419.728C538.014 424.789 541.674 428.322 546.053 430.871C543.385 437.921 540.283 444.01 535.928 450.172C528.236 460.66 523.862 454.836 513.596 454.586C509.146 454.478 504.699 456.239 500.524 457.58C494.087 454.624 489.921 449.235 486.74 443.098C480.886 431.807 476.847 417.247 480.967 404.731C483.239 397.827 487.48 393.656 493.827 390.524Z"/></svg> 