<?xml version="1.0" encoding="utf-8" ?><!-- created by svgstack.com | Attribution is required. --><svg xmlns="http://www.w3.org/2000/svg" xmlns:xlink="http://www.w3.org/1999/xlink" width="1024" height="1024"><path fill="#D2AB52" d="M119.994 779.692C121.831 781.716 123.798 783.527 126.193 784.878C132.181 788.256 139.421 788.282 146.122 788.433C167.153 788.909 188.273 788.527 209.315 788.528L327.282 788.532L686.538 788.548L844.069 788.664C854.443 788.583 881.945 789.957 890.53 787.421C896.386 785.692 901.196 781.505 904.021 776.134C904.139 785.631 905.551 796.392 898.293 803.818C894.865 807.325 890.238 809.252 885.533 810.349C875.699 812.64 864.882 811.873 854.828 811.855C846.304 811.839 837.773 811.959 829.25 811.861L671.585 811.501L351.944 811.61L210.946 811.511C200.922 811.494 190.879 811.348 180.858 811.557C170.277 811.778 159.552 812.482 148.985 811.571C140.543 810.844 131.182 808.956 125.131 802.479C119.346 796.287 120.018 787.55 119.994 779.692Z"/><path fill="#EBD39D" d="M205.974 678.038C212.316 680.113 245.678 678.598 254.53 678.539Q286.221 678.289 317.911 678.613L689.267 678.62L784.748 678.608C793.744 678.584 810.254 679.953 818.362 678.313C833.949 680.822 839.913 680.24 849.93 694.007C860.126 708.02 870.043 722.224 880.32 736.183C887.251 745.598 896.26 755.997 901.605 766.334C903.253 769.521 903.984 772.559 904.021 776.134C901.196 781.505 896.386 785.692 890.53 787.421C881.945 789.957 854.443 788.583 844.069 788.664L686.538 788.548L327.282 788.532L209.315 788.528C188.273 788.527 167.153 788.909 146.122 788.433C139.421 788.282 132.181 788.256 126.193 784.878C123.798 783.527 121.831 781.716 119.994 779.692C119.833 775.796 120.122 772.271 121.738 768.668C125.357 760.598 136.361 746.625 141.794 738.567C152.786 722.264 163.769 703.327 176.171 688.25C183.85 678.914 194.881 679.08 205.974 678.038Z"/><path fill="#D2AB52" d="M471.271 734.25C489.727 734.162 508.199 734.633 526.665 734.491C547.696 734.328 568.975 733.489 589.984 734.535C592.023 734.636 595.242 734.677 596.931 735.799C599.354 737.409 604.87 768.186 605.421 772.883C605.639 774.735 605.976 776.842 604.755 778.407C599.696 780.684 560.78 779.52 552.25 779.505L468.5 779.511C454.02 779.566 439.4 780.38 424.929 779.727C423.027 779.641 421.393 779.375 419.626 778.671C419.205 778.217 418.87 778.041 418.776 777.412C418.102 772.888 422.621 747.181 424.135 741.906C424.822 739.511 425.699 737.415 427.209 735.415C430.897 733.324 464.924 734.25 471.271 734.25Z"/><path fill="#192530" d="M244.73 691.639C254.472 692.21 264.139 691.804 273.884 691.78C279.68 691.766 285.474 692.223 291.27 692.04C304.042 691.636 317.206 690.875 329.97 691.555C331.691 691.647 333.04 692.656 334.593 692.76C336.795 692.906 339.612 691.879 341.953 691.763C346.68 691.529 378.688 691.131 380.98 692.102Q381.12 693.305 381.207 694.514C381.374 693.328 381.44 692.771 382.287 691.897C390.205 691.244 398.526 691.723 406.487 691.724C411.611 691.724 417.417 691.204 422.459 691.843C422.651 691.868 422.891 691.809 423.033 691.94C423.788 692.638 423.223 693.193 424.409 693.822C424.695 693.487 425.222 692.856 425.522 692.567C425.526 692.564 426.403 691.828 426.527 691.79C428.942 691.042 457.681 691.745 463.421 691.746L601.249 691.692C601.531 693.867 601.983 696.015 602.399 698.168C602.905 696.339 602.501 693.971 602.412 692.064C606.996 691.809 643.126 691.277 645.744 692.352C646.017 693.136 646.239 693.865 646.403 694.682C646.451 694.924 646.492 695.167 646.536 695.41L646.861 695.415C646.815 694.196 646.751 693.222 647.089 692.035C650.962 690.916 684.142 691.749 690.574 691.656C691.153 693.119 691.788 694.454 692.554 695.827C692.864 694.495 692.211 693.015 691.86 691.703C720.484 691.982 749.178 691.95 777.802 691.68L793.504 716.112C796.166 720.24 799.286 724.386 801.483 728.769L800.982 729.504L484.121 729.223L415.08 729.252C403.3 729.322 391.496 729.837 379.72 729.64C378.488 729.619 371.737 729.806 371.129 728.894C370.66 728.19 371.282 727.429 370.527 726.648C370.033 727.452 369.607 728.131 368.925 728.796C366.91 730.766 282.695 729.294 272.481 729.287C267.719 729.284 262.958 729.677 258.19 729.71Q238.575 729.773 218.961 729.502Q231.95 710.641 244.73 691.639Z"/><path fill="#35A8C6" d="M205.974 678.038C202.035 675.36 197.942 673.567 194.466 670.162C189.596 665.393 187.863 659.449 187.221 652.851C185.963 639.928 187.3 626.732 187.361 613.767L187.313 535.128L187.132 257.015C187.046 244.264 188.272 231.997 197.799 222.52C203.795 216.555 212.083 213.288 220.407 212.402C227.419 211.657 234.618 212.335 241.657 212.449Q256.471 212.592 271.285 212.544L387.561 212.54L772.493 212.511C790.423 212.448 812.88 209.134 826.673 223.046C831.881 228.3 835.702 236.043 836.602 243.404C837.289 249.023 837.001 254.89 837.004 260.552L837.001 287.273L836.991 377.085L837.028 562.943C837.045 591.082 837.57 619.268 837.224 647.4C837.121 655.786 837.04 664.551 830.573 670.82C826.847 674.432 822.625 675.72 818.362 678.313C810.254 679.953 793.744 678.584 784.748 678.608L689.267 678.62L317.911 678.613Q286.221 678.289 254.53 678.539C245.678 678.598 212.316 680.113 205.974 678.038Z"/><path fill="#EEEEED" d="M526.768 381.074C528.056 380.99 529.386 381.037 530.548 381.684C531.697 382.323 532.342 383.216 532.549 384.533C532.934 386.99 531.281 390.051 530.099 392.118C526.394 398.599 520.687 402.264 513.626 404.159C512.662 404.391 511.586 404.609 510.603 404.321C509.508 404 508.565 403.435 508.125 402.341C506.888 399.265 509.241 394.374 510.83 391.823C514.628 385.729 519.903 382.535 526.768 381.074Z"/><path fill="#EEEEED" d="M531.229 406.086C533.614 405.878 536.077 406.234 538.374 406.881C545.558 408.905 551.742 414.162 555.402 420.593Q554.152 421.323 552.995 422.193Q551.838 423.062 550.788 424.059Q549.738 425.056 548.811 426.167Q547.883 427.279 547.089 428.489C543.707 433.669 542.386 440.353 543.805 446.403C545.662 454.318 550.623 458.695 557.195 462.751Q556.089 467.458 554.484 472.02C551.443 480.886 546.256 492.971 537.159 497.12C530.271 500.262 524.738 497.276 518.22 494.986C511.539 492.639 507.136 493.594 500.952 496.528C499.524 497.269 497.943 498.205 496.36 498.539C493.161 499.216 489.486 497.773 486.915 495.942C475.269 487.644 468.999 469.742 466.655 456.271C464.419 443.422 464.666 426.701 472.748 415.735Q473.203 415.108 473.7 414.513Q474.197 413.918 474.733 413.359Q475.269 412.799 475.842 412.277Q476.414 411.755 477.021 411.273Q477.628 410.791 478.266 410.351Q478.904 409.911 479.571 409.516Q480.237 409.12 480.929 408.771Q481.621 408.422 482.335 408.12C493.782 403.284 500.574 411.58 511.384 411.376C518.298 411.246 524.457 407.183 531.229 406.086Z"/><path fill="#192530" d="M772.493 212.511C790.423 212.448 812.88 209.134 826.673 223.046C831.881 228.3 835.702 236.043 836.602 243.404C837.289 249.023 837.001 254.89 837.004 260.552L837.001 287.273L836.991 377.085L837.028 562.943C837.045 591.082 837.57 619.268 837.224 647.4C837.121 655.786 837.04 664.551 830.573 670.82C826.847 674.432 822.625 675.72 818.362 678.313C810.254 679.953 793.744 678.584 784.748 678.608L689.267 678.62L317.911 678.613C318.016 677.631 318.203 677.3 318.851 676.523C320.637 674.382 322.937 672.511 324.881 670.499L340.803 653.875C344.739 654.041 348.693 654.315 352.622 653.931Q414.724 653.044 476.829 653.502L670.684 653.505L755.957 653.48C769.172 653.514 783.333 655.038 796.392 653.505C801.234 652.937 806.211 651.224 809.212 647.149C811.769 643.677 811.861 636.749 811.961 632.533C812.661 602.886 812.014 573.075 812.014 543.407L812.013 368.418L811.967 288.631C811.986 277.123 813.414 262.145 811.593 251.121C810.926 247.08 808.622 245.346 805.478 243.062C784.915 242.302 764.026 243.009 743.435 243.071L743.367 241.737C746.374 237.778 750.4 234.3 753.926 230.793Q763.141 221.583 772.493 212.511Z"/><path fill="#243A4C" d="M205.974 678.038C202.035 675.36 197.942 673.567 194.466 670.162C189.596 665.393 187.863 659.449 187.221 652.851C185.963 639.928 187.3 626.732 187.361 613.767L187.313 535.128L187.132 257.015C187.046 244.264 188.272 231.997 197.799 222.52C203.795 216.555 212.083 213.288 220.407 212.402C227.419 211.657 234.618 212.335 241.657 212.449Q256.471 212.592 271.285 212.544L387.561 212.54L772.493 212.511Q763.141 221.583 753.926 230.793C750.4 234.3 746.374 237.778 743.367 241.737L743.435 243.071C727.603 243.564 711.693 243.258 695.849 243.258L613.368 243.249L366.561 243.248L276.321 243.236C260.047 243.222 243.165 242.279 226.956 243.62C223.164 243.934 220.091 244.909 217.491 247.776C214.021 251.603 213.457 255.32 213.155 260.256C212.598 269.35 212.928 278.591 212.959 287.706L213.001 330.361L213.158 471.047L213.154 581.48Q213.159 595.247 212.946 609.013C212.762 617.797 212.312 626.732 212.913 635.506C213.269 640.703 214.281 646.279 218.412 649.864C220.89 652.015 223.797 653.087 227.012 653.531C236.74 654.874 247.026 653.617 256.837 653.523C276.889 653.331 296.945 653.704 316.996 653.647C328.629 653.615 341.109 652.475 352.622 653.931C348.693 654.315 344.739 654.041 340.803 653.875L324.881 670.499C322.937 672.511 320.637 674.382 318.851 676.523C318.203 677.3 318.016 677.631 317.911 678.613Q286.221 678.289 254.53 678.539C245.678 678.598 212.316 680.113 205.974 678.038Z"/><path fill="#192530" d="M509.359 221.001L509.907 221.008C512.831 221.068 515.545 221.57 517.595 223.849C518.825 225.217 519.376 226.863 519.198 228.703C518.925 231.533 516.887 233.311 514.712 234.824C513.737 234.925 512.725 235.046 511.745 234.998C509.875 234.905 507.747 233.951 506.474 232.571C505.229 231.22 504.718 229.352 504.913 227.545C505.23 224.596 507.154 222.752 509.359 221.001Z"/></svg> 