<?xml version="1.0" encoding="utf-8" ?><!-- created by svgstack.com | Attribution is required. --><svg xmlns="http://www.w3.org/2000/svg" xmlns:xlink="http://www.w3.org/1999/xlink" width="1024" height="1024"><path fill="#C9C8C7" d="M116.277 748.161C123.969 754.832 129.784 755.625 139.697 756.067C153.002 756.661 166.57 755.989 179.904 755.994L283.253 755.508L573.841 755.044L801.346 755.966Q819.93 755.923 838.512 756.099C857.018 756.442 875.796 757.066 894.279 755.86C899.474 755.521 903.559 752.879 907.613 749.885C907.44 758.58 905.236 767.419 899.253 773.982C892.206 781.714 882.899 783.997 872.815 784.378C858.388 784.923 843.909 784.344 829.479 784.266L743.744 783.939L450.971 783.927L245.173 783.992L181.135 784.011C171.303 784.025 161.264 784.893 151.479 784.062C141.378 783.205 130.314 779.689 122.868 772.5C115.921 765.794 116.373 757.024 116.277 748.161Z"/><path fill="#F3F2F2" d="M190.587 673.769C199.542 675.2 210.015 674.002 219.118 674.017Q245.104 674.15 271.089 673.886C283.436 673.658 295.839 672.895 308.182 673.022L702.727 673.987C731.394 673.894 760.037 672.937 788.71 673.008C802.761 673.043 817.183 672.11 831.038 674.777C835.839 676.02 839.472 677.958 843.45 680.891C852.613 687.646 901.757 732.775 906.515 741.403C907.964 744.03 907.717 746.999 907.613 749.885C903.559 752.879 899.474 755.521 894.279 755.86C875.796 757.066 857.018 756.442 838.512 756.099Q819.93 755.923 801.346 755.966L573.841 755.044L283.253 755.508L179.904 755.994C166.57 755.989 153.002 756.661 139.697 756.067C129.784 755.625 123.969 754.832 116.277 748.161L116.526 741.416C116.609 741.288 116.689 741.157 116.775 741.031C120.099 736.15 124.742 731.856 128.84 727.601Q140.437 715.681 152.217 703.941C159.907 696.234 169.761 684.784 178.449 678.627C182.13 676.018 186.223 674.673 190.587 673.769Z"/><path fill="#66878D" d="M821.716 715.997C823.532 717.6 825.312 719.208 827.02 720.929L808.179 720.999C807.152 719.669 806.146 718.334 805.005 717.097C807.904 714.82 817.665 715.943 821.716 715.997Z"/><path fill="#C9C8C7" d="M739.15 682.025L784.086 682.028C786.083 683.92 787.901 685.833 789.668 687.945L741.128 687.978L739.15 682.025Z"/><path fill="#C9C8C7" d="M688.282 682.009L737.787 682.015L739.809 687.816C734.719 688.514 728.922 688.066 723.754 688.081L689.675 687.968L688.282 682.009Z"/><path fill="#C9C8C7" d="M407.213 682.006L461.156 682.021L458.294 688.016C440.869 688.883 421.273 688.003 403.605 687.958C405.036 686.023 406.137 684.153 407.213 682.006Z"/><path fill="#C9C8C7" d="M296.163 682.028Q323.243 681.914 350.323 682.088C348.893 683.918 347.739 685.971 346.524 687.947C340.385 688.332 334.104 688.095 327.949 688.093L292.137 687.949L296.163 682.028Z"/><path fill="#C9C8C7" d="M351.628 682.04L405.969 682.06C404.845 684.133 403.773 686.093 402.314 687.961C384.269 689.064 365.711 688.071 347.608 687.954C348.783 685.811 350.136 683.96 351.628 682.04Z"/><path fill="#C9C8C7" d="M689.877 689.076Q715.243 688.834 740.61 689.018C741.824 692.572 743.536 695.992 745.093 699.409C727.712 699.783 710.293 699.518 692.906 699.548C692.071 696.008 690.954 692.549 689.877 689.076Z"/><path fill="#C9C8C7" d="M346.766 689.055C365.004 688.931 383.422 688.28 401.637 688.98C400.002 692.65 397.972 696.015 395.887 699.445L382.072 699.581C375.78 699.138 343.371 700.674 340.629 698.685C342.707 695.504 344.874 692.35 346.766 689.055Z"/><path fill="#66878D" d="M802.778 716.981C804.196 718.141 805.172 719.27 806.245 720.751L193.876 721.27C195.195 720.155 196.497 718.959 197.92 717.982L802.778 716.981Z"/><path fill="#C9C8C7" d="M440.561 725.971C457.533 727.177 475.032 726.8 492.055 726.829L584.415 726.459C588.599 733.665 592.663 740.881 596.096 748.482L583.625 748.586C571.051 749.012 558.392 748.715 545.809 748.724L499.16 748.994C474.978 749.007 450.523 749.725 426.366 748.604C430.887 741.136 435.158 732.822 440.561 725.971Z"/><path fill="#C9C8C7" d="M461.877 682.003L547.339 682.024C560.311 681.992 573.529 680.345 586.434 682.159L588.286 682.064C603.988 681.025 620.492 682.044 636.296 681.999Q636.835 685.017 637.428 688.025L637.55 689.014C638.009 691.693 638.365 694.399 639.269 696.97L639.617 696.212L637.267 682.019L687.065 681.994C687.473 684.007 687.913 686.018 688.27 688.04C681.991 688.134 640.961 687.5 638.987 688.729C654.658 689.766 672.593 688.64 688.642 688.961Q690.281 694.212 691.991 699.44L640.071 699.51L639.869 701.204C640.492 705.851 641.205 710.338 642.82 714.76C643.386 710.627 641.511 704.927 640.584 700.903L692.173 700.833C693.806 706.336 695.229 711.824 697.968 716.909C696.936 711.471 695.212 706.222 693.587 700.94C710.946 700.8 728.187 700.259 745.547 700.933C747.436 705.94 749.475 711.115 752.23 715.715C752.523 711.785 748.398 704.644 746.585 701.005L746.091 699.72C744.846 696.118 743.342 692.584 741.933 689.041L790.668 689.036C792.411 690.587 795.094 693.676 797.288 694.314C793.662 690.482 790.309 686.407 786.914 682.373C793.945 687.054 799.686 693.299 805.473 699.384L807.05 700.977C811.872 705.906 817.371 710.677 821.716 715.997C817.665 715.943 807.904 714.82 805.005 717.097C804.095 715.237 792.768 704.029 790.541 701.605C789.944 701.257 790.309 701.356 789.405 701.569C791.927 706.653 799.339 711.798 802.778 716.981L197.92 717.982C201.872 711.773 208.005 706.229 213.276 701.094L215.628 698.453C220.04 693.102 225.215 688.344 228.645 682.257L294.769 682.235C293.443 684.239 291.932 686.121 290.471 688.028C277.08 688.776 263.182 688.083 249.748 687.996C243.94 687.958 237.06 687.142 231.46 688.645C250.857 689.504 270.249 688.441 289.637 688.969C287.673 691.938 285.798 694.955 283.352 697.558L284.038 698.246C286.487 695.181 288.892 692.068 291.394 689.048L345.629 688.923L339.967 698.168L340.629 698.685C343.371 700.674 375.78 699.138 382.072 699.581L382.518 700.286C385.257 700.506 388.563 700.33 391.209 700.925L393.49 701.055C394.018 701.779 394.139 701.594 393.965 702.354C393.162 705.867 386.851 710.638 387.871 713.949L388.847 713.282L388.426 712.704L388.648 712.28L389.172 712.313Q392.67 706.699 396.229 701.124C396.653 700.189 397.09 699.375 397.669 698.526C399.24 695.245 401.272 691.932 403.444 689.013L458.016 688.934C457.068 691.917 455.839 694.712 454.559 697.563L454.928 698.212C456.585 695.133 457.93 692.004 459.234 688.761L459.589 688.041L461.877 682.003Z"/><path fill="#DDDDDE" d="M338.78 699.06L339.967 698.168L340.629 698.685C343.371 700.674 375.78 699.138 382.072 699.581L382.518 700.286C385.257 700.506 388.563 700.33 391.209 700.925C373.881 701.394 356.377 701.043 339.031 701.043Q333.502 709.112 327.735 717.012C329.235 711.018 333.581 706.27 337.274 701.477L338.78 699.06Z"/><path fill="#C9C8C7" d="M190.587 673.769C190.535 673.572 190.491 673.373 190.432 673.178C189.257 669.296 186.871 665.85 186.586 661.675C185.255 642.174 186.404 619.944 186.454 600.146L186.458 488.421L186.366 348.042C186.299 324.074 185.14 299.9 186.154 275.96C186.418 269.737 187.133 264.321 190.013 258.731C194.207 250.589 201.327 244.945 210.023 242.248C220.453 239.012 241.596 240.459 253.127 240.48L312.682 240.776L447.719 240.871L693.827 240.672L762.623 240.713C774.662 240.675 786.79 240.151 798.818 240.538C805.94 240.767 813.409 241.334 819.826 244.691C827.656 248.788 833.754 255.741 836.35 264.211C840.344 277.242 837.972 310.232 837.98 325.74L838.091 424.952L838.055 580.06L838.067 627.855C838.082 636.87 838.407 646.023 837.985 655.024C837.716 660.768 836.899 664.775 834.098 669.873C833.165 671.572 831.91 673.048 831.038 674.777C817.183 672.11 802.761 673.043 788.71 673.008C760.037 672.937 731.394 673.894 702.727 673.987L308.182 673.022C295.839 672.895 283.436 673.658 271.089 673.886Q245.104 674.15 219.118 674.017C210.015 674.002 199.542 675.2 190.587 673.769Z"/><path fill="#0D3136" d="M591.648 667.665C584.62 667.393 577.561 667.694 570.527 667.721Q548.7 667.828 526.873 667.702L322.479 667.496L264.518 667.528C252.694 667.619 240.183 668.907 228.451 667.168Q227.169 666.981 225.905 666.697Q224.641 666.413 223.402 666.033Q222.164 665.653 220.958 665.179Q219.752 664.705 218.586 664.141Q217.42 663.576 216.3 662.924Q215.181 662.272 214.114 661.536Q213.048 660.8 212.041 659.984Q211.035 659.169 210.093 658.279C202.33 650.941 201.286 642.398 201.096 632.275C200.954 624.719 201.476 617.125 201.521 609.562L201.699 553.146L201.591 405.545L201.482 318.617C201.469 305.972 200.49 287.487 201.832 275.535Q201.935 274.563 202.12 273.602Q202.306 272.642 202.573 271.702Q202.84 270.761 203.187 269.846Q203.533 268.932 203.956 268.05Q204.38 267.169 204.877 266.327Q205.374 265.485 205.941 264.688Q206.509 263.892 207.142 263.146Q207.775 262.401 208.47 261.713C211.837 258.374 215.975 256.082 220.675 255.326C228.007 254.146 235.847 254.836 243.248 254.917Q258.147 255.017 273.045 254.83L428.706 255.017C430.107 261.326 436.819 272.552 436.297 278.007C415.71 278.416 395.12 278.01 374.531 277.983Q297.275 277.547 220.017 278.058L220.039 646.012L582.538 646.022C584.976 653.016 590.617 660.45 591.648 667.665Z"/><path fill="#0D3136" d="M428.706 255.017L682.822 255.217L762.448 254.982C774.777 254.949 787.689 253.856 799.939 255.122C805.902 255.739 810.636 257.698 814.907 261.941C822.838 269.819 822.711 280.311 822.67 290.702L822.558 533.258L822.633 603.402C822.657 615.449 823.681 628.538 822.198 640.49C821.347 647.345 818.376 652.986 813.521 657.822C808.922 662.403 802.806 666.244 796.335 667.357C788.928 668.63 780.617 668.018 773.095 668.015L733.443 667.986C688.592 667.966 643.681 668.496 598.838 668.018C596.487 667.993 593.958 668.086 591.648 667.665C590.617 660.45 584.976 653.016 582.538 646.022L803.072 646.018L803.024 278.029C780.025 277.678 756.975 278.001 733.971 277.992L593.274 278.005L497.421 278.024C478.899 278.018 460.286 277.585 441.778 278.215C439.954 278.204 438.12 278.081 436.297 278.007C436.819 272.552 430.107 261.326 428.706 255.017Z"/><path fill="#F3F2F2" d="M510.594 261.762C511.813 262.101 513.323 262.459 514.309 263.281C515.23 264.049 515.728 264.96 515.661 266.169C515.565 267.903 514.018 269.264 512.915 270.45C511.351 270.159 509.642 269.882 508.486 268.67C507.903 268.06 507.545 267.363 507.545 266.527C507.546 264.262 509.049 263.173 510.594 261.762Z"/><path fill="#EFA27C" d="M220.017 278.058Q297.275 277.547 374.531 277.983C395.12 278.01 415.71 278.416 436.297 278.007C438.12 278.081 439.954 278.204 441.778 278.215C440.619 278.353 439.462 278.48 438.312 278.687C437.671 280.493 439.292 284.148 439.927 285.967C442.909 294.499 446.467 302.878 449.672 311.338C465.32 352.648 482.638 393.549 496.501 435.495L499.485 436.809C502.937 443.241 505.459 450.288 508.425 456.964C513.342 468.03 519.524 479.17 522.474 490.946L523.402 491.743C524.266 501.563 534.34 521.778 538.344 531.938Q555.288 574.604 571.534 617.541C575.081 627.01 579.449 636.417 582.538 646.022L220.039 646.012L220.017 278.058Z"/><path fill="#3E0000" d="M496.501 435.495L499.485 436.809C502.937 443.241 505.459 450.288 508.425 456.964C513.342 468.03 519.524 479.17 522.474 490.946C515.462 489.771 509.635 491.682 503.011 493.561C500.435 492.708 497.805 491.711 495.615 490.082C487.446 484.006 482.574 472.758 481.348 462.882C480.451 455.654 481.309 446.771 486.097 440.969C488.777 437.721 492.36 435.967 496.501 435.495Z"/><path fill="#F1B796" d="M441.778 278.215C460.286 277.585 478.899 278.018 497.421 278.024L593.274 278.005L733.971 277.992C756.975 278.001 780.025 277.678 803.024 278.029L803.072 646.018L582.538 646.022C579.449 636.417 575.081 627.01 571.534 617.541Q555.288 574.604 538.344 531.938C534.34 521.778 524.266 501.563 523.402 491.743L522.474 490.946C519.524 479.17 513.342 468.03 508.425 456.964C505.459 450.288 502.937 443.241 499.485 436.809L496.501 435.495C482.638 393.549 465.32 352.648 449.672 311.338C446.467 302.878 442.909 294.499 439.927 285.967C439.292 284.148 437.671 280.493 438.312 278.687C439.462 278.48 440.619 278.353 441.778 278.215Z"/><path fill="#2C6775" d="M522.391 417.057C522.428 417.068 522.469 417.072 522.504 417.09C523.794 417.745 523.854 418.027 524.512 419.309C524.547 421.359 523.845 423.193 522.854 424.975C519.587 430.848 514.867 433.955 508.634 435.855C507.906 435.007 507.423 434.42 507.018 433.354C506.257 431.354 506.956 428.888 507.966 427.112C511.012 421.761 516.723 418.761 522.391 417.057Z"/><path fill="#2C6775" d="M499.485 436.809C503.098 437.571 506.318 438.132 510.042 437.857C521.839 436.984 527.706 432.38 538.589 441.16C534.039 445.977 530.794 450.851 530.933 457.775Q530.939 458.277 530.971 458.778Q531.003 459.279 531.061 459.777Q531.12 460.276 531.204 460.771Q531.288 461.266 531.398 461.755Q531.509 462.245 531.644 462.729Q531.78 463.212 531.941 463.687Q532.102 464.163 532.288 464.629Q532.473 465.096 532.683 465.552Q532.893 466.008 533.126 466.452Q533.36 466.896 533.616 467.328Q533.872 467.76 534.151 468.177Q534.43 468.595 534.73 468.997Q535.03 469.399 535.351 469.785Q535.672 470.171 536.013 470.54Q536.354 470.909 536.713 471.259Q537.073 471.609 537.45 471.94C539.147 473.444 541.178 474.611 543.107 475.793C540.34 481.661 537.278 489.294 530.654 491.638C528.205 492.505 525.872 492.458 523.402 491.743L522.474 490.946C519.524 479.17 513.342 468.03 508.425 456.964C505.459 450.288 502.937 443.241 499.485 436.809Z"/></svg> 