<?xml version="1.0" encoding="utf-8" ?><!-- created by svgstack.com | Attribution is required. --><svg xmlns="http://www.w3.org/2000/svg" xmlns:xlink="http://www.w3.org/1999/xlink" width="1024" height="1024"><path fill="#B0B4AF" d="M106.451 813.416C114.011 822.024 116.764 826.115 129.337 826.91C137.612 827.433 146.207 826.307 154.535 826.303L227.763 826.325L453.149 826.418L754.302 826.533L851.231 826.997C863.878 827.036 876.746 827.788 889.359 827.3C896.708 827.016 903.558 826.238 909.262 821.057C911.698 818.845 913.605 816.023 915.523 813.363C915.504 823.126 915.671 833.214 908.268 840.684C899.921 849.108 887.507 849.29 876.417 849.441C867.448 849.564 858.417 849.02 849.428 849.02L739.984 848.821L397.919 849.003L221.045 848.997L164.359 849.089C154.416 849.077 144.117 849.536 134.209 848.742C126.721 848.141 119.508 845.975 114.073 840.493C106.408 832.761 106.331 823.505 106.451 813.416Z"/><path fill="#A3A2A1" d="M542.239 834.768C567.125 833.726 592.344 834.501 617.266 834.513C614.769 836.809 612.039 839.518 608.66 840.363C597.853 843.067 580.784 841.525 569.241 841.518L501.125 841.502L460.959 841.536C452.683 841.553 442.315 842.686 434.292 840.615C431.072 839.783 428.734 837.719 426.305 835.586C464.903 834.308 503.617 835.045 542.239 834.768Z"/><path fill="#D1DCD7" d="M204.737 587.555C199.595 581.656 195.751 576.039 194.759 568.091C193.802 560.417 194.026 552.563 194.021 544.842L194.017 513.53L193.981 411.859L194.072 270.861L194.058 227.015C194.04 218.394 193.649 209.58 194.233 200.988C194.788 192.808 197.287 185.323 203.663 179.79C207.807 176.194 212.942 174.457 218.367 174.129C231.489 173.336 244.876 173.952 258.033 173.992L326.364 174L548.266 173.987L723.57 174.009L776.679 174.048C785.516 174.005 794.622 173.197 803.417 173.958C811.438 174.651 818.42 177.66 823.605 184.021C827.71 189.058 828.92 194.693 829.341 200.992C829.939 209.945 829.571 219.13 829.572 228.11L829.594 276.115L829.636 428.481L829.524 524.713C829.505 539.264 831.03 554.719 829.208 569.145C828.151 577.514 824.489 582.887 818.598 588.581C823.43 591.38 828.336 594.206 831.432 599.046C837.188 608.045 840.94 619.7 844.961 629.593L863.985 675.733Q882.185 718.748 899.557 762.105C904.623 774.754 910.938 787.713 914.513 800.855C915.63 804.961 915.652 809.139 915.523 813.363C913.605 816.023 911.698 818.845 909.262 821.057C903.558 826.238 896.708 827.016 889.359 827.3C876.746 827.788 863.878 827.036 851.231 826.997L754.302 826.533L453.149 826.418L227.763 826.325L154.535 826.303C146.207 826.307 137.612 827.433 129.337 826.91C116.764 826.115 114.011 822.024 106.451 813.416C106.499 809.015 106.721 804.96 108.154 800.76C112.551 787.875 118.121 775.345 123.418 762.811Q133.526 738.96 143.36 714.994L173.254 642.711C178.372 630.125 182.9 617.122 188.471 604.741C190.134 601.046 191.818 596.906 194.778 594.054C197.615 591.322 201.259 589.349 204.737 587.555Z"/><path d="M510.422 181.481C511.613 181.682 512.823 181.957 513.974 182.328C516.181 183.039 518.147 184.643 519.155 186.752C519.973 188.462 520.014 190.388 519.359 192.157C518.222 195.226 515.944 196.369 513.174 197.738C511.919 197.631 510.7 197.418 509.5 197.029C507.362 196.335 505.337 194.758 504.35 192.711C503.486 190.919 503.488 188.932 504.16 187.077C505.292 183.952 507.6 182.827 510.422 181.481Z"/><path fill="#103745" d="M580.931 737.744C587.696 737.72 598.32 736.497 603.734 741.138C605.503 742.655 606.453 744.732 606.953 746.978C608.756 755.09 608.426 764.51 609.328 772.839C610.054 779.549 611.708 786.115 611.982 792.887C612.137 796.703 611.658 800.851 608.821 803.689C606.756 805.755 601.699 805.943 598.834 806.097C592.27 806.45 585.468 805.929 578.886 805.832Q562.496 805.681 546.105 805.714L446.25 806.255C437.136 806.306 427.97 806.58 418.961 804.985C416.946 803.223 415.544 801.617 414.038 799.424C413.716 787.516 417.48 754.02 420.791 743.061C422.895 741.052 424.985 738.896 427.98 738.364C432.931 737.484 438.516 737.955 443.537 737.964L470.208 738.028L536.73 738.01C551.447 738.013 566.225 738.284 580.931 737.744Z"/><path fill="#FEFEFE" d="M256.618 591.718L611.556 591.799C671.674 592.077 731.921 590.704 791.993 593.013C799.047 608.694 804.625 624.795 810.821 640.812Q827.687 685.479 846.135 729.516L769.75 729.513L358.155 730.004L236.712 730.014C221.211 730.019 205.593 730.68 190.113 730.37C187.449 730.317 183.989 730.331 181.548 729.224C180.495 728.746 180.406 728.598 180.017 727.581C180.821 718.32 186.608 707.332 189.875 698.494L203.425 661.335L216.796 624.485C220.143 615.221 223.254 605.81 227.615 596.962C236.859 592.423 246.544 592.125 256.618 591.718Z"/><path d="M743.26 706.74C749.506 706.66 760.386 705.125 765.754 708.271C767.856 709.503 769.936 712.01 770.46 714.424C770.76 715.81 770.47 717.139 769.53 718.216C767.791 720.211 764.546 719.846 762.125 719.935C754.701 720.047 742.707 721.868 736.307 717.581C734.59 716.431 732.831 714.53 732.656 712.372C732.56 711.197 733.221 710.081 734.033 709.278C736.682 706.659 739.798 706.834 743.26 706.74Z"/><path d="M691.294 605.704L722.385 605.724C724.959 610.503 725.744 614.33 725.462 619.68C719.293 620.18 698.046 621.686 694.07 618.006C691.364 615.502 691.507 609.092 691.294 605.704Z"/><path d="M339.904 605.762C345.482 605.483 366.104 604.398 370.375 606.047C371.505 606.484 372.081 606.944 372.435 608.143C373.498 611.738 370.919 616.978 369.182 619.977C362.549 620.218 342.797 622.159 338.086 618.515C336.855 617.562 336.231 616.228 336.182 614.683C336.099 612.002 338.236 607.777 339.904 605.762Z"/><path d="M651.791 605.517L686.048 605.495C687.143 609.85 688.838 614.765 688.127 619.266C677.16 620.916 665.991 620.599 655.03 619.091C652.679 614.514 652.234 610.585 651.791 605.517Z"/><path d="M378.247 605.688Q395.161 605.331 412.073 605.762C412.003 610.677 411.537 615.571 409.176 619.955C401.067 620.376 392.81 620.54 384.694 620.202C382.009 620.09 377.999 620.118 376.106 618.066C375.131 614.093 377.115 609.508 378.247 605.688Z"/><path d="M457.444 605.493C464.215 605.523 484.539 603.922 489.561 606.658C490.186 607.756 490.325 608.553 490.407 609.822C490.659 613.73 491.132 616.808 488.398 619.935C477.755 620.566 466.47 620.931 455.901 619.463C455.112 614.269 455.11 610.333 457.444 605.493Z"/><path d="M534.85 605.5C541.734 605.485 559.872 603.77 565.397 606.031C567.181 606.762 568.525 608.138 569.149 609.97C570.107 612.785 569.59 616.897 568.319 619.512C561.803 620.582 540.58 621.818 535.454 618.573C532.964 614.725 534.119 609.744 534.85 605.5Z"/><path d="M773.5 706.523Q792.139 706.096 810.779 706.497C812.952 710.713 814.699 714.87 815.86 719.476L777.695 719.496C775.633 715.39 773.415 711.223 773.5 706.523Z"/><path d="M612.522 605.5L646.499 605.507C647.268 608.117 648.091 610.831 648.47 613.528C648.725 615.334 649.05 618.094 647.876 619.613Q643.081 620.14 638.258 620.26C633.812 620.375 617.062 621.006 614.563 618.166C611.94 615.187 612.504 609.209 612.522 605.5Z"/><path d="M494.746 605.743C506.114 605.231 518.074 604.989 529.421 605.806C529.838 610.446 530.438 614.746 529.18 619.309Q524.139 619.901 519.069 620.133C514.811 620.337 497.653 621.099 495.461 618.514C493.221 615.872 494.466 608.948 494.746 605.743Z"/><path d="M573.489 605.507C578.9 605.459 602.833 604.115 605.818 606.22C607.689 607.539 608.275 609.723 608.55 611.88C608.813 613.938 609.205 617.628 607.862 619.338C598.705 621.371 583.609 620.925 574.432 618.997C572.832 614.477 572.837 610.172 573.489 605.507Z"/><path d="M417.947 605.674C423.813 605.522 446.57 604.116 450.391 606.601C451.03 607.017 451.182 607.73 451.32 608.448C452.078 612.393 451.435 616.586 449.295 619.954C442.336 620.239 422.959 622.093 417.549 618.625C416.201 617.761 415.459 616.505 415.195 614.938C414.758 612.347 416.573 607.824 417.947 605.674Z"/><path d="M297.787 605.695Q316.242 605.283 334.694 605.842C333.603 610.488 332.669 615.245 330.536 619.543C321.781 620.583 306.974 621.339 298.427 619.46C296.914 619.128 296.343 618.925 295.491 617.637C294.991 613.673 296.662 609.448 297.787 605.695Z"/><path d="M249.861 605.685L292.81 605.742C292.591 608.707 292.46 612.055 291.577 614.903C290.762 617.53 289.643 618.583 287.29 619.898C273.531 620.865 258.337 621.256 244.71 619.235C245.379 613.924 246.69 610.029 249.861 605.685Z"/><path d="M729.338 605.776C744.18 605.22 759.092 605.451 773.94 605.697C775.433 609.144 779.132 615.592 778.369 619.204L777.465 619.708C766.887 620.572 745.69 621.296 735.63 619.592C733.54 619.238 732.177 618.486 731.037 616.672C729.144 613.656 728.614 609.229 729.338 605.776Z"/><path d="M643.771 646.714C653.407 646.347 662.848 646.325 672.426 647.65C674.159 651.263 675.59 655.57 676.299 659.523C676.739 661.979 676.895 664.307 675.444 666.447C674.063 667.455 672.758 667.381 671.123 667.453C665.28 667.775 646.938 668.829 642.19 667.009C640.63 666.411 639.957 665.113 639.343 663.639C637.565 659.364 636.017 651.98 637.749 647.634C639.369 646.591 641.842 646.84 643.771 646.714Z"/><path d="M631.844 669.721C639.38 669.646 649.553 668.365 656.675 670.711C657.68 671.789 658.131 672.887 658.58 674.288C659.795 678.084 661.545 686.207 659.778 689.803C657.258 690.927 653.394 690.695 650.625 690.834C649.881 690.885 649.14 690.922 648.394 690.933C643.11 691.012 628.348 692.747 624.542 688.662C620.874 684.725 621.679 675.175 621.836 670.147L631.844 669.721Z"/><path d="M413.784 646.738C415.784 646.751 418.907 646.395 420.658 647.436C422.276 648.397 423.228 650.114 423.492 651.944C424.104 656.176 421.999 663.557 419.164 666.677C416.96 669.102 398.833 668.296 395.209 668.286C392.582 668.142 387.645 668.437 385.498 666.863C384.753 666.317 384.539 664.859 384.467 663.994C384.061 659.126 385.225 651.463 388.487 647.727C392.557 645.578 408.055 647.089 413.784 646.738Z"/><path d="M514.336 647.045C520.57 646.765 544.418 645.845 548.84 648.426C551.083 651.575 551.033 657.342 551.042 661.109C551.049 663.814 550.649 665.481 548.716 667.412C542.044 667.777 519.509 669.845 514.481 666.427C513.56 665.801 513.307 664.973 513.088 663.936C512.048 659.022 511.675 651.436 514.336 647.045Z"/><path d="M600.634 646.68C610.797 646.447 621.033 646.08 631.121 647.553C631.211 647.755 631.305 647.956 631.393 648.159C633.433 652.848 635.822 661.512 633.949 666.431C632.724 667.6 632.27 667.393 630.625 667.508C620.652 668.001 606.951 669.805 597.612 666.045C596.174 660.598 594.387 653.37 596.572 647.989C597.991 646.714 598.774 646.888 600.634 646.68Z"/><path d="M560.009 646.617C566.466 646.12 583.693 645.705 589.438 647.106C590.455 648.032 590.89 648.848 591.29 650.137C592.389 653.682 593.749 662.904 591.478 665.993C590.538 667.273 589.54 667.194 588.124 667.426C582.901 667.989 560.858 668.963 557.187 666.881C555.835 666.113 555.249 664.155 554.904 662.724C553.917 658.628 553.271 651.761 555.793 648.24C556.739 646.919 558.526 646.854 560.009 646.617Z"/><path d="M305.866 622.736C313.299 622.577 320.52 622.931 327.907 623.666C327.612 628.757 326.389 638.788 322.672 642.387C319.244 645.706 314.203 644.904 309.875 644.77C303.423 644.646 295.302 646.407 289.199 644.297C288.35 643.217 288.146 642.477 288.111 641.089C288.001 636.656 290.475 627.323 293.696 624.197C295.784 622.17 302.918 622.809 305.866 622.736Z"/><path d="M305.726 647.037C311.163 646.852 337.001 645.672 340.379 648.422C340.479 650.702 340.104 652.954 339.656 655.185C338.821 659.342 337.587 665.178 333.885 667.654C326.997 668.495 305.752 669.764 300.083 666.458C299.743 665.864 299.497 665.339 299.455 664.642C299.135 659.358 302.506 651.085 305.726 647.037Z"/><path d="M507.533 622.733C515.1 622.526 522.744 622.911 530.317 623.003C531.336 630.07 533.084 637.75 529.589 644.365L519.189 645.034C513.26 644.985 506.358 645.942 500.575 644.829C498.627 644.454 496.846 643.678 495.769 641.931C492.927 637.322 494.834 628.072 495.779 623.03Q501.659 623.019 507.533 622.733Z"/><path d="M584.323 622.735C593.649 622.536 602.588 622.576 611.867 623.614Q612.711 626.777 613.274 630.002C613.972 633.99 615.449 640.136 612.636 643.615C611.589 644.91 609.135 644.788 607.59 644.898C600.734 645.214 585.197 646.25 579.268 643.369C578.33 642.27 578.022 641.165 577.666 639.794C576.69 636.045 575.333 627.088 577.303 623.718C579.375 622.633 582.023 622.834 584.323 622.735Z"/><path d="M355.856 646.721C361.074 646.614 375.973 645.192 380.066 647.6C381.45 648.414 382.295 649.493 382.604 651.09C383.467 655.544 380.255 663.889 377.773 667.57L370.125 667.968C364.202 668.246 347.957 669.357 342.938 667.139C342.567 666.459 342.327 665.859 342.256 665.078C341.844 660.55 343.655 651.156 346.782 647.791C348.161 646.307 353.805 646.769 355.856 646.721Z"/><path d="M471.477 647.05C477.971 646.765 502.536 645.925 507.307 648.237C508.063 649.256 508.443 650.096 508.589 651.345C509.203 656.577 509.409 663.321 505.93 667.535C498.346 669.033 477.148 668.556 469.739 666.207C469.138 659.589 469.292 653.38 471.477 647.05Z"/><path d="M343.361 622.734C348.276 622.534 364.216 621.708 367.891 624.29C368.041 625.01 368.067 625.023 368.107 625.888C368.298 630.034 366.408 640.794 363.465 643.842C361.997 645.362 356.785 644.912 354.75 644.949C350.027 645.01 334.048 646.148 330.268 644.203C329.462 643.789 329.131 642.771 328.979 641.926C328.203 637.62 330.217 628.189 333.051 624.785C334.982 622.466 340.591 622.873 343.361 622.734Z"/><path d="M676.947 669.719C684.971 669.609 692.845 669.761 700.845 670.389C702.063 674.903 704.237 680.021 704.624 684.65C704.75 686.147 704.541 687.641 703.362 688.716C700.547 691.28 694.103 690.669 690.442 690.736C684.733 690.778 671.292 692.353 667.129 688.643C662.859 684.838 663.287 675.397 662.941 670.004Q669.947 669.998 676.947 669.719Z"/><path d="M464.373 622.739C473.109 622.6 481.641 622.922 490.341 623.723C490.89 626.801 491.014 629.963 491.185 633.084C491.37 636.47 491.691 640.321 489.134 642.959C486.851 645.314 483.528 644.882 480.509 644.941C475.047 645.035 459.485 646.194 455.294 643.877C454.034 643.18 453.714 641.363 453.527 640.046C453.026 636.52 452.901 626.561 455.4 623.849C456.681 622.458 462.499 622.804 464.373 622.739Z"/><path d="M422.328 622.728C431.429 622.624 440.325 622.613 449.385 623.629C449.878 628.941 450.653 638.492 446.915 642.75C445.082 644.838 442.679 644.706 440.123 644.907C434.387 645.293 417.272 646.691 412.801 643.46C412.052 642.919 411.742 641.361 411.634 640.472C411.07 635.848 412.065 627.533 414.91 623.849C417.07 622.72 419.926 622.881 422.328 622.728Z"/><path d="M384.537 622.727C390.684 622.633 402.303 621.057 407.742 624.065C408.515 625.15 408.872 625.967 408.999 627.31C409.43 631.876 407.925 639.767 404.768 643.149C402.403 645.683 396.244 644.984 392.876 645.068C387.675 645.397 376.943 646.561 372.459 644.025C371.222 643.324 370.397 642.199 370.048 640.825C368.927 636.417 371.945 626.913 374.362 623.023C377.758 623.02 381.145 622.868 384.537 622.727Z"/><path d="M621.884 622.744C631.718 622.48 642.194 621.78 651.869 623.734C651.94 623.869 652.015 624.002 652.084 624.138C652.199 624.364 652.309 624.593 652.424 624.819C652.957 625.869 653.479 626.917 653.863 628.033C655.067 631.532 657.63 639.69 655.361 642.991C654.407 644.378 653.659 644.24 652.123 644.424C642.172 645.198 629.489 646.435 620.015 643.188C619.371 641.918 618.802 640.62 618.409 639.248C617.376 635.654 615.508 627.368 617.898 624.153C618.979 622.698 620.223 622.942 621.884 622.744Z"/><path d="M458.437 669.72C466.002 669.626 475.819 668.518 482.963 670.922C483.463 671.395 483.862 671.826 484.118 672.48C485.806 676.79 484.693 684.998 482.77 689.12C480.305 691.494 475.222 691.097 471.995 691.307C465.552 691.369 456.048 692.261 449.977 690.589C448.114 690.075 446.69 689.165 445.807 687.393C443.667 683.097 445.764 674.754 447.048 670.339L458.437 669.72Z"/><path d="M406.631 670.216C414.804 669.977 432.477 668.83 439.612 670.777C440.2 671.401 440.704 671.939 441.023 672.749C442.62 676.809 441.545 684.241 439.507 688.073C438.591 689.794 437.486 690.296 435.707 690.895C428.157 691.133 409.79 692.775 403.344 690.143C402.619 689.375 402.083 688.759 401.756 687.736C400.395 683.485 401.36 676.054 403.545 672.241C404.402 670.746 405.008 670.674 406.631 670.216Z"/><path d="M661.749 622.732C668.843 622.408 684.155 621.435 690.616 623.032C692.431 623.48 693.433 624.372 694.305 626.027C696.085 629.404 698.576 638.856 696.881 642.452C696.235 643.821 695.27 643.936 693.99 644.409C685.112 644.963 673.354 646.289 664.778 644.091C663.107 643.663 661.815 643.025 660.943 641.466C659.031 638.047 656.977 628.304 658.12 624.488C659.379 623.219 660.053 623.186 661.749 622.732Z"/><path d="M541.473 622.725C546.659 622.613 567.009 621.807 570.46 623.893C571.492 624.517 572.153 626.356 572.455 627.476C573.52 631.425 574.376 639.595 571.941 642.946C571.028 644.202 569.79 644.435 568.377 644.727C562.038 645.008 541.615 646.551 536.945 642.811C533.981 637.648 535.347 628.994 535.603 623.188L541.473 622.725Z"/><path d="M319.354 670.32C326.068 669.8 348.406 668.741 353.449 671.282C353.999 672.044 354.324 672.574 354.484 673.523C355.098 677.183 352.979 685.835 350.837 688.593C349.782 689.951 348.711 690.207 347.125 690.463C339.909 691.113 320.528 692.609 314.341 690.518C313.661 690.288 313.357 690.199 313.068 689.493C311.774 686.335 313.529 680.584 314.561 677.403C315.532 674.408 316.416 671.813 319.354 670.32Z"/><path d="M363.729 670.216C369.46 670.019 392.761 669.006 396.544 670.937C397.44 671.394 397.648 671.617 397.963 672.545C399.303 676.487 397.395 685.347 395.319 688.933C394.391 690.536 393.791 690.533 392.119 690.906C386.672 691.321 362.494 692.327 358.793 689.968C357.975 689.447 357.777 689.154 357.484 688.252C356.2 684.315 358.219 675.557 360.396 672.071C361.29 670.638 362.221 670.593 363.729 670.216Z"/><path d="M437.571 646.725Q451.201 645.937 464.782 647.343C465.114 648.391 465.407 649.479 465.605 650.56C466.293 654.306 466.278 663.402 463.818 666.295C461.839 668.623 456.745 668.119 453.944 668.205C447.637 668.612 437.804 668.993 431.715 667.935C429.667 667.579 427.991 666.857 426.83 665.069C424.207 661.028 427.715 651.259 429.012 646.992L437.571 646.725Z"/><path d="M585.753 669.712C595.579 669.495 606.016 668.783 615.702 670.641C616.464 672.451 616.942 674.242 617.369 676.154C618.216 679.947 619.952 685.837 617.276 689.204C615.861 690.984 613.2 690.775 611.125 690.893C604.179 691.332 597.128 691.561 590.17 691.293C586.83 691.165 583.132 690.712 580.821 688.013C577.045 683.6 578.226 675.375 578.793 670.04L585.753 669.712Z"/><path d="M685.659 646.708C690.998 646.603 712.143 645.544 715.929 647.766C718.46 649.251 720.081 655.205 720.734 658.007C721.412 660.918 721.705 663.774 720.093 666.402C718.692 667.519 717.209 667.433 715.502 667.539C708.384 667.82 692.029 669.211 685.843 667.101C683.221 666.207 681.5 664.415 680.397 661.902C678.879 658.441 677.578 651.075 679.082 647.484C680.902 646.588 683.62 646.814 685.659 646.708Z"/><path d="M536.856 670.247C543.655 669.912 567.051 668.79 572.134 671.094C573.285 672.419 573.809 673.592 574.198 675.312C574.879 678.313 575.643 686.921 573.56 689.296C572.603 690.387 571.949 690.348 570.622 690.436C561.431 690.907 547.984 692.058 539.069 690.813C537.61 690.609 536.003 690.232 535.127 688.955C532.424 685.017 532.652 676.012 533.812 671.487C534.951 670.38 535.329 670.477 536.856 670.247Z"/><path d="M503.937 669.733C510.974 669.629 521.389 668.33 527.859 670.982C528.301 671.594 528.601 672.16 528.8 672.893C530.075 677.582 529.964 685.314 527.515 689.548C524.248 691.74 517.498 691.015 513.584 691.073C508.399 691.426 495.164 692.11 490.67 689.822C489.67 689.313 489.404 689.153 489.034 688.114C487.573 684.015 487.878 675.374 489.834 671.465C492.321 668.982 500.481 669.813 503.937 669.733Z"/><path d="M690.037 694.108C700.511 693.674 711.21 693.777 721.666 694.504C724.2 701.85 728.908 711.965 725.785 719.561C718.424 720.029 703.222 721.345 696.369 719.237C694.211 718.573 692.983 717.093 692.104 715.082C689.914 710.069 688.248 699.084 690.037 694.108Z"/><path d="M269.816 693.722C275.85 693.654 291.596 692.596 296.25 695.989C296.962 696.508 296.994 697.016 297.029 697.882C297.248 703.301 291.993 715.425 288.509 719.569C286.038 720.013 283.444 720.08 280.94 720.274C273.698 720.309 261.136 721.519 254.579 718.975C253.491 718.553 253.263 718.565 252.788 717.46C253.259 714.745 259.263 696.583 260.945 695.037C262.756 693.374 267.469 693.796 269.816 693.722Z"/><path d="M234.865 693.727C240.241 693.632 248.258 692.731 253.172 695.097C253.431 695.522 253.518 695.593 253.617 696.157C254.362 700.389 248.438 715.333 245.371 718.548C242.805 721.238 232.141 720.057 228.25 720C223.431 720.051 214.131 721.165 209.874 719.049C209.214 718.721 208.621 718.45 208.5 717.683C207.759 713.002 213.749 699.133 216.796 695.373C221.094 692.926 229.97 693.894 234.865 693.727Z"/><path d="M254.696 622.729C264.969 622.532 277.374 621.265 287.368 623.82C286.921 629.014 285.434 638.632 281.607 642.305C278.161 645.613 272.783 645.013 268.375 645.05C258.985 645.557 246.337 646.753 237.352 643.954C236.777 643.18 236.635 643.177 236.55 642.142C236.24 638.356 239.53 627.255 242.288 624.661C244.841 622.259 251.284 622.833 254.696 622.729Z"/><path d="M325.355 693.734C331.522 693.491 337.658 694.075 343.79 694.647C343.511 700.835 342.879 712.377 338.442 717.098C334.054 721.768 322.677 720.276 316.771 720.29Q311.718 720.335 306.668 720.145C304.068 720.047 299.339 720.152 297.497 718.17C296.481 711.823 301.273 700.478 303.91 694.575C311.027 694.039 318.223 693.957 325.355 693.734Z"/><path d="M671.866 693.722C674.723 693.621 677.522 693.871 680.366 694.112C682.046 696.648 682.989 699.46 683.747 702.384C684.79 706.411 687.311 715.016 685.076 718.864C679.772 720.939 659.042 719.644 651.83 719.976C649.107 719.981 646.161 720.155 643.483 719.644C641.978 719.356 640.861 718.824 640.001 717.51C637.044 712.991 635.552 700.903 636.773 695.687C640.171 692.591 665.653 694.066 671.866 693.722Z"/><path d="M281.22 646.728C285.822 646.633 293.503 645.708 297.506 648.142C297.832 648.691 297.971 649.105 297.989 649.749C298.121 654.262 296.175 662.708 293.073 665.995C290.189 669.05 251.393 667.807 245.437 667.79C239.337 667.632 233.252 667.671 227.237 666.543C227.546 661.482 229.828 653.608 233.164 649.728C234.285 648.423 235.475 647.829 237.132 647.494C241.997 646.509 247.495 646.945 252.439 646.946C262.027 646.947 271.64 647.148 281.22 646.728Z"/><path d="M722.522 647.246C745.004 646.565 767.719 646.646 790.204 647.201C792.541 652.054 797.126 661.845 797.311 666.976C784.294 667.135 771.268 666.947 758.249 667.047C747.831 667.128 737.351 668.252 727.053 666.232C724.298 660.915 722.211 653.259 722.522 647.246Z"/><path d="M246.579 670.227C258.968 669.976 271.414 670.16 283.807 670.205C292.283 670.235 302.254 669.413 310.482 671.228C311.317 671.996 311.318 671.947 311.37 673.017C311.535 676.431 308.943 686.314 306.457 688.671C302.913 692.032 289.079 690.74 283.875 690.761C277.078 690.829 270.281 690.528 263.483 690.543C254.974 690.561 226.984 692.381 220.553 689.46C220.209 688.847 220.127 688.772 219.917 688.018C219.14 685.228 222.303 675.437 224.076 673.318C228.035 668.59 240.585 670.46 246.579 670.227Z"/><path d="M704.474 622.679C714.899 622.01 725.569 622.535 736.016 622.631Q758.317 622.77 780.617 622.639C783.423 629.446 786.445 636.369 788.742 643.36L788.909 643.881L789.624 644.2L789.231 644.681C787.549 645.299 785.259 645.038 783.473 645.044C770.287 645.048 757.091 644.872 743.906 645.034C733.456 645.162 722.869 645.845 712.441 645.05C710.037 644.867 705.719 644.7 703.951 643.005C699.822 639.044 699.241 629.14 698.88 623.702C700.697 623.182 702.609 622.968 704.474 622.679Z"/><path d="M713.806 669.707C741.935 669.046 770.581 669.51 798.759 669.479C802.376 676.506 804.854 683.933 807.246 691.438L799.733 691.072C785.779 690.772 771.699 690.836 757.743 691.062C743.55 691.291 724.236 692.508 710.623 689.228C707.75 683.271 706.549 676.905 705.18 670.484C708.035 670.105 710.934 669.942 713.806 669.707Z"/><path d="M358.504 694.267C378.188 693.177 398.305 693.978 418.04 693.979L529.665 693.993L594.06 693.959C605.44 693.955 617.912 692.87 629.093 694.743C629.191 695.03 629.293 695.316 629.388 695.604C631.199 701.069 634.268 712.988 631.549 718.291C628.69 720.344 623.065 719.547 619.594 719.501L427.393 719.499L379.496 719.788C371.814 719.901 364.074 720.476 356.4 720.323C353.461 720.264 350.248 720.169 347.584 718.838C346.476 717.401 346.192 716.226 346.18 714.441C346.149 709.928 348.218 698.559 351.592 695.552C353.555 693.802 356.067 694.213 358.504 694.267Z"/><path fill="#103745" d="M228.36 201.244L627.337 201.504L749.251 201.508L786.037 201.483C792.537 201.442 799.09 201.064 805.582 201.381C808.701 201.533 811.489 202.15 813.877 204.283C817.535 207.548 817.606 213.727 817.754 218.347C817.973 225.214 817.588 232.136 817.571 239.011L817.56 285.164L817.58 433.974L817.714 519.835C817.821 534.717 819.117 550.219 817.919 565.026C817.434 571.032 816.461 575.372 812.056 579.878C807.733 584.3 802.718 586.366 796.601 586.539C786.471 587.158 776.019 586.522 765.845 586.505L703.457 586.493L507.793 586.491L336.684 586.544Q296.913 586.974 257.141 586.567C246.933 586.454 236.472 586.951 226.299 586.267C221.697 585.958 217.416 584.557 213.968 581.399C208.362 576.263 206.244 568.85 205.941 561.499C205.176 542.945 206.335 524.141 206.402 505.546L206.476 387.823L206.42 279.524C206.342 258.516 205.356 237.154 206.459 216.185C206.649 212.588 207.45 208.023 210.088 205.372C214.833 200.603 222.183 201.312 228.36 201.244Z"/><path fill="#EBBB90" d="M232.358 219.51C265.676 218.644 299.115 219.518 332.453 219.43L611.584 219.325C607.082 226.428 596.49 234.812 590.285 241.431C573.493 259.345 556.057 276.571 538.698 293.936L470.559 362.08Q418.828 413.457 367.627 465.36Q337.4 496.549 306.506 527.078L286.061 547.067C282.258 550.855 278.7 554.935 274.667 558.481C264.011 558.475 253.324 558.97 242.676 558.813C237.145 558.731 231.268 558.384 227.213 554.17C225.272 545.8 225.841 536.127 225.718 527.554C225.411 506.02 225.971 484.447 225.983 462.907L226.002 311.009L226.032 256.997C225.977 247.913 224.427 237.385 226.235 228.493C227.088 224.299 228.86 221.877 232.358 219.51Z"/><path fill="#D89970" d="M611.584 219.325C618.294 218.385 625.643 218.975 632.448 218.976L672.556 218.98L747.791 218.978C759.079 218.973 770.484 218.484 781.757 218.842C785.935 218.975 790.129 219.36 794.179 220.429C797.098 222.971 797.86 225.964 798.124 229.746C798.618 236.816 798.229 244.131 798.243 251.23L798.078 300.915L798.207 453.81L798.39 518.602C798.452 529.574 799.506 541.475 798.207 552.352C798.013 553.977 797.817 555.533 796.544 556.711C794.824 558.304 791.001 558.24 788.774 558.353C782.594 558.668 776.317 558.299 770.123 558.333Q748.596 558.539 727.069 558.506L605.966 558.514L274.667 558.481C278.7 554.935 282.258 550.855 286.061 547.067L306.506 527.078Q337.4 496.549 367.627 465.36Q418.828 413.457 470.559 362.08L538.698 293.936C556.057 276.571 573.493 259.345 590.285 241.431C596.49 234.812 607.082 226.428 611.584 219.325Z"/></svg> 